<svg width="1738" height="1692" viewBox="0 0 1738 1692" fill="none" xmlns="http://www.w3.org/2000/svg">
<g clip-path="url(#clip0)">
<g style="mix-blend-mode:color-burn" opacity="0.26">
<path d="M1409.04 566.742L1387.11 591.503L1433.71 693.298L1463.86 759.328C1463.86 759.328 1463.86 759.328 1466.61 759.328L1430.97 574.996C1428.23 574.996 1428.23 574.996 1425.49 574.996C1420 572.245 1414.52 569.494 1409.04 566.742Z" fill="#1A1A1A"/>
<path d="M890.926 13.7676C888.185 11.0164 882.702 11.0164 879.961 11.0164L841.583 66.0408L816.911 101.807L890.926 13.7676Z" fill="#1A1A1A"/>
<path d="M712.745 1097.73L737.417 1061.96C734.675 1059.21 729.193 1053.71 729.193 1048.21L619.54 1072.97L603.092 1078.47L652.436 1094.98L704.521 1111.49L712.745 1097.73Z" fill="#1A1A1A"/>
<path d="M1315.84 178.808H1340.51H1381.63C1381.63 173.306 1378.89 165.052 1376.15 159.55L1315.84 178.808Z" fill="#1A1A1A"/>
<path d="M238.494 236.596L392.008 167.815L337.182 178.82C301.545 189.825 268.649 211.835 238.494 236.596Z" fill="#1A1A1A"/>
<path d="M1406.3 200.842C1411.78 189.837 1422.75 184.334 1433.71 184.334H1436.45V181.583C1433.71 181.583 1433.71 181.583 1430.97 178.832L1321.32 181.583L1384.37 192.588L1406.3 200.842Z" fill="#1A1A1A"/>
<path d="M701.775 57.7541L784.015 8.23218C767.567 13.7346 751.119 21.9883 734.671 32.9932H731.93C718.223 27.4907 699.034 27.4907 682.586 27.4907L679.844 41.2468C690.81 43.998 696.292 49.5005 701.775 57.7541Z" fill="#1A1A1A"/>
<path d="M109.652 652.038C109.652 649.287 109.652 646.535 112.394 643.784L30.1539 605.267C19.1886 627.277 10.9646 649.287 5.48193 674.048L84.9803 660.292L109.652 657.54C109.652 654.789 109.652 654.789 109.652 652.038Z" fill="#1A1A1A"/>
<path d="M452.318 957.4C452.318 962.902 455.06 971.156 457.801 976.658L534.558 943.644L567.454 929.887L452.318 957.4Z" fill="#1A1A1A"/>
<path d="M775.794 181.557C775.794 181.557 773.053 181.557 775.794 181.557L759.346 286.103C762.088 288.855 767.57 288.855 770.312 291.606L816.914 239.333L827.88 225.577C822.397 220.074 819.656 211.821 819.656 200.816C819.656 195.313 822.397 192.562 822.397 189.811L803.208 176.055L794.984 173.303C789.501 178.806 784.018 184.308 775.794 181.557Z" fill="#1A1A1A"/>
<path d="M710.004 178.815L742.9 286.113C745.641 286.113 748.382 286.113 751.124 286.113L767.571 181.566C759.348 178.815 753.865 167.81 753.865 159.557C753.865 156.805 756.606 151.303 756.606 148.552L696.297 101.781C693.556 104.532 690.814 107.283 685.332 107.283L710.004 178.815Z" fill="#1A1A1A"/>
<g style="mix-blend-mode:color-burn">
<path d="M1474.83 927.138V877.616V819.841H1472.09C1469.35 819.841 1469.35 819.841 1466.61 819.841L1400.82 943.646L1367.92 1009.67L1450.16 968.407C1447.42 965.655 1447.42 960.153 1447.42 954.65C1450.16 940.894 1461.12 929.889 1474.83 927.138Z" fill="#1A1A1A"/>
<path d="M1340.51 500.727L1384.37 586.014L1403.56 564.005C1398.07 558.502 1395.33 550.248 1395.33 541.995C1395.33 533.741 1400.81 525.487 1406.3 519.985L1263.75 357.663L1340.51 500.727Z" fill="#1A1A1A"/>
<path d="M1082.82 1031.7L1063.63 1194.02C1069.11 1196.77 1074.6 1196.77 1080.08 1199.52C1080.08 1199.52 1082.82 1199.52 1082.82 1202.28C1085.56 1207.78 1085.56 1210.53 1088.3 1216.03L1107.49 1139L1140.39 1006.94H1110.23C1107.49 1017.94 1096.53 1028.95 1082.82 1031.7Z" fill="#1A1A1A"/>
<path d="M1699.62 938.177C1696.88 932.674 1694.14 924.42 1694.14 918.918L1691.4 954.684L1696.88 946.43L1699.62 938.177Z" fill="#1A1A1A"/>
<path d="M1112.98 313.625L1208.92 319.128H1217.15C1219.89 308.123 1225.37 302.62 1233.6 297.118L1225.37 272.357L1200.7 203.576C1197.96 203.576 1195.22 203.576 1189.73 203.576C1184.25 203.576 1178.77 200.825 1176.03 198.074L1123.94 266.854L1102.01 294.367C1110.24 299.869 1112.98 305.372 1112.98 313.625Z" fill="#1A1A1A"/>
<path d="M1170.54 1039.94L1329.54 1350.83C1332.28 1334.32 1332.28 1317.81 1335.02 1304.06C1335.02 1304.06 1335.02 1301.31 1337.77 1301.31H1340.51C1345.99 1304.06 1351.47 1306.81 1356.95 1309.56L1359.7 1304.06L1233.6 1130.73L1170.54 1039.94Z" fill="#1A1A1A"/>
<path d="M1263.75 1012.44L1271.97 1034.45L1362.44 1282.06L1356.95 1017.95L1280.2 993.185C1274.71 1004.19 1269.23 1009.69 1263.75 1012.44Z" fill="#1A1A1A"/>
<path d="M1047.19 1009.68L918.344 1026.19L792.243 1039.95V1042.7C792.243 1050.95 786.76 1059.2 781.278 1064.71L844.328 1163.75C885.448 1147.24 923.826 1119.73 951.24 1083.97H953.981C953.981 1083.97 956.722 1083.97 956.722 1086.72C973.17 1133.49 1008.81 1172 1055.41 1191.26L1066.38 1103.22L1074.6 1031.69C1060.89 1028.94 1052.67 1020.69 1047.19 1009.68Z" fill="#1A1A1A"/>
<path d="M1455.64 814.353L1422.74 841.865L1277.45 965.67C1280.2 971.172 1282.94 979.426 1282.94 984.928V987.68L1302.13 993.182L1359.69 1009.69L1381.62 965.67L1461.12 814.353C1458.38 817.104 1455.64 817.104 1455.64 814.353Z" fill="#1A1A1A"/>
<path d="M625.021 894.125L674.365 847.355C668.882 841.852 666.141 833.599 666.141 822.594C666.141 819.843 666.141 814.34 668.882 811.589L479.731 654.77L476.989 657.521L597.608 883.121C600.349 883.121 605.832 880.369 608.573 883.121C614.056 885.872 619.538 888.623 625.021 894.125Z" fill="#1A1A1A"/>
<path d="M597.605 968.43L600.347 951.923C589.381 951.923 581.157 943.669 575.675 935.416L460.539 984.938C468.763 1012.45 482.47 1039.96 498.918 1061.97L583.899 1072.98H589.381L597.605 968.43Z" fill="#1A1A1A"/>
<path d="M1699.62 1039.95L1683.17 982.173L1625.6 1138.99C1661.24 1114.23 1685.91 1081.22 1699.62 1039.95Z" fill="#1A1A1A"/>
<path d="M1370.66 1301.33L1461.12 1309.58L1483.05 1312.33C1499.5 1306.83 1515.95 1298.58 1529.66 1287.57L1403.55 1089.48L1365.18 1031.71L1370.66 1301.33Z" fill="#1A1A1A"/>
<path d="M572.933 916.141C572.933 905.136 581.157 894.131 589.381 891.38L567.451 850.111L468.763 665.78C463.28 668.531 457.798 668.531 452.315 668.531C449.574 668.531 449.574 668.531 446.832 668.531L296.06 990.424L394.747 965.663C411.195 957.409 427.643 943.653 441.35 932.648H444.091L446.832 935.399C446.832 940.902 449.574 946.404 449.574 951.907L482.47 943.653L570.192 921.643C572.933 918.892 572.933 918.892 572.933 916.141Z" fill="#1A1A1A"/>
<path d="M1696.88 643.798L1669.46 663.057L1537.88 753.847L1658.5 687.818L1710.58 657.554L1696.88 643.798Z" fill="#1A1A1A"/>
<path d="M1458.39 762.074L1381.63 597.001L1167.8 643.772C1167.8 649.274 1165.06 652.026 1165.06 654.777L1299.39 712.552L1444.68 775.83C1447.42 767.577 1452.9 764.826 1458.39 762.074Z" fill="#1A1A1A"/>
<path d="M756.604 1070.2C751.121 1070.2 748.38 1067.45 742.897 1067.45L729.191 1086.71L710.001 1114.22L773.052 1183C794.982 1180.25 814.172 1174.75 836.102 1166.49L773.052 1067.45C767.569 1070.2 762.086 1072.95 756.604 1070.2Z" fill="#1A1A1A"/>
<path d="M688.073 1149.99L671.625 1177.5C701.78 1183.01 734.675 1185.76 764.83 1183.01L707.262 1119.73L688.073 1149.99Z" fill="#1A1A1A"/>
<path d="M627.76 1130.76L652.431 1174.78C655.173 1174.78 660.655 1177.53 666.138 1177.53L701.775 1117L666.138 1106L597.605 1083.99L627.76 1130.76Z" fill="#1A1A1A"/>
<path d="M424.902 643.798L172.7 657.554C172.7 668.559 167.218 676.813 158.994 682.315L274.129 943.681L293.319 984.949L444.092 663.057C433.126 660.305 427.644 652.052 424.902 643.798Z" fill="#1A1A1A"/>
<path d="M1206.18 200.842L1236.34 286.129L1239.08 297.134C1241.82 297.134 1247.3 294.383 1250.04 297.134L1277.46 209.095C1269.23 203.593 1261.01 192.588 1261.01 184.334L1222.63 178.832C1219.89 189.837 1214.41 195.339 1206.18 200.842Z" fill="#1A1A1A"/>
<path d="M693.555 858.38C688.073 858.38 682.59 855.629 677.107 852.877L630.505 899.648C635.988 905.151 635.988 913.404 635.988 921.658C635.988 924.409 633.246 929.912 633.246 932.663L737.417 1015.2C740.158 1012.45 742.899 1009.7 748.382 1009.7L712.745 891.395L701.779 858.38C699.038 858.38 696.297 858.38 693.555 858.38Z" fill="#1A1A1A"/>
<path d="M778.535 321.902C778.535 327.404 775.794 330.156 775.794 332.907L789.501 338.409L937.532 418.195L868.999 255.873L860.775 236.614C858.034 236.614 852.551 239.365 849.81 236.614C844.327 236.614 838.844 233.863 833.362 231.112L778.535 291.639L773.053 297.141C778.535 305.395 781.277 313.648 778.535 321.902Z" fill="#1A1A1A"/>
<path d="M866.256 236.6L945.754 423.683L1027.99 354.903L1055.41 332.893C1052.67 327.391 1049.92 319.137 1049.92 313.634C1049.92 310.883 1049.92 308.132 1052.67 305.381L943.013 253.108L877.221 222.844C874.48 228.347 871.739 233.849 866.256 236.6Z" fill="#1A1A1A"/>
<path d="M1461.12 552.987C1458.38 561.24 1450.16 569.494 1441.93 572.245L1477.57 756.577C1477.57 756.577 1477.57 756.577 1480.31 756.577C1491.28 756.577 1499.5 762.079 1504.98 770.333L1609.15 698.801L1694.14 638.274L1461.12 552.987Z" fill="#1A1A1A"/>
<path d="M1326.8 1405.87L1255.52 1642.47L1241.82 1691.99L1348.73 1678.24C1337.76 1617.71 1324.06 1513.16 1326.8 1405.87Z" fill="#1A1A1A"/>
<path d="M1236.34 954.684L1143.13 671.308L1151.36 995.952L1217.15 984.947V982.196C1217.15 968.44 1225.37 960.186 1236.34 954.684Z" fill="#1A1A1A"/>
<path d="M671.624 808.834C677.107 803.331 682.589 797.829 690.813 795.077L682.589 506.199L679.848 437.419H677.107C671.624 437.419 668.883 434.668 663.4 434.668L485.214 618.999C487.955 624.502 490.696 632.756 490.696 638.258C490.696 643.76 487.955 649.263 485.214 654.765L534.558 696.034L671.624 808.834Z" fill="#1A1A1A"/>
<path d="M1510.47 965.674C1507.72 976.679 1499.5 987.684 1488.54 990.435L1513.21 1108.74L1546.1 1268.31C1576.26 1238.04 1595.45 1196.78 1598.19 1152.76C1598.19 1152.76 1598.19 1150.01 1600.93 1150.01C1603.67 1150.01 1603.67 1147.25 1606.41 1147.25C1609.15 1144.5 1611.89 1144.5 1614.64 1141.75L1625.6 1108.74L1674.95 971.177L1510.47 965.674Z" fill="#1A1A1A"/>
<path d="M1699.62 847.386C1724.29 828.128 1738 795.113 1735.26 764.85C1735.26 753.845 1732.52 745.591 1727.03 734.586V731.835C1735.26 715.328 1738 698.821 1735.26 679.562C1735.26 671.308 1732.52 663.055 1729.78 657.552L1724.29 660.303H1721.55L1699.62 847.386Z" fill="#1A1A1A"/>
<path d="M1452.9 976.684L1420 993.192L1365.18 1020.7L1398.07 1070.23L1535.14 1282.07C1537.88 1279.32 1540.62 1276.57 1543.36 1276.57L1483.05 990.44C1480.31 990.44 1480.31 990.44 1477.57 990.44C1466.6 990.44 1458.38 984.938 1452.9 976.684Z" fill="#1A1A1A"/>
<path d="M1047.18 995.921C1047.18 993.17 1047.18 993.17 1047.18 990.419L740.154 855.609L720.965 847.355C718.224 852.858 712.741 855.609 707.259 858.36L753.861 1006.93C756.602 1006.93 759.344 1006.93 762.085 1006.93C775.792 1006.93 786.757 1017.93 789.498 1031.69L1014.29 1004.17L1047.18 1001.42C1047.18 998.672 1047.18 998.672 1047.18 995.921Z" fill="#1A1A1A"/>
<path d="M699.038 795.106C704.521 795.106 710.004 797.857 712.745 800.608L877.224 569.506C869.001 564.003 866.259 552.998 866.259 541.993C866.259 539.242 869.001 533.74 869.001 530.988L753.865 459.457L701.78 426.442C696.297 431.945 690.814 434.696 685.332 437.447L690.814 566.754L699.038 795.106Z" fill="#1A1A1A"/>
<path d="M1104.75 638.293C1104.75 638.293 1104.75 635.542 1104.75 638.293L1003.32 594.274L926.567 561.259C921.084 572.264 910.119 577.767 896.412 577.767C890.93 577.767 888.188 575.015 882.706 575.015L860.775 605.279L718.226 806.118C720.967 808.869 723.709 811.62 726.45 817.123L981.393 709.825L1110.24 654.801C1107.49 649.298 1104.75 643.796 1104.75 638.293Z" fill="#1A1A1A"/>
<path d="M1285.68 209.101L1258.27 297.14C1263.75 299.891 1269.23 302.642 1271.97 305.393L1348.73 255.871L1403.56 220.105C1403.56 217.354 1403.56 214.603 1403.56 209.101V206.349L1313.09 189.842C1310.35 200.847 1299.39 209.101 1285.68 209.101Z" fill="#1A1A1A"/>
<path d="M1702.36 1026.2C1707.84 1001.44 1707.84 973.931 1702.36 949.17L1688.65 971.179L1702.36 1026.2Z" fill="#1A1A1A"/>
<path d="M1504.99 781.331C1504.99 784.082 1507.73 789.585 1504.99 792.336C1504.99 797.838 1502.25 803.341 1499.5 808.843L1620.12 916.141L1677.69 965.662L1680.43 943.653L1683.17 907.887C1677.69 894.131 1669.47 883.126 1658.5 872.121V869.37L1661.24 866.619C1672.21 863.867 1680.43 861.116 1688.66 855.614L1699.62 762.072L1710.59 665.78L1504.99 781.331Z" fill="#1A1A1A"/>
<path d="M1222.63 170.569L1261.01 176.071C1263.75 165.066 1271.97 156.813 1280.2 156.813L1271.97 85.281C1255.52 66.0224 1233.59 52.2664 1208.92 46.7639C1206.18 46.7639 1206.18 44.0127 1203.44 44.0127L1195.21 140.305C1211.66 143.057 1222.63 156.813 1222.63 170.569Z" fill="#1A1A1A"/>
<path d="M1255.53 1015.2C1252.79 1015.2 1250.04 1015.2 1244.56 1015.2C1230.86 1015.2 1219.89 1004.2 1217.15 990.44L1151.36 1004.2L1351.47 1282.07L1337.77 1238.05L1255.53 1015.2Z" fill="#1A1A1A"/>
<path d="M1189.73 140.3L1192.47 93.5291L1197.96 41.2559C1181.51 33.0022 1162.32 30.251 1143.13 33.0022H1140.39H1137.65C1118.46 19.2462 1093.79 13.7437 1069.11 16.4949C1063.63 16.4949 1058.15 19.2462 1052.67 19.2462L1093.79 63.2657L1173.29 145.802C1178.77 143.051 1184.25 140.3 1189.73 140.3Z" fill="#1A1A1A"/>
<path d="M1291.16 154.043C1302.13 154.043 1310.35 162.296 1313.09 170.55L1337.76 162.296L1373.4 151.291C1356.95 115.526 1321.31 90.7646 1282.94 90.7646L1291.16 154.043C1291.16 154.043 1288.42 154.043 1291.16 154.043Z" fill="#1A1A1A"/>
<path d="M882.704 200.832L953.978 192.578L1159.58 170.568V167.817C1159.58 159.563 1162.32 154.061 1167.8 148.558L1044.44 16.4998C1017.03 -0.0075348 984.133 -5.50998 951.237 -2.75876C948.496 -2.75876 943.013 -2.75876 940.272 -0.00753562L871.738 165.066L866.256 178.822C874.48 184.324 879.962 189.827 882.704 200.832Z" fill="#1A1A1A"/>
<path d="M800.465 162.308C800.465 165.059 800.465 167.81 797.724 167.81L825.137 187.069C830.62 178.815 841.585 173.312 852.55 176.064C855.292 176.064 858.033 176.064 858.033 176.064L912.86 41.2539L932.049 5.48804C921.084 8.23926 912.86 10.9905 901.894 16.4929H899.153L792.241 143.049C797.724 145.8 800.465 154.054 800.465 162.308Z" fill="#1A1A1A"/>
<path d="M1727.03 649.274C1724.29 646.523 1724.29 641.021 1721.55 638.27V641.021V652.025L1727.03 649.274Z" fill="#1A1A1A"/>
<path d="M1461.13 544.735L1463.87 547.486L1691.4 635.525V632.774L1694.14 616.267V613.516C1696.88 605.262 1696.88 594.257 1694.14 586.003C1691.4 569.496 1685.91 552.989 1674.95 539.233L1461.13 541.984H1458.38C1461.13 541.984 1461.13 541.984 1461.13 544.735Z" fill="#1A1A1A"/>
<path d="M707.259 77.0341C707.259 82.5366 704.518 90.7902 701.777 93.5415L762.086 140.312C767.569 137.561 773.051 134.81 778.534 137.561C781.275 137.561 781.275 137.561 784.017 137.561L874.48 5.50244C855.291 0 833.36 0 811.43 0H808.689L707.259 60.5268C707.259 68.7805 707.259 71.5317 707.259 77.0341Z" fill="#1A1A1A"/>
<path d="M1713.33 638.279V630.025C1710.58 627.274 1707.84 624.523 1705.1 621.772L1702.36 638.279L1716.07 649.284L1713.33 638.279Z" fill="#1A1A1A"/>
<path d="M1452.9 231.098L1529.66 319.137L1647.54 453.947C1636.57 423.683 1614.64 398.922 1587.23 382.415L1584.49 379.664C1584.49 376.913 1584.49 371.41 1584.49 368.659C1579 321.888 1551.59 283.371 1507.73 261.361L1504.99 258.61C1504.99 253.108 1502.25 247.605 1499.5 242.103L1455.64 222.844C1455.64 225.595 1455.64 228.347 1452.9 231.098Z" fill="#1A1A1A"/>
<path d="M1433.71 242.117V448.458V511.736C1447.42 514.488 1458.38 522.741 1461.12 536.497L1672.2 533.746C1666.72 528.244 1663.98 525.493 1658.5 522.741L1655.76 519.99C1655.76 508.985 1655.76 500.732 1655.76 489.727C1655.76 484.224 1655.76 481.473 1653.01 475.971L1636.57 459.463L1447.42 242.117C1444.67 239.366 1439.19 242.117 1433.71 242.117Z" fill="#1A1A1A"/>
<path d="M8.22326 784.106L5.48193 781.355C10.9646 806.116 19.1886 830.877 30.1539 852.887L41.1191 861.14L98.687 899.657L8.22326 784.106Z" fill="#1A1A1A"/>
<path d="M646.952 404.424C646.952 398.922 649.693 393.42 652.435 387.917L444.094 181.576C441.353 184.327 435.87 187.078 430.387 187.078L446.835 420.932L460.542 602.512C468.766 602.512 474.248 608.015 479.731 610.766L657.917 429.185C649.693 423.683 644.211 412.678 646.952 404.424Z" fill="#1A1A1A"/>
<path d="M1480.32 819.867V927.164C1496.76 927.164 1507.73 940.92 1510.47 957.428L1672.21 965.681L1546.11 855.633L1494.02 811.613C1491.28 817.115 1485.8 819.867 1480.32 819.867Z" fill="#1A1A1A"/>
<path d="M109.651 663.035L2.73959 682.294C-0.00173741 709.806 -0.00173741 734.567 2.73959 762.079V764.83L112.393 902.391L123.358 792.343L137.065 685.045C123.358 685.045 115.134 674.04 109.651 663.035Z" fill="#1A1A1A"/>
<path d="M1148.61 1290.31C1151.35 1290.31 1151.35 1293.06 1148.61 1290.31C1167.8 1326.07 1184.25 1364.59 1197.95 1405.86L1329.54 1364.59L1145.87 1009.68L1091.04 1224.28C1104.75 1251.79 1126.68 1273.8 1148.61 1290.31Z" fill="#1A1A1A"/>
<path d="M145.286 621.752C148.028 621.752 153.51 624.504 156.252 624.504L408.453 181.557C405.712 178.806 400.23 176.055 400.23 173.303L320.731 209.069L224.785 250.338C194.63 283.352 172.7 321.869 161.734 363.138V365.889C93.2011 412.66 52.0813 492.445 49.3399 574.982C49.3399 574.982 49.3399 574.982 49.3399 577.733C43.8573 585.986 41.116 591.489 35.6333 599.743L109.649 635.508L112.39 638.26C120.614 627.255 131.58 621.752 145.286 621.752Z" fill="#1A1A1A"/>
<path d="M117.873 918.918L115.132 921.669L104.167 943.679C142.545 971.191 186.406 990.45 233.009 995.952H238.491L276.87 993.201L222.043 968.44L117.873 918.918Z" fill="#1A1A1A"/>
<path d="M679.846 374.176C688.07 374.176 693.553 376.927 699.036 382.429L726.449 343.912C718.225 338.41 712.742 327.405 715.484 316.4C715.484 313.649 715.484 310.898 715.484 310.898L449.575 176.088C449.575 176.088 449.575 176.088 449.575 178.839L657.916 385.181C663.399 376.927 671.622 374.176 679.846 374.176Z" fill="#1A1A1A"/>
<path d="M540.041 1111.47C570.196 1138.98 605.833 1160.99 644.211 1172L605.833 1108.72L589.385 1081.2L540.041 1111.47Z" fill="#1A1A1A"/>
<path d="M38.3765 866.637C54.8244 894.15 76.755 918.911 101.427 938.169L104.168 929.915L109.651 916.159L38.3765 866.637Z" fill="#1A1A1A"/>
<path d="M745.64 349.38C742.898 349.38 737.416 346.629 734.674 346.629L704.52 385.146C710.002 390.648 712.744 398.902 710.002 407.155L926.567 423.663L904.636 409.907L773.053 338.375C764.829 346.629 756.605 352.131 745.64 349.38Z" fill="#1A1A1A"/>
<path d="M726.45 1042.7C726.45 1039.95 726.45 1039.95 726.45 1037.2C726.45 1031.69 729.191 1026.19 731.932 1023.44L627.762 940.904C622.279 946.406 614.055 951.909 605.831 951.909L594.866 1072.96L644.21 1061.96L726.45 1042.7Z" fill="#1A1A1A"/>
<path d="M424.906 123.793C430.388 123.793 435.871 126.544 441.354 129.295L476.991 88.0269C452.319 93.5293 430.388 104.534 411.199 118.29L413.941 123.793C416.682 123.793 422.165 123.793 424.906 123.793Z" fill="#1A1A1A"/>
<path d="M548.261 115.554L644.207 82.539C644.207 79.7878 641.466 74.2854 644.207 71.5342C644.207 55.0268 657.914 44.022 674.362 41.2707V27.5146C668.879 27.5146 663.397 27.5146 660.655 27.5146C614.053 33.0171 572.933 49.5244 534.554 77.0366C534.554 77.0366 534.554 77.0366 531.813 77.0366C526.33 77.0366 520.848 77.0366 515.365 77.0366C507.141 77.0366 496.176 79.7878 487.952 82.539L446.832 132.061C449.573 134.812 449.573 137.563 452.315 140.315L548.261 115.554Z" fill="#1A1A1A"/>
<path d="M501.659 1070.23C509.883 1083.99 520.848 1094.99 531.813 1106L578.416 1081.24L551.003 1078.49L501.659 1070.23Z" fill="#1A1A1A"/>
<path d="M180.926 751.091L153.513 685.062C150.772 685.062 148.03 687.813 145.289 687.813L139.806 726.33L120.617 910.662L178.185 935.423L285.097 984.945L180.926 751.091Z" fill="#1A1A1A"/>
<path d="M1143.13 976.691L1137.65 685.062L1093.79 968.437C1104.75 973.94 1112.98 984.945 1112.98 995.95H1126.68H1145.87L1143.13 976.691Z" fill="#1A1A1A"/>
<path d="M1091.04 346.637L1099.27 396.159L1134.9 608.003C1137.65 608.003 1137.65 608.003 1140.39 608.003C1143.13 608.003 1145.87 608.003 1145.87 608.003L1222.63 379.652L1230.85 354.891C1219.89 349.389 1214.4 338.384 1214.4 327.379L1112.97 321.876C1110.23 332.881 1102.01 343.886 1091.04 346.637Z" fill="#1A1A1A"/>
<path d="M882.706 217.349L1055.41 299.885C1060.89 288.881 1071.86 283.378 1085.56 283.378C1091.05 283.378 1096.53 286.129 1099.27 288.881L1170.55 195.339C1165.06 189.837 1162.32 184.334 1162.32 178.832L885.447 206.344V209.095C882.706 211.846 882.706 214.598 882.706 217.349Z" fill="#1A1A1A"/>
<path d="M172.702 649.262L364.594 638.258L424.904 635.506V632.755C424.904 616.248 438.61 605.243 452.317 602.492L422.162 189.809H419.421C416.68 189.809 413.938 189.809 411.197 187.058L161.736 630.004C167.219 632.755 172.702 641.009 172.702 649.262Z" fill="#1A1A1A"/>
<path d="M945.755 434.668L915.601 517.204C926.566 522.707 934.79 536.463 932.048 547.468C932.048 550.219 932.048 552.97 932.048 552.97L1110.23 627.253C1110.23 624.502 1112.98 621.751 1112.98 618.999L1110.23 616.248L945.755 434.668Z" fill="#1A1A1A"/>
<path d="M1115.72 616.248C1118.46 613.497 1123.94 610.746 1126.68 607.994L1082.82 346.629C1080.08 346.629 1080.08 346.629 1077.34 346.629C1069.11 346.629 1063.63 341.126 1058.15 338.375L948.495 429.165L1112.97 613.497L1115.72 616.248Z" fill="#1A1A1A"/>
<path d="M452.318 167.799L718.227 302.609C720.968 297.106 726.451 291.604 734.675 288.852L712.744 220.072L677.107 107.272C674.366 107.272 674.366 107.272 671.624 107.272C660.659 107.272 652.435 99.0183 646.953 90.7646L455.06 151.291C455.06 154.043 455.06 156.794 455.06 159.545C455.06 162.296 455.06 165.048 452.318 167.799Z" fill="#1A1A1A"/>
<path d="M1406.3 228.328L1274.71 310.864C1277.45 316.367 1280.2 321.869 1277.45 330.123C1277.45 338.377 1274.71 343.879 1269.23 349.382L1362.43 453.928L1414.52 511.704C1417.26 508.952 1422.74 508.952 1425.49 508.952V242.084C1417.26 239.333 1411.78 233.83 1406.3 228.328Z" fill="#1A1A1A"/>
<path d="M1329.54 1375.61L1266.49 1392.12L1200.7 1411.38C1225.37 1488.41 1236.33 1576.45 1239.08 1672.74L1329.54 1375.61Z" fill="#1A1A1A"/>
<path d="M874.482 525.475C879.965 517.221 890.93 511.718 901.895 514.47C904.637 514.47 904.636 514.47 907.378 514.47L937.532 431.933L707.261 415.426C707.261 418.177 704.52 418.177 704.52 420.928L874.482 525.475Z" fill="#1A1A1A"/>
<path d="M1239.08 357.663L1206.18 453.956L1154.09 613.527C1162.32 619.029 1167.8 627.283 1170.54 638.288L1381.63 591.517L1329.54 492.473L1258.27 357.663C1255.52 360.414 1250.04 360.414 1244.56 360.414C1241.82 357.663 1241.82 357.663 1239.08 357.663Z" fill="#1A1A1A"/>
<path d="M825.14 781.357L729.193 822.625C729.193 825.377 729.193 828.128 729.193 830.879C729.193 836.382 726.452 839.133 726.452 841.884L1049.93 982.196H1052.67C1058.15 971.191 1071.86 962.938 1082.82 965.689H1085.57L1132.17 668.557C1126.69 665.806 1118.46 663.055 1115.72 657.552L825.14 781.357Z" fill="#1A1A1A"/>
<path d="M1441.93 786.852C1441.93 784.101 1441.93 784.101 1441.93 781.35L1162.32 660.296C1159.58 663.047 1154.1 668.55 1148.61 668.55L1211.66 863.886L1239.08 949.174C1241.82 949.174 1244.56 949.174 1247.3 949.174C1255.52 949.174 1261.01 951.925 1266.49 957.428L1376.14 866.637L1447.42 808.862C1444.68 803.359 1441.93 795.106 1441.93 786.852Z" fill="#1A1A1A"/>
</g>
</g>
</g>
<defs>
<clipPath id="clip0">
<rect width="1738" height="1692" fill="white"/>
</clipPath>
</defs>
</svg>
