<svg width="67" height="59" viewBox="0 0 67 59" fill="none" xmlns="http://www.w3.org/2000/svg">
<rect width="67" height="59" fill="#E5E5E5"/>
<rect x="-253" y="-521" width="375" height="812" fill="white"/>
<rect x="-217" y="-38" width="302" height="148" rx="3" fill="white" stroke="#C4C4C4" stroke-width="2"/>
<rect x="1.5" y="1.5" width="64" height="56" rx="11.5" stroke="#888888" stroke-opacity="0.75" stroke-width="3" stroke-dasharray="5 5"/>
<path d="M49.0875 46.9332H18.9136C17.1562 46.9332 15.8052 46.2552 15.2058 45.0709C14.6076 43.8883 14.8687 42.4141 15.9234 41.0256L21.3125 33.9418C23.2738 31.3575 27.0736 31.3512 29.0479 33.9322L31.3494 36.9345C32.1511 37.9787 33.3507 37.9807 34.1612 36.9369L38.6352 31.1533C40.6614 28.5268 44.3802 28.6768 46.1946 31.4513L52.3913 40.9375C53.3306 42.3742 53.4965 43.8783 52.8426 45.0646C52.1887 46.2532 50.8207 46.9332 49.0875 46.9332ZM18.0018 43.7284C18.0381 43.7284 18.3199 43.8604 18.914 43.8604H49.0875C49.7519 43.8604 50.0635 43.6825 50.1119 43.5967C50.1583 43.5106 50.1402 43.1564 49.7801 42.6063L43.583 33.1201C42.8827 32.0496 41.8825 32.0117 41.1063 33.018L36.6311 38.8032C34.646 41.3758 30.8449 41.3639 28.8719 38.7912L26.5679 35.7865C25.7687 34.7383 24.5929 34.7403 23.7997 35.7889L18.4095 42.872C18.0422 43.3542 17.9885 43.6605 17.9994 43.728C17.9998 43.7284 18.0006 43.7284 18.0018 43.7284Z" fill="#888888" fill-opacity="0.25"/>
<path d="M31.9716 29.2064C28.3666 29.2064 25.4346 26.3094 25.4346 22.7487C25.4346 19.1857 28.367 16.2871 31.9716 16.2871C35.5777 16.2871 38.5122 19.1857 38.5122 22.7487C38.5122 26.3094 35.5777 29.2064 31.9716 29.2064ZM31.9716 19.36C30.0813 19.36 28.5442 20.8804 28.5442 22.7487C28.5442 24.615 30.0817 26.1335 31.9716 26.1335C33.8634 26.1335 35.4025 24.615 35.4025 22.7487C35.4025 20.88 33.863 19.36 31.9716 19.36Z" fill="#888888" fill-opacity="0.25"/>
</svg>
