<svg width="20" height="27" viewBox="0 0 20 27" fill="none" xmlns="http://www.w3.org/2000/svg">
<g filter="url(#filter0_i)">
<rect x="3.27515" y="3" width="16.1866" height="21.852" transform="rotate(0.721486 3.27515 3)" fill="#399682"/>
</g>
<rect x="3.76881" y="3.50626" width="15.1866" height="20.852" transform="rotate(0.721486 3.76881 3.50626)" stroke="#F6F5F3"/>
<g filter="url(#filter1_i)">
<rect y="3.15234" width="16.1966" height="21.8655" transform="rotate(-0.537157 0 3.15234)" fill="#399682"/>
</g>
<rect x="0.504666" y="3.64763" width="15.1966" height="20.8655" transform="rotate(-0.537157 0.504666 3.64763)" stroke="#F6F5F3"/>
<rect x="0.500061" y="0.5" width="19" height="26" fill="#4CB69F" stroke="#F6F5F3"/>
<path d="M10.0121 6.84C10.6921 6.84 11.2871 6.975 11.7971 7.245C12.3171 7.515 12.7221 7.85 13.0121 8.25C13.3121 8.65 13.5521 9.12 13.7321 9.66C13.9121 10.2 14.0321 10.7 14.0921 11.16C14.1521 11.61 14.1821 12.065 14.1821 12.525C14.1821 13.015 14.1521 13.495 14.0921 13.965C14.0321 14.425 13.9071 14.92 13.7171 15.45C13.5371 15.98 13.3021 16.445 13.0121 16.845C12.7221 17.235 12.3171 17.56 11.7971 17.82C11.2871 18.08 10.7021 18.21 10.0421 18.21C9.34207 18.21 8.72707 18.08 8.19707 17.82C7.67707 17.55 7.26707 17.22 6.96707 16.83C6.67707 16.44 6.43707 15.975 6.24707 15.435C6.06707 14.895 5.94707 14.395 5.88707 13.935C5.83707 13.475 5.81207 13 5.81207 12.51C5.81207 12.06 5.83707 11.615 5.88707 11.175C5.94707 10.735 6.06707 10.245 6.24707 9.705C6.42707 9.155 6.66207 8.68 6.95207 8.28C7.24207 7.87 7.64707 7.53 8.16707 7.26C8.69707 6.98 9.31207 6.84 10.0121 6.84ZM9.98207 15.54C11.0121 15.54 11.5271 14.56 11.5271 12.6V12.51C11.5271 10.5 11.0171 9.495 9.99707 9.495C8.97707 9.495 8.46707 10.505 8.46707 12.525C8.46707 14.535 8.97207 15.54 9.98207 15.54Z" fill="#F6F5F3"/>
<defs>
<filter id="filter0_i" x="3" y="3" width="20.4605" height="26.054" filterUnits="userSpaceOnUse" color-interpolation-filters="sRGB">
<feFlood flood-opacity="0" result="BackgroundImageFix"/>
<feBlend mode="normal" in="SourceGraphic" in2="BackgroundImageFix" result="shape"/>
<feColorMatrix in="SourceAlpha" type="matrix" values="0 0 0 0 0 0 0 0 0 0 0 0 0 0 0 0 0 0 127 0" result="hardAlpha"/>
<feOffset dx="5" dy="4"/>
<feGaussianBlur stdDeviation="2"/>
<feComposite in2="hardAlpha" operator="arithmetic" k2="-1" k3="1"/>
<feColorMatrix type="matrix" values="0 0 0 0 0 0 0 0 0 0 0 0 0 0 0 0 0 0 0.25 0"/>
<feBlend mode="normal" in2="shape" result="effect1_innerShadow"/>
</filter>
<filter id="filter1_i" x="-4" y="3" width="20.4009" height="26.0164" filterUnits="userSpaceOnUse" color-interpolation-filters="sRGB">
<feFlood flood-opacity="0" result="BackgroundImageFix"/>
<feBlend mode="normal" in="SourceGraphic" in2="BackgroundImageFix" result="shape"/>
<feColorMatrix in="SourceAlpha" type="matrix" values="0 0 0 0 0 0 0 0 0 0 0 0 0 0 0 0 0 0 127 0" result="hardAlpha"/>
<feOffset dx="-6" dy="5"/>
<feGaussianBlur stdDeviation="2"/>
<feComposite in2="hardAlpha" operator="arithmetic" k2="-1" k3="1"/>
<feColorMatrix type="matrix" values="0 0 0 0 0 0 0 0 0 0 0 0 0 0 0 0 0 0 0.25 0"/>
<feBlend mode="normal" in2="shape" result="effect1_innerShadow"/>
</filter>
</defs>
</svg>
