<svg width="375" height="187" viewBox="0 0 375 187" fill="none" xmlns="http://www.w3.org/2000/svg">
<g clip-path="url(#clip0)">
<g style="mix-blend-mode:color-burn" opacity="0.26">
<path d="M332.501 149.055L326.734 155.567L338.988 182.339L346.917 199.705C346.917 199.705 346.917 199.705 347.638 199.705L338.267 151.225C337.547 151.225 337.547 151.225 336.826 151.225C335.384 150.502 333.943 149.778 332.501 149.055Z" fill="#1A1A1A"/>
<path d="M196.266 3.62201C195.545 2.89844 194.103 2.89844 193.382 2.89844L183.291 17.37L176.803 26.7765L196.266 3.62201Z" fill="#1A1A1A"/>
<path d="M307.994 47.0279H314.481H325.293C325.293 45.5808 324.573 43.41 323.852 41.9629L307.994 47.0279Z" fill="#1A1A1A"/>
<path d="M24.7112 62.2261L65.0771 44.1367L50.6607 47.031C41.29 49.9253 32.6402 55.714 24.7112 62.2261Z" fill="#1A1A1A"/>
<path d="M331.781 52.8218C333.222 49.9275 336.105 48.4804 338.989 48.4804H339.71V47.7568C338.989 47.7568 338.989 47.7568 338.268 47.0332L309.435 47.7568L326.014 50.6511L331.781 52.8218Z" fill="#1A1A1A"/>
<path d="M146.529 15.1904L168.153 2.16602C163.828 3.61317 159.504 5.7839 155.179 8.67821H154.458C150.854 7.23106 145.808 7.23106 141.483 7.23106L140.762 10.8489C143.645 11.5725 145.087 13.0197 146.529 15.1904Z" fill="#1A1A1A"/>
<path d="M165.992 47.7508C165.992 47.7508 165.271 47.7508 165.992 47.7508L161.667 75.2467C162.388 75.9703 163.829 75.9703 164.55 76.6939L176.804 62.9459L179.688 59.328C178.246 57.8809 177.525 55.7102 177.525 52.8158C177.525 51.3687 178.246 50.6451 178.246 49.9215L173.2 46.3037L171.038 45.5801C169.596 47.0272 168.154 48.4744 165.992 47.7508Z" fill="#1A1A1A"/>
<path d="M148.692 47.0297L157.342 75.2492C158.063 75.2492 158.784 75.2492 159.505 75.2492L163.83 47.7533C161.667 47.0297 160.226 44.1354 160.226 41.9647C160.226 41.2411 160.946 39.7939 160.946 39.0703L145.088 26.7695C144.368 27.4931 143.647 28.2167 142.205 28.2167L148.692 47.0297Z" fill="#1A1A1A"/>
<g style="mix-blend-mode:color-burn">
<path d="M314.48 131.692L326.013 154.123L331.059 148.335C329.618 146.888 328.897 144.717 328.897 142.546C328.897 140.375 330.338 138.205 331.78 136.757L294.297 94.0664L314.48 131.692Z" fill="#1A1A1A"/>
<path d="M254.653 82.4859L279.881 83.9331H282.044C282.765 81.0388 284.206 79.5916 286.369 78.1445L284.206 71.6323L277.719 53.5429C276.998 53.5429 276.277 53.5429 274.836 53.5429C273.394 53.5429 271.952 52.8193 271.232 52.0957L257.536 70.1851L251.77 77.4209C253.932 78.8681 254.653 80.3152 254.653 82.4859Z" fill="#1A1A1A"/>
<path d="M126.347 235.158L139.321 222.857C137.88 221.41 137.159 219.24 137.159 216.345C137.159 215.622 137.159 214.174 137.88 213.451L88.1432 172.207L87.4224 172.931L119.138 232.264C119.859 232.264 121.301 231.54 122.022 232.264C123.463 232.987 124.905 233.711 126.347 235.158Z" fill="#1A1A1A"/>
<path d="M112.65 240.947C112.65 238.053 114.813 235.158 116.975 234.435L111.209 223.581L85.2591 175.102C83.8174 175.825 82.3758 175.825 80.9342 175.825C80.2133 175.825 80.2133 175.825 79.4925 175.825L39.8474 260.484L65.7969 253.971C70.1219 251.801 74.4468 248.183 78.0509 245.289H78.7717L79.4925 246.012C79.4925 247.459 80.2133 248.906 80.2133 250.354L88.8632 248.183L111.929 242.394C112.65 241.671 112.65 241.671 112.65 240.947Z" fill="#1A1A1A"/>
<path d="M408.187 169.32L400.979 174.385L366.379 198.263L398.095 180.898L411.791 172.938L408.187 169.32Z" fill="#1A1A1A"/>
<path d="M345.476 200.428L325.293 157.014L269.069 169.314C269.069 170.762 268.349 171.485 268.349 172.209L303.669 187.404L341.872 204.046C342.593 201.875 344.035 201.152 345.476 200.428Z" fill="#1A1A1A"/>
<path d="M73.7262 169.32L7.41074 172.938C7.41074 175.833 5.9691 178.003 3.80664 179.45L34.0811 248.19L39.1268 259.044L78.7719 174.385C75.8887 173.662 74.447 171.491 73.7262 169.32Z" fill="#1A1A1A"/>
<path d="M279.161 52.8218L287.09 75.2527L287.811 78.147C288.532 78.147 289.973 77.4234 290.694 78.147L297.902 54.9926C295.74 53.5454 293.577 50.6511 293.577 48.4804L283.486 47.0332C282.765 49.9275 281.323 51.3747 279.161 52.8218Z" fill="#1A1A1A"/>
<path d="M166.713 84.6612C166.713 86.1084 165.992 86.832 165.992 87.5556L169.596 89.0027L208.52 109.986L190.5 67.2954L188.337 62.2304C187.616 62.2304 186.175 62.9539 185.454 62.2304C184.012 62.2304 182.571 61.5068 181.129 60.7832L166.713 76.7019L165.271 78.1491C166.713 80.3198 167.433 82.4905 166.713 84.6612Z" fill="#1A1A1A"/>
<path d="M189.778 62.2273L210.682 111.43L232.307 93.3411L239.515 87.5525C238.794 86.1053 238.073 83.9346 238.073 82.4874C238.073 81.7638 238.073 81.0403 238.794 80.3167L209.961 66.5687L192.662 58.6094C191.941 60.0565 191.22 61.5037 189.778 62.2273Z" fill="#1A1A1A"/>
<path d="M346.196 145.438C345.476 147.608 343.313 149.779 341.151 150.503L350.521 198.982C350.521 198.982 350.521 198.982 351.242 198.982C354.125 198.982 356.288 200.429 357.73 202.6L385.121 183.787L407.466 167.868L346.196 145.438Z" fill="#1A1A1A"/>
<path d="M287.089 251.085L262.582 176.557L264.744 261.939L282.044 259.044V258.321C282.044 254.703 284.206 252.532 287.089 251.085Z" fill="#1A1A1A"/>
<path d="M138.601 212.727C140.042 211.28 141.484 209.833 143.646 209.109L141.484 133.133L140.763 115.044H140.042C138.601 115.044 137.88 114.32 136.438 114.32L89.585 162.8C90.3058 164.247 91.0266 166.418 91.0266 167.865C91.0266 169.312 90.3058 170.759 89.585 172.206L102.56 183.06L138.601 212.727Z" fill="#1A1A1A"/>
<path d="M145.809 209.116C147.251 209.116 148.692 209.839 149.413 210.563L192.662 149.782C190.5 148.335 189.779 145.441 189.779 142.547C189.779 141.823 190.5 140.376 190.5 139.652L160.226 120.839L146.53 112.156C145.088 113.603 143.647 114.327 142.205 115.051L143.647 149.059L145.809 209.116Z" fill="#1A1A1A"/>
<path d="M252.49 167.873C252.49 167.873 252.49 167.15 252.49 167.873L225.82 156.296L205.637 147.613C204.195 150.508 201.312 151.955 197.708 151.955C196.266 151.955 195.546 151.231 194.104 151.231L188.337 159.191L150.855 212.012C151.576 212.735 152.296 213.459 153.017 214.906L220.053 186.686L253.932 172.215C253.211 170.768 252.49 169.321 252.49 167.873Z" fill="#1A1A1A"/>
<path d="M300.064 54.9947L292.856 78.1492C294.298 78.8728 295.739 79.5964 296.46 80.3199L316.643 67.2955L331.059 57.889C331.059 57.1655 331.059 56.4419 331.059 54.9947V54.2712L307.272 49.9297C306.552 52.824 303.668 54.9947 300.064 54.9947Z" fill="#1A1A1A"/>
<path d="M357.73 205.492C357.73 206.215 358.451 207.663 357.73 208.386C357.73 209.833 357.009 211.28 356.288 212.728L388.004 240.947L403.142 253.971L403.862 248.183L404.583 238.776C403.142 235.158 400.979 232.264 398.096 229.37V228.646L398.817 227.923C401.7 227.199 403.862 226.476 406.025 225.028L408.908 200.427L411.792 175.102L357.73 205.492Z" fill="#1A1A1A"/>
<path d="M283.485 44.8607L293.577 46.3079C294.297 43.4136 296.46 41.2428 298.622 41.2428L296.46 22.4298C292.135 17.3648 286.368 13.7469 279.881 12.2997C279.16 12.2997 279.16 11.5762 278.439 11.5762L276.277 36.9014C280.602 37.625 283.485 41.2428 283.485 44.8607Z" fill="#1A1A1A"/>
<path d="M274.835 36.9001L275.556 24.5993L276.998 10.8513C272.673 8.68056 267.627 7.95698 262.582 8.68056H261.861H261.14C256.094 5.06267 249.607 3.61552 243.119 4.3391C241.678 4.3391 240.236 5.06267 238.794 5.06267L249.607 16.6399L270.511 38.3472C271.952 37.6237 273.394 36.9001 274.835 36.9001Z" fill="#1A1A1A"/>
<path d="M301.505 40.5153C304.389 40.5153 306.551 42.6861 307.272 44.8568L313.759 42.6861L323.13 39.7917C318.805 30.3852 309.434 23.873 299.343 23.873L301.505 40.5153C300.784 40.5153 301.505 40.5153 301.505 40.5153Z" fill="#1A1A1A"/>
<path d="M194.103 52.82L212.845 50.6493L266.906 44.8607V44.1371C266.906 41.9664 267.627 40.5192 269.069 39.0721L236.632 4.34037C229.423 -0.00108957 220.774 -1.44824 212.124 -0.724667C211.403 -0.724667 209.961 -0.724667 209.24 -0.00108975L191.22 43.4135L189.778 47.0314C191.941 48.4786 193.382 49.9257 194.103 52.82Z" fill="#1A1A1A"/>
<path d="M172.479 42.6873C172.479 43.4108 172.479 44.1344 171.758 44.1344L178.967 49.1995C180.408 47.0287 183.291 45.5816 186.175 46.3052C186.896 46.3052 187.616 46.3052 187.616 46.3052L202.033 10.8499L207.078 1.44336C204.195 2.16694 202.033 2.89051 199.149 4.33767H198.429L170.317 37.6222C171.758 38.3458 172.479 40.5165 172.479 42.6873Z" fill="#1A1A1A"/>
<path d="M346.197 143.267L346.918 143.991L406.746 167.145V166.422L407.467 162.08V161.357C408.187 159.186 408.187 156.292 407.467 154.121C406.746 149.78 405.304 145.438 402.421 141.82L346.197 142.544H345.476C346.197 142.544 346.197 142.544 346.197 143.267Z" fill="#1A1A1A"/>
<path d="M147.971 20.2602C147.971 21.7073 147.25 23.878 146.529 24.6016L162.387 36.9024C163.829 36.1789 165.271 35.4553 166.712 36.1789C167.433 36.1789 167.433 36.1789 168.154 36.1789L191.941 1.44715C186.895 0 181.129 0 175.362 0H174.641L147.971 15.9187C147.971 18.0894 147.971 18.813 147.971 20.2602Z" fill="#1A1A1A"/>
<path d="M344.035 60.7801L364.218 83.9346L395.213 119.39C392.33 111.431 386.563 104.918 379.355 100.577L378.634 99.8533C378.634 99.1297 378.634 97.6825 378.634 96.959C377.192 84.6581 369.984 74.5281 358.451 68.7395L357.73 68.0159C357.73 66.5687 357.009 65.1216 356.289 63.6744L344.755 58.6094C344.755 59.333 344.755 60.0565 344.035 60.7801Z" fill="#1A1A1A"/>
<path d="M338.988 63.679V117.947V134.59C342.592 135.313 345.475 137.484 346.196 141.102L401.699 140.378C400.258 138.931 399.537 138.207 398.095 137.484L397.374 136.76C397.374 133.866 397.374 131.695 397.374 128.801C397.374 127.354 397.374 126.63 396.654 125.183L392.329 120.842L342.592 63.679C341.871 62.9554 340.43 63.679 338.988 63.679Z" fill="#1A1A1A"/>
<path d="M132.113 106.366C132.113 104.918 132.834 103.471 133.555 102.024L78.7726 47.7559C78.0517 48.4794 76.6101 49.203 75.1685 49.203L79.4934 110.707L83.0975 158.463C85.2599 158.463 86.7016 159.91 88.1432 160.634L134.997 112.878C132.834 111.431 131.392 108.536 132.113 106.366Z" fill="#1A1A1A"/>
<path d="M0.202436 163.523C0.923256 163.523 2.36489 164.247 3.08571 164.247L69.4012 47.7508C68.6804 47.0272 67.2387 46.3037 67.2387 45.5801L46.3349 54.9866L21.1062 65.8402C13.1772 74.5232 7.41064 84.6533 4.52736 95.5069V96.2305C-13.4931 108.531 -24.3054 129.515 -25.0263 151.222C-25.0263 151.222 -25.0263 151.222 -25.0263 151.946C-26.4679 154.117 -27.1887 155.564 -28.6304 157.735L-9.16823 167.141L-8.44741 167.865C-6.28495 164.97 -3.40166 163.523 0.202436 163.523Z" fill="#1A1A1A"/>
<path d="M140.763 98.4101C142.925 98.4101 144.367 99.1336 145.809 100.581L153.017 90.4507C150.854 89.0036 149.413 86.1092 150.133 83.2149C150.133 82.4914 150.133 81.7678 150.133 81.7678L80.2139 46.3125C80.2139 46.3125 80.2139 46.3125 80.2139 47.0361L134.996 101.304C136.438 99.1336 138.6 98.4101 140.763 98.4101Z" fill="#1A1A1A"/>
<path d="M158.063 91.8884C157.342 91.8884 155.9 91.1649 155.18 91.1649L147.25 101.295C148.692 102.742 149.413 104.913 148.692 107.084L205.637 111.425L199.87 107.807L165.271 88.9941C163.109 91.1649 160.946 92.612 158.063 91.8884Z" fill="#1A1A1A"/>
<path d="M73.7271 32.5589C75.1688 32.5589 76.6104 33.2824 78.0521 34.006L87.4227 23.1523C80.9354 24.5995 75.1688 27.4938 70.123 31.1117L70.8439 32.5589C71.5647 32.5589 73.0063 32.5589 73.7271 32.5589Z" fill="#1A1A1A"/>
<path d="M106.163 30.3908L131.392 21.7079C131.392 20.9843 130.671 19.5371 131.392 18.8136C131.392 14.4721 134.996 11.5778 139.321 10.8542V7.23633C137.879 7.23633 136.437 7.23633 135.717 7.23633C123.463 8.68348 112.65 13.0249 102.559 20.2607C102.559 20.2607 102.559 20.2607 101.838 20.2607C100.396 20.2607 98.9548 20.2607 97.5132 20.2607C95.3507 20.2607 92.4674 20.9843 90.305 21.7079L79.4927 34.7323C80.2135 35.4558 80.2135 36.1794 80.9343 36.903L106.163 30.3908Z" fill="#1A1A1A"/>
<path d="M9.57362 197.54L2.36542 180.174C1.6446 180.174 0.923777 180.897 0.202957 180.897L-1.23868 191.027L-6.28442 239.507L8.8528 246.019L36.9648 259.044L9.57362 197.54Z" fill="#1A1A1A"/>
<path d="M262.581 256.873L261.14 180.174L249.607 254.702C252.49 256.149 254.652 259.044 254.652 261.938H258.257H263.302L262.581 256.873Z" fill="#1A1A1A"/>
<path d="M248.885 91.1665L251.048 104.191L260.418 159.906C261.139 159.906 261.139 159.906 261.86 159.906C262.581 159.906 263.302 159.906 263.302 159.906L283.485 99.8494L285.647 93.3372C282.764 91.8901 281.322 88.9958 281.322 86.1014L254.652 84.6543C253.931 87.5486 251.769 90.4429 248.885 91.1665Z" fill="#1A1A1A"/>
<path d="M194.104 57.1633L239.515 78.8706C240.957 75.9763 243.84 74.5291 247.444 74.5291C248.886 74.5291 250.328 75.2527 251.049 75.9763L269.79 51.3747C268.348 49.9275 267.627 48.4804 267.627 47.0332L194.825 54.269V54.9926C194.104 55.7161 194.104 56.4397 194.104 57.1633Z" fill="#1A1A1A"/>
<path d="M7.41111 170.758L57.8685 167.864L73.7266 167.14V166.417C73.7266 162.075 77.3307 159.181 80.9348 158.457L73.0058 49.9208H72.2849C71.5641 49.9208 70.8433 49.9208 70.1225 49.1973L4.52783 165.693C5.96947 166.417 7.41111 168.588 7.41111 170.758Z" fill="#1A1A1A"/>
<path d="M210.682 114.32L202.753 136.028C205.637 137.475 207.799 141.093 207.078 143.987C207.078 144.711 207.078 145.434 207.078 145.434L253.932 164.971C253.932 164.247 254.652 163.524 254.652 162.8L253.932 162.076L210.682 114.32Z" fill="#1A1A1A"/>
<path d="M255.373 162.075C256.094 161.352 257.535 160.628 258.256 159.905L246.723 91.1649C246.002 91.1649 246.002 91.1649 245.281 91.1649C243.119 91.1649 241.677 89.7177 240.236 88.9941L211.403 112.872L254.652 161.352L255.373 162.075Z" fill="#1A1A1A"/>
<path d="M80.9353 44.1332L150.855 79.5885C151.576 78.1413 153.017 76.6942 155.18 75.9706L149.413 57.8812L140.043 28.2145C139.322 28.2145 139.322 28.2145 138.601 28.2145C135.718 28.2145 133.555 26.0438 132.114 23.873L81.6561 39.7917C81.6561 40.5153 81.6561 41.2389 81.6561 41.9625C81.6561 42.6861 81.6561 43.4096 80.9353 44.1332Z" fill="#1A1A1A"/>
<path d="M331.78 60.0508L297.18 81.7581C297.901 83.2053 298.622 84.6524 297.901 86.8231C297.901 88.9939 297.18 90.441 295.739 91.8882L320.247 119.384L333.942 134.579C334.663 133.856 336.105 133.856 336.826 133.856V63.6687C334.663 62.9451 333.221 61.4979 331.78 60.0508Z" fill="#1A1A1A"/>
<path d="M191.941 138.201C193.383 136.03 196.266 134.583 199.15 135.307C199.87 135.307 199.87 135.307 200.591 135.307L208.52 113.599L147.971 109.258C147.971 109.981 147.25 109.981 147.25 110.705L191.941 138.201Z" fill="#1A1A1A"/>
<path d="M287.81 94.0664L279.16 119.392L265.464 161.359C267.627 162.806 269.068 164.977 269.789 167.871L325.292 155.57L311.597 129.522L292.856 94.0664C292.135 94.79 290.693 94.79 289.251 94.79C288.531 94.0664 288.531 94.0664 287.81 94.0664Z" fill="#1A1A1A"/>
<path d="M178.967 205.5L153.738 216.354C153.738 217.078 153.738 217.801 153.738 218.525C153.738 219.972 153.018 220.696 153.018 221.419L238.074 258.322H238.795C240.237 255.427 243.841 253.256 246.724 253.98H247.445L259.699 175.834C258.257 175.11 256.095 174.387 255.374 172.939L178.967 205.5Z" fill="#1A1A1A"/>
<path d="M341.151 206.945C341.151 206.221 341.151 206.221 341.151 205.498L267.627 173.66C266.906 174.384 265.465 175.831 264.023 175.831L280.602 227.205L287.81 249.636C288.531 249.636 289.252 249.636 289.973 249.636C292.135 249.636 293.577 250.359 295.018 251.806L323.851 227.928L342.593 212.733C341.872 211.286 341.151 209.115 341.151 206.945Z" fill="#1A1A1A"/>
</g>
</g>
</g>
<defs>
<clipPath id="clip0">
<rect x="-38" width="457" height="445" fill="white"/>
</clipPath>
</defs>
</svg>
