<svg width="1440" height="914" viewBox="0 0 1440 914" fill="none" xmlns="http://www.w3.org/2000/svg">
<g style="mix-blend-mode:color-burn" opacity="0.1">
<path d="M1262.04 566.742L1240.11 591.503L1286.71 693.298L1316.86 759.328C1316.86 759.328 1316.86 759.328 1319.61 759.328L1283.97 574.996C1281.23 574.996 1281.23 574.996 1278.49 574.996C1273 572.245 1267.52 569.494 1262.04 566.742Z" fill="#1A1A1A"/>
<path d="M743.926 13.7675C741.185 11.0163 735.702 11.0163 732.961 11.0163L694.582 66.0407L669.911 101.807L743.926 13.7675Z" fill="#1A1A1A"/>
<path d="M1168.84 178.808H1193.51H1234.63C1234.63 173.306 1231.89 165.052 1229.14 159.55L1168.84 178.808Z" fill="#1A1A1A"/>
<path d="M91.4941 236.596L245.008 167.816L190.182 178.82C154.545 189.825 121.649 211.835 91.4941 236.596Z" fill="#1A1A1A"/>
<path d="M1259.3 200.842C1264.78 189.837 1275.75 184.334 1286.71 184.334H1289.45V181.583C1286.71 181.583 1286.71 181.583 1283.97 178.832L1174.32 181.583L1237.37 192.588L1259.3 200.842Z" fill="#1A1A1A"/>
<path d="M554.775 57.7542L637.015 8.23224C620.567 13.7347 604.119 21.9883 587.671 32.9932H584.929C571.223 27.4908 552.034 27.4908 535.586 27.4908L532.844 41.2469C543.81 43.9981 549.292 49.5005 554.775 57.7542Z" fill="#1A1A1A"/>
<path d="M628.794 181.557C628.794 181.557 626.053 181.557 628.794 181.557L612.346 286.104C615.088 288.855 620.57 288.855 623.311 291.606L669.914 239.333L680.879 225.577C675.397 220.074 672.655 211.821 672.655 200.816C672.655 195.313 675.397 192.562 675.397 189.811L656.207 176.055L647.983 173.304C642.501 178.806 637.018 184.308 628.794 181.557Z" fill="#1A1A1A"/>
<path d="M563.003 178.815L595.899 286.113C598.641 286.113 601.382 286.113 604.123 286.113L620.571 181.566C612.347 178.815 606.865 167.81 606.865 159.557C606.865 156.805 609.606 151.303 609.606 148.552L549.297 101.781C546.556 104.532 543.814 107.283 538.332 107.283L563.003 178.815Z" fill="#1A1A1A"/>
<g style="mix-blend-mode:color-burn">
<path d="M1327.83 927.138V877.616V819.841H1325.09C1322.35 819.841 1322.35 819.841 1319.61 819.841L1253.82 943.646L1220.92 1009.67L1303.16 968.407C1300.42 965.655 1300.42 960.153 1300.42 954.65C1303.16 940.894 1314.12 929.889 1327.83 927.138Z" fill="#1A1A1A"/>
<path d="M1193.51 500.727L1237.37 586.014L1256.56 564.005C1251.07 558.502 1248.33 550.249 1248.33 541.995C1248.33 533.741 1253.81 525.488 1259.3 519.985L1116.75 357.663L1193.51 500.727Z" fill="#1A1A1A"/>
<path d="M965.977 313.625L1061.92 319.128H1070.15C1072.89 308.123 1078.37 302.62 1086.6 297.118L1078.37 272.357L1053.7 203.576C1050.96 203.576 1048.22 203.576 1042.73 203.576C1037.25 203.576 1031.77 200.825 1029.03 198.074L976.942 266.854L955.012 294.367C963.236 299.869 965.977 305.371 965.977 313.625Z" fill="#1A1A1A"/>
<path d="M1308.64 814.353L1275.74 841.865L1130.45 965.67C1133.2 971.172 1135.94 979.426 1135.94 984.928V987.68L1155.13 993.182L1212.69 1009.69L1234.62 965.67L1314.12 814.353C1311.38 817.104 1308.64 817.104 1308.64 814.353Z" fill="#1A1A1A"/>
<path d="M478.02 894.126L527.364 847.355C521.881 841.852 519.14 833.599 519.14 822.594C519.14 819.843 519.14 814.34 521.881 811.589L332.73 654.77L329.989 657.521L450.607 883.121C453.348 883.121 458.831 880.369 461.572 883.121C467.055 885.872 472.538 888.623 478.02 894.126Z" fill="#1A1A1A"/>
<path d="M425.933 916.141C425.933 905.136 434.157 894.131 442.381 891.38L420.45 850.111L321.763 665.78C316.28 668.531 310.797 668.531 305.315 668.531C302.573 668.531 302.573 668.531 299.832 668.531L149.059 990.424L247.747 965.663C264.195 957.409 280.643 943.653 294.349 932.648H297.091L299.832 935.399C299.832 940.902 302.573 946.404 302.573 951.907L335.469 943.653L423.192 921.643C425.933 918.892 425.933 918.892 425.933 916.141Z" fill="#1A1A1A"/>
<path d="M1549.88 643.798L1522.46 663.057L1390.88 753.847L1511.5 687.818L1563.58 657.554L1549.88 643.798Z" fill="#1A1A1A"/>
<path d="M1311.39 762.074L1234.63 597.001L1020.8 643.772C1020.8 649.274 1018.06 652.026 1018.06 654.777L1152.39 712.552L1297.68 775.83C1300.42 767.577 1305.9 764.826 1311.39 762.074Z" fill="#1A1A1A"/>
<path d="M277.902 643.798L25.6998 657.554C25.6998 668.559 20.2171 676.813 11.9932 682.315L127.129 943.681L146.318 984.949L297.091 663.057C286.126 660.305 280.643 652.052 277.902 643.798Z" fill="#1A1A1A"/>
<path d="M1059.18 200.841L1089.34 286.129L1092.08 297.134C1094.82 297.134 1100.3 294.383 1103.04 297.134L1130.46 209.095C1122.23 203.593 1114.01 192.588 1114.01 184.334L1075.63 178.832C1072.89 189.837 1067.41 195.339 1059.18 200.841Z" fill="#1A1A1A"/>
<path d="M546.555 858.38C541.072 858.38 535.59 855.629 530.107 852.877L483.505 899.648C488.987 905.151 488.987 913.404 488.987 921.658C488.987 924.409 486.246 929.912 486.246 932.663L590.416 1015.2C593.158 1012.45 595.899 1009.7 601.382 1009.7L565.744 891.395L554.779 858.38C552.038 858.38 549.296 858.38 546.555 858.38Z" fill="#1A1A1A"/>
<path d="M631.535 321.902C631.535 327.405 628.794 330.156 628.794 332.907L642.5 338.409L790.532 418.195L721.999 255.873L713.775 236.614C711.033 236.614 705.551 239.366 702.809 236.614C697.327 236.614 691.844 233.863 686.362 231.112L631.535 291.639L626.052 297.141C631.535 305.395 634.276 313.648 631.535 321.902Z" fill="#1A1A1A"/>
<path d="M719.256 236.6L798.754 423.683L880.994 354.903L908.407 332.893C905.666 327.391 902.924 319.137 902.924 313.634C902.924 310.883 902.924 308.132 905.666 305.381L796.013 253.108L730.221 222.844C727.48 228.347 724.738 233.849 719.256 236.6Z" fill="#1A1A1A"/>
<path d="M1314.12 552.987C1311.38 561.24 1303.16 569.494 1294.93 572.245L1330.57 756.577C1330.57 756.577 1330.57 756.577 1333.31 756.577C1344.28 756.577 1352.5 762.079 1357.98 770.333L1462.15 698.801L1547.14 638.274L1314.12 552.987Z" fill="#1A1A1A"/>
<path d="M1089.34 954.684L996.131 671.308L1004.35 995.952L1070.15 984.947V982.196C1070.15 968.44 1078.37 960.186 1089.34 954.684Z" fill="#1A1A1A"/>
<path d="M524.624 808.833C530.106 803.331 535.589 797.829 543.813 795.077L535.589 506.199L532.848 437.419H530.106C524.624 437.419 521.882 434.668 516.4 434.668L338.214 618.999C340.955 624.502 343.696 632.755 343.696 638.258C343.696 643.76 340.955 649.263 338.214 654.765L387.557 696.033L524.624 808.833Z" fill="#1A1A1A"/>
<path d="M900.183 995.921C900.183 993.17 900.183 993.17 900.183 990.419L593.154 855.609L573.965 847.355C571.224 852.858 565.741 855.609 560.258 858.36L606.861 1006.93C609.602 1006.93 612.343 1006.93 615.085 1006.93C628.791 1006.93 639.757 1017.93 642.498 1031.69L867.287 1004.17L900.183 1001.42C900.183 998.672 900.183 998.672 900.183 995.921Z" fill="#1A1A1A"/>
<path d="M552.038 795.105C557.521 795.105 563.003 797.857 565.745 800.608L730.224 569.505C722 564.003 719.259 552.998 719.259 541.993C719.259 539.242 722 533.74 722 530.988L606.865 459.457L554.779 426.442C549.297 431.944 543.814 434.696 538.332 437.447L543.814 566.754L552.038 795.105Z" fill="#1A1A1A"/>
<path d="M957.753 638.293C957.753 638.293 957.753 635.542 957.753 638.293L856.324 594.274L779.567 561.259C774.084 572.264 763.119 577.767 749.412 577.767C743.929 577.767 741.188 575.015 735.705 575.015L713.775 605.279L571.226 806.118C573.967 808.869 576.708 811.62 579.45 817.123L834.393 709.825L963.236 654.801C960.494 649.298 957.753 643.796 957.753 638.293Z" fill="#1A1A1A"/>
<path d="M1138.68 209.101L1111.27 297.14C1116.75 299.891 1122.23 302.642 1124.97 305.393L1201.73 255.871L1256.56 220.105C1256.56 217.354 1256.56 214.603 1256.56 209.101V206.349L1166.09 189.842C1163.35 200.847 1152.39 209.101 1138.68 209.101Z" fill="#1A1A1A"/>
<path d="M1357.99 781.331C1357.99 784.082 1360.73 789.585 1357.99 792.336C1357.99 797.838 1355.25 803.341 1352.5 808.843L1473.12 916.141L1530.69 965.662L1533.43 943.653L1536.17 907.887C1530.69 894.131 1522.47 883.126 1511.5 872.121V869.37L1514.24 866.619C1525.21 863.867 1533.43 861.116 1541.66 855.614L1552.62 762.072L1563.59 665.78L1357.99 781.331Z" fill="#1A1A1A"/>
<path d="M1075.63 170.569L1114.01 176.071C1116.75 165.066 1124.97 156.813 1133.2 156.813L1124.97 85.281C1108.52 66.0225 1086.59 52.2664 1061.92 46.764C1059.18 46.764 1059.18 44.0128 1056.44 44.0128L1048.21 140.305C1064.66 143.057 1075.63 156.813 1075.63 170.569Z" fill="#1A1A1A"/>
<path d="M1042.73 140.3L1045.47 93.5291L1050.96 41.2559C1034.51 33.0022 1015.32 30.251 996.131 33.0022H993.389H990.648C971.459 19.2462 946.787 13.7437 922.115 16.4949C916.632 16.4949 911.149 19.2462 905.667 19.2462L946.787 63.2657L1026.29 145.802C1031.77 143.051 1037.25 140.3 1042.73 140.3Z" fill="#1A1A1A"/>
<path d="M1144.16 154.043C1155.13 154.043 1163.35 162.296 1166.09 170.55L1190.76 162.296L1226.4 151.291C1209.95 115.526 1174.31 90.7646 1135.94 90.7646L1144.16 154.043C1141.42 154.043 1144.16 154.043 1144.16 154.043Z" fill="#1A1A1A"/>
<path d="M735.704 200.832L806.978 192.578L1012.58 170.568V167.817C1012.58 159.563 1015.32 154.061 1020.8 148.558L897.442 16.4998C870.028 -0.00753474 837.133 -5.50998 804.237 -2.75876C801.495 -2.75876 796.013 -2.75876 793.271 -0.0075357L724.738 165.066L719.256 178.822C727.48 184.324 732.962 189.827 735.704 200.832Z" fill="#1A1A1A"/>
<path d="M653.465 162.307C653.465 165.059 653.465 167.81 650.724 167.81L678.137 187.068C683.62 178.815 694.585 173.312 705.55 176.064C708.292 176.064 711.033 176.064 711.033 176.064L765.859 41.2538L785.049 5.48798C774.083 8.2392 765.859 10.9904 754.894 16.4929H752.153L645.241 143.049C650.724 145.8 653.465 154.054 653.465 162.307Z" fill="#1A1A1A"/>
<path d="M1314.13 544.735L1316.87 547.486L1544.4 635.525V632.774L1547.14 616.267V613.516C1549.88 605.262 1549.88 594.257 1547.14 586.003C1544.4 569.496 1538.91 552.989 1527.95 539.233L1314.13 541.984H1311.38C1314.13 541.984 1314.13 541.984 1314.13 544.735Z" fill="#1A1A1A"/>
<path d="M560.259 77.0341C560.259 82.5366 557.518 90.7902 554.776 93.5415L615.086 140.312C620.568 137.561 626.051 134.81 631.534 137.561C634.275 137.561 634.275 137.561 637.016 137.561L727.48 5.50244C708.291 0 686.36 0 664.429 0H661.688L560.259 60.5268C560.259 68.7805 560.259 71.5317 560.259 77.0341Z" fill="#1A1A1A"/>
<path d="M1305.9 231.098L1382.66 319.137L1500.54 453.947C1489.57 423.683 1467.64 398.922 1440.23 382.415L1437.49 379.664C1437.49 376.913 1437.49 371.41 1437.49 368.659C1432 321.888 1404.59 283.371 1360.73 261.361L1357.99 258.61C1357.99 253.108 1355.25 247.605 1352.5 242.103L1308.64 222.844C1308.64 225.595 1308.64 228.347 1305.9 231.098Z" fill="#1A1A1A"/>
<path d="M1286.71 242.117V448.458V511.736C1300.42 514.488 1311.38 522.741 1314.12 536.497L1525.2 533.746C1519.72 528.244 1516.98 525.492 1511.5 522.741L1508.76 519.99C1508.76 508.985 1508.76 500.731 1508.76 489.727C1508.76 484.224 1508.76 481.473 1506.01 475.97L1489.57 459.463L1300.42 242.117C1297.67 239.366 1292.19 242.117 1286.71 242.117Z" fill="#1A1A1A"/>
<path d="M499.952 404.425C499.952 398.922 502.693 393.42 505.434 387.917L297.094 181.576C294.352 184.327 288.87 187.078 283.387 187.078L299.835 420.932L313.542 602.512C321.766 602.512 327.248 608.015 332.731 610.766L510.917 429.186C502.693 423.683 497.21 412.678 499.952 404.425Z" fill="#1A1A1A"/>
<path d="M1333.32 819.867V927.164C1349.76 927.164 1360.73 940.92 1363.47 957.428L1525.21 965.681L1399.11 855.633L1347.02 811.613C1344.28 817.115 1338.8 819.867 1333.32 819.867Z" fill="#1A1A1A"/>
<path d="M-1.71394 621.752C1.02738 621.752 6.51002 624.504 9.25134 624.504L261.453 181.557C258.712 178.806 253.229 176.055 253.229 173.304L173.731 209.069L77.7845 250.338C47.6299 283.352 25.6993 321.869 14.734 363.138V365.889C-53.7991 412.66 -94.919 492.445 -97.6603 574.982C-97.6603 574.982 -97.6603 574.982 -97.6603 577.733C-103.143 585.987 -105.884 591.489 -111.367 599.743L-37.3512 635.508L-34.6098 638.26C-26.3859 627.255 -15.4206 621.752 -1.71394 621.752Z" fill="#1A1A1A"/>
<path d="M532.846 374.176C541.07 374.176 546.553 376.927 552.036 382.429L579.449 343.912C571.225 338.41 565.742 327.405 568.483 316.4C568.483 313.649 568.483 310.898 568.483 310.898L302.575 176.088C302.575 176.088 302.575 176.088 302.575 178.839L510.916 385.181C516.398 376.927 524.622 374.176 532.846 374.176Z" fill="#1A1A1A"/>
<path d="M598.639 349.38C595.898 349.38 590.415 346.629 587.674 346.629L557.52 385.146C563.002 390.648 565.743 398.902 563.002 407.155L779.567 423.663L757.636 409.907L626.053 338.375C617.829 346.629 609.605 352.131 598.639 349.38Z" fill="#1A1A1A"/>
<path d="M277.905 123.793C283.388 123.793 288.871 126.544 294.353 129.295L329.991 88.0269C305.319 93.5294 283.388 104.534 264.199 118.29L266.94 123.793C269.681 123.793 275.164 123.793 277.905 123.793Z" fill="#1A1A1A"/>
<path d="M401.261 115.554L497.207 82.539C497.207 79.7878 494.466 74.2853 497.207 71.5341C497.207 55.0268 510.914 44.0219 527.362 41.2707V27.5146C521.879 27.5146 516.397 27.5146 513.655 27.5146C467.053 33.017 425.933 49.5243 387.554 77.0365C387.554 77.0365 387.554 77.0365 384.813 77.0365C379.33 77.0365 373.848 77.0365 368.365 77.0365C360.141 77.0365 349.176 79.7878 340.952 82.539L299.832 132.061C302.573 134.812 302.573 137.563 305.315 140.315L401.261 115.554Z" fill="#1A1A1A"/>
<path d="M33.9261 751.091L6.51283 685.062C3.7715 685.062 1.03019 687.813 -1.71114 687.813L-7.19379 726.33L-26.3831 910.662L31.1847 935.423L138.096 984.945L33.9261 751.091Z" fill="#1A1A1A"/>
<path d="M996.13 976.691L990.647 685.062L946.786 968.437C957.751 973.94 965.975 984.945 965.975 995.95H979.682H998.871L996.13 976.691Z" fill="#1A1A1A"/>
<path d="M944.043 346.638L952.267 396.159L987.904 608.003C990.646 608.003 990.645 608.003 993.387 608.003C996.128 608.003 998.869 608.003 998.869 608.003L1075.63 379.652L1083.85 354.891C1072.89 349.389 1067.4 338.384 1067.4 327.379L965.974 321.877C963.232 332.881 955.008 343.886 944.043 346.638Z" fill="#1A1A1A"/>
<path d="M735.706 217.349L908.409 299.885C913.892 288.881 924.857 283.378 938.564 283.378C944.047 283.378 949.529 286.129 952.271 288.881L1023.55 195.339C1018.06 189.837 1015.32 184.334 1015.32 178.832L738.447 206.344V209.095C735.706 211.846 735.706 214.598 735.706 217.349Z" fill="#1A1A1A"/>
<path d="M25.7011 649.262L217.594 638.258L277.903 635.506V632.755C277.903 616.248 291.61 605.243 305.316 602.492L275.162 189.809H272.42C269.679 189.809 266.938 189.809 264.196 187.058L14.7358 630.004C20.2185 632.755 25.7011 641.009 25.7011 649.262Z" fill="#1A1A1A"/>
<path d="M798.755 434.668L768.6 517.204C779.566 522.707 787.79 536.463 785.048 547.468C785.048 550.219 785.048 552.97 785.048 552.97L963.235 627.253C963.235 624.502 965.976 621.751 965.976 618.999L963.235 616.248L798.755 434.668Z" fill="#1A1A1A"/>
<path d="M968.716 616.248C971.457 613.497 976.94 610.746 979.681 607.994L935.82 346.629C933.079 346.629 933.079 346.629 930.337 346.629C922.113 346.629 916.631 341.126 911.148 338.375L801.495 429.165L965.975 613.497L968.716 616.248Z" fill="#1A1A1A"/>
<path d="M305.318 167.799L571.227 302.608C573.968 297.106 579.451 291.604 587.675 288.852L565.744 220.072L530.107 107.272C527.365 107.272 527.365 107.272 524.624 107.272C513.659 107.272 505.435 99.0182 499.952 90.7646L308.059 151.291C308.059 154.043 308.059 156.794 308.059 159.545C308.059 162.296 308.059 165.048 305.318 167.799Z" fill="#1A1A1A"/>
<path d="M1259.3 228.328L1127.71 310.865C1130.45 316.367 1133.19 321.869 1130.45 330.123C1130.45 338.377 1127.71 343.879 1122.23 349.382L1215.43 453.928L1267.52 511.704C1270.26 508.952 1275.74 508.952 1278.49 508.952V242.084C1270.26 239.333 1264.78 233.83 1259.3 228.328Z" fill="#1A1A1A"/>
<path d="M727.482 525.475C732.964 517.221 743.93 511.718 754.895 514.47C757.636 514.47 757.636 514.47 760.378 514.47L790.532 431.933L560.261 415.426C560.261 418.177 557.52 418.177 557.52 420.928L727.482 525.475Z" fill="#1A1A1A"/>
<path d="M1092.08 357.663L1059.18 453.956L1007.09 613.527C1015.32 619.029 1020.8 627.283 1023.54 638.288L1234.62 591.517L1182.54 492.473L1111.27 357.663C1108.52 360.414 1103.04 360.414 1097.56 360.414C1094.82 357.663 1094.82 357.663 1092.08 357.663Z" fill="#1A1A1A"/>
<path d="M678.139 781.357L582.193 822.625C582.193 825.377 582.193 828.128 582.193 830.879C582.193 836.382 579.452 839.133 579.452 841.884L902.928 982.196H905.669C911.152 971.191 924.859 962.938 935.824 965.689H938.565L985.168 668.557C979.685 665.806 971.461 663.055 968.72 657.552L678.139 781.357Z" fill="#1A1A1A"/>
<path d="M1294.93 786.852C1294.93 784.101 1294.93 784.101 1294.93 781.35L1015.32 660.296C1012.58 663.047 1007.1 668.55 1001.61 668.55L1064.66 863.886L1092.08 949.174C1094.82 949.174 1097.56 949.174 1100.3 949.174C1108.52 949.174 1114.01 951.925 1119.49 957.428L1229.14 866.637L1300.42 808.862C1297.68 803.359 1294.93 795.106 1294.93 786.852Z" fill="#1A1A1A"/>
</g>
</g>
</svg>
