<svg width="22" height="22" viewBox="0 0 22 22" fill="none" xmlns="http://www.w3.org/2000/svg">
<path d="M21.1836 10.8365L12.1274 1.78492L11.5204 1.17789C11.382 1.04049 11.195 0.963379 11 0.963379C10.8051 0.963379 10.618 1.04049 10.4797 1.17789L0.816455 10.8365C0.674731 10.9777 0.562724 11.1458 0.487045 11.331C0.411367 11.5161 0.373551 11.7146 0.37583 11.9146C0.385205 12.7396 1.07192 13.3982 1.89692 13.3982H2.89302V21.0318H19.1071V13.3982H20.1243C20.525 13.3982 20.9024 13.2412 21.186 12.9576C21.3256 12.8184 21.4363 12.6529 21.5115 12.4706C21.5867 12.2884 21.6251 12.093 21.6243 11.8959C21.6243 11.4974 21.4672 11.1201 21.1836 10.8365ZM12.3125 19.3443H9.68755V14.563H12.3125V19.3443ZM17.4196 11.7107V19.3443H13.8125V14.0005C13.8125 13.4826 13.393 13.063 12.875 13.063H9.12505C8.60708 13.063 8.18755 13.4826 8.18755 14.0005V19.3443H4.58052V11.7107H2.33052L11.0024 3.04586L11.5438 3.58727L19.6719 11.7107H17.4196Z" fill="#313131"/>
</svg>
