<svg width="24" height="24" viewBox="0 0 24 24" fill="none" xmlns="http://www.w3.org/2000/svg">
<path d="M20.344 17.1548H18.6964C18.5839 17.1548 18.4784 17.204 18.4081 17.2908C18.244 17.49 18.0682 17.6822 17.8831 17.865C17.1258 18.623 16.2288 19.2271 15.2417 19.6439C14.219 20.0758 13.1198 20.2974 12.0097 20.2954C10.887 20.2954 9.7995 20.0751 8.77762 19.6439C7.7905 19.2271 6.8935 18.623 6.13621 17.865C5.37758 17.1095 4.77266 16.2141 4.35496 15.2283C3.92137 14.2064 3.7034 13.1212 3.7034 11.9986C3.7034 10.8759 3.92371 9.79076 4.35496 8.76888C4.77215 7.78217 5.37215 6.89388 6.13621 6.13216C6.90028 5.37045 7.78856 4.77045 8.77762 4.35326C9.7995 3.92201 10.887 3.7017 12.0097 3.7017C13.1323 3.7017 14.2198 3.91966 15.2417 4.35326C16.2307 4.77045 17.119 5.37045 17.8831 6.13216C18.0682 6.31732 18.2417 6.50951 18.4081 6.70638C18.4784 6.7931 18.5862 6.84232 18.6964 6.84232H20.344C20.4917 6.84232 20.5831 6.67826 20.5011 6.55404C18.7034 3.76029 15.5581 1.91107 11.9839 1.92045C6.36825 1.93451 1.8659 6.4931 1.92215 12.1017C1.9784 17.6212 6.47372 22.0767 12.0097 22.0767C15.5745 22.0767 18.7057 20.2298 20.5011 17.4431C20.5807 17.3189 20.4917 17.1548 20.344 17.1548ZM22.4276 11.8509L19.1018 9.22591C18.9776 9.12748 18.7972 9.21654 18.7972 9.37357V11.1548H11.4378C11.3347 11.1548 11.2503 11.2392 11.2503 11.3423V12.6548C11.2503 12.7579 11.3347 12.8423 11.4378 12.8423H18.7972V14.6236C18.7972 14.7806 18.98 14.8697 19.1018 14.7712L22.4276 12.1462C22.45 12.1287 22.4682 12.1063 22.4806 12.0807C22.4931 12.0551 22.4996 12.027 22.4996 11.9986C22.4996 11.9701 22.4931 11.942 22.4806 11.9164C22.4682 11.8909 22.45 11.8685 22.4276 11.8509Z" fill="#313131"/>
</svg>
