<svg width="25" height="25" viewBox="0 0 25 25" fill="none" xmlns="http://www.w3.org/2000/svg">
<path d="M21.0438 19.3281C19.9344 17.5406 17.4922 15.625 12.5 15.625C7.50786 15.625 5.06724 17.5391 3.9563 19.3281C4.97987 20.6113 6.27961 21.6472 7.75882 22.3586C9.23803 23.0701 10.8586 23.4389 12.5 23.4375C14.1415 23.4389 15.7621 23.0701 17.2413 22.3586C18.7205 21.6472 20.0202 20.6113 21.0438 19.3281Z" fill="#313131" fill-opacity="0.5"/>
<path fill-rule="evenodd" clip-rule="evenodd" d="M12.5 14.0625C13.7432 14.0625 14.9355 13.5686 15.8146 12.6896C16.6936 11.8105 17.1875 10.6182 17.1875 9.375C17.1875 8.1318 16.6936 6.93951 15.8146 6.06044C14.9355 5.18136 13.7432 4.6875 12.5 4.6875C11.2568 4.6875 10.0645 5.18136 9.18544 6.06044C8.30636 6.93951 7.8125 8.1318 7.8125 9.375C7.8125 10.6182 8.30636 11.8105 9.18544 12.6896C10.0645 13.5686 11.2568 14.0625 12.5 14.0625Z" fill="#313131" fill-opacity="0.5"/>
<path fill-rule="evenodd" clip-rule="evenodd" d="M12.5 1.5625C9.59919 1.5625 6.8172 2.71484 4.76602 4.76602C2.71484 6.8172 1.5625 9.59919 1.5625 12.5C1.5625 15.4008 2.71484 18.1828 4.76602 20.234C6.8172 22.2852 9.59919 23.4375 12.5 23.4375C15.4008 23.4375 18.1828 22.2852 20.234 20.234C22.2852 18.1828 23.4375 15.4008 23.4375 12.5C23.4375 9.59919 22.2852 6.8172 20.234 4.76602C18.1828 2.71484 15.4008 1.5625 12.5 1.5625ZM0 12.5C0 9.18479 1.31696 6.00537 3.66117 3.66117C6.00537 1.31696 9.18479 0 12.5 0C15.8152 0 18.9946 1.31696 21.3388 3.66117C23.683 6.00537 25 9.18479 25 12.5C25 15.8152 23.683 18.9946 21.3388 21.3388C18.9946 23.683 15.8152 25 12.5 25C9.18479 25 6.00537 23.683 3.66117 21.3388C1.31696 18.9946 0 15.8152 0 12.5Z" fill="#313131" fill-opacity="0.5"/>
</svg>
