<svg width="28" height="28" viewBox="0 0 28 28" fill="none" xmlns="http://www.w3.org/2000/svg">
<path fill-rule="evenodd" clip-rule="evenodd" d="M13.7812 0C14.1874 0 14.5768 0.161328 14.864 0.448493C15.1512 0.735658 15.3125 1.12514 15.3125 1.53125V13.7812C15.3125 14.1874 15.1512 14.5768 14.864 14.864C14.5768 15.1512 14.1874 15.3125 13.7812 15.3125H1.53125C1.12514 15.3125 0.735658 15.1512 0.448493 14.864C0.161328 14.5768 0 14.1874 0 13.7812C0 13.3751 0.161328 12.9857 0.448493 12.6985C0.735658 12.4113 1.12514 12.25 1.53125 12.25H12.25V1.53125C12.25 1.12514 12.4113 0.735658 12.6985 0.448493C12.9857 0.161328 13.3751 0 13.7812 0Z" fill="#333333"/>
<path fill-rule="evenodd" clip-rule="evenodd" d="M12.25 13.7812C12.25 13.3751 12.4113 12.9857 12.6985 12.6985C12.9857 12.4113 13.3751 12.25 13.7812 12.25H26.0312C26.4374 12.25 26.8268 12.4113 27.114 12.6985C27.4012 12.9857 27.5625 13.3751 27.5625 13.7812C27.5625 14.1874 27.4012 14.5768 27.114 14.864C26.8268 15.1512 26.4374 15.3125 26.0312 15.3125H15.3125V26.0312C15.3125 26.4374 15.1512 26.8268 14.864 27.114C14.5768 27.4012 14.1874 27.5625 13.7812 27.5625C13.3751 27.5625 12.9857 27.4012 12.6985 27.114C12.4113 26.8268 12.25 26.4374 12.25 26.0312V13.7812Z" fill="#333333"/>
</svg>
