<svg width="192" height="144" viewBox="0 0 192 144" fill="none" xmlns="http://www.w3.org/2000/svg">
<path fill-rule="evenodd" clip-rule="evenodd" d="M69.7716 36.4634C69.6394 38.6255 69.507 40.7875 69.3748 42.9497C70.2257 42.7046 75.6393 41.1117 75.3049 42.7268C75.065 43.8851 73.543 45.1382 72.7676 45.9446C72.0539 46.6872 71.319 47.4102 70.5653 48.1123C71.9505 47.5821 73.3471 47.08 74.7538 46.6102C75.8182 46.2548 76.8904 45.9078 77.9811 45.6415C78.386 45.5425 79.4792 45.1388 79.8616 45.4141C80.8667 46.1373 75.4136 51.4647 74.6666 52.2157C75.7228 51.7245 76.8044 51.2783 77.9044 50.8954C78.6985 50.6189 81.1521 49.5625 81.8549 50.4646C82.6072 51.4299 80.7436 53.6464 80.2268 54.3492C79.4862 55.3561 78.6837 56.3222 77.8417 57.2459C81.3414 60.3893 85.4539 63.1871 89.8307 64.9261C93.0399 66.2011 96.1922 66.5257 99.5786 65.826C103.057 65.1071 106.394 63.7284 109.565 62.1521C111.428 61.2262 113.266 60.2245 115.017 59.0991C114.295 58.2209 113.594 57.3246 112.913 56.4145C111.942 55.1151 110.747 53.6953 110.193 52.1484C109.651 50.6345 111.685 50.9301 112.661 51.0123C114.075 51.1314 115.484 51.3841 116.869 51.6863C115.89 51.0051 114.928 50.2966 113.986 49.5652C112.758 48.612 111.12 47.5342 110.316 46.1629C109.609 44.957 111.16 45.2615 111.878 45.4195C113.588 45.7964 115.252 46.4384 116.884 47.0646C118.078 47.5232 119.266 48.0035 120.441 48.5093C119.712 47.8749 119.006 47.2101 118.328 46.5208C117.417 45.5943 116.188 44.4628 115.78 43.187C114.948 40.5888 120.544 42.5487 121.5 42.9497C121.323 40.2581 121.147 37.5666 120.97 34.875C113.56 36.8468 106.15 38.8188 98.7391 40.7908C97.9384 41.004 96.9361 41.4681 96.1009 41.4928C95.3444 41.5155 94.4307 41.1749 93.693 41.034L80.283 38.4718C76.7792 37.8023 73.2754 37.1328 69.7716 36.4634Z" fill="#D5E3FF"/>
<path fill-rule="evenodd" clip-rule="evenodd" d="M149.418 129.041C148.618 129.498 147.681 129.852 146.792 130.089C146.27 130.229 145.407 130.659 144.949 130.264C144.729 130.075 144.678 129.645 144.548 129.396C144.343 129.001 144.05 128.66 143.777 128.312C143.113 127.466 142.423 126.651 141.7 125.856C141.358 125.479 140.733 124.6 140.129 124.657C139.377 124.73 139.396 125.77 139.584 126.302C140.184 127.995 142 129.47 143.186 130.746C142.885 131.21 141.228 131.154 140.768 131.046C140.066 130.88 139.995 130.38 139.674 129.808C138.925 128.471 137.404 127.723 136.154 126.938C135.698 126.651 134.729 125.857 134.135 126.057C133.572 126.246 133.597 126.965 133.776 127.435C134.047 128.144 134.817 128.636 135.387 129.085C136.147 129.683 136.841 130.333 137.475 131.065C136.562 131.14 135.653 131.268 134.743 131.343C133.642 131.434 132.724 130.83 131.711 130.488C130.769 130.169 129.831 129.901 128.905 129.534C127.866 129.122 126.777 128.979 125.728 128.618C121.613 127.2 117.58 125.418 113.614 123.621C111.725 122.764 109.874 121.908 107.905 121.237C106.47 120.749 104.215 119.775 103.872 118.066C103.691 117.163 104.351 116.192 104.448 115.29C104.562 114.228 104.472 113.06 104.149 112.042C103.864 111.144 103.391 110.313 103.019 109.452C102.586 108.448 102.974 108.464 103.816 108.35C104.825 108.213 106.001 107.646 106.949 107.276C108.041 106.85 109.123 106.255 110.123 105.643C111.028 105.089 111.815 104.375 112.535 103.6C113.267 102.812 113.742 101.878 114.45 101.07C117.063 104.285 119.548 107.548 122.325 110.623C123.635 112.075 125.061 113.275 126.676 114.379C127.35 114.84 128.02 115.366 128.754 115.731C129.673 116.187 130.701 116.47 131.645 116.886C135.267 118.482 138.723 120.226 142.101 122.285C143.736 123.281 145.107 124.422 146.546 125.672C146.994 126.061 150.664 128.328 149.418 129.041ZM106.937 102.708C106.351 102.973 105.793 103.318 105.169 103.488C105.346 102.411 106.351 100.786 107.64 100.965C108.132 101.033 108.503 101.415 108.287 101.942C108.09 102.421 107.353 102.519 106.937 102.708ZM66.2016 73.4969C65.5381 73.8632 64.9199 74.0766 64.5309 73.2903C64.819 73.2325 66.128 73.0581 66.2016 73.4969ZM65.0969 71.2742C64.5842 71.1187 64.9943 70.9552 65.1707 70.7676C65.3081 70.6216 65.7631 70.1094 65.9224 70.0248C66.6256 69.6522 67.1692 71.0384 67.5055 71.4883C66.7094 71.4176 65.872 71.5092 65.0969 71.2742ZM70.5788 76.0738C69.6071 76.2385 69.7149 75.0226 69.7439 74.4067C69.949 74.6568 71.3366 75.9454 70.5788 76.0738ZM73.7993 73.9737C72.6146 74.1736 71.8317 72.1267 72.0441 71.2313C72.231 70.4426 73.1492 70.0022 73.8801 69.8859C74.5886 69.773 75.575 69.927 75.7854 70.744C75.9714 71.4661 74.589 73.8404 73.7993 73.9737ZM101.844 104.874C100.993 105.136 100.159 105.169 99.3029 105.426C98.332 105.717 97.4334 105.691 96.4605 105.89C96.0647 105.97 94.997 106.547 94.6109 106.418C94.2285 106.29 93.675 105.104 93.4552 104.795C95.1765 104.079 96.6449 103.156 97.7794 101.648C98.6817 100.449 99.6491 98.653 99.0816 97.1057C98.4414 95.3611 96.2349 94.9823 94.7637 95.7111C94.0677 96.0556 93.3779 96.4841 92.8041 97.0092C92.1479 97.6095 91.89 98.265 91.4649 99.0055C91.035 99.7545 90.7335 99.3379 90.304 98.7019C89.9369 98.1582 89.9848 97.6093 89.5261 97.0729C89.2921 96.7993 88.9298 96.5353 88.8077 96.1819C88.7302 95.9578 88.8934 95.5605 88.7466 95.3839C88.54 95.1361 88.2888 95.4274 88.1157 95.206C87.9902 95.0453 88.0312 94.6788 87.9014 94.4777C87.7888 94.3633 87.6636 94.2657 87.5252 94.1846C87.3572 94.1016 87.3266 93.9977 87.4331 93.873C87.2996 93.6258 87.4282 93.5424 87.1422 93.2415C86.6964 92.7727 86.2898 92.3234 85.9725 91.77C85.8274 91.5167 85.8418 91.141 85.6616 90.9218C85.4143 90.6208 85.0023 90.666 84.7897 90.2934C84.6002 89.9614 84.727 89.3807 84.4147 89.0793C84.25 89.0323 84.0853 88.9861 83.9204 88.9405C83.7963 88.8201 83.7241 88.674 83.7035 88.5019C83.53 88.2348 83.4955 87.9211 83.2765 87.6389C82.8573 87.0994 82.2935 86.6007 81.9231 86.0318C81.5339 85.4338 81.7403 85.333 82.4165 85.1191C83.0263 84.9258 83.5831 84.7465 84.1484 84.4176C86.7616 82.8968 89.2391 78.8627 85.0913 77.6303C83.552 77.173 82.2874 75.9431 80.5807 76.4265C79.8408 76.6362 79.1389 77.0824 78.587 77.6118C78.2056 77.9779 77.8524 78.9569 77.3841 79.1445C76.5422 79.4816 76.8982 78.6392 76.6593 78.2523C76.5452 78.0676 76.0859 77.8548 75.9157 77.6866C75.7159 77.4896 75.5228 77.2408 75.3842 76.997C75.1268 76.5446 74.9693 76.2924 74.598 75.924C74.458 75.7848 73.7592 75.0662 74.3895 75.1601C74.1342 74.3823 74.5067 74.2654 75.0214 73.697C75.626 73.0296 76.2502 72.1023 76.2537 71.1672C76.2607 69.3718 74.1332 68.5675 72.7972 69.6331C72.5254 69.85 70.9174 71.9433 71.2464 70.6084C71.4238 69.8884 73.0663 68.0089 73.8278 68.4952C72.9744 67.2515 71.0142 70.2713 70.5566 70.8892C70.167 70.1719 70.1394 69.6107 69.4947 69.0554C68.97 69.8972 69.2471 68.9773 69.1314 68.7902C68.8814 68.3865 69.0187 68.8483 68.8832 68.7049C68.7144 68.5262 68.4486 68.3853 68.2691 68.1488C67.9615 68.5661 68.0843 68.117 67.9901 67.9611C67.7697 67.5965 67.855 67.3853 67.4773 67.0683C67.2023 66.8378 66.6609 66.4798 66.291 66.4471C65.8644 66.4093 65.7462 66.5728 65.3116 66.4518C64.7587 66.298 64.0628 66.0619 64.3305 66.9867C64.5248 67.6587 65.3149 68.0406 65.488 68.7273C65.6623 69.4184 64.9789 70.115 64.6473 70.6816C64.2215 71.4086 63.8734 71.3492 63.102 71.5131C62.609 71.6179 61.9511 71.842 62.3738 72.44C62.6758 72.8673 63.3833 72.7773 63.7819 73.0304C64.3407 73.3852 64.3329 74.2601 65.0462 74.4123C65.8319 74.5799 66.282 73.7052 66.9444 73.494C67.4153 73.3437 68.8744 73.3605 69.2451 73.7141C69.7504 74.196 69.3139 75.1167 69.441 75.7153C69.63 76.603 70.2307 76.6572 70.9902 76.6857C71.9253 76.7205 72.254 77.6184 72.7569 78.3306C73.9348 79.9987 74.9586 81.777 76.1651 83.4229C76.6992 84.1516 77.4805 84.7999 77.9178 85.5908C78.4579 86.5676 77.7081 87.1309 77.0611 87.832C76.2157 88.7482 75.5845 89.7907 74.8513 90.792C74.1996 91.6819 73.3899 91.4604 72.3486 91.4604C72.5807 90.982 72.8599 90.6837 73.4308 90.7418C72.8338 90.0128 72.3564 90.8466 71.9692 91.3084C71.409 91.9763 70.6787 92.1375 69.9591 92.5767C69.7044 92.732 68.3178 93.7392 68.7391 94.0831C68.787 94.1221 71.0823 92.6122 71.3438 92.4736C71.3438 93.0311 71.2219 93.6102 71.3 94.1645C71.3572 94.571 71.643 94.995 71.5821 95.4176C71.4666 96.2154 70.4357 96.8438 69.9932 97.4654C69.66 97.9332 69.7404 98.3022 69.5709 98.8044C69.4163 99.2625 69.4974 99.1239 69.1121 99.2654C68.3275 99.5536 67.0071 99.3981 66.2966 98.9883C65.8556 98.734 65.5174 98.3321 65.1592 97.9778C64.8893 97.7107 64.2106 97.2545 64.1356 96.8808C64.0069 96.2374 65.2844 95.0418 65.5373 94.3781C66.2512 92.505 65.0268 91.049 63.1214 90.9426C63.7087 90.4896 64.4366 90.831 65.0556 91.0038C63.9974 89.5376 62.1902 90.7441 61.2926 91.7406C60.6793 90.1903 60.3836 88.5549 60.009 86.938C59.7537 85.8373 58.7824 83.8724 59.2156 82.739C59.4251 82.191 60.0164 81.8855 60.4255 81.5055C60.8902 81.0737 61.2882 80.5576 61.6279 80.0231C62.4285 78.7641 62.8907 77.1749 61.7885 75.9343C62.1234 75.8792 62.4585 75.8242 62.7934 75.7691C62.2486 75.2572 61.3892 75.5066 60.6823 75.3548C60.2337 75.2586 58.943 75.3209 58.6436 75.067C58.2834 74.7619 58.5143 73.3574 58.5271 72.9417C58.5567 71.9704 58.6379 71.0365 58.7452 70.071C58.8468 69.1589 58.8264 68.1735 59.0149 67.2774C59.1679 66.5502 59.6568 66.3286 60.221 65.9002C61.5695 64.8754 62.6684 63.6291 62.2079 61.8634C62.3711 61.8375 62.5342 61.8116 62.6974 61.7856C62.1698 61.4041 61.4869 61.5428 60.9001 61.3412C61.4391 59.8242 62.631 57.1577 64.5663 57.0141C64.6329 57.6922 64.5873 58.4987 65.0449 59.06C65.5657 59.699 66.48 59.7635 67.1856 59.4254C67.8258 59.1183 68.4268 58.4677 68.722 57.8249C68.9215 57.3898 68.8855 56.654 69.236 56.3091C69.706 55.8465 72.9462 56.1255 72.8469 56.9063C72.7884 57.3654 71.922 58.137 71.6798 58.5439C71.2367 59.2884 70.882 60.0937 70.7192 60.9489C70.4721 62.2474 70.6152 63.9618 71.9339 64.6445C73.4337 65.4212 75.2615 64.4337 76.4914 63.5806C77.1668 63.1122 77.821 62.5952 78.438 62.0524C78.7667 61.7636 79.0969 61.4659 79.3866 61.1374C79.6004 60.8948 79.7713 60.5037 80.0346 60.3221C80.6564 59.893 81.266 60.621 81.7923 60.9887C82.6496 61.5877 83.5025 62.1564 84.4227 62.6549C86.2898 63.6664 87.9972 65.0062 89.648 66.3364C91.3086 67.6747 93.0208 69.0513 94.366 70.7185C93.5511 71.2196 93.6966 71.3498 93.3341 72.2438C93.0769 72.8782 92.7225 73.4182 92.6816 74.1231C92.6109 75.3396 93.3919 76.3764 94.5772 76.6457C95.2402 76.7963 95.8718 76.6757 96.4858 76.4047C96.963 76.194 97.4389 75.6755 97.9375 75.5467C98.8645 75.3076 99.6063 77.0588 100.126 77.6757C102.434 80.4153 104.873 83.0466 107.046 85.8981C107.287 86.214 108.002 86.8309 108.06 87.249C108.143 87.8496 107.199 88.4216 106.807 88.7659C106.601 88.9466 104.419 90.999 105.152 91.3251C105.361 91.4181 105.972 90.159 106.125 90.0512C106.697 89.648 106.264 90.4384 106.23 90.8378C106.145 91.8308 106.827 92.3719 107.786 92.246C108.809 92.1118 109.72 91.3041 110.353 90.5413C111.146 91.4602 112.386 92.8493 112.616 94.0769C112.762 94.8611 112.084 96.7804 113.35 96.9404C113.544 96.9648 114.244 96.4457 114.374 96.7403C114.483 96.9864 113.726 97.4069 113.617 97.4883C113.151 97.8363 112.87 98.2091 112.493 98.6306C112.051 99.1253 111.448 99.5421 110.951 100.016C110.427 100.516 109.391 101.872 108.7 101.217C108.353 100.887 108.444 100.457 107.888 100.263C107.381 100.087 106.739 100.311 106.269 100.506C105.739 100.725 103.993 101.527 103.8 102.187C103.532 103.098 104.975 102.003 105.232 101.843C104.939 102.586 104.777 103.661 104.032 104.094C103.413 104.454 102.523 104.666 101.844 104.874ZM91.9501 99.258C92.4454 97.6659 95.3667 94.827 97.213 95.715C95.0612 96.1659 93.3537 97.6386 91.9501 99.258ZM93.0426 103.817C92.3226 103.416 92.3613 102.251 92.11 101.569C91.9657 101.177 91.6772 100.892 91.7621 100.458C91.8614 99.9486 92.5105 99.3827 92.8561 99.0156C93.9437 97.8601 95.8575 96.2812 97.6081 96.546C99.8362 96.8833 98.3257 99.8747 97.567 100.905C96.9204 101.783 94.4287 104.59 93.0426 103.817ZM87.8447 101.87C85.4351 101.709 83.0337 101.494 80.657 101.052C79.8144 100.895 79.1084 100.918 79.5905 99.9491C79.7497 99.6294 80.7096 97.6253 80.9263 97.6828C81.0548 97.7169 81.0254 99.0943 81.0632 99.2522C81.2333 99.9612 81.7111 100.622 82.5166 100.577C83.8345 100.503 84.684 98.7995 85.3779 97.8849C85.9337 98.6323 86.3362 99.4626 86.895 100.198C87.1621 100.549 88.092 101.366 87.8447 101.87ZM73.7179 92.4117C73.3137 93.3393 72.5007 94.2216 71.9353 95.062C71.6156 94.3853 71.3907 92.8317 72.1491 92.3314C72.436 92.1422 73.9736 91.8251 73.7179 92.4117ZM82.075 95.1741C82.1862 94.8169 82.3094 94.4627 82.4469 94.1149C82.6827 94.8569 82.8032 94.8789 82.075 95.1741ZM84.1376 95.934C84.4301 96.4297 84.9176 96.9172 84.8411 97.5398C84.7831 98.0115 84.3567 98.4949 84.0522 98.8237C83.5483 99.3675 82.4319 100.411 81.7018 99.6892C81.0918 99.0859 81.3042 97.4274 81.5879 96.7487C81.993 95.7789 83.4404 94.753 84.1376 95.934ZM82.7066 94.918C82.8742 94.8514 82.522 93.7694 82.8489 93.6616C83.134 94.3117 83.4027 94.4876 82.7066 94.918ZM78.1024 80.3563C77.9937 79.957 77.7447 79.9738 77.8345 79.4802C77.8933 79.1566 78.1501 78.8111 78.345 78.5547C78.7332 78.0436 79.2454 77.6223 79.7994 77.3033C80.9687 76.6303 82.5746 76.3507 83.6215 77.4045C82.6427 77.559 79.6422 78.5251 79.6232 79.8639C80.7115 79.6542 81.5674 78.5609 82.6591 78.2164C83.5551 77.9335 84.5268 77.9534 85.4182 78.2521C87.8581 79.0693 86.8436 81.1782 85.4665 82.548C84.6489 83.3613 83.6686 83.9685 82.597 84.3874C82.1011 84.5813 81.7968 84.6027 81.3093 84.5053C81.2179 84.487 81.1112 84.3176 81.0018 84.2814C80.7298 84.1912 80.8087 84.4965 80.5846 84.3594C80.3891 84.2399 79.9721 83.4683 79.8391 83.2473C79.6274 82.8958 79.5287 82.5538 79.269 82.2329C79.0089 81.9118 78.8823 81.4814 78.6417 81.1908C78.5262 81.0509 78.2096 81.0566 78.1246 80.9202C77.997 80.7152 78.1594 80.5659 78.1024 80.3563ZM74.3552 96.084C74.9097 95.1205 75.8585 94.3025 76.5925 93.4603C76.6376 94.8446 75.6451 95.7923 74.3552 96.084ZM75.1046 96.5291C76.2498 96.1261 76.8808 95.162 76.9976 93.9931C77.1458 92.5124 78.0755 91.7353 78.6353 90.4051C78.8498 89.8953 79.1 88.2178 79.9319 88.6979C80.2174 88.8626 80.3866 89.482 80.5353 89.7618C80.8951 90.4388 81.3042 91.095 81.6858 91.7597C81.9965 92.301 82.4623 92.845 82.3252 93.4966C82.2056 94.0646 81.8209 94.6698 81.5957 95.2054C81.0637 96.4706 80.365 97.6358 79.7811 98.8732C79.5455 99.3724 79.2667 100.554 78.5474 100.548C77.9781 100.543 78.0418 99.9209 77.667 99.7075C77.1939 99.4382 76.6559 99.9507 76.2673 100.163C76.7147 99.4075 77.4972 98.9796 78.3767 99.1218C77.3236 98.0731 76.6121 99.4881 75.7083 99.8032C74.8521 100.102 73.3328 98.6935 72.6119 98.2944C72.8877 97.8274 73.137 97.2561 73.6112 96.9488C74.0612 96.6571 74.6134 96.7019 75.1046 96.5291ZM65.7937 106.113C65.9191 105.509 66.2734 105.152 66.4981 104.604C66.7586 105.268 66.1486 105.661 65.7937 106.113ZM83.9891 109.818C83.9276 111.852 83.7615 113.88 83.7015 115.914C83.6739 116.852 83.5078 117.746 83.3976 118.674C83.3043 119.458 83.3518 120.228 82.8583 120.898C82.0801 121.954 80.5673 122.257 79.3926 122.649C78.5301 122.936 77.6577 123.196 76.8059 123.516C76.0395 123.803 75.4217 124.238 74.693 124.579C74.0411 124.885 73.3373 125.066 72.6884 125.391C72.0172 125.728 71.4867 126.138 70.7973 126.438C69.9719 126.797 69.2918 127.435 68.5578 127.942C67.9116 128.388 67.228 128.732 66.6722 129.293C66.151 129.819 65.4911 130.05 64.9004 130.517C64.2758 131.012 63.622 131.333 62.932 131.721C61.5185 132.515 59.6114 133.871 57.9103 133.1C58.3969 132.478 59.3926 131.881 59.4683 131.025C59.5668 129.91 58.5961 130.32 58.034 130.676C57.1825 131.216 56.7116 131.867 56.0634 132.586C55.3056 133.426 54.3485 132.861 53.4214 132.625C54.0553 132.054 54.6842 131.478 55.3169 130.906C55.8512 130.424 56.6685 129.902 56.9939 129.235C57.2264 128.758 57.2151 128.104 56.6539 127.856C56.0262 127.579 55.3164 128.163 54.8514 128.511C53.6172 129.434 52.8044 130.605 51.994 131.89C51.563 132.574 51.3644 132.521 50.5713 132.385C49.731 132.24 48.8905 132.086 48.0432 131.984C49.1656 130.831 50.4201 129.583 51.3065 128.234C51.5937 127.797 51.9683 126.645 51.0933 126.539C50.7328 126.495 50.0149 127.233 49.7367 127.431C48.5212 128.3 47.3526 129.396 46.5469 130.665C46.281 131.083 46.1974 131.549 45.6825 131.584C45.0092 131.629 43.7581 130.987 43.1085 130.788C44.3499 129.223 45.5826 127.647 47.0329 126.267C48.3654 124.999 49.6946 124.078 51.253 123.105C52.9233 122.063 54.4792 120.863 56.0126 119.631C57.4804 118.452 59.0139 117.34 60.3651 116.023C63.064 113.394 65.468 110.37 67.4588 107.172C67.9245 106.424 68.3629 105.656 68.742 104.86C69.0979 104.112 69.2621 103.218 69.7426 102.538C69.9087 102.303 70.1425 102.128 70.2905 101.883C70.4301 101.652 70.3827 101.373 70.5956 101.169C71.0877 100.696 71.9839 100.981 72.444 101.313C73.1839 101.845 73.7824 102.492 74.5954 102.937C75.4134 103.386 76.2981 103.712 77.2036 103.932C79.3202 104.447 81.4185 104.869 83.5748 105.182C83.3528 106.005 83.8978 106.134 84.0783 106.875C84.2975 107.773 84.0165 108.903 83.9891 109.818ZM63.609 96.0963C63.129 95.3833 62.7009 94.6378 62.2291 93.9202C61.942 93.4831 61.5859 93.0137 61.8314 92.4793C62.2449 91.5781 63.7038 91.4177 64.4954 91.8105C66.2952 92.7037 64.6234 95.2575 63.609 96.0963ZM58.8451 79.7898C58.6794 78.3963 59.2123 77.4076 60.473 76.6769C61.3715 76.156 62.095 76.8678 61.9723 77.8172C61.7856 79.2636 60.2401 80.8723 59.0606 81.6269C58.9835 81.0153 58.9181 80.4021 58.8451 79.7898ZM58.6529 75.8026C59.0248 75.5074 60.0207 75.884 60.4515 75.9097C59.8591 76.4275 59.2664 76.9452 58.6737 77.4629C58.635 77.1077 58.3099 76.075 58.6529 75.8026ZM60.6525 62.3443C63.651 61.9544 60.1992 65.1724 59.3303 65.6767C59.4716 64.9919 59.819 62.4528 60.6525 62.3443ZM68.6351 56.7105C68.2325 58.3597 65.1023 60.159 65.0696 57.4574C65.0575 56.4508 65.6229 56.5322 66.4483 56.4356C66.9191 56.3806 68.8653 55.7676 68.6351 56.7105ZM57.8233 59.2646C57.4719 60.1869 57.1901 61.1331 56.8457 62.0565C56.6931 62.4653 56.5136 62.7463 56.2293 63.0703C55.9914 63.3411 55.7083 63.4095 55.7176 63.8376C56.0157 63.7802 56.249 63.6024 56.4898 63.4312C56.4314 64.2799 56.1314 65.1934 55.9861 66.0395C55.8121 67.0541 55.6672 68.0691 55.6135 69.0979C55.4968 71.335 55.4959 73.5641 55.5449 75.8026C55.5701 76.9432 55.5813 78.0845 55.6429 79.2238C55.6736 79.7906 55.7083 80.3598 55.7784 80.9231C55.8068 81.1505 55.9719 81.6347 55.8699 81.8479C55.4694 82.6846 53.6953 80.3863 52.9249 80.7236C53.0357 80.0868 52.78 80.2261 52.353 79.913C52.1463 79.7612 52.0117 79.503 51.796 79.3678C51.7308 79.2975 51.6589 79.2349 51.5807 79.18C51.4915 79.0584 51.3975 79.0714 51.2985 79.2187C50.4306 78.6998 50.2063 77.5941 49.7404 76.8501C49.5007 76.4676 49.2692 76.408 49.2283 75.8792C49.1929 75.4183 49.2622 74.9487 49.2435 74.486C49.2223 73.9639 49.1917 73.3884 49.0453 72.8829C48.8753 72.296 48.6415 72.3439 48.1861 72.0312C48.3265 71.9698 48.419 71.8667 48.4637 71.722C48.3183 71.7479 47.8763 71.9281 47.7665 71.7985C47.5506 71.5441 48.0601 71.5102 48.1941 71.4086C47.6226 71.1549 47.7457 70.9465 47.9519 70.4815C48.0103 70.35 48.066 70.1534 48.1156 70.0425C48.2241 69.8001 48.2864 69.9537 48.3222 69.6526C48.3563 69.3656 48.1018 68.8011 48.0268 68.4954C47.9011 67.9823 47.8315 67.5391 47.9445 67.0046C48.036 66.5718 48.2821 66.18 48.2992 65.7349C48.3041 65.61 48.1137 65.5685 48.1111 65.4479C48.1074 65.2716 48.272 65.194 48.3148 65.0311C48.424 64.6141 48.3748 64.1732 48.5617 63.7774C48.7299 63.422 49.0696 62.9622 49.3101 62.652C49.4768 62.437 49.8856 62.1948 49.9304 61.9111C49.96 61.7231 49.6674 61.7447 49.6804 61.6031C49.6981 61.4113 49.8589 61.3492 49.9031 61.2067C50.0248 60.8157 50.0554 60.4398 50.3698 60.1401C50.7659 59.7629 50.938 59.9209 50.9543 59.2987C50.9623 58.9951 50.7195 58.9484 50.8496 58.5984C50.9202 58.4084 51.1288 58.2962 51.2621 58.1616C51.6582 57.7621 51.9251 57.4073 52.207 56.9137C52.4564 56.4776 52.8542 56.2239 53.1096 55.8473C53.4424 55.3565 52.9449 55.1131 53.6201 54.9745C53.5242 54.6698 53.4221 54.4235 53.6747 54.1655C53.8339 54.0028 54.2381 54.1024 54.3791 53.9142C54.5407 53.6981 54.3018 53.186 54.5453 53.0457C54.7434 52.9319 55.0399 53.283 55.351 53.1092C55.5882 52.9767 55.9462 52.245 55.8699 51.9762C56.483 52.321 56.3302 52.0835 56.6236 51.641C56.6894 51.5418 56.8887 51.5198 56.9454 51.4197C57.0587 51.2195 57.0328 51.0155 57.196 50.8528C57.468 50.582 57.9129 50.6515 58.2121 50.4581C58.4594 50.2983 58.4463 50.126 58.6436 49.9752C58.8122 49.8464 59.089 49.8217 59.253 49.6882C59.574 49.4267 59.5771 49.1506 59.9788 48.9253C60.4545 48.6588 60.8758 48.432 61.3084 48.0785C61.5905 47.8482 61.8582 47.4398 62.1883 47.2878C62.6446 47.0775 63.0002 47.0627 63.4466 46.7629C63.7692 46.546 64.0743 46.1882 64.3911 46.0055C64.63 45.8679 64.7976 45.8975 65.0988 45.8122C65.6409 45.6584 65.7729 45.1477 66.215 44.9398C66.5186 44.797 66.9605 44.9277 67.2938 44.8527C68.3312 44.6199 69.3559 44.1175 70.3968 43.8393C71.6674 43.4999 72.9469 43.2025 74.2273 42.9024C73.0507 44.4971 71.5521 45.9359 70.0323 47.2025C69.5335 47.6183 66.7997 49.5136 68.2732 50.323C68.8647 50.6478 70.1497 49.5986 70.6273 49.3421C71.5889 48.8256 72.585 48.4121 73.5922 47.9943C75.2208 47.3188 77.3419 46.1173 79.1518 46.214C78.05 47.5657 76.6746 48.6508 75.4145 49.8449C74.2565 50.9423 72.5116 51.9715 73.0577 53.7676C71.431 53.3538 69.97 52.8647 68.2788 52.973C67.5213 53.0215 66.7633 52.9303 66.0092 53.0365C65.1892 53.1525 64.417 53.4268 63.629 53.6677C63.0056 53.858 62.3168 53.873 61.7432 54.1897C61.4659 54.3428 61.1233 54.5615 60.8742 54.7514C60.5423 55.0048 60.4667 55.1725 60.206 55.5063C59.2759 56.6972 58.3761 57.8138 57.8233 59.2646ZM52.7358 81.8056C52.685 81.5994 52.6389 81.4114 52.5806 81.176C53.0983 81.4948 53.0983 81.4948 52.7358 81.8056ZM48.8233 75.2406C48.7595 75.3289 48.4914 75.3571 48.4135 75.281C48.3165 75.1863 48.5714 74.8176 48.6123 74.7393C48.7133 74.8168 48.9458 75.0707 48.8233 75.2406ZM47.7149 72.8513C47.7835 72.5996 47.8522 72.348 47.9207 72.0963C48.0048 72.3295 48.3843 72.5875 48.3927 72.8098C48.3979 72.9571 47.7899 72.8839 47.7149 72.8513ZM47.9349 73.1966C48.529 73.5877 48.5911 74.0491 48.6088 74.7241C47.8979 74.4887 48 73.8005 47.9349 73.1966ZM58.2653 46.5604C58.2053 46.7227 57.9508 47.2284 57.7643 46.8747C57.7047 46.7615 58.1412 46.607 58.2653 46.5604ZM58.0947 46.0092C58.2415 45.8769 58.5375 46.0415 58.7035 45.9345C58.82 45.8595 58.7814 45.7835 58.8361 45.7391C58.847 45.7301 59.0053 45.4098 59.0702 45.3371C59.1846 45.2093 59.4344 45.1296 59.5736 45.0143C59.9627 44.6918 60.1823 44.2678 60.427 43.8366C60.7191 43.3216 60.8121 43.2619 61.2831 43.0262C61.6079 42.8637 61.8596 42.6647 62.1238 42.3884C62.4283 42.0702 62.4059 41.8424 62.6559 41.4946C62.7794 41.323 62.9571 41.3017 63.101 41.1634C63.2735 40.9977 63.3611 40.7661 63.5206 40.5989C63.5895 40.5266 63.8107 40.5268 63.8523 40.4648C63.9055 40.3865 63.947 40.0732 63.9968 40.0155C64.092 40.1441 64.1874 40.2727 64.2824 40.4013C64.6578 39.7411 64.9318 39.1957 65.5595 38.7564C66.2187 38.2949 66.7878 37.62 67.4693 37.2069C67.6223 37.1141 67.9344 37.075 68.0514 36.9382C68.2492 36.7067 68.0779 36.5007 68.2222 36.3041C68.3859 36.0812 68.7031 36.2617 68.9112 36.1656C69.1746 36.044 69.25 35.6888 69.5892 35.728C68.4739 37.0473 68.4879 39.1001 68.4287 40.7479C68.403 41.458 68.8503 41.8159 68.19 42.337C67.6285 42.7803 66.8367 42.6487 66.1728 42.9404C65.3391 43.3068 64.4473 43.5016 63.5967 43.821C62.7169 44.1511 62.0093 44.7292 61.1626 45.1117C60.4159 45.4488 59.906 45.9281 59.223 46.3443C58.9691 46.499 58.5758 46.7237 58.2731 46.5388C58.0834 46.4228 57.8472 46.2325 58.0947 46.0092ZM70.69 34.9468C70.7385 34.7593 71.6903 34.2667 71.9246 34.106C72.276 33.8644 72.7962 33.2744 73.1886 33.5088C73.3245 32.9644 73.8548 32.3586 74.3235 32.2432C74.8433 32.115 75.7352 31.6692 76.2467 31.28C76.396 31.1664 76.4453 31.0002 76.6211 30.8937C76.9272 30.708 77.2309 30.8093 77.5257 30.5562C77.5708 30.5176 77.9787 29.844 77.9949 29.8504C78.0157 29.9227 78.0348 29.9958 78.0514 30.0692C78.3609 29.8976 78.6366 29.761 78.8296 29.542C78.8734 29.4923 78.5897 29.3631 78.6793 29.2647C78.7889 29.1443 79.0336 29.2789 79.1444 29.1645C78.7998 30.8753 79.0564 33.0774 80.7919 33.9447C78.7279 34.1678 76.712 33.5472 74.6225 33.9283C73.6223 34.1109 72.6056 34.4104 71.6958 34.8704C71.1384 35.1524 70.4256 36.1621 69.8707 35.6718C70.0909 35.3782 70.4268 35.1958 70.69 34.9468ZM80.7049 30.025C81.4767 29.0809 82.6474 28.7074 83.8265 29.0455C85.2069 29.4414 84.6248 30.4059 84.4163 31.4768C84.0179 30.8929 83.155 30.3136 82.4202 30.296C81.3786 30.2713 81.7722 31.1392 82.3978 31.4501C82.9665 31.7327 83.9418 31.8114 84.3489 32.3252C84.7451 32.8252 84.5932 33.6428 84.6571 34.2325C84.3491 34.1867 84.0411 34.1409 83.7329 34.0951C83.9914 32.719 82.8536 32.6524 81.7927 32.2644C80.7205 31.8726 79.8266 31.0994 80.7049 30.025ZM84.1622 26.6365V27.9136C83.7331 27.6688 83.3037 27.4243 82.8744 27.1796C83.3037 26.9985 83.7331 26.8175 84.1622 26.6365ZM87.6122 36.8408C89.0454 37.2291 90.4687 37.64 91.8464 38.1759C92.3467 38.3705 92.8948 38.4393 93.3851 38.6591C93.852 38.8682 93.922 38.8464 93.756 39.2556C93.2908 40.4019 92.1888 40.2039 91.2233 40.0285C89.7121 39.754 88.2322 39.3735 86.7398 39.0153C85.2811 38.6656 83.7917 38.4362 82.355 37.9978C80.8807 37.5481 79.444 37.1221 77.9275 36.8252C77.485 36.7385 73.9841 36.4173 74.0106 36.0514C76.2155 35.765 78.4855 36.0471 80.7002 36.0769C83.002 36.1079 85.3798 36.2355 87.6122 36.8408ZM85.6668 32.4065C85.6943 31.6183 85.7052 30.8276 85.8031 30.0441C86.459 30.8537 87.0511 31.0961 87.878 30.3372C88.6697 29.6107 88.8462 29.2319 89.8499 29.9149C90.72 30.5073 91.5432 30.48 92.4673 29.9615C93.0309 29.6452 93.9366 28.353 94.5291 28.6189C94.8114 28.7458 95.0184 29.2569 95.3034 29.4449C95.6611 29.6805 96.2111 29.844 96.628 29.9354C97.6126 30.1511 98.1992 29.5178 98.8172 28.8405C99.7134 27.8582 99.6871 28.4288 100.518 29.1098C101.445 29.8695 102.22 29.4983 103.059 28.85C103.57 30.3479 103.761 31.9837 103.906 33.554C103.954 34.0842 104.137 34.8371 103.66 35.212C103.325 35.4764 102.612 35.4867 102.208 35.6329C100.763 36.1553 99.375 36.8963 98.1667 37.845C97.6959 38.2147 97.2855 38.6673 96.6422 38.5831C96.0291 38.5029 95.4333 37.9896 94.9401 37.6508C94.4051 37.2833 93.8636 36.8659 93.2383 36.6611C92.872 36.5411 92.2854 36.5845 91.9649 36.3645C91.3692 35.9555 92.0703 34.8827 91.9219 34.1625C91.8096 33.6157 91.4949 32.4757 90.7418 32.7962C89.6211 33.273 90.2734 35.1344 90.8896 35.7155C89.6289 35.4916 88.2331 35.1646 87.0172 34.7492C86.078 34.4283 85.6331 33.3679 85.6668 32.4065ZM106.811 36.2455C109.398 35.5189 111.82 35.0288 114.513 34.8965C115.706 34.8379 116.86 34.8749 118.039 34.8856C118.717 34.8918 119.234 34.3445 118.692 33.7149C117.942 32.8432 115.653 33.175 114.639 33.1358C111.92 33.0308 109.428 33.3398 106.853 34.236C107.126 33.7344 107.78 33.6693 108.228 33.41C108.778 33.0916 109.152 32.5672 109.387 31.9852C109.998 30.4716 109.383 29.0453 108.743 27.6626C109.999 28.0005 111.298 28.7403 112.561 28.9282C112.826 28.9675 112.996 28.9422 113.23 29.0387C113.373 29.0977 113.419 29.3021 113.597 29.3467C113.683 29.3683 113.89 29.1739 113.987 29.2014C114.372 29.3101 114.068 29.3389 114.311 29.4964C114.504 29.6213 114.488 29.782 114.842 29.723C114.999 29.6971 115.169 29.4543 115.252 29.4476C115.357 29.4391 115.333 29.3109 115.494 29.3483C115.787 29.4165 115.761 29.7943 115.859 29.9802C115.964 30.1782 115.815 30.4414 116.132 30.5497C116.368 30.6308 116.428 30.381 116.629 30.3989C116.751 30.4098 117.004 30.5858 117.112 30.693C117.46 31.0382 117.936 31.4196 118.403 31.6442C118.357 31.598 118.623 31.4868 118.559 31.4607C118.517 31.4433 118.796 31.5107 118.792 31.5098C119.062 31.5712 119.204 31.9854 119.341 32.1364C119.591 32.4133 119.981 32.7056 120.332 32.8278C120.94 33.0392 120.922 32.7865 121.143 33.5086C121.575 32.8293 121.741 33.9669 122.277 34.0922C122.554 34.157 122.522 34.0382 122.774 34.1834C122.947 34.2829 123.063 34.5879 123.193 34.735C123.249 34.5228 123.305 34.3104 123.361 34.0984C123.747 34.8295 124.58 35.9889 125.493 35.7792C125.493 35.9787 125.411 36.2172 125.565 36.3875C125.673 36.5066 125.848 36.3714 125.932 36.4405C126.006 36.5009 126.182 36.7414 126.239 36.7809C126.35 36.8589 126.552 36.9158 126.648 36.9935C126.733 37.0619 126.776 37.3887 126.87 37.5068C127.047 37.7287 127.354 37.7727 127.499 38.0389C127.532 37.7764 127.565 37.5138 127.598 37.2513C127.886 37.4736 127.911 37.6463 127.981 37.9715C128.082 38.4347 127.948 38.3261 128.268 38.5216C128.582 38.7139 128.746 38.6922 129.033 39.0258C129.315 39.3528 129.318 39.5543 129.725 39.2137C129.801 39.4656 129.825 39.7916 130.027 39.9847C130.18 40.1307 130.812 40.1369 130.872 40.4816C129.685 39.4795 130.466 41.0014 130.873 40.4841C130.959 41.0379 131.364 41.2168 131.827 41.6111C132.259 41.9786 132.329 41.9519 132.477 42.5694C132.473 42.5558 132.694 42.6924 132.71 42.7197C132.289 42.7797 132.941 43.2497 133.051 43.3356C133.132 43.3983 133.236 43.2485 133.37 43.35C133.523 43.4661 133.647 43.7302 133.772 43.8894C134.109 44.321 134.358 44.6918 134.713 45.0427C135.096 45.4215 135.282 45.9002 135.649 46.343C136.057 46.8346 136.278 47.3998 136.619 47.9335C136.943 48.4411 137.373 48.8486 137.749 49.3133C138.347 50.053 138.55 51.6819 139.666 51.7248C139.6 51.7924 139.691 52.2973 139.702 52.3904C139.755 52.8489 139.72 53.29 139.991 53.7053C140.053 53.2316 140.301 53.4142 140.516 53.663C140.874 54.0771 140.56 53.9728 140.579 54.3923C140.602 54.9009 140.66 54.5075 140.853 54.9516C141.005 55.2994 141.088 55.525 141.169 55.911C140.539 55.9609 140.251 55.4461 140.018 54.9473C139.921 54.7386 139.887 54.3956 139.715 54.2326C139.531 54.0589 139.279 54.0453 139.091 53.8516C138.729 53.4794 138.572 52.8992 138.146 52.5369C137.664 52.1278 137.558 51.9345 137.159 51.4452C136.719 50.9041 136.111 50.5241 135.649 50.0007C135.186 49.4764 135.224 49.7626 134.642 49.5728C134.024 49.3708 133.024 47.4271 132.246 48.1757C132.276 47.6861 131.543 47.2254 131.172 47.0479C131.012 46.9714 130.825 47.0407 130.665 46.9258C130.491 46.8011 130.479 46.5606 130.303 46.411C130.303 46.4112 130.034 46.4762 129.98 46.4488C129.869 46.3924 129.868 46.1933 129.77 46.1278C129.498 45.9464 129.175 45.7563 128.887 45.6017C128.187 45.2262 127.568 44.7639 126.892 44.3118C126.314 43.9244 125.613 43.2249 124.944 43.0207C124.36 42.8424 123.993 42.9332 123.514 42.5761C123.253 42.3816 123.33 42.3163 122.911 42.1953C122.513 42.0802 122.289 42.1394 122.077 41.7166C121.708 40.9767 121.941 39.5326 121.87 38.703C121.794 37.8224 121.704 36.9201 121.474 36.0639C121.202 35.052 120.844 34.523 119.758 34.7613C117.608 35.234 115.483 35.6837 113.323 36.0988C109.018 36.9257 104.787 38.2753 100.576 39.4734C100.256 39.5648 98.4667 39.9744 98.8322 39.0492C99.0006 38.6225 100.133 38.4635 100.512 38.3294C102.593 37.5929 104.683 36.8425 106.811 36.2455ZM106.087 34.3624C105.773 34.4823 105.459 34.6021 105.144 34.7221V33.8478C105.459 34.0193 105.773 34.1908 106.087 34.3624ZM104.781 29.7395C105.054 29.9628 105.609 29.4254 105.842 29.3165C106.238 29.1306 106.744 28.971 107.187 29.0092C108.004 29.08 108.602 29.8849 108.453 30.7009C108.199 32.0817 106.232 32.7346 105.147 33.2744C105.112 32.7851 104.954 32.1968 105.297 31.7736C105.595 31.4061 106.173 31.4328 106.448 31.0419C107.139 30.0595 105.265 29.9704 104.846 30.7516C104.68 30.2524 104.515 29.7532 104.35 29.254C104.749 29.1879 104.573 29.5704 104.781 29.7395ZM106.716 27.0369C106.325 27.2893 105.935 27.5416 105.545 27.7939C105.351 26.9204 106.011 26.8054 106.716 27.0369ZM142.282 57.4402C141.771 57.6842 141.643 57.1016 141.276 57.0764C141.71 56.8095 141.71 56.8095 142.282 57.4402ZM144.361 70.161C144.425 70.9983 144.375 71.8453 144.486 72.6793C144.571 73.3137 144.828 73.9041 144.856 74.5458C144.916 75.951 144.441 77.382 143.483 78.4122C142.576 79.3867 141.279 80.2253 140.056 80.6351C139.504 80.8195 138.929 81.2285 138.393 81.3797C137.801 81.547 137.238 81.1829 136.749 81.836C136.423 79.0344 136.661 76.1069 136.635 73.2876C136.61 70.4622 136.64 67.6359 136.162 64.8409C135.737 62.3517 134.897 59.5518 133.351 57.5154C132.722 56.6885 131.949 56.0112 131.133 55.3771C130.71 55.0482 130.286 54.6965 129.815 54.4368C129.089 54.0369 128.471 54.0923 127.682 53.9783C126.553 53.8152 125.503 53.6774 124.369 53.9954C123.314 54.2916 122.152 54.6289 121.207 55.1433C120.265 55.656 119.172 55.8672 118.194 56.3262C117.529 56.6386 116.148 57.682 115.411 57.4942C114.696 57.3122 113.639 56.1002 113.183 55.5574C112.601 54.8635 112.119 54.0593 111.602 53.3128C111.42 53.0508 111.05 52.6457 111.003 52.3092C110.921 51.725 111.155 51.9159 111.713 51.9812C113.148 52.1496 114.497 52.4157 115.873 52.8674C116.557 53.0921 117.895 54.0013 118.579 53.4565C119.624 52.6246 118.037 51.195 117.455 50.7147C116.464 49.8963 115.312 49.2885 114.256 48.5614C113.134 47.7886 111.65 46.9659 110.928 45.7759C113.037 46.3985 115.143 47.1115 117.191 47.9141C118.127 48.2812 119.053 48.6691 119.933 49.1574C120.427 49.4316 121.425 50.1732 122.02 49.818C123.314 49.0458 120.343 46.8032 119.914 46.3449C119.248 45.6327 118.596 44.9273 117.864 44.2812C117.37 43.8453 116.594 43.5388 116.364 42.8958C117.184 43.1926 117.847 43.7738 118.614 44.1688C119.016 44.3757 119.383 44.4948 119.827 44.5581C120.3 44.6259 120.356 44.7013 120.729 44.8894C121.019 45.0361 121.318 45.2321 121.644 45.3319C121.876 45.403 122.282 45.4153 122.485 45.547C122.589 45.6951 122.696 45.8406 122.806 45.9836C122.93 46.0201 123.052 46.062 123.172 46.1097C123.352 46.2703 123.459 46.4916 123.634 46.6573C124.906 47.8595 126.606 48.72 128.032 49.7272C129.38 50.68 130.811 51.542 132.106 52.582C133.597 53.7789 135.144 55.0653 136.411 56.5006C137.128 57.3118 137.717 58.2315 138.318 59.1284C138.754 59.7779 139.388 60.3166 139.764 60.9864C140.586 62.4464 141.267 64.0247 142.151 65.4611C143.052 66.9249 144.226 68.3793 144.361 70.161ZM132.246 78.6324C132.491 77.6192 133.877 76.436 134.762 75.9892C134.316 77.0933 133.127 77.8462 132.246 78.6324ZM134.53 82.1671C133.775 83.7341 130.454 83.9133 130.905 81.5944C131.126 80.4582 132.063 79.761 132.867 79.0175C133.239 78.6739 134.149 77.4448 134.725 77.6428C134.698 78.5264 134.646 79.414 134.648 80.2978C134.649 80.8878 134.798 81.6125 134.53 82.1671ZM133.571 64.1061C133.877 64.7944 134.182 65.3674 133.614 65.9832C133.357 66.261 132.521 66.869 132.143 66.7339C130.929 66.301 133.244 64.4158 133.571 64.1061ZM126.228 57.9827C126.521 57.9667 126.805 58.0102 127.093 57.9924C127.381 57.9745 127.412 57.9235 127.678 57.9599C127.707 58.0008 127.735 58.0417 127.763 58.0826C127.799 58.3572 127.944 58.387 128.195 58.1723C128.546 58.2502 128.773 58.3022 129.108 58.4915C128.204 59.1432 127.104 59.901 125.996 60.1198C124.244 60.4655 124.728 58.0653 126.228 57.9827ZM99.3763 72.6399C99.1947 73.0053 98.6723 72.0924 98.543 71.9223C98.7841 71.9215 99.5599 72.2713 99.3763 72.6399ZM113.45 63.0222C114.811 62.2281 116.427 61.5308 117.889 60.9396C118.146 62.1779 116.892 63.7765 116.12 64.6237C115.496 65.309 114.743 66.0196 113.897 66.414C112.982 66.8403 111.982 66.6531 112.026 65.4567C112.042 65.0194 112.142 64.316 112.32 63.9164C112.549 63.4012 112.983 63.2942 113.45 63.0222ZM95.0542 40.498C95.2567 40.4861 97.457 40.2016 97.4453 40.4753C97.4107 41.2982 95.275 40.6521 95.0542 40.498ZM79.495 56.3863C80.6572 54.9523 82.5333 53.4046 82.5608 51.4006C82.6013 48.4517 79.3286 49.923 77.6832 50.0456C78.5533 49.1907 82.9253 45.6045 80.3393 44.3307C79.5959 43.9646 78.5395 44.3223 77.7936 44.5141C76.4702 44.8545 75.2397 45.4439 73.9397 45.8541C74.8686 44.8652 76.4737 43.7413 76.4211 42.2436C76.3569 40.4206 74.8604 40.8614 73.5665 41.1289C73.0692 41.2318 70.8479 42.1154 70.4306 41.5155C70.2778 41.2957 70.5251 41.0165 70.5774 40.8208C70.6699 40.4746 70.6413 40.3538 70.6444 40.0001C70.6508 39.2866 71.1249 38.3704 70.7383 37.7067C70.6499 37.8575 70.5741 38.0144 70.5112 38.1774C70.3837 37.7912 70.4694 37.3817 70.3419 36.9955C73.5723 37.8216 76.8586 38.2739 80.1093 38.9791C81.7549 39.336 83.3037 39.9508 84.9719 40.2275C86.6543 40.5063 88.3075 40.9333 89.993 41.1992C91.5309 41.4418 93.0042 41.8457 94.5272 42.1556C96.0117 42.4576 97.5343 41.7957 98.9832 41.4605C102.229 40.71 105.473 39.9411 108.723 39.2127C112.473 38.3719 116.374 37.6531 119.963 36.2509C120.033 38.1198 120.182 39.9851 120.411 41.8411C118.825 41.0917 116.473 40.1145 114.87 41.4555C114.229 41.9919 114.031 42.9182 114.285 43.706C114.561 44.5636 115.406 44.9618 115.964 45.6074C114.266 45.1723 109.888 42.1047 109.109 45.2054C108.558 47.3954 111.243 48.81 112.556 50.0426C111.252 49.7874 109.507 48.7451 108.741 50.4203C108.079 51.8684 108.876 53.4442 109.692 54.6386C110.135 55.2857 110.632 55.8948 111.102 56.5219C111.351 56.8535 111.594 57.1898 111.855 57.5117C112.117 57.8346 112.612 58.1727 112.795 58.5201C113.165 59.2208 112.419 59.2637 111.839 59.5168C111.114 59.8328 110.492 60.3636 109.83 60.7866C108.312 61.7552 106.987 62.6549 105.194 62.9645C103.348 63.2831 101.571 63.6159 99.7494 64.0603C97.9336 64.5034 96.4514 64.9292 94.5953 64.3565C93.7492 64.0954 93.0599 63.8633 92.1624 63.9125C91.2196 63.9641 90.6684 63.9152 89.8933 63.3312C86.5579 60.8192 82.9375 58.7578 79.495 56.3863ZM73.482 53.8643C74.7711 53.2176 76.0687 52.5675 77.4003 52.0118C78.5025 51.5516 80.1761 51.0155 81.3827 51.2172C81.0425 52.0909 80.4218 52.8078 79.7561 53.4512C79.1674 54.0202 78.4318 54.8789 77.7194 55.276C77.0724 55.6365 76.3197 55.0655 75.6817 54.8263C74.9806 54.5636 74.0158 54.441 73.482 53.8643ZM73.8059 57.1273C74.4483 56.8603 75.8289 57.7561 76.4132 57.9889C77.5613 58.4468 78.7159 58.925 79.7277 59.6473C78.4921 61.0752 77.0928 62.3807 75.4301 63.2979C74.3361 63.9013 72.4923 64.5935 71.4604 63.4978C70.1639 62.121 71.7225 59.3155 72.6403 58.1357C72.6707 58.3375 72.7012 58.5392 72.7318 58.7411C73.0246 58.2722 73.2481 57.3592 73.8059 57.1273ZM97.3889 69.3485C96.5875 69.5172 96.3151 69.3648 95.7861 68.7503C95.4284 68.3348 95.077 67.9034 94.6738 67.5299C94.2622 67.1488 93.2459 66.2296 94.5408 66.7589C95.7211 67.2411 96.7321 67.4824 98.0308 67.2934C99.5156 67.0774 100.9 66.4496 102.364 66.1318C101.561 66.8341 100.765 67.5433 99.9604 68.2436C99.111 68.9835 98.4683 69.1211 97.3889 69.3485ZM97.5721 74.9965C95.8159 76.3182 92.2801 76.1751 93.4701 73.2672C93.651 72.8254 93.9039 72.4098 94.1966 72.0335C94.2941 71.9079 94.4678 71.6475 94.6068 71.5632C94.9952 71.3276 94.8876 71.2991 95.261 71.692C95.5832 72.0308 98.1013 74.7995 97.5721 74.9965ZM97.0514 69.9435C97.2123 69.8913 97.8902 69.4983 98.0446 69.7158C98.2009 69.9359 96.8719 70.6976 97.0514 69.9435ZM109.837 90.1005C109.442 91.0453 106.282 92.4132 106.87 90.5085C107.131 89.6648 107.377 89.0261 108.361 88.962C108.929 88.9251 110.185 89.2685 109.837 90.1005ZM115.506 77.2961C116.026 76.5385 117.744 75.5142 118.478 76.644C118.831 77.1882 117.974 77.467 117.455 77.3271C117.176 77.2517 116.949 77.0853 116.646 77.0728C116.257 77.0568 115.876 77.3622 115.506 77.2961ZM116.885 78.0481C116.531 78.4062 114.398 80.2016 114.052 79.9247C114.749 78.9286 115.549 77.8162 116.885 78.0481ZM113.401 96.2163C112.66 96.2582 113.03 95.1417 113.101 94.6953C113.281 95.0063 114.224 96.1698 113.401 96.2163ZM115.283 94.2152C115.043 93.7887 114.398 93.1538 114.544 92.6051C114.655 92.1856 115.663 91.6215 116.085 91.8622C116.646 92.1821 115.833 94.2859 115.283 94.2152ZM132.863 89.7429C132.546 90.8349 132.218 90.5531 131.224 90.7648C130.227 90.9769 129.538 91.8236 128.66 92.2776C128.965 91.633 129.154 90.8476 129.665 90.3246C129.783 90.2038 130.506 89.9653 130.094 89.6855C129.734 89.4409 129.216 90.2346 129.061 90.4508C128.301 91.5153 127.769 92.8152 127.33 94.04C127.114 94.6415 126.941 95.2544 126.839 95.8861C126.748 96.449 126.846 97.038 126.753 97.5864C126.604 98.4694 125.404 98.4739 124.683 98.7017C124.03 98.9077 123.38 99.1311 122.702 99.2422C122.114 99.3385 121.505 99.1631 120.935 99.2788C120.319 99.4041 120.041 99.7701 119.341 99.6873C118.769 99.62 118.234 99.3572 117.655 99.3309C117.113 99.3065 116.573 99.494 116.034 99.3414C115.49 99.1873 115.516 99.1276 115.64 98.5934C115.717 98.7375 115.795 98.8817 115.872 99.0257C116.089 98.8558 116.239 98.3377 116.372 98.0943C116.578 97.7175 116.745 97.5871 116.669 97.1177C116.557 96.4244 115.932 95.9313 115.79 95.2719C115.642 94.5839 116.151 94.0213 116.451 93.4469C116.862 92.6607 116.857 92.0777 116.512 91.2645C116.772 91.3331 117.032 91.4017 117.292 91.4705C116.936 90.6975 115.728 91.0108 115.123 91.2398C114.818 91.3548 114.336 91.807 114.009 91.7955C113.559 91.7797 113.324 91.1882 113.131 90.8624C112.571 89.9199 111.932 88.9891 111.27 88.114C111.088 87.8733 110.85 87.7186 110.913 87.4443C110.966 87.2116 111.488 86.8815 111.657 86.7381C112.292 86.2013 113.1 85.9038 113.697 85.3387C114.598 84.4848 115.637 83.873 116.559 83.0359C117.519 82.1639 118.508 81.3631 119.508 80.5391C120.521 79.7045 121.399 78.7211 122.405 77.878C122.665 78.3503 123.17 80.0414 123.748 80.1723C124.421 80.3247 124.401 79.5282 124.368 79.0488C124.32 78.3657 123.941 77.702 123.898 77.05C123.853 76.3526 124.524 76.0409 125.03 75.6375C125.812 75.0144 127.543 73.5951 126.613 72.4269C125.811 71.4207 123.205 73.35 122.486 73.93C121.876 74.423 121.404 74.8688 120.717 75.2578C120.233 75.531 119.422 76.582 118.849 76.485C118.168 76.3696 117.901 75.6253 117.067 75.6498C116.253 75.6736 115.56 76.2605 115.055 76.8497C113.913 78.1815 113.52 79.9637 112.48 81.352C111.966 82.0365 111.301 82.6016 110.744 83.2493C110.133 83.9601 110.003 84.7791 109.4 85.4747C107.675 83.1766 105.796 81.0007 103.976 78.778C103.068 77.6681 102.178 76.545 101.289 75.4195C100.956 74.9976 100.581 74.6019 100.275 74.1588C99.8576 73.552 99.9328 73.0647 99.7687 72.388C99.696 72.0881 99.3555 71.7288 99.4466 71.4422C99.5693 71.0569 100.43 70.7545 100.741 70.5971C102.009 69.9533 103.159 69.1487 104.342 68.3623C106.532 66.9062 108.747 65.5406 111.075 64.2969C111.035 64.8327 110.687 65.3881 110.921 65.9257C111.03 65.6164 111.203 64.2386 111.616 64.1794C111.536 64.1907 111.601 65.9463 111.665 66.1969C111.856 66.945 112.409 67.4564 113.2 67.4514C114.707 67.4416 116.058 65.8025 116.894 64.7166C117.46 63.9814 118.004 63.1264 118.204 62.2063C118.383 61.3801 118.186 60.8055 119.044 60.386C120.807 59.5253 122.583 58.8241 124.468 58.3677C124.383 59.1799 124.148 60.1797 124.886 60.7638C125.701 61.4086 126.767 60.834 127.534 60.4074C128.294 59.985 129.465 58.8245 130.358 59.1615C131.236 59.4932 131.847 60.5941 132.338 61.3252C132.771 61.9696 133.243 62.4343 132.741 63.1525C132.179 63.9575 131.813 64.7431 131.363 65.6174C131.19 65.9535 131.025 66.1727 131.147 66.5171C131.187 66.6289 131.638 67.2943 131.76 67.3896C132.542 67.9981 133.598 66.8407 134.156 66.4013C134.353 68.2933 134.397 70.177 134.477 72.0748C134.535 73.4649 135.073 74.8334 133.932 75.8495C132.792 76.8653 131.84 77.9082 131.145 79.2836C130.774 80.0184 130.441 80.7725 130.039 81.4921C129.771 81.9728 129.205 82.6778 129.551 83.2436C129.917 82.8968 130.025 82.3695 130.33 81.9784C130.512 82.79 130.696 83.6904 131.554 84.0343C132.542 84.4301 133.524 83.7454 134.399 83.3642C134.085 85.5339 133.473 87.6422 132.863 89.7429ZM131.854 92.2369C131.176 93.6856 130.564 95.4324 129.312 96.4993C129.037 96.7335 127.869 97.6479 127.425 97.4948C127.048 97.3646 127.255 96.6023 127.321 96.2758C127.654 94.6178 128.231 93.5745 129.576 92.5169C130.132 92.079 130.847 91.5194 131.564 91.4115C132.336 91.2951 132.114 91.6802 131.854 92.2369ZM150.974 126.625C149.216 124.236 146.732 122.378 144.385 120.583C143.322 119.77 142.15 119.16 141.076 118.346C139.861 117.426 138.627 116.539 137.267 115.846C134.688 114.532 131.874 113.616 129.44 112.062C128.253 111.304 126.954 110.571 125.838 109.72C125.348 109.346 124.915 108.868 124.472 108.44C124.06 108.042 123.177 107.465 123.013 106.883C123.698 106.771 124.087 106.106 124.699 106.038C124.9 106.016 126.162 106.349 125.989 105.737C126.447 105.726 126.5 105.719 126.884 105.619C127.043 105.577 127.231 105.642 127.392 105.585C127.637 105.499 127.805 105.248 128.053 105.152C128.229 105.084 128.885 105.16 128.984 105.075C129.255 104.843 128.967 104.864 128.805 104.575C129.332 104.561 129.694 104.827 130.222 104.544C130.383 104.458 130.519 104.259 130.675 104.156C130.952 103.974 131.052 104.257 131.241 103.878C131.418 104.401 131.413 104.256 131.841 104.102C132.266 103.949 132.573 103.838 133.058 103.8C134.215 103.708 135.377 103.849 136.529 103.767C136.951 103.736 137.311 103.641 137.73 103.696C138.099 103.744 137.987 104.001 138.294 103.655C138.365 103.575 138.135 103.355 138.245 103.24C138.294 103.189 138.453 103.225 138.513 103.199C139.052 102.963 139.054 103.292 139.15 103.72C139.466 103.646 139.788 103.579 140.062 103.394C139.924 103.27 139.692 103.133 139.826 102.907C140.281 103.08 140.579 103 140.351 103.5C140.81 103.652 140.896 103.454 141.307 103.411C141.551 103.386 141.891 103.537 142.094 103.342C142.315 103.13 141.966 102.899 142.373 102.717C142.456 102.759 142.518 102.823 142.558 102.909C142.778 102.975 142.739 103.062 142.44 103.168C143.24 103.583 143.052 103.119 143.388 102.629C143.466 102.516 143.814 102.164 143.972 102.334C144.212 102.591 143.722 102.673 143.827 102.929C144.009 103.373 144.645 102.804 144.84 102.579C144.988 102.41 145.048 102.084 145.207 101.957C145.428 101.781 145.746 102.054 146.023 102.005C147.288 101.783 148.482 100.083 147.529 98.9447C147.273 98.6388 147.057 98.6995 146.752 98.5065C146.45 98.3157 146.281 97.9856 146.039 97.713C145.486 97.0908 144.81 96.6248 144.037 96.3268C142.245 95.6355 140.314 95.1312 138.433 94.7602C137.561 94.5883 136.633 94.3255 135.741 94.3274C135.215 94.3284 134.424 94.7372 133.932 94.5414C132.977 94.1606 134.38 92.2117 134.611 91.5822C135.291 89.7328 135.804 87.7609 136.14 85.8194C136.206 85.4394 136.181 84.9472 136.318 84.5852C136.475 84.169 136.509 84.2278 136.845 84.1939C137.452 84.1325 138.117 84.4511 138.749 84.341C139.45 84.2191 140.208 84.2758 140.916 84.0589C141.241 83.9593 141.543 83.851 141.757 83.5764C141.824 83.4903 141.749 83.4153 141.792 83.3551C141.805 83.336 142.047 83.0751 142.055 83.0601C142.053 82.925 142.064 82.791 142.09 82.6583C142.335 82.8619 142.215 83.289 142.628 83.299C142.702 82.8436 142.702 82.7518 143.001 82.4956C142.979 82.5153 143.226 82.3046 143.195 82.327C143.21 82.246 143.239 82.1702 143.284 82.1C143.424 82.0326 143.571 81.9968 143.727 81.9927C144.05 81.6604 143.915 81.4833 143.915 81.0361C144.176 81.1716 144.437 81.307 144.698 81.4424C144.761 80.1176 145.567 79.3922 146.103 78.3185C146.332 77.861 146.564 77.5034 146.619 76.9516C146.65 76.6332 146.568 76.3524 146.7 76.0524C146.82 75.7802 147.087 75.6334 147.199 75.3369C147.419 74.7533 147.255 74.0084 147.267 73.4024C147.284 72.562 147.367 71.7243 147.395 70.8843C147.449 69.2353 147.283 67.5406 147.036 65.9107C146.918 65.1311 146.721 64.3746 146.566 63.6032C146.438 62.9692 146.133 62.3745 146.024 61.7847C145.979 61.5395 146.049 61.3195 145.975 61.0485C145.878 60.6921 145.715 60.3418 145.594 59.9918C145.311 59.1744 145.031 58.3582 144.714 57.5534C144.097 55.9938 143.376 54.481 142.691 52.9514C142.031 51.4804 141.485 49.9639 140.632 48.5904C139.79 47.2375 138.885 45.9075 137.958 44.6125C136.992 43.2639 135.772 42.1051 134.835 40.744C133.077 38.1886 130.625 36.0828 128.059 34.3439C122.765 30.7555 117.044 27.1727 110.696 25.9424C109.739 25.7571 108.77 25.6285 107.795 25.6046C107.19 25.5896 106.188 25.882 105.615 25.6772C104.974 25.4479 105.032 24.7273 104.872 24.1621C104.665 23.4355 104.199 22.9594 103.67 22.4458C103.113 21.9051 102.608 21.2736 101.913 20.9059C101.21 20.5335 100.379 20.3942 99.5997 20.2816C98.9034 20.1808 97.8631 20.2749 97.2271 19.9716C96.6478 19.6951 96.9338 19.4073 97.4763 19.644C97.516 19.4047 97.5481 19.2502 97.7015 19.0653C97.7784 18.9724 98.1421 18.842 98.1509 18.7553C98.1612 18.6538 97.8561 18.3646 97.8125 18.2337C97.7187 17.9517 97.772 17.5612 97.8834 17.2966C98.4303 17.7828 98.5888 17.9981 99.1994 17.5334C99.4573 17.3371 99.5364 17.2506 99.835 17.1516C99.916 17.1248 100.098 17.2078 100.168 17.1612C100.438 16.9835 100.19 17.0254 100.318 16.8153C100.286 16.8683 100.513 16.3101 100.502 16.4268C100.529 16.1294 100.617 16.2208 100.438 15.8555C100.086 15.1408 99.1908 15.1115 99.6472 14.2959C99.8267 13.975 99.9848 14.0069 100.035 13.5416C100.062 13.2914 100.029 13.0046 100.028 12.7501C100.025 12.2297 100.123 11.8653 99.6357 11.6003C99.167 11.3454 98.7346 11.625 98.5444 10.9929C98.345 10.3296 98.5458 9.47931 97.8273 9.02511C97.3022 8.69327 96.5441 8.97698 95.9639 8.81467C95.3825 8.65216 94.8478 8.05727 94.2577 8.51401C93.8385 8.83864 93.616 9.63675 92.8261 9.20515C92.4696 9.0105 92.2733 8.35696 92.0485 7.99044C91.6902 7.40627 91.403 7.19525 90.8518 7.76422C90.5121 8.11515 89.7956 8.96938 89.7518 9.45515C89.7037 9.99138 90.1716 10.2155 89.5842 10.5327C88.9999 10.8483 88.672 10.6169 88.1977 11.2575C87.7273 11.8931 88.0914 12.2443 87.5464 12.8524C86.8652 13.6125 86.5027 13.9407 86.5122 14.9648C86.5188 15.6673 85.8981 16.274 86.2603 16.9404C86.666 17.6873 87.8502 17.9979 88.5682 18.3019C88.3285 18.7448 87.9997 19.0287 88.2795 19.4846C88.533 19.8975 89.2495 19.9832 89.6936 19.9082C89.9922 19.858 90.003 19.9032 90.2381 19.6931C90.3922 19.5555 90.1809 19.3839 90.4981 19.3077C90.8357 19.2262 91.3748 19.888 91.594 20.0534C91.1042 20.6892 89.7586 20.8081 89.0468 21.1303C88.613 21.327 88.2142 21.6177 87.7725 21.7934C87.3718 21.9528 86.8841 21.9158 86.5208 22.1625C85.8932 22.5884 85.6322 23.6438 85.2476 24.2642C84.8123 24.9664 84.3902 25.2926 83.5549 25.4384C82.5129 25.6201 81.6737 25.6932 80.702 26.147C79.5153 26.7012 78.3455 27.2863 77.1801 27.8838C75.3001 28.8473 73.5538 29.8364 71.8081 31.0018C69.9819 32.2212 68.2054 33.494 66.4434 34.7681C64.7005 36.0282 63.2371 37.5785 61.7231 39.1024C60.4992 40.3343 59.4253 41.664 58.2061 42.8954C56.7669 44.3496 55.7083 46.1849 54.3738 47.7276C53.6437 48.5715 52.9451 49.4014 52.487 50.3955C52.1157 51.2014 51.4701 51.9921 51.039 52.8376C50.4882 53.9186 49.967 54.9823 49.3486 56.0275C49.0949 56.4564 48.7934 56.8245 48.5256 57.2339C48.1826 57.7582 48.2028 58.2646 48.1105 58.8691C48.0142 58.7216 47.918 58.5741 47.8216 58.4268C47.647 58.8083 47.4357 59.1836 47.2844 59.5742C47.1879 59.8235 47.2031 60.1773 47.1061 60.3954C46.9844 60.6691 46.8362 60.6327 46.6846 60.8607C46.5224 61.1044 46.4702 61.432 46.2993 61.6935C45.5604 62.8236 45.2761 64.2577 44.8965 65.5473C44.3871 67.2774 44.4675 69.2658 44.4952 71.0497C44.5246 72.934 44.6276 74.8182 44.9109 76.6825C45.1675 78.3709 45.7161 79.9904 46.5752 81.4708C47.3236 82.7608 48.3557 83.5125 49.6777 84.1733C50.2848 84.4766 50.8482 84.3829 51.4855 84.4314C52.1835 84.4844 52.6595 84.674 53.398 84.5072C53.7523 84.4272 53.92 84.1692 54.2015 84.0832C54.3758 84.0301 54.4696 84.117 54.6369 84.0967C54.8761 84.0676 55.3738 83.9503 55.6333 83.9786C56.4407 84.0667 56.3052 85.2874 56.3847 85.9106C56.5069 86.8708 56.5965 87.8412 56.7614 88.7952C57.1082 90.8018 57.8568 92.6763 58.2991 94.6482C56.2486 94.8984 54.4897 95.2811 52.5678 96.0572C50.6397 96.8356 48.6904 97.0998 46.6612 97.4868C44.7629 97.8488 42.937 98.5254 41.4176 99.751C40.7054 100.325 39.9655 100.997 40.4885 101.943C40.823 102.548 41.4258 102.701 41.9462 103.053C42.0513 102.92 41.7472 102.638 41.6915 102.56C42.129 102.65 42.1156 102.854 42.4351 103.032C42.7143 103.187 42.9428 103.181 43.2485 103.291C43.9948 103.559 44.3614 104.228 45.0991 104.416C45.3312 104.475 45.6348 104.616 45.8721 104.656C46.1571 104.705 46.3705 104.58 46.6595 104.633C46.8154 104.735 46.984 104.809 47.1653 104.853C47.2841 104.798 47.4015 104.739 47.5171 104.678C47.9322 104.721 48.1886 104.982 48.5258 105.197C48.5484 104.926 48.5159 104.646 48.7717 104.469C48.8716 104.732 48.7102 104.899 48.9828 105.079C49.3282 105.309 49.7818 105.023 50.091 104.878C50.1784 105.751 52.201 105.7 52.8421 105.687C53.7299 105.67 54.6168 105.318 55.5124 105.514C55.9694 105.614 56.4571 105.719 56.9119 105.849C57.4596 106.006 58.1218 106.146 58.6609 106.343C58.8753 106.422 59.1379 106.673 59.3661 106.656C59.5477 106.643 59.5964 106.375 59.8079 106.382C60.0472 106.391 60.1276 106.658 60.3347 106.738C60.6447 106.858 60.9297 106.63 61.2243 106.745C61.3302 106.786 61.4737 106.964 61.6092 107.022C61.815 107.109 62.2221 107.11 62.4511 107.153C62.7757 107.213 63.0663 107.172 63.3444 107.192C63.5687 107.208 63.5638 107.359 63.6711 107.369C63.7941 107.38 64.0085 106.957 64.1738 106.895C64.4146 106.804 64.8517 107.02 65.0973 107.058C63.3181 109.469 61.1729 111.601 58.8476 113.467C56.3393 115.48 53.7708 117.491 51.0811 119.257C48.639 120.861 46.2749 122.247 44.3815 124.511C42.7849 126.419 40.2435 128.461 40.6353 131.228C41.0268 133.992 44.0281 135.117 46.433 135.644C49.4577 136.308 52.5713 136.041 55.6041 136.414C56.8975 136.573 58.3346 136.488 59.6365 136.353C61.1743 136.192 62.4922 135.189 63.8142 134.463C66.192 133.158 68.2251 131.411 70.5673 130.065C73.4999 128.38 76.4017 126.594 79.6167 125.465C81.1124 124.94 82.6523 124.341 83.8588 123.261C84.0383 123.1 84.1721 122.857 84.375 122.725C84.7198 122.5 84.8123 122.728 85.0124 122.66C85.1664 122.607 85.3156 122.441 85.4487 122.391C85.7862 122.265 85.9367 122.317 86.3144 122.317C85.9902 122.13 85.6935 121.648 86.0299 121.256C86.606 120.583 86.7053 121.658 86.9218 121.907C87.1052 121.671 87.035 121.461 86.988 121.193C87.143 121.295 87.2982 121.398 87.4534 121.5C87.3465 120.982 87.4481 120.504 87.7228 120.052C87.9761 119.636 88.0386 119.695 88.1085 119.117C88.8953 119.836 89.0491 118.092 89.12 117.457C89.1885 116.84 89.1208 116.398 89.5261 115.859C89.9613 115.28 90.6231 114.914 91.1754 114.465C92.0481 113.754 93.0081 112.857 94.2149 113.539C95.1675 114.077 95.6858 115.395 96.5797 116.073C97.1217 116.484 97.6939 116.525 98.0395 117.163C98.3189 117.678 98.4097 118.295 98.6735 118.824C99.3125 120.106 100.232 121.573 101.282 122.557C102.259 123.473 103.513 123.468 104.656 124.036C105.787 124.598 106.963 125.207 108.161 125.615C109.469 126.06 110.88 126.249 112.154 126.788C112.809 127.065 113.395 127.483 114.056 127.749C114.769 128.035 115.52 128.237 116.242 128.499C119.104 129.539 121.905 130.813 124.911 131.389C126.245 131.645 127.479 132.339 128.822 132.485C129.399 132.548 129.869 132.627 130.432 132.772C131.317 132.998 131.13 133.118 131.456 133.855C131.992 135.069 133.301 134.35 134.31 134.381C135.925 134.43 137.516 134.168 139.128 134.156C141.949 134.134 144.664 133.817 147.393 132.891C150.132 131.961 153.25 129.721 150.974 126.625Z" fill="black"/>
<path fill-rule="evenodd" clip-rule="evenodd" d="M118.372 31.7617C118.411 31.8003 118.502 31.8238 118.372 31.7617V31.7617Z" fill="black"/>
<path fill-rule="evenodd" clip-rule="evenodd" d="M68.6925 83.4742C69.3052 82.8535 71.9114 82.9789 72.1084 84.0894C72.328 85.3288 69.9992 87.201 69.147 87.7259C68.0501 88.4013 66.7114 88.5279 66.9059 86.8319C67.0529 85.5509 67.8203 84.3581 68.6925 83.4742ZM70.8449 82.1963C70.9244 82.5397 70.3386 82.4229 70.1774 82.3414C70.1013 82.1853 70.7654 81.8516 70.8449 82.1963ZM66.3504 84.4693C66.8704 84.516 67.4659 83.6821 67.8581 83.398C68.0315 83.6659 66.8884 85.1387 66.7626 85.4747C66.4486 86.3144 66.2738 87.3753 66.702 88.2127C67.9534 90.6601 71.1559 87.1652 71.9569 85.9444C72.5173 85.0906 72.9054 84.0319 72.1138 83.1952C71.8319 82.8972 71.3664 82.8145 71.1045 82.5312C70.7599 82.1587 71.0312 81.6778 70.3383 81.7591C69.8602 81.8152 69.2862 82.2465 68.8214 82.4026C68.2611 82.5906 67.7575 82.7855 67.2685 83.134C67.1583 83.2125 65.7082 84.4116 66.3504 84.4693Z" fill="black"/>
<path fill-rule="evenodd" clip-rule="evenodd" d="M103.091 85.2908C102.764 86.9723 101.098 88.6972 99.3448 88.7642C97.5988 88.8308 97.0335 87.0015 97.3417 85.5435C97.6046 84.3 98.6793 82.1397 100.213 82.3777C101.418 82.5646 103.371 83.8494 103.091 85.2908ZM101.979 82.4804C100.872 81.6238 99.3426 81.2275 98.0596 81.9071C97.6389 82.1299 95.9596 83.1128 96.4706 83.7781C97.1596 83.2442 97.7544 82.5033 98.6497 82.3256C98.4991 83.0197 97.6393 83.6441 97.3363 84.32C96.9821 85.1096 96.7883 86.0133 96.8463 86.881C96.9496 88.4255 97.9841 89.6254 99.5855 89.4131C101.052 89.2187 102.333 88.0949 103.033 86.8317C103.967 85.1446 103.441 83.6112 101.979 82.4804Z" fill="black"/>
<path fill-rule="evenodd" clip-rule="evenodd" d="M91.6986 89.1131C90.9103 90.2802 89.7085 91.378 88.3189 91.7384C86.5199 92.2049 87.0254 90.7183 87.5629 89.6514C88.0383 88.7082 88.8538 87.0856 90.0955 87.0942C90.5169 87.097 91.3019 87.3008 91.6712 87.5262C92.3993 87.9705 92.1135 88.499 91.6986 89.1131ZM90.0196 86.5482C90.3025 86.2331 91.5549 84.8823 91.7228 85.9353C92.0825 85.5182 91.7987 85.1723 91.3383 85.1282C90.7828 85.0751 90.1756 85.6936 89.7747 86.001C88.9496 86.6332 88.3146 87.2807 87.7678 88.1671C87.1651 89.1444 85.6281 91.3531 86.9732 92.3228C88.4271 93.3709 90.5433 91.4352 91.4537 90.4369C92.0359 89.7983 92.8071 88.8606 92.5856 87.9241C92.3138 86.774 90.976 86.6533 90.0196 86.5482Z" fill="black"/>
<path fill-rule="evenodd" clip-rule="evenodd" d="M83.8162 67.7398C83.0026 68.6681 81.35 70.0206 79.9882 69.8612C78.7461 69.7159 79.231 68.3218 79.6707 67.6472C80.3309 66.6332 81.2155 65.6813 82.4938 65.6258C83.0455 65.602 83.7606 65.6131 84.1881 66.031C84.7716 66.6017 84.2461 67.2496 83.8162 67.7398ZM83.7297 65.1608C82.7767 64.8315 82.4023 64.706 81.476 65.2295C80.7322 65.6499 80.0725 66.2441 79.5621 66.9187C78.7982 67.9286 78.0279 70.2002 79.9894 70.4843C82.1408 70.7961 87.2587 66.3809 83.7297 65.1608Z" fill="black"/>
<path fill-rule="evenodd" clip-rule="evenodd" d="M86.6622 70.9564C86.0433 71.5887 85.2706 72.1045 84.3887 72.2805C84.7618 71.4481 85.5949 69.6293 86.5826 69.3759C87.0376 69.259 87.5565 69.4121 87.519 69.9306C87.492 70.3054 86.9064 70.7069 86.6622 70.9564ZM87.459 68.7559C86.9465 68.499 87.1081 68.3236 86.5118 68.5251C86.042 68.6837 85.4494 68.9591 85.0581 69.2765C84.8446 69.4496 84.18 70.0635 84.2613 70.3759C84.4087 70.9436 84.9044 70.0736 85.0347 69.9064C85.2581 70.0884 84.1161 71.7226 84.0482 71.9915C83.7949 72.993 84.5809 73.099 85.3515 72.7712C86.3904 72.3295 89.4671 69.762 87.459 68.7559Z" fill="black"/>
<path fill-rule="evenodd" clip-rule="evenodd" d="M102.692 95.7053C102.769 95.0414 102.878 94.3393 103.487 93.9666C104.036 93.6304 104.605 93.6791 104.686 94.3684C104.762 95.0085 104.135 96.1453 103.627 96.4945C102.921 96.9808 102.785 96.3746 102.692 95.7053ZM103.6 97.2161C105.05 96.3674 105.964 92.4755 103.291 93.5663C101.772 94.1861 102.33 97.9589 103.6 97.2161Z" fill="black"/>
<path fill-rule="evenodd" clip-rule="evenodd" d="M91.2135 81.0771C91.4422 80.6083 91.7038 80.4528 92.1676 80.2477C91.8584 80.5396 91.5424 80.8092 91.2135 81.0771ZM91.5481 79.9219C91.2197 80.2515 90.4668 80.7539 90.5723 81.3201C90.6686 81.8368 91.0632 81.8071 91.4211 81.6461C92.1719 81.3087 92.5896 79.8313 93.3748 79.6929C92.5039 79.1409 92.3005 79.1666 91.5481 79.9219Z" fill="black"/>
<path fill-rule="evenodd" clip-rule="evenodd" d="M91.6632 50.5818C91.705 52.1551 91.7418 53.7282 91.7765 55.3016C91.7887 55.8545 91.6567 56.6428 91.8226 57.1724C91.8958 57.4057 92.5585 58.417 92.7936 58.4825C93.6162 58.7114 93.3223 56.6492 93.328 56.1414C93.3482 54.4282 93.3229 52.7132 93.316 50.9999C93.3121 50.117 93.5614 42.714 92.4159 42.7501C92.2185 42.7565 91.7324 43.6029 91.6592 43.7725C91.429 44.3055 91.5137 45.0954 91.5191 45.6634C91.5346 47.3022 91.6197 48.9432 91.6632 50.5818Z" fill="black"/>
<path fill-rule="evenodd" clip-rule="evenodd" d="M98.5994 55.1679C98.6639 55.6028 98.63 56.3283 99.1197 56.5538C99.5457 56.7499 99.709 56.5166 99.8684 56.1521C100.235 55.3135 100.103 54.0316 100.096 53.1647C100.082 51.4465 99.8888 49.7355 99.7551 48.0237C99.6963 47.2727 99.8184 46.5183 99.7245 45.7324C99.6833 45.3875 99.6422 44.0001 99.0029 44.0647C98.4248 44.123 98.4769 45.5772 98.4455 45.9518C98.1834 49.0706 98.1378 52.0546 98.5994 55.1679Z" fill="black"/>
<path fill-rule="evenodd" clip-rule="evenodd" d="M125.884 90.9823C125.639 92.2349 121.642 96.5967 120.635 94.1572C120.038 92.7098 121.333 91.1342 122.342 90.2964C122.967 89.7778 123.747 89.269 124.599 89.4261C125.322 89.5595 126.04 90.1867 125.884 90.9823ZM123.82 88.7355C123.538 88.8023 121.178 90.4594 121.156 90.4376C120.951 90.2319 122.44 88.0133 122.593 87.8192C123.855 86.2203 124.692 87.431 125.482 88.6877C125.314 87.9371 124.851 86.8474 124.079 86.5299C123.103 86.1292 122.342 87.1184 121.873 87.8296C121.209 88.8347 120.844 89.9262 120.475 91.0604C120.299 91.6014 120.099 92.0918 119.802 92.5796C119.508 93.0609 118.994 93.5915 119.07 94.2004C119.487 93.9682 119.709 93.5137 119.972 93.1393C120.266 93.2582 120.165 94.1942 120.224 94.4326C120.374 95.0313 120.783 95.4997 121.416 95.6027C122.595 95.7946 123.868 94.7035 124.657 93.9626C125.487 93.1819 126.382 92.1115 126.375 90.9099C126.367 89.6544 125.132 88.425 123.82 88.7355Z" fill="black"/>
<path fill-rule="evenodd" clip-rule="evenodd" d="M127.017 68.6087C126.348 69.6326 125.174 70.8601 123.932 71.0979C123.02 71.2725 122.419 70.5968 122.785 69.6845C123.095 68.9135 124.149 68.4267 124.84 68.0875C125.388 67.8183 127.943 67.1917 127.017 68.6087ZM126.525 66.9339C125.155 66.8822 124.049 67.873 123.027 68.6637C123.258 67.7554 123.78 66.7671 124.515 66.1758C125.516 65.3712 126.464 65.8708 127.517 66.2732C127.257 65.4533 126.091 65.1584 125.348 65.2742C124.409 65.4207 123.733 66.2227 123.258 66.9985C122.692 67.9241 122.498 69.0148 121.831 69.883C121.525 70.2803 119.634 71.7672 120.063 72.375C120.769 71.6252 121.475 70.8756 122.181 70.1257C122.365 71.0119 122.567 72.021 123.698 71.9347C124.601 71.8658 125.632 71.0977 126.293 70.5107C127.146 69.7525 128.825 67.0209 126.525 66.9339Z" fill="black"/>
<path fill-rule="evenodd" clip-rule="evenodd" d="M107.327 75.677C106.747 75.9439 105.469 76.3068 105.144 75.5047C104.693 74.3908 106.144 72.437 106.835 71.6948C107.26 71.2381 107.548 71.0019 108.14 71.2974C108.613 71.5334 109.308 72.204 109.489 72.7197C109.879 73.8264 108.235 75.2593 107.327 75.677ZM108.659 70.3272C109.132 70.4337 109.19 71.0341 108.599 70.8036C108.156 70.6309 108.053 70.1905 108.659 70.3272ZM109.253 71.1728C109.076 70.6342 109.436 69.7896 108.566 69.7507C108.073 69.7287 107.171 70.2296 106.741 70.4332C106.145 70.7153 105.584 71.1459 105.272 71.7526C104.984 72.3145 105.19 72.4626 105.629 71.9962C105.683 72.0327 104.635 74.7353 104.626 75.0062C104.585 76.2438 105.461 77.0588 106.692 76.8393C107.822 76.6377 108.841 75.713 109.464 74.7797C109.779 74.3072 110.037 73.7665 110.061 73.1879C110.097 72.3003 109.505 71.9435 109.253 71.1728Z" fill="black"/>
<path fill-rule="evenodd" clip-rule="evenodd" d="M114.677 70.7188C114.199 69.8 115.305 68.2538 116.295 68.7061C118.356 69.6478 115.302 71.9235 114.677 70.7188ZM116.528 69.5194C116.307 69.5283 114.909 70.0685 115.114 70.4345C115.397 70.9368 116.417 69.7214 116.528 69.5194Z" fill="black"/>
<path fill-rule="evenodd" clip-rule="evenodd" d="M48.9271 67.8211C48.8718 67.4298 47.9946 67.9979 47.9998 68.25C48.1448 67.9597 49.0422 68.6366 48.9271 67.8211Z" fill="black"/>
<path fill-rule="evenodd" clip-rule="evenodd" d="M96.9006 38.2491C98.0173 38.167 96.5945 32.5329 95.7806 33.0312C94.8984 33.5712 95.8758 38.3243 96.9006 38.2491Z" fill="black"/>
<path fill-rule="evenodd" clip-rule="evenodd" d="M98.9862 35.6183C100.032 35.7681 99.8662 33.3656 99.3034 32.9357C98.2647 32.142 97.716 35.4363 98.9862 35.6183Z" fill="black"/>
</svg>
