<svg width="159" height="119" viewBox="0 0 159 119" fill="none" xmlns="http://www.w3.org/2000/svg">
<path fill-rule="evenodd" clip-rule="evenodd" d="M53.3018 52.2909C54.0801 49.2647 54.8136 46.1725 55.9684 43.2642C56.6913 41.4442 57.4571 39.6407 58.2242 37.8391C58.3306 37.589 58.3755 37.348 58.5826 37.2234C58.859 37.0571 59.431 37.0606 59.7429 37.0035C64.1739 36.1908 68.651 35.5705 73.1428 35.2216C78.2688 34.8234 83.2661 35.0055 88.3383 35.8409C92.676 36.5552 96.9709 37.5398 101.219 38.6671C101.843 38.8328 102.467 39.0021 103.089 39.176C103.379 39.2571 103.861 39.2985 104.113 39.4676C104.654 39.8292 104.837 41.311 105.039 41.9388C105.311 42.7802 105.469 43.9362 105.992 44.652C106.77 45.7175 107.956 46.6418 108.921 47.5275C112.29 50.619 115.983 53.439 120.334 54.9674C127.065 57.3319 134.162 58.8138 141.135 60.279C141.297 60.313 141.46 60.347 141.622 60.3806C139.817 62.3795 138.012 64.3783 136.207 66.3772C135.189 67.504 134.172 68.6308 133.154 69.7576C132.631 70.337 132.688 70.4404 131.948 70.2789C128.241 69.47 124.539 68.5881 120.899 67.5131C119.114 66.9862 117.299 66.4391 115.639 65.5856C113.353 64.4109 111.208 62.9589 109.12 61.4674C107.254 60.134 105.431 58.7393 103.642 57.3049C103.289 57.0222 102.016 55.6591 101.603 55.748C101.247 55.8246 100.63 56.6349 100.37 56.8709C99.6799 57.4952 98.9874 58.1166 98.2907 58.7329C97.1818 59.7134 96.0493 60.9145 94.754 61.6525C93.3891 62.4303 91.8248 62.9602 90.3842 63.5796C89.5806 63.925 88.7762 64.2691 87.9717 64.6124C87.7615 64.7019 87.4683 64.8969 87.2418 64.9018C86.5712 64.9159 85.5974 64.3709 84.9754 64.1586C83.3776 63.6131 81.7915 63.0331 80.2218 62.4111C76.8702 61.0832 73.1867 59.6404 70.4283 57.2506C69.947 56.8338 69.4768 56.3672 69.1583 55.8103C69.0479 55.6172 68.8837 55.3483 68.8724 55.1204C68.8544 54.7569 69.0588 54.6854 69.3627 54.4582C70.9317 53.2856 72.6234 52.2636 74.2871 51.233C74.678 50.991 75.0697 50.7499 75.4628 50.5112L56.0227 52.0724C55.1157 52.1453 54.2088 52.218 53.3018 52.2909Z" fill="#FFD6FD"/>
<path fill-rule="evenodd" clip-rule="evenodd" d="M82.2493 15.2758C84.3032 15.3694 86.4087 15.4649 88.4447 15.754C90.4742 16.042 92.3681 16.7788 94.2024 17.6708C97.5096 19.2793 100.89 21.2344 103.017 24.3283C104.012 25.7748 104.823 27.2894 106.196 28.4281C106.517 28.6944 106.867 29.0145 107.293 29.0959C107.632 29.1607 107.931 29.0236 108.263 29.0072C108.896 28.9758 109.136 29.3097 109.136 29.9389C109.612 29.7491 110.129 29.5774 110.648 29.6471C111.081 29.7055 111.426 29.9669 111.842 30.0768C112.593 30.2752 113.328 29.9785 114.043 29.7575C115.847 29.1993 117.828 28.7766 119.724 28.9758C120.972 29.107 122.485 29.6483 121.839 31.2565C121.303 32.5904 119.298 33.2657 118.031 33.5975C116.954 33.8798 115.506 33.6278 115.597 35.114C115.661 36.1513 115.818 37.2641 116.92 37.6007C117.525 37.7852 119.667 38.0601 118.416 38.9961C117.492 39.6873 117.17 40.9039 116.467 41.8176C115.572 42.9822 114.358 43.9238 112.939 44.3488C111.351 44.8245 109.671 44.7332 108.04 44.9177C109.189 46.5029 110.847 47.5932 112.357 48.7987C113.944 50.0662 115.476 51.4514 117.313 52.3549C118.96 53.1648 120.739 53.7272 122.439 54.4139C124.226 55.1351 126.024 55.8481 127.868 56.41C131.587 57.5433 135.499 58.335 139.323 59.0302C141.21 59.3734 143.06 59.323 144.966 59.3536C146.921 59.385 148.875 59.7278 150.794 60.0799C151.724 60.2507 152.664 60.3584 153.594 60.5285C154.04 60.6101 155.807 60.79 155.871 61.4438C155.974 62.5086 154.822 63.1055 153.979 63.4025C153.619 63.5294 153.039 63.5109 152.727 63.6853C152.389 63.874 152.521 64.1518 152.482 64.5171C152.426 65.048 152.142 65.43 151.706 65.7246C151.348 65.9669 150.916 65.9574 151.163 66.4162C151.277 66.6279 151.562 66.7611 151.693 66.9844C151.844 67.2389 151.913 67.5182 151.882 67.8111C151.829 68.324 151.49 68.7154 151.017 68.8968C150.262 69.1868 149.375 68.9815 148.601 68.8874C147.306 68.73 145.993 68.7142 144.715 68.4309C143.383 68.1356 142.087 67.6805 140.753 67.378C140.069 67.223 139.384 67.093 138.716 66.8779C138.281 66.7381 137.653 66.3748 137.189 66.4886C136.756 66.5951 136.417 67.1189 136.133 67.4228C135.742 67.8422 135.363 68.2731 134.965 68.6865C134.701 68.9604 134.431 69.2286 134.143 69.4772C134.05 69.5579 133.472 69.9111 133.464 70.006C133.441 70.2739 134.072 70.2693 134.207 70.3758C134.992 70.9962 133.813 71.3888 133.304 71.3577C132.13 71.2862 130.951 71.1422 129.789 70.9699C127.022 70.5594 124.263 70.1164 121.618 69.1897C119.001 68.2731 116.448 67.298 114.028 65.9318C111.705 64.6204 109.458 63.1378 107.264 61.6225C106.199 60.8871 105.127 60.1252 104.228 59.1884C103.348 58.2722 102.632 57.2203 101.902 56.1851C100.156 57.8714 98.4759 59.6447 96.6002 61.1906C94.8159 62.6611 92.6709 63.4467 90.5956 64.4018C90.6628 64.8358 92.6913 65.0957 93.0618 65.2084C94.7538 65.7233 96.3775 66.5494 98.0232 67.1972C100.761 68.275 103.359 69.6776 104.27 72.6709C105.167 75.6139 104.127 78.5764 102.859 81.2351C101.362 84.3736 99.5846 87.2806 97.4354 90.0167C96.5212 91.1807 95.5365 92.2523 94.5332 93.3362C93.6773 94.261 92.9435 95.3566 93.3022 96.671C93.991 96.4558 94.1173 96.9932 93.6668 97.4481C93.2666 97.8525 92.5747 97.931 92.0402 97.998C90.4198 98.2011 88.7461 98.1293 87.1239 97.9783C84.1703 97.7033 81.2102 96.9579 78.5362 95.6753C77.2058 95.0371 76.7243 96.0661 75.8094 96.863C75.0895 97.4898 74.0983 97.8963 73.5512 98.7075C73.1012 99.3748 73.3949 100.429 74.3298 100.179C75.0572 99.9846 75.6415 99.1732 76.412 99.1419C77.7794 99.0865 75.1994 101.037 74.8693 101.275C75.5228 101.86 76.2638 101.058 76.9228 100.925C77.5548 100.796 77.7313 101.123 77.3945 101.65C77.1319 102.061 76.307 102.352 76.8556 102.851C77.3102 103.265 78.3181 103.483 78.8762 103.665C80.6174 104.231 82.3497 104.633 84.1624 104.892C84.7478 104.975 85.6863 104.922 86.1609 105.337C86.7868 105.884 86.485 106.791 86.1682 107.418C84.968 109.793 82.4726 110.961 79.9097 111.132C78.3315 111.237 76.7383 111.135 75.1549 111.22C73.4198 111.313 71.6808 111.452 69.9419 111.395C67.146 111.303 65.3674 109.282 63.9736 107.06C63.0882 105.649 62.272 104.196 61.5055 102.717C61.2061 102.139 60.5789 101.54 60.4723 100.891C60.376 100.306 60.749 99.8376 61.1115 99.424C62.0651 98.3356 63.2126 97.5049 64.3336 96.6055C64.9737 96.0921 65.2198 95.6669 65.5048 94.9196C65.7447 94.2905 66.2061 94.0216 66.6123 93.5197C67.059 92.9675 66.9187 92.8698 66.5703 92.4185C66.2056 91.9459 66.3489 91.2497 66.5021 90.715C66.7216 89.9479 67.1928 89.779 67.8963 89.5318C68.5379 89.3066 69.0818 88.9112 69.6506 88.5444C72.4605 86.7327 75.108 84.6827 77.9525 82.9214C80.7589 81.1839 83.692 79.649 86.3704 77.7101C84.1955 77.4178 82.2779 76.2435 80.2261 75.5481C79.1733 75.1913 78.1304 74.8102 77.1116 74.3635C76.7226 74.193 76.2693 74.0414 75.9222 73.7906C75.5735 73.5386 75.3055 73.2071 74.9399 72.9687C74.0725 72.4027 73.0413 72.0806 72.1085 71.6395C71.1011 71.163 70.1068 70.6424 69.1707 70.0361C68.2967 69.47 67.4576 68.8231 66.731 68.0754C66.1521 67.4799 65.5892 66.7037 64.7696 66.4301C64.8556 67.5713 66.2695 68.5163 67.0444 69.2031C68.3018 70.3176 69.6089 71.2646 71.0145 72.185C69.4381 73.5355 67.5165 74.4149 65.6704 75.3271C63.5946 76.3526 61.577 77.4896 59.5095 78.531C57.7582 79.4133 55.9157 80.0931 54.1356 80.9128C52.2151 81.7973 50.2384 82.539 48.2345 83.2119C46.4211 83.8208 44.7139 84.4702 43.0027 85.3249C41.3393 86.1559 39.5595 86.7914 37.78 87.3247C35.7807 87.9238 33.8732 88.4938 31.9503 89.3153C30.2164 90.0559 28.4753 90.5293 26.6403 90.932C26.0342 91.065 25.2558 91.3091 24.8313 90.7223C24.5096 90.2776 24.4611 89.592 24.3688 89.0689C24.015 87.0676 23.987 85.0343 23.6688 83.0299C22.4609 83.3943 21.3169 83.8427 20.0425 83.9005C19.2414 83.9368 18.7546 84.0195 18.555 84.894C19.0184 84.9463 20.6743 84.9692 20.7189 85.6255C20.7595 86.2175 19.7576 86.2236 19.4023 86.2399C18.7665 86.2688 18.1903 86.1645 17.851 86.7867C18.3509 86.9714 19.4593 86.6348 19.6807 87.3071C19.966 88.1743 18.6706 88.1722 18.2045 88.2421C17.3913 88.3639 17.4749 89.0024 17.5306 89.6849C17.6039 90.5829 17.6594 91.4822 17.7807 92.3756C18.0399 94.2847 18.4838 96.165 18.694 98.0811C18.8757 99.7379 18.9776 101.329 17.7932 102.649C17.317 103.18 16.655 103.791 15.9066 103.855C15.1471 103.919 15.1609 103.387 14.6881 102.995C14.3984 102.756 14.0147 102.707 13.6734 102.577C13.2582 102.42 12.8555 102.189 12.4825 101.951C11.795 101.511 11.1941 100.965 10.708 100.308C8.80715 97.7402 8.12759 93.9035 7.9393 90.7897C7.81954 88.8096 7.939 86.827 8.12073 84.8547C8.2186 83.7924 8.31707 82.7296 8.44562 81.6706C8.48539 81.3425 8.55198 81.0138 8.5767 80.6847C8.59086 80.4963 8.49999 80.1155 8.59622 79.9348C8.47333 80.1652 8.25569 79.9948 8.03955 79.8134C7.59341 79.4387 7.73076 78.7193 7.96939 78.2267C8.68842 76.7421 10.8433 76.6843 12.2452 76.5689C16.0134 76.2585 19.5934 75.2483 23.2009 74.1692C22.6918 73.407 23.4926 72.9037 24.1133 72.6418C25.0705 72.2379 26.059 71.8827 27.0252 71.4969C29.207 70.6257 31.3434 69.8134 33.6282 69.2575C35.6977 68.7541 37.7002 67.9183 39.742 67.3056C41.8516 66.6725 43.923 65.949 45.998 65.2117C50.1077 63.7513 54.2211 62.2592 58.2094 60.4877C59.2176 60.0398 60.1806 59.5207 61.1535 59.0027C61.9439 58.582 62.8714 58.2734 63.5415 57.6656C64.1812 57.0852 64.5644 56.2782 65.2599 55.7511C65.8861 55.2765 66.7429 55.2699 67.2618 54.6803C67.9634 53.8832 68.8011 53.533 69.7536 53.0655C70.0595 52.9154 72.0739 52.1567 72.033 51.7262C70.5934 51.7262 69.1157 52.1543 67.6921 52.3537C66.1864 52.5646 64.6819 52.7992 63.1652 52.9158C60.7075 53.1046 58.251 53.0536 55.8037 52.7873C55.438 52.7475 53.9709 52.4464 53.7179 52.8385C53.5252 53.1374 54.0044 53.4932 54.0092 53.8143C54.0163 54.2855 53.6365 54.5382 53.2063 54.3746C52.3688 54.0562 52.4915 52.7069 52.5697 52.0221C52.7195 50.7122 53.0525 49.4145 53.3436 48.1312C51.6158 49.0104 49.9751 50.1393 48.4873 51.3801C47.3348 52.3409 46.2942 53.6439 44.9418 54.329C43.6433 54.987 42.8712 54.4257 42.9244 52.9772C42.9488 52.3135 43.0833 51.6837 43.3132 51.0657C43.4218 50.7736 43.8679 49.9471 43.6589 49.6359C42.4721 50.5821 41.2933 51.5308 40.0475 52.3993C39.1669 53.0134 37.8901 53.971 36.7403 53.7273C35.7248 53.5121 35.8242 52.3949 36.1461 51.6422C36.4252 50.9893 36.9269 50.4092 37.4242 49.9106C37.8353 49.4985 38.4198 49.1291 38.6257 48.5578C37.2618 49.1707 35.8575 49.6345 34.4287 50.0652C33.4126 50.3714 32.7024 51.6432 31.5208 51.4553C30.3381 51.2672 30.8091 49.8057 31.2812 49.1702C31.6116 48.7257 32.0686 48.3341 32.5119 48.0056C32.9442 47.6851 33.6018 47.4059 33.8145 46.8726C32.4328 47.1318 31.0436 47.5827 29.6217 47.4996C28.7774 47.4501 27.368 47.0815 27.5347 45.9467C27.7034 44.7975 29.2338 44.7095 30.0944 44.4952C31.2678 44.2029 32.3906 43.6541 33.5229 43.2356C35.8069 42.3911 38.1354 41.7138 40.4724 41.0407L41.2106 40.8281C43.8484 40.068 46.5011 39.4206 49.1717 38.7891C50.4916 38.477 51.8069 38.1365 53.1373 37.8702C54.4243 37.6126 55.732 37.4634 57.0092 37.1554C55.9328 35.5309 57.2362 34.1959 58.6438 33.4228C57.7511 33.2423 56.8433 33.1337 55.9583 32.9149C55.2025 32.7282 54.4741 32.4412 53.7127 32.2759C52.4043 31.9919 51.0974 31.8425 49.9805 31.0323C47.8696 29.5013 47.6901 27.065 49.4687 25.2214C51.2637 23.3607 53.8982 22.4894 56.4336 22.4029C59.2715 22.3061 62.5004 22.8561 65.1559 23.8608C66.4603 24.3543 67.8186 24.9818 68.9368 25.8223C69.6974 26.3941 70.9003 27.4896 71.9212 27.4896C70.6984 26.011 69.1978 24.482 68.977 22.4795C68.7679 20.5836 69.628 18.5684 71.0713 17.3422C73.955 14.8926 78.7139 15.1143 82.2493 15.2758ZM65.8086 96.5332C65.0559 97.7037 64.0149 98.654 63.0321 99.6254C62.6931 99.9605 62.0126 100.387 61.9798 100.912C61.9533 101.34 62.479 101.822 62.7087 102.159C63.9228 103.94 64.9226 105.907 66.4057 107.488C68.0821 109.276 69.9953 109.623 72.3692 109.628C75.0048 109.634 77.6757 109.964 80.3067 109.825C82.5356 109.707 84.7325 108.715 85.8408 106.697C85.1188 106.325 84.0914 106.503 83.3089 106.511C82.2418 106.522 81.2003 106.503 80.1462 106.318C79.1908 106.149 78.2466 105.897 77.348 105.529C76.883 105.338 76.4231 105.12 75.995 104.855C75.6814 104.661 75.4458 104.365 75.1378 104.174C74.0019 103.473 72.6902 105.703 71.4761 105.66C70.7324 105.634 71.0016 104.903 71.3111 104.493C71.8696 103.755 72.844 103.299 73.5797 102.76C72.8948 102.13 72.1209 102.791 71.4687 103.12C70.6534 103.532 69.8064 104.038 68.8954 104.192C68.9636 103.018 70.5606 102.389 71.4416 101.912C71.8337 101.699 72.3251 101.502 72.4216 101.035C72.4942 100.683 72.3699 100.184 72.3331 99.8287C72.2865 99.3774 72.2519 99.2333 71.7714 99.1061C71.1887 98.9517 70.6019 98.9964 70.0181 98.8038C68.4206 98.2763 67.1778 97.4933 65.8086 96.5332ZM13.8884 78.0346C13.4983 78.1427 13.1041 78.2363 12.7079 78.3199C11.9236 78.4854 11.1383 78.6572 10.3513 78.8073C9.95655 78.8826 9.51826 78.8348 9.40193 79.2115C9.34213 79.4046 9.49261 79.7517 9.51841 79.9523C9.56479 80.3139 9.56777 80.6807 9.57209 81.045C9.61325 84.4014 8.91144 87.7384 9.22044 91.0944C9.48142 93.9308 10.0923 97.5175 12.1761 99.6299C13.0755 100.542 14.182 101.532 15.3145 102.155C16.2023 102.643 17.4425 101.418 17.6238 100.569C17.7537 99.9611 17.537 99.3195 17.396 98.7333C17.2151 97.9823 17.0318 97.2316 16.8527 96.4801C16.4701 94.8762 16.1224 93.2572 16.0125 91.6083C15.9764 91.0666 15.9841 90.5447 16.0147 90.0054C16.0313 89.7125 16.1692 89.0067 15.9643 88.7559C15.6993 88.4314 15.0938 88.6434 14.7353 88.6711C14.3422 88.7016 13.9585 88.678 13.5745 88.5778C12.6603 88.3388 12.5001 87.6124 13.4983 87.2758C14.1952 87.0409 15.469 87.3813 16.0545 86.9292C16.7425 86.3979 15.3521 86.325 15.0275 86.3112C14.5951 86.2929 13.1612 86.406 13.2345 85.6002C13.2886 85.003 14.5229 84.9633 14.9548 84.9379C15.8775 84.8837 17.0449 85.2292 17.4437 84.1169C17.6035 83.6713 16.6412 83.4451 16.3998 83.2241C15.8129 82.687 15.6205 81.7663 15.5701 81.0118C15.5205 80.2701 16.2508 77.6985 15.1381 77.6305C14.7964 77.6097 14.2286 77.9402 13.8884 78.0346ZM68.613 92.8754C67.9581 93.655 67.3921 94.509 66.7822 95.3238C68.2127 96.113 69.6758 96.7478 71.155 97.4264C71.8276 97.7351 72.2991 97.9798 72.9501 97.5118C73.4172 97.1761 73.7673 96.6991 74.223 96.3499C74.878 95.8486 75.5626 95.3888 76.2341 94.9109C74.2527 94.188 72.2411 93.5537 70.2604 92.8294C69.5196 92.5585 69.1478 92.2384 68.613 92.8754ZM52.2986 90.3991C52.7223 90.8286 51.9066 92.0187 51.746 92.426C53.0597 92.3218 54.3625 92.1148 55.6526 91.8481C56.0919 91.7575 55.93 92.2923 55.7656 92.4686C55.5624 92.6869 55.1557 92.753 54.884 92.8308C53.884 93.1173 52.8583 93.2553 51.8322 93.4082C52.3018 93.9859 53.4317 94.8897 53.0679 95.7585C52.4116 95.1931 51.9397 94.4406 51.2138 93.9517C51.0041 94.2646 50.569 95.3682 50.0922 95.3006C49.3435 95.1945 50.102 93.9048 50.2585 93.5943C49.7544 93.5943 47.8601 94.0366 47.5959 93.4162C47.3254 92.7815 49.1534 92.802 49.4913 92.6521L49.4283 92.5752L49.3651 92.4989C49.1124 92.1944 48.8697 91.8941 48.8355 91.476C49.4008 91.6706 49.7782 92.5562 50.3994 92.569C50.9885 92.5812 51.2514 91.6963 51.4612 91.2772C51.5806 91.0389 51.9858 90.0818 52.2986 90.3991ZM116.04 82.0521C117.306 83.1202 116.446 85.2745 115.488 86.2431C114.414 87.3281 112.023 88.3248 110.662 87.2188C109.917 86.6134 110.186 85.6899 110.37 84.8847C110.573 83.9898 110.7 83.2355 111.442 82.6214C112.595 81.666 114.755 80.9685 116.04 82.0521ZM113.469 82.6728C112.233 82.9355 110.981 84.1698 110.687 85.442C110.302 87.1103 112.034 87.2322 113.175 86.9814C114.611 86.6661 116.136 85.6137 116.209 83.9629C116.272 82.5383 114.429 82.4686 113.469 82.6728ZM23.5518 75.4603C21.7014 76.1488 19.9621 77.091 18.0207 77.4996C17.4282 77.6242 17.1848 77.7607 17.0384 78.3125C16.8332 79.0848 16.6387 79.8676 16.7852 80.6745C17.0893 82.35 19.4213 82.1447 20.7163 82.079C21.3811 82.0452 22.6597 82.1667 23.2365 81.7519C23.6579 81.4491 23.4811 80.881 23.4154 80.4389C23.1699 78.7857 23.4377 77.1124 23.5518 75.4603ZM124.438 59.4944C123.757 59.6229 122.579 60.178 123.555 60.8741C124.207 61.3382 125.177 61.3945 125.942 61.5092C127.438 61.7332 129.034 61.9267 130.332 62.7701C132.736 64.3329 132.442 67.282 131.723 69.6956C132.241 70.0006 133.762 68.0063 134.049 67.682C135.212 66.3664 136.379 65.0548 137.551 63.7475C138.053 63.1885 133.94 61.2573 133.571 61.0834C131.617 60.1644 129.793 59.5593 127.602 59.4016C126.563 59.3268 125.466 59.3007 124.438 59.4944ZM115.955 54.6027C115.769 55.0733 116.096 55.2866 116.396 55.6117C118.076 57.4288 119.259 60.0007 120.195 62.2564C120.661 63.3813 120.988 64.5155 121.277 65.694C121.56 66.8504 122.46 67.1594 123.539 67.4877C126.023 68.2438 128.638 68.4969 131.131 69.2437C131.799 69.4438 131.93 67.9756 131.972 67.6031C132.091 66.5437 131.981 65.438 131.424 64.5041C130.371 62.7387 128.261 62.3634 126.379 62.0627C125.302 61.8908 123.884 61.7133 123.032 60.9774C122.605 60.6081 122.544 60.1844 122.877 59.7256C123.485 58.8887 124.556 58.7812 125.513 58.7129C125.978 58.6797 128.863 58.9712 128.957 58.63C127.521 58.1621 126.047 57.8535 124.632 57.3183C123.528 56.9008 122.415 56.5065 121.301 56.1158L120.187 55.7254C119.054 55.3282 118.017 54.845 116.93 54.3667C116.521 54.1872 116.147 54.1206 115.955 54.6027ZM140.317 62.2589C139.958 62.7426 139.601 63.1486 139.331 63.692C139.017 64.3259 138.495 64.7303 138.058 65.2746C140.324 65.6744 142.486 66.1821 144.669 66.9144C145.79 67.2905 146.948 67.4763 148.095 67.7456C149.056 67.9715 150.081 68.3218 151.077 68.1146C149.943 66.5517 146.918 66.9838 146.121 65.0909C145.579 63.8032 146.911 62.7761 148 62.5526C149.903 62.1623 151.931 62.1322 153.863 61.9931C153.883 61.254 146.869 60.8713 146.176 60.8114C144.944 60.7049 143.659 60.474 142.43 60.4314C141.289 60.3918 140.916 61.4538 140.317 62.2589ZM113.552 56.8528C112.876 57.5057 112.215 58.173 111.54 58.8268C111.096 59.2566 110.495 59.7145 110.145 60.2266C109.699 60.8805 110.481 61.1948 111.002 61.5042C112.318 62.2855 113.678 63.0148 115.016 63.7579C116.219 64.4256 117.47 65.2755 118.798 65.666C119.507 65.8748 120.174 66.1992 120.859 66.4733C120.529 63.5088 118.826 60.8162 117.256 58.3447C116.896 57.7772 116.524 57.2176 116.163 56.6502C115.981 56.3646 115.644 55.6905 115.264 55.6323C114.701 55.5461 113.893 56.523 113.552 56.8528ZM147.975 64.398C148.798 64.8694 149.623 65.1089 150.551 64.7527C150.779 64.6596 151.006 64.5611 151.229 64.4574C150.61 63.614 148.781 64.128 147.975 64.398ZM79.8142 54.0811C78.3554 54.7387 76.795 55.3937 75.5263 56.3859C75.058 56.7522 74.0114 57.5216 74.2563 58.2194C74.4659 58.8169 75.6244 59.3258 76.1745 59.5078C79.0683 60.4656 82.362 59.7688 85.0266 61.5265C85.7477 62.0022 85.9828 62.6239 86.5185 63.2494C87.003 63.8151 87.616 63.7448 88.2671 63.5101C89.122 63.2019 89.9098 62.7298 90.7681 62.4272C91.2069 62.2725 91.9527 62.1699 91.9983 61.5778C92.2129 58.7867 91.6174 55.2308 89.1567 53.523C86.3945 51.606 82.5839 52.8327 79.8142 54.0811ZM78.2497 60.5853C78.1792 60.9392 80.9172 61.5799 81.2145 61.6618C82.8678 62.1172 84.4124 63.1998 86.1249 63.3744C86.4227 62.7103 84.0506 61.6531 83.6754 61.5168C81.9634 60.8951 80.0477 60.7824 78.2497 60.5853ZM132.015 59.3457C134.091 60.1962 136.103 61.2377 137.843 62.6857C138.443 63.1851 139.901 60.8152 140.228 60.4518C137.463 60.3369 134.738 59.8095 132.015 59.3457ZM93.2192 42.6744C91.2949 43.9455 89.619 45.6075 87.5063 46.5819C88.1674 46.686 88.8891 46.2581 89.5203 46.1079C90.1352 45.9618 90.7569 45.8654 91.3555 45.6585C91.7232 45.5314 93.2415 44.7108 93.5264 45.267C93.9716 46.1357 90.836 46.7368 90.3901 46.885C88.8845 47.3853 87.3888 47.9094 85.8986 48.4538C84.4551 48.9812 83.0128 49.5486 81.5212 49.9273C80.0063 50.312 78.4001 50.4111 76.9438 51.0085C75.6559 51.5367 74.549 52.411 73.3069 53.028C72.061 53.6467 70.6451 54.0295 69.5713 54.9502C70.739 56.1962 72.1199 57.2396 73.6306 58.0339C73.8726 56.1338 76.0999 55.0519 77.6237 54.3215C80.9458 52.7292 85.9351 50.3282 89.3211 53.0265C91.7958 54.9986 92.1311 58.7405 92.1311 61.6699C92.8014 61.4565 93.4135 61.117 94.0361 60.7966C94.4674 60.5745 94.4723 59.9562 94.5265 59.5433C94.6153 58.867 94.7982 58.2121 95.0083 57.5634C95.4728 56.1283 96.0545 54.7282 96.6087 53.3263C97.5057 51.0584 98.6113 48.8218 99.1626 46.436C99.5225 44.8789 99.9505 42.2026 98.073 41.4297C96.4486 40.7612 94.5381 41.8032 93.2192 42.6744ZM84.8156 36.3367C84.5018 36.547 84.6189 37.1777 84.6402 37.4942C84.7181 38.645 84.6693 39.8006 84.7078 40.9534C84.7547 42.3581 84.765 44.9341 86.2137 45.7217C87.2046 46.2604 88.4369 45.4532 89.2275 44.9035C90.5655 43.9738 91.7929 42.8941 93.1493 41.9865C94.7574 40.9105 97.8044 39.4221 99.3432 41.4462C100.176 42.5417 100.059 44.1741 99.8514 45.4487C99.5771 47.1304 98.9366 48.7254 98.3 50.297C96.9855 53.5423 95.6135 56.8403 94.8826 60.2754C96.5492 59.2849 97.8454 57.8574 99.3 56.6034C100.378 55.6739 101.98 54.6064 102.228 53.0915C102.285 52.7494 102.616 52.5056 102.844 52.2768C103.14 51.9789 103.349 51.6772 103.537 51.2972C103.952 50.4578 104.221 49.5512 104.391 48.6328C104.747 46.7058 104.577 44.7877 104.249 42.8721C104.1 42.0057 104.318 41.0762 104.116 40.2318C103.976 39.6454 103.562 39.6802 103.012 39.5468C101.029 39.0665 99.0428 38.6009 97.0591 38.1251C96.2533 37.9317 95.3772 37.569 94.5406 37.5811C93.8539 37.5911 93.2771 38.0004 92.6844 38.2969C91.7114 38.7837 90.1647 39.6355 89.0474 39.1513C87.7454 38.5872 89.2627 37.3135 88.6098 36.7109C88.1622 36.2977 86.8242 36.5455 86.2174 36.4428C85.8846 36.3866 85.1207 36.1323 84.8156 36.3367ZM105.303 52.9777C104.356 53.127 103.808 53.5377 103.287 54.3434C102.757 55.1624 102.694 55.5679 103.449 56.2088C104.264 56.8999 105.117 57.5825 105.982 58.2049C107.079 58.9938 108.295 59.591 109.379 60.3992C109.853 60.7532 112.008 57.9783 112.382 57.5978C112.897 57.0729 113.426 56.5465 113.98 56.0633C114.182 55.8868 114.816 55.4773 114.816 55.1771C114.817 54.418 113.133 53.7389 112.592 53.5299C111.378 53.0619 110.106 52.8729 108.813 52.8534C107.666 52.8361 106.439 52.7986 105.303 52.9777ZM109.523 49.6387C108.634 50.1107 107.705 50.5084 106.811 50.9705C106.493 51.1344 104.492 51.9749 104.593 52.4773C106.845 52.3346 109.087 51.9536 111.332 52.3895C112.34 52.5853 113.3 52.9135 114.143 53.5191C114.781 53.9775 115.267 54.8584 115.901 54.0744C114.607 53.3416 113.443 52.3702 112.296 51.4271C111.794 51.0143 111.277 50.626 110.768 50.2244C110.465 49.9855 109.965 49.404 109.523 49.6387ZM56.2581 38.6663C55.5536 38.7653 54.867 38.9519 54.1752 39.1121C51.3725 39.7612 48.5592 40.3439 45.7639 41.0308C40.1884 42.4008 34.4462 43.7218 29.1299 45.9166C29.5769 46.4107 30.7613 46.0528 31.3161 45.956C32.402 45.7662 33.4558 45.4347 34.5287 45.1845C35.578 44.9399 36.6312 44.6481 37.6892 44.4442C38.1765 44.3503 39.0361 44.2266 39.0557 44.9571C39.0836 45.9927 37.0714 46.7672 36.3328 47.1457C35.5431 47.5505 34.7785 47.9978 34.0267 48.4685C33.4323 48.8406 32.3362 49.3367 32.1435 50.0762C34.0722 49.2592 36.0021 48.4455 37.9189 47.6009C38.6409 47.2828 39.3725 46.983 40.0598 46.5948C40.5181 46.336 41.108 45.8818 41.6507 45.841C42.3855 45.7857 42.5073 46.4529 42.1977 46.9911C41.8102 47.665 41.0106 48.0452 40.4226 48.5167C39.6728 49.118 39.0093 49.8273 38.3343 50.508C37.7739 51.073 37.0523 51.6292 36.7598 52.3931C37.7672 52.73 38.9118 51.6501 39.652 51.1165C40.8152 50.2777 41.8986 49.3653 43.0084 48.4588C43.5761 47.9952 44.2529 47.2442 45.0001 47.1058C45.947 46.9302 45.8686 48.0127 45.6389 48.6094C45.1257 49.9432 43.9241 51.0552 43.8382 52.5588C43.7854 53.4845 44.5695 53.1321 45.0927 52.7608C45.9736 52.1355 46.5699 51.1826 47.3695 50.4654C49.2949 48.7382 51.499 47.2647 53.8808 46.2415C54.307 46.0583 54.4604 45.4009 54.59 45.0058C54.7833 44.416 55.0059 43.8442 55.2384 43.2678C55.7477 42.0052 56.1653 40.6406 56.879 39.4743C57.078 39.149 57.5916 38.8175 57.1668 38.6261C56.9359 38.5223 56.4965 38.6328 56.2581 38.6663ZM76.5904 36.5305C75.8689 36.6147 75.1387 36.607 74.4159 36.6833C73.2362 36.8076 73.7508 38.2425 73.5608 39.1071C73.0011 41.6524 70.3031 42.133 68.2586 40.9323C67.1083 40.2565 66.4177 39.2882 65.7993 38.1554C65.4467 37.5095 65.1839 37.4056 64.4544 37.5673C63.9538 37.6783 63.4982 37.6547 62.989 37.6916C62.348 37.7381 62.2921 37.874 62.279 38.4838C62.2675 39.0254 62.1896 39.4007 61.8289 39.8394C61.1416 40.6751 59.9892 41.2253 59.0074 41.6453C58.0238 42.0661 56.9096 42.3789 56.3694 43.3735C56.0971 43.875 55.8053 44.4736 55.7265 45.0436C55.6403 45.6663 55.8516 46.0527 55.4885 46.6271C54.7335 47.8214 54.3874 49.1265 54.0058 50.4837C53.8813 50.9259 53.8321 51.1078 54.3148 51.2293C55.0074 51.4038 55.991 51.139 56.7017 51.1112C57.2087 51.0914 57.5048 50.1974 57.6697 49.8352C57.9901 49.1309 58.3829 48.4641 58.7764 47.7976C59.668 46.2876 60.6214 44.7877 61.786 43.4683C62.6652 42.4726 63.9629 41.233 65.0885 42.6323C66.1856 43.9959 66.9762 45.5931 68.2955 46.7817C69.4559 47.8272 70.6515 47.8439 71.855 46.853C73.0397 45.8776 73.9402 44.5467 74.6765 43.2188C75.473 41.7828 76.0736 40.2497 76.8497 38.8052C77.0929 38.3524 78.2165 37.1275 77.8741 36.6029C77.643 36.2485 76.9148 36.4928 76.5904 36.5305ZM82.6325 36.2173C81.9974 36.2473 81.3584 36.176 80.7233 36.1633C79.5739 36.1406 78.6126 36.1808 78.0355 37.2821C77.526 38.254 77.092 39.288 76.627 40.2832C75.6169 42.4453 74.6258 44.6575 73.0751 46.4973C71.7011 48.1272 69.9262 48.9483 68.1388 47.3913C67.3464 46.7009 66.7443 45.8102 66.1756 44.9347C65.7198 44.2328 65.1995 42.9976 64.4357 42.5884C63.5841 42.1322 62.6091 43.1786 62.0886 43.7465C61.2133 44.7011 60.4818 45.8238 59.7792 46.9078C59.2697 47.694 58.7817 48.4968 58.2865 49.2923C58.0858 49.6148 57.2681 50.6699 57.5403 51.0717C57.8132 51.4746 59.1453 51.1992 59.5307 51.1623C60.451 51.0746 61.37 51.0429 62.2908 50.9637C65.1547 50.7174 67.9761 50.0882 70.8473 49.9202C72.7387 49.8095 74.6023 49.4439 76.464 49.1118C78.2743 48.7889 80.0962 48.5686 81.8871 48.1418C82.9402 47.8909 83.9951 47.6397 85.046 47.3793C85.4097 47.2893 87.1285 47.0438 87.2354 46.5712C86.0518 46.3646 85.4304 45.9056 85.0107 44.7509C84.4851 43.3049 84.424 41.6934 84.3792 40.1698C84.362 39.5837 84.3592 38.9972 84.3588 38.4109L84.3588 37.7074C84.3586 37.2869 84.5402 36.5238 84.1612 36.2321C83.8104 35.9622 83.0389 36.1979 82.6325 36.2173ZM106.128 45.5553C106.178 47.4607 105.837 49.3812 105.054 51.122C105.873 51.2531 106.847 50.2259 107.534 49.8819C107.798 49.7492 109.55 49.1127 108.964 48.6261C107.884 47.7311 107.177 46.4806 106.128 45.5553ZM129.608 47.1048C129.848 47.5786 129.551 48.18 129.391 48.6294C130.64 48.9296 131.884 49.2245 133.143 49.4793C134.092 49.6713 133.761 50.2403 132.937 50.2011C131.792 50.1466 130.726 49.6614 129.587 49.5984C128.501 49.5384 128.373 50.4861 127.448 50.6686C127.479 50.1472 127.901 49.785 128.204 49.3939C127.705 49.1376 127.194 48.8994 126.71 48.617C126.459 48.4708 125.766 47.8575 126.032 47.5317C126.302 47.2028 127.009 47.8192 127.26 47.9549C127.618 48.1479 128.331 48.5733 128.752 48.4513C129.328 48.2841 129.208 47.4572 129.608 47.1048ZM111.605 34.6899C111.099 34.7251 110.547 34.5546 110.067 34.7777C109.589 35.0001 109.017 35.4871 108.617 35.8248C108.229 36.1517 108.037 36.5487 107.555 36.7417C107.073 36.9347 106.58 36.9176 106.395 37.5061C106.831 37.6258 107.689 37.467 108.031 37.7879C108.528 38.255 107.66 38.7689 107.3 38.9159C106.784 39.1267 106.361 39.0583 105.833 39.0188C105.604 39.0017 105.606 38.931 105.417 39.0448C104.719 39.4667 105.202 40.9674 105.429 41.5148C106.537 44.1944 110.322 43.2921 112.504 43.0177C111.81 42.318 110.672 41.5461 110.615 40.4472C110.598 40.1199 110.679 39.5351 111.099 39.5078C111.435 39.4861 111.838 39.9936 112.047 40.1936C112.668 40.7864 113.47 41.7695 114.367 41.8545C115.566 41.9683 116.488 40.0265 116.985 39.1797C116.374 39.0649 115.705 39.0716 115.349 38.4721C114.927 37.7595 114.92 36.6678 114.927 35.8655C114.934 35.1824 115.151 34.4352 114.238 34.4016C113.397 34.3708 112.455 34.6311 111.605 34.6899ZM31.0989 36.442C30.9242 36.823 30.1651 36.9723 29.8319 37.0742C28.5642 37.4614 27.3265 37.9531 26.0906 38.4354C23.5956 39.4093 21.1279 40.4849 18.8496 41.9161C18.4238 42.1838 18.6324 41.6676 18.743 41.4814C18.9909 41.0641 19.5118 40.7689 19.9009 40.5133C20.9537 39.8214 22.0689 39.3353 23.2331 38.8725C25.5626 37.9465 27.9275 36.9646 30.3166 36.2145C30.5937 36.1276 31.3336 35.93 31.0989 36.442ZM60.0353 38.3288C59.5721 38.3766 59.0297 38.2713 58.5843 38.4225C58.0038 38.6194 58.0995 39.0178 57.9277 39.5078C57.6364 40.3395 57.3245 41.1642 57.0205 41.9915C58.1459 41.939 59.2238 41.0482 60.1775 40.5354C60.7175 40.2452 62.5946 39.2818 62.0286 38.3998C61.6702 37.8416 60.5495 38.2754 60.0353 38.3288ZM72.8434 36.8788C72.1465 36.8662 71.3803 37.0772 70.675 37.1122C69.7293 37.1592 68.798 37.3391 67.8536 37.3826C67.2322 37.4112 66.6222 37.5389 66.0075 37.6226C66.619 39.0394 67.8128 40.2787 69.3128 40.7919C70.4962 41.1968 72.1523 41.2655 72.9608 40.1452C73.426 39.5008 74.1859 36.903 72.8434 36.8788ZM109.131 31.0264C108.371 31.5311 107.762 32.2544 107.127 32.8998C105.537 34.516 103.892 36.2465 103.204 38.4621C103.109 38.7656 103.826 39.0338 104.02 39.0455C104.43 39.0703 104.513 38.8635 104.674 38.5171C105.073 37.6593 105.225 36.701 105.863 35.9697C106.639 35.0779 107.575 34.2085 108.476 33.4424C109.089 32.9218 110.59 32.1888 110.766 31.3282C110.974 30.3108 109.591 30.7208 109.131 31.0264ZM89.5293 36.9138C89.0996 37.0387 89.0654 37.4364 88.9672 37.8648C88.5722 39.586 92.5671 37.7081 93.1234 37.4267C92.9384 36.8741 91.1177 36.9748 90.696 36.9531C90.3677 36.9364 89.8467 36.8214 89.5293 36.9138ZM113.127 37.8078C112.535 37.8306 112.808 35.4127 113.481 35.6559C114.058 35.8646 113.507 37.793 113.127 37.8078ZM29.9046 35.0277C28.9982 35.8101 27.575 35.915 26.448 36.1661C24.7873 36.5362 23.1411 37.0078 21.4938 37.4334C20.4536 37.7022 21.0392 37.0613 21.56 36.8205C22.4555 36.4065 23.4693 36.1858 24.4264 35.958C25.4626 35.7114 26.5215 35.5467 27.5518 35.2776C28.2652 35.0912 29.1853 34.6145 29.9046 35.0277ZM58.105 18.2124C59.1123 18.3974 60.1179 18.7195 61.001 19.2472C61.7321 19.6841 61.7031 20.3638 60.7763 19.9694C56.4532 18.1294 51.0888 19.244 46.8673 20.8733C46.4015 21.0529 46.4362 20.6609 46.577 20.3587C46.7708 19.9425 47.185 19.7008 47.5827 19.5075C48.7775 18.9265 50.1548 18.598 51.4539 18.3567C53.619 17.9544 55.9297 17.8131 58.105 18.2124ZM58.7367 15.5695C59.286 15.7185 59.9171 16.088 60.2531 16.5568C60.6463 17.1054 60.3336 17.3858 59.788 17.0632C59.179 16.7031 58.6222 16.344 57.9234 16.1539C57.5544 16.0536 57.5693 15.8222 57.8344 15.6191C58.0824 15.4289 58.4675 15.4964 58.7367 15.5695Z" fill="black"/>
</svg>
