<svg width="33" height="33" viewBox="0 0 33 33" fill="none" xmlns="http://www.w3.org/2000/svg">
<path d="M20.1356 4.19492C20.1356 1.87813 18.2575 0 15.9407 0C13.6239 0 11.7458 1.87813 11.7458 4.19492V12.3051H4.19492C1.87813 12.3051 0 14.1832 0 16.5C0 18.8168 1.87813 20.6949 4.19492 20.6949H11.7458V28.8051C11.7458 31.1219 13.6239 33 15.9407 33C18.2575 33 20.1356 31.1219 20.1356 28.8051V20.6949H28.8051C31.1219 20.6949 33 18.8168 33 16.5C33 14.1832 31.1219 12.3051 28.8051 12.3051H20.1356V4.19492Z" fill="#F3F3F4"/>
</svg>
