<svg width="24" height="24" viewBox="0 0 24 24" fill="none" xmlns="http://www.w3.org/2000/svg">
<path d="M20.1214 17.8969C19.6793 16.8496 19.0377 15.8984 18.2323 15.0961C17.4294 14.2915 16.4783 13.65 15.4316 13.207C15.4222 13.2023 15.4128 13.2 15.4034 13.1953C16.8636 12.1406 17.8128 10.4227 17.8128 8.48438C17.8128 5.27344 15.2112 2.67188 12.0003 2.67188C8.78937 2.67188 6.1878 5.27344 6.1878 8.48438C6.1878 10.4227 7.13702 12.1406 8.59718 13.1977C8.5878 13.2023 8.57843 13.2047 8.56905 13.2094C7.51905 13.6523 6.57687 14.2875 5.76827 15.0984C4.96368 15.9013 4.32219 16.8524 3.87921 17.8992C3.44403 18.924 3.20932 20.0228 3.1878 21.1359C3.18718 21.161 3.19156 21.1858 3.20071 21.2091C3.20985 21.2324 3.22356 21.2537 3.24103 21.2716C3.25851 21.2895 3.27939 21.3037 3.30245 21.3134C3.32551 21.3231 3.35028 21.3281 3.3753 21.3281H4.78155C4.88468 21.3281 4.96671 21.2461 4.96905 21.1453C5.01593 19.3359 5.74249 17.6414 7.02687 16.357C8.35577 15.0281 10.1206 14.2969 12.0003 14.2969C13.88 14.2969 15.6448 15.0281 16.9737 16.357C18.2581 17.6414 18.9847 19.3359 19.0316 21.1453C19.0339 21.2484 19.1159 21.3281 19.2191 21.3281H20.6253C20.6503 21.3281 20.6751 21.3231 20.6982 21.3134C20.7212 21.3037 20.7421 21.2895 20.7596 21.2716C20.777 21.2537 20.7908 21.2324 20.7999 21.2091C20.809 21.1858 20.8134 21.161 20.8128 21.1359C20.7894 20.0156 20.5573 18.9258 20.1214 17.8969ZM12.0003 12.5156C10.9245 12.5156 9.91202 12.0961 9.1503 11.3344C8.38858 10.5727 7.96905 9.56016 7.96905 8.48438C7.96905 7.40859 8.38858 6.39609 9.1503 5.63437C9.91202 4.87266 10.9245 4.45312 12.0003 4.45312C13.0761 4.45312 14.0886 4.87266 14.8503 5.63437C15.612 6.39609 16.0316 7.40859 16.0316 8.48438C16.0316 9.56016 15.612 10.5727 14.8503 11.3344C14.0886 12.0961 13.0761 12.5156 12.0003 12.5156Z" fill="#313131"/>
</svg>
