<svg width="207" height="186" viewBox="0 0 207 186" fill="none" xmlns="http://www.w3.org/2000/svg">
<g clip-path="url(#clip0)">
<path d="M62.3647 19.7709C66.1789 19.7709 69.2709 16.6987 69.2709 12.9089C69.2709 9.11911 66.1789 6.04688 62.3647 6.04688C58.5505 6.04688 55.4585 9.11911 55.4585 12.9089C55.4585 16.6987 58.5505 19.7709 62.3647 19.7709Z" fill="#F6F5F3"/>
<path d="M42.4258 28.9571C44.825 28.9571 46.77 27.0245 46.77 24.6406C46.77 22.2567 44.825 20.3242 42.4258 20.3242C40.0265 20.3242 38.0815 22.2567 38.0815 24.6406C38.0815 27.0245 40.0265 28.9571 42.4258 28.9571Z" fill="#F6F5F3"/>
<path d="M60.3597 51.8666C63.0665 51.8666 65.2608 49.6863 65.2608 46.9968C65.2608 44.3072 63.0665 42.127 60.3597 42.127C57.6528 42.127 55.4585 44.3072 55.4585 46.9968C55.4585 49.6863 57.6528 51.8666 60.3597 51.8666Z" fill="#F6F5F3"/>
<path d="M108.257 58.3972C111.456 58.3972 114.049 55.8205 114.049 52.642C114.049 49.4634 111.456 46.8867 108.257 46.8867C105.058 46.8867 102.465 49.4634 102.465 52.642C102.465 55.8205 105.058 58.3972 108.257 58.3972Z" fill="#F6F5F3"/>
<path d="M127.973 96.2488C130.619 96.2488 132.763 94.118 132.763 91.4896C132.763 88.8612 130.619 86.7305 127.973 86.7305C125.328 86.7305 123.184 88.8612 123.184 91.4896C123.184 94.118 125.328 96.2488 127.973 96.2488Z" fill="#F6F5F3"/>
<path d="M113.158 101.451C115.865 101.451 118.06 99.2703 118.06 96.5808C118.06 93.8912 115.865 91.7109 113.158 91.7109C110.452 91.7109 108.257 93.8912 108.257 96.5808C108.257 99.2703 110.452 101.451 113.158 101.451Z" fill="#F6F5F3"/>
<path d="M120.065 66.1446C122.095 66.1446 123.74 64.5094 123.74 62.4922C123.74 60.4751 122.095 58.8398 120.065 58.8398C118.034 58.8398 116.389 60.4751 116.389 62.4922C116.389 64.5094 118.034 66.1446 120.065 66.1446Z" fill="#F6F5F3"/>
<path d="M160.611 60.7214C163.072 60.7214 165.067 58.7393 165.067 56.2943C165.067 53.8493 163.072 51.8672 160.611 51.8672C158.15 51.8672 156.155 53.8493 156.155 56.2943C156.155 58.7393 158.15 60.7214 160.611 60.7214Z" fill="#F6F5F3"/>
<path d="M164.621 42.129C167.205 42.129 169.299 40.0478 169.299 37.4805C169.299 34.9132 167.205 32.832 164.621 32.832C162.037 32.832 159.942 34.9132 159.942 37.4805C159.942 40.0478 162.037 42.129 164.621 42.129Z" fill="#F6F5F3"/>
<path d="M175.76 24.0879C177.79 24.0879 179.436 22.4527 179.436 20.4356C179.436 18.4184 177.79 16.7832 175.76 16.7832C173.73 16.7832 172.084 18.4184 172.084 20.4356C172.084 22.4527 173.73 24.0879 175.76 24.0879Z" fill="#F6F5F3"/>
<path d="M159.72 14.3484C161.627 14.3484 163.173 12.8122 163.173 10.9173C163.173 9.02244 161.627 7.48633 159.72 7.48633C157.813 7.48633 156.267 9.02244 156.267 10.9173C156.267 12.8122 157.813 14.3484 159.72 14.3484Z" fill="#F6F5F3"/>
<path d="M149.137 18.4421C150.86 18.4421 152.256 17.0546 152.256 15.3431C152.256 13.6316 150.86 12.2441 149.137 12.2441C147.415 12.2441 146.019 13.6316 146.019 15.3431C146.019 17.0546 147.415 18.4421 149.137 18.4421Z" fill="#F6F5F3"/>
<path d="M138.556 34.3796C140.463 34.3796 142.009 32.8435 142.009 30.9486C142.009 29.0537 140.463 27.5176 138.556 27.5176C136.649 27.5176 135.103 29.0537 135.103 30.9486C135.103 32.8435 136.649 34.3796 138.556 34.3796Z" fill="#F6F5F3"/>
<path d="M152.702 75.1101C155.347 75.1101 157.492 72.9794 157.492 70.3509C157.492 67.7225 155.347 65.5918 152.702 65.5918C150.057 65.5918 147.912 67.7225 147.912 70.3509C147.912 72.9794 150.057 75.1101 152.702 75.1101Z" fill="#F6F5F3"/>
<path d="M187.456 60.1687C190.655 60.1687 193.248 57.592 193.248 54.4134C193.248 51.2349 190.655 48.6582 187.456 48.6582C184.257 48.6582 181.664 51.2349 181.664 54.4134C181.664 57.592 184.257 60.1687 187.456 60.1687Z" fill="#F6F5F3"/>
<path d="M201.045 71.237C203.875 71.237 206.169 68.9576 206.169 66.1459C206.169 63.3341 203.875 61.0547 201.045 61.0547C198.215 61.0547 195.921 63.3341 195.921 66.1459C195.921 68.9576 198.215 71.237 201.045 71.237Z" fill="#F6F5F3"/>
<path d="M183.446 89.2768C186.337 89.2768 188.681 86.9478 188.681 84.0749C188.681 81.202 186.337 78.873 183.446 78.873C180.554 78.873 178.21 81.202 178.21 84.0749C178.21 86.9478 180.554 89.2768 183.446 89.2768Z" fill="#F6F5F3"/>
<path d="M156.712 86.7318C158.865 86.7318 160.611 84.9975 160.611 82.8581C160.611 80.7187 158.865 78.9844 156.712 78.9844C154.559 78.9844 152.813 80.7187 152.813 82.8581C152.813 84.9975 154.559 86.7318 156.712 86.7318Z" fill="#F6F5F3"/>
<path d="M129.756 116.504C131.417 116.504 132.763 115.166 132.763 113.516C132.763 111.865 131.417 110.527 129.756 110.527C128.095 110.527 126.748 111.865 126.748 113.516C126.748 115.166 128.095 116.504 129.756 116.504Z" fill="#F6F5F3"/>
<path d="M96.784 133.436C99.0602 133.436 100.905 131.603 100.905 129.341C100.905 127.08 99.0602 125.246 96.784 125.246C94.5078 125.246 92.6626 127.08 92.6626 129.341C92.6626 131.603 94.5078 133.436 96.784 133.436Z" fill="#F6F5F3"/>
<path d="M80.4097 119.823C81.9477 119.823 83.1945 118.584 83.1945 117.056C83.1945 115.528 81.9477 114.289 80.4097 114.289C78.8718 114.289 77.625 115.528 77.625 117.056C77.625 118.584 78.8718 119.823 80.4097 119.823Z" fill="#F6F5F3"/>
<path d="M86.6478 104.328C89.4162 104.328 91.6604 102.098 91.6604 99.3477C91.6604 96.597 89.4162 94.3672 86.6478 94.3672C83.8795 94.3672 81.6353 96.597 81.6353 99.3477C81.6353 102.098 83.8795 104.328 86.6478 104.328Z" fill="#F6F5F3"/>
<path d="M90.6578 74.1146C93.1801 74.1146 95.2248 72.083 95.2248 69.5768C95.2248 67.0707 93.1801 65.0391 90.6578 65.0391C88.1355 65.0391 86.0908 67.0707 86.0908 69.5768C86.0908 72.083 88.1355 74.1146 90.6578 74.1146Z" fill="#F6F5F3"/>
<path d="M63.8127 74.5573C65.9043 74.5573 67.5999 72.8726 67.5999 70.7943C67.5999 68.716 65.9043 67.0312 63.8127 67.0312C61.721 67.0312 60.0254 68.716 60.0254 70.7943C60.0254 72.8726 61.721 74.5573 63.8127 74.5573Z" fill="#F6F5F3"/>
<path d="M56.2381 90.1628C58.5143 90.1628 60.3596 88.3294 60.3596 86.0677C60.3596 83.8061 58.5143 81.9727 56.2381 81.9727C53.9619 81.9727 52.1167 83.8061 52.1167 86.0677C52.1167 88.3294 53.9619 90.1628 56.2381 90.1628Z" fill="#F6F5F3"/>
<path d="M37.7473 86.0671C39.4699 86.0671 40.8663 84.6796 40.8663 82.9681C40.8663 81.2566 39.4699 79.8691 37.7473 79.8691C36.0248 79.8691 34.6284 81.2566 34.6284 82.9681C34.6284 84.6796 36.0248 86.0671 37.7473 86.0671Z" fill="#F6F5F3"/>
<path d="M4.44169 101.119C6.65638 101.119 8.45174 99.3353 8.45174 97.1348C8.45174 94.9343 6.65638 93.1504 4.44169 93.1504C2.227 93.1504 0.431641 94.9343 0.431641 97.1348C0.431641 99.3353 2.227 101.119 4.44169 101.119Z" fill="#F6F5F3"/>
<path d="M30.7297 111.634C33.375 111.634 35.5195 109.503 35.5195 106.874C35.5195 104.246 33.375 102.115 30.7297 102.115C28.0844 102.115 25.9399 104.246 25.9399 106.874C25.9399 109.503 28.0844 111.634 30.7297 111.634Z" fill="#F6F5F3"/>
<path d="M21.0386 70.793C22.5151 70.793 23.712 69.6038 23.712 68.1367C23.712 66.6697 22.5151 65.4805 21.0386 65.4805C19.5621 65.4805 18.3652 66.6697 18.3652 68.1367C18.3652 69.6038 19.5621 70.793 21.0386 70.793Z" fill="#F6F5F3"/>
<path d="M6.55796 78.9831C8.83417 78.9831 10.6794 77.1497 10.6794 74.8881C10.6794 72.6264 8.83417 70.793 6.55796 70.793C4.28175 70.793 2.43652 72.6264 2.43652 74.8881C2.43652 77.1497 4.28175 78.9831 6.55796 78.9831Z" fill="#F6F5F3"/>
<path d="M21.5957 45.3373C23.0106 45.3373 24.1576 44.1976 24.1576 42.7917C24.1576 41.3858 23.0106 40.2461 21.5957 40.2461C20.1807 40.2461 19.0337 41.3858 19.0337 42.7917C19.0337 44.1976 20.1807 45.3373 21.5957 45.3373Z" fill="#F6F5F3"/>
<path d="M38.5271 70.351C40.6802 70.351 42.4257 68.6166 42.4257 66.4772C42.4257 64.3378 40.6802 62.6035 38.5271 62.6035C36.3739 62.6035 34.6284 64.3378 34.6284 66.4772C34.6284 68.6166 36.3739 70.351 38.5271 70.351Z" fill="#F6F5F3"/>
<path d="M78.182 48.6576C80.5198 48.6576 82.4149 46.7746 82.4149 44.4518C82.4149 42.1291 80.5198 40.2461 78.182 40.2461C75.8443 40.2461 73.9492 42.1291 73.9492 44.4518C73.9492 46.7746 75.8443 48.6576 78.182 48.6576Z" fill="#F6F5F3"/>
<path d="M95.0019 28.8464C96.909 28.8464 98.455 27.3103 98.455 25.4154C98.455 23.5205 96.909 21.9844 95.0019 21.9844C93.0948 21.9844 91.5488 23.5205 91.5488 25.4154C91.5488 27.3103 93.0948 28.8464 95.0019 28.8464Z" fill="#F6F5F3"/>
<path d="M123.629 21.9838C125.598 21.9838 127.193 20.3981 127.193 18.4421C127.193 16.4861 125.598 14.9004 123.629 14.9004C121.66 14.9004 120.064 16.4861 120.064 18.4421C120.064 20.3981 121.66 21.9838 123.629 21.9838Z" fill="#F6F5F3"/>
<path d="M104.136 9.03521C106.351 9.03521 108.146 7.25133 108.146 5.05081C108.146 2.85028 106.351 1.06641 104.136 1.06641C101.921 1.06641 100.126 2.85028 100.126 5.05081C100.126 7.25133 101.921 9.03521 104.136 9.03521Z" fill="#F6F5F3"/>
<path d="M135.548 53.0853C137.701 53.0853 139.447 51.351 139.447 49.2116C139.447 47.0722 137.701 45.3379 135.548 45.3379C133.395 45.3379 131.649 47.0722 131.649 49.2116C131.649 51.351 133.395 53.0853 135.548 53.0853Z" fill="#F6F5F3"/>
<path d="M152.814 48.5463C154.413 48.5463 155.71 47.2579 155.71 45.6686C155.71 44.0794 154.413 42.791 152.814 42.791C151.214 42.791 149.917 44.0794 149.917 45.6686C149.917 47.2579 151.214 48.5463 152.814 48.5463Z" fill="#F6F5F3"/>
<path d="M103.802 85.071C105.894 85.071 107.589 83.3862 107.589 81.308C107.589 79.2297 105.894 77.5449 103.802 77.5449C101.71 77.5449 100.015 79.2297 100.015 81.308C100.015 83.3862 101.71 85.071 103.802 85.071Z" fill="#F6F5F3"/>
<path d="M76.2883 92.043C77.9493 92.043 79.2958 90.7051 79.2958 89.0547C79.2958 87.4043 77.9493 86.0664 76.2883 86.0664C74.6273 86.0664 73.2808 87.4043 73.2808 89.0547C73.2808 90.7051 74.6273 92.043 76.2883 92.043Z" fill="#F6F5F3"/>
<path d="M60.0256 102.78C62.1172 102.78 63.8128 101.095 63.8128 99.0169C63.8128 96.9387 62.1172 95.2539 60.0256 95.2539C57.9339 95.2539 56.2383 96.9387 56.2383 99.0169C56.2383 101.095 57.9339 102.78 60.0256 102.78Z" fill="#F6F5F3"/>
<path d="M52.8965 138.971C54.8036 138.971 56.3496 137.435 56.3496 135.54C56.3496 133.645 54.8036 132.109 52.8965 132.109C50.9894 132.109 49.4434 133.645 49.4434 135.54C49.4434 137.435 50.9894 138.971 52.8965 138.971Z" fill="#F6F5F3"/>
<path d="M101.017 152.917C102.555 152.917 103.801 151.678 103.801 150.15C103.801 148.622 102.555 147.383 101.017 147.383C99.4787 147.383 98.2319 148.622 98.2319 150.15C98.2319 151.678 99.4787 152.917 101.017 152.917Z" fill="#F6F5F3"/>
<path d="M89.5437 181.361C90.7741 181.361 91.7715 180.37 91.7715 179.147C91.7715 177.925 90.7741 176.934 89.5437 176.934C88.3133 176.934 87.3159 177.925 87.3159 179.147C87.3159 180.37 88.3133 181.361 89.5437 181.361Z" fill="#F6F5F3"/>
<path d="M81.1895 185.566C82.6659 185.566 83.8628 184.377 83.8628 182.91C83.8628 181.443 82.6659 180.254 81.1895 180.254C79.713 180.254 78.5161 181.443 78.5161 182.91C78.5161 184.377 79.713 185.566 81.1895 185.566Z" fill="#F6F5F3"/>
<path d="M79.5185 168.854C80.4413 168.854 81.1894 168.11 81.1894 167.193C81.1894 166.276 80.4413 165.533 79.5185 165.533C78.5957 165.533 77.8477 166.276 77.8477 167.193C77.8477 168.11 78.5957 168.854 79.5185 168.854Z" fill="#F6F5F3"/>
<path d="M85.3109 152.253C86.6643 152.253 87.7615 151.162 87.7615 149.818C87.7615 148.473 86.6643 147.383 85.3109 147.383C83.9575 147.383 82.8604 148.473 82.8604 149.818C82.8604 151.162 83.9575 152.253 85.3109 152.253Z" fill="#F6F5F3"/>
<path d="M84.0856 139.523C85.1929 139.523 86.0906 138.632 86.0906 137.531C86.0906 136.431 85.1929 135.539 84.0856 135.539C82.9782 135.539 82.0806 136.431 82.0806 137.531C82.0806 138.632 82.9782 139.523 84.0856 139.523Z" fill="#F6F5F3"/>
<path d="M102.911 143.065C104.449 143.065 105.695 141.826 105.695 140.298C105.695 138.77 104.449 137.531 102.911 137.531C101.373 137.531 100.126 138.77 100.126 140.298C100.126 141.826 101.373 143.065 102.911 143.065Z" fill="#F6F5F3"/>
<path d="M106.364 116.283C107.41 116.283 108.257 115.44 108.257 114.401C108.257 113.362 107.41 112.52 106.364 112.52C105.318 112.52 104.47 113.362 104.47 114.401C104.47 115.44 105.318 116.283 106.364 116.283Z" fill="#F6F5F3"/>
<path d="M143.457 97.7982C145.056 97.7982 146.353 96.5099 146.353 94.9206C146.353 93.3313 145.056 92.043 143.457 92.043C141.857 92.043 140.561 93.3313 140.561 94.9206C140.561 96.5099 141.857 97.7982 143.457 97.7982Z" fill="#F6F5F3"/>
<path d="M141.006 75.6628C142.36 75.6628 143.457 74.5727 143.457 73.2279C143.457 71.8831 142.36 70.793 141.006 70.793C139.653 70.793 138.556 71.8831 138.556 73.2279C138.556 74.5727 139.653 75.6628 141.006 75.6628Z" fill="#F6F5F3"/>
<path d="M120.176 30.9493C122.207 30.9493 123.852 29.314 123.852 27.2969C123.852 25.2798 122.207 23.6445 120.176 23.6445C118.146 23.6445 116.5 25.2798 116.5 27.2969C116.5 29.314 118.146 30.9493 120.176 30.9493Z" fill="#F6F5F3"/>
<path d="M126.191 5.27217C127.545 5.27217 128.642 4.18202 128.642 2.83725C128.642 1.49249 127.545 0.402344 126.191 0.402344C124.838 0.402344 123.741 1.49249 123.741 2.83725C123.741 4.18202 124.838 5.27217 126.191 5.27217Z" fill="#F6F5F3"/>
<path d="M15.8037 59.0625C17.2802 59.0625 18.4771 57.8733 18.4771 56.4063C18.4771 54.9392 17.2802 53.75 15.8037 53.75C14.3273 53.75 13.1304 54.9392 13.1304 56.4063C13.1304 57.8733 14.3273 59.0625 15.8037 59.0625Z" fill="#F6F5F3"/>
<path d="M14.2442 111.855C16.2128 111.855 17.8087 110.269 17.8087 108.313C17.8087 106.357 16.2128 104.771 14.2442 104.771C12.2756 104.771 10.6797 106.357 10.6797 108.313C10.6797 110.269 12.2756 111.855 14.2442 111.855Z" fill="#F6F5F3"/>
<path d="M43.874 91.3789C45.3505 91.3789 46.5474 90.1897 46.5474 88.7227C46.5474 87.2557 45.3505 86.0664 43.874 86.0664C42.3976 86.0664 41.2007 87.2557 41.2007 88.7227C41.2007 90.1897 42.3976 91.3789 43.874 91.3789Z" fill="#F6F5F3"/>
<path d="M67.8228 59.0625C69.2992 59.0625 70.4962 57.8733 70.4962 56.4063C70.4962 54.9392 69.2992 53.75 67.8228 53.75C66.3463 53.75 65.1494 54.9392 65.1494 56.4063C65.1494 57.8733 66.3463 59.0625 67.8228 59.0625Z" fill="#F6F5F3"/>
<path d="M69.1596 31.9453C71.0052 31.9453 72.5013 30.4588 72.5013 28.625C72.5013 26.7912 71.0052 25.3047 69.1596 25.3047C67.314 25.3047 65.8179 26.7912 65.8179 28.625C65.8179 30.4588 67.314 31.9453 69.1596 31.9453Z" fill="#F6F5F3"/>
<path d="M37.7473 51.5358C39.4699 51.5358 40.8663 50.1484 40.8663 48.4369C40.8663 46.7254 39.4699 45.3379 37.7473 45.3379C36.0248 45.3379 34.6284 46.7254 34.6284 48.4369C34.6284 50.1484 36.0248 51.5358 37.7473 51.5358Z" fill="#F6F5F3"/>
<path d="M110.374 127.017C112.342 127.017 113.938 125.431 113.938 123.475C113.938 121.519 112.342 119.934 110.374 119.934C108.405 119.934 106.809 121.519 106.809 123.475C106.809 125.431 108.405 127.017 110.374 127.017Z" fill="#F6F5F3"/>
<path d="M162.059 97.1341C163.474 97.1341 164.621 95.9944 164.621 94.5886C164.621 93.1827 163.474 92.043 162.059 92.043C160.644 92.043 159.497 93.1827 159.497 94.5886C159.497 95.9944 160.644 97.1341 162.059 97.1341Z" fill="#F6F5F3"/>
<path d="M175.983 97.7989C177.275 97.7989 178.322 96.7583 178.322 95.4746C178.322 94.191 177.275 93.1504 175.983 93.1504C174.691 93.1504 173.644 94.191 173.644 95.4746C173.644 96.7583 174.691 97.7989 175.983 97.7989Z" fill="#F6F5F3"/>
<path d="M186.119 36.1517C187.534 36.1517 188.681 35.012 188.681 33.6061C188.681 32.2002 187.534 31.0605 186.119 31.0605C184.704 31.0605 183.557 32.2002 183.557 33.6061C183.557 35.012 184.704 36.1517 186.119 36.1517Z" fill="#F6F5F3"/>
<path d="M81.1897 6.6003C82.9123 6.6003 84.3087 5.21284 84.3087 3.50132C84.3087 1.7898 82.9123 0.402344 81.1897 0.402344C79.4672 0.402344 78.0708 1.7898 78.0708 3.50132C78.0708 5.21284 79.4672 6.6003 81.1897 6.6003Z" fill="#F6F5F3"/>
<path d="M77.6249 133.77C78.5477 133.77 79.2958 133.026 79.2958 132.109C79.2958 131.193 78.5477 130.449 77.6249 130.449C76.7022 130.449 75.9541 131.193 75.9541 132.109C75.9541 133.026 76.7022 133.77 77.6249 133.77Z" fill="#F6F5F3"/>
<path d="M81.1896 183.352C81.4124 183.352 81.6352 183.131 81.6352 182.91L79.9643 167.193C79.9643 166.972 79.7415 166.861 79.5187 166.861C79.296 166.861 79.1846 167.083 79.1846 167.304L80.8554 183.02C80.8554 183.131 80.9668 183.352 81.1896 183.352Z" fill="#F6F5F3"/>
<path d="M89.544 179.479C89.6554 179.479 89.7668 179.479 89.7668 179.368C89.9895 179.257 89.9895 178.925 89.7668 178.815L79.7416 166.861C79.6302 166.64 79.2961 166.64 79.1847 166.861C78.9619 166.972 78.9619 167.304 79.1847 167.415L89.2098 179.368C89.3212 179.479 89.4326 179.479 89.544 179.479Z" fill="#F6F5F3"/>
<path d="M89.5439 179.48C89.6553 179.48 89.8781 179.369 89.8781 179.258L101.351 150.261C101.463 150.04 101.351 149.818 101.129 149.707C100.906 149.597 100.683 149.707 100.572 149.929L89.0984 178.926C88.987 179.148 89.0984 179.369 89.3212 179.48C89.4326 179.48 89.4326 179.48 89.5439 179.48Z" fill="#F6F5F3"/>
<path d="M101.017 150.482C101.24 150.482 101.462 150.26 101.462 150.039C101.462 149.818 101.24 149.596 101.017 149.596L85.3108 149.375C85.088 149.375 84.8652 149.596 84.8652 149.818C84.8652 150.039 85.088 150.26 85.3108 150.26L101.017 150.482Z" fill="#F6F5F3"/>
<path d="M79.5186 167.525C79.7413 167.525 79.8527 167.415 79.8527 167.304L85.645 150.038C85.7564 149.817 85.645 149.596 85.4222 149.485C85.1995 149.374 84.9767 149.485 84.8653 149.706L79.073 166.972C78.9616 167.193 79.073 167.415 79.2958 167.525C79.4072 167.525 79.5186 167.525 79.5186 167.525Z" fill="#F6F5F3"/>
<path d="M79.5187 167.527C79.6301 167.527 79.7414 167.527 79.7414 167.416L101.24 150.372C101.463 150.261 101.463 149.929 101.351 149.818C101.24 149.597 101.017 149.597 100.794 149.707L79.2959 166.752C79.0731 166.863 79.0731 167.195 79.1845 167.305C79.2959 167.527 79.4073 167.527 79.5187 167.527Z" fill="#F6F5F3"/>
<path d="M81.1899 183.353C81.3013 183.353 81.4127 183.242 81.5241 183.131L101.352 150.371C101.463 150.149 101.352 149.928 101.24 149.817C101.017 149.707 100.795 149.817 100.683 149.928L80.8557 182.689C80.7443 182.91 80.8557 183.131 80.9671 183.242C81.0785 183.242 81.0785 183.353 81.1899 183.353Z" fill="#F6F5F3"/>
<path d="M81.1895 183.353C81.3008 183.353 81.3008 183.353 81.3008 183.353L89.6551 179.59C89.8779 179.479 89.9893 179.258 89.8779 179.036C89.7665 178.815 89.5437 178.704 89.321 178.815L80.9667 182.578C80.7439 182.689 80.6325 182.91 80.7439 183.131C80.8553 183.242 81.0781 183.353 81.1895 183.353Z" fill="#F6F5F3"/>
<path d="M89.5439 179.478C89.7667 179.478 89.8781 179.368 89.9895 179.146L97.2298 129.341C97.2298 129.12 97.1184 128.898 96.8957 128.898C96.6729 128.898 96.4501 129.009 96.4501 129.23L89.2097 179.035C89.0983 179.257 89.2097 179.478 89.5439 179.478Z" fill="#F6F5F3"/>
<path d="M84.0856 137.974C84.1969 137.974 84.197 137.974 84.3083 137.864L97.0068 129.563C97.2296 129.452 97.2296 129.231 97.1182 129.01C97.0068 128.788 96.784 128.788 96.5613 128.899L83.8628 137.2C83.64 137.31 83.64 137.532 83.7514 137.753C83.7514 137.864 83.9742 137.974 84.0856 137.974Z" fill="#F6F5F3"/>
<path d="M85.3109 150.259C85.5337 150.259 85.7565 150.038 85.7565 149.816L84.5312 137.531C84.5312 137.31 84.3084 137.199 84.0856 137.199C83.8628 137.199 83.7515 137.421 83.7515 137.642L84.9768 149.927C84.8654 150.038 85.0881 150.259 85.3109 150.259Z" fill="#F6F5F3"/>
<path d="M89.5436 179.478C89.7664 179.478 89.9892 179.257 89.9892 179.035L85.645 149.816C85.645 149.595 85.4222 149.484 85.1994 149.484C84.9766 149.484 84.8652 149.706 84.8652 149.927L89.0981 179.146C89.2094 179.367 89.3208 179.478 89.5436 179.478Z" fill="#F6F5F3"/>
<path d="M81.1895 183.352C81.4123 183.352 81.5237 183.241 81.635 183.02L85.7565 149.927C85.7565 149.706 85.6451 149.484 85.4223 149.484C85.1995 149.484 84.9768 149.595 84.9768 149.816L80.8553 182.909C80.7439 183.02 80.9667 183.241 81.1895 183.352Z" fill="#F6F5F3"/>
<path d="M85.3111 150.259C85.4225 150.259 85.4225 150.259 85.5339 150.259L103.245 140.741C103.468 140.63 103.468 140.409 103.356 140.187C103.245 139.966 103.022 139.966 102.799 140.077L85.0884 149.484C84.8656 149.595 84.8656 149.816 84.977 150.038C84.977 150.148 85.0884 150.259 85.3111 150.259Z" fill="#F6F5F3"/>
<path d="M102.911 140.742C103.022 140.742 103.022 140.742 103.134 140.742C103.356 140.631 103.356 140.41 103.245 140.189L97.0071 129.121C96.8957 128.9 96.673 128.9 96.4502 129.01C96.2274 129.121 96.2274 129.342 96.3388 129.564L102.577 140.631C102.688 140.631 102.799 140.742 102.911 140.742Z" fill="#F6F5F3"/>
<path d="M96.7841 129.675C96.8955 129.675 97.0069 129.564 97.1183 129.564C97.2297 129.343 97.2297 129.122 97.0069 129.011L80.6326 116.836C80.4098 116.726 80.187 116.726 80.0756 116.947C79.9642 117.168 79.9642 117.39 80.187 117.5L96.5614 129.675C96.5614 129.675 96.6728 129.675 96.7841 129.675Z" fill="#F6F5F3"/>
<path d="M52.8962 135.873C53.0076 135.873 53.0076 135.873 53.1189 135.762L80.6323 117.5C80.8551 117.39 80.8551 117.168 80.7437 116.947C80.6323 116.726 80.4096 116.726 80.1868 116.836L52.562 135.209C52.3392 135.32 52.3392 135.541 52.4506 135.762C52.562 135.873 52.6734 135.873 52.8962 135.873Z" fill="#F6F5F3"/>
<path d="M52.8967 135.872L77.7368 132.441C77.9595 132.441 78.0709 132.219 78.0709 131.998C78.0709 131.777 77.8482 131.666 77.6254 131.666L52.7853 135.097C52.5626 135.097 52.4512 135.318 52.4512 135.54C52.4512 135.761 52.6739 135.872 52.8967 135.872Z" fill="#F6F5F3"/>
<path d="M84.0858 137.975C84.1972 137.975 84.3086 137.975 84.42 137.864C84.5314 137.643 84.5314 137.422 84.42 137.311L77.9593 131.888C77.7366 131.777 77.5138 131.777 77.4024 131.888C77.291 132.109 77.291 132.33 77.4024 132.441L83.863 137.864C83.863 137.864 83.9744 137.975 84.0858 137.975Z" fill="#F6F5F3"/>
<path d="M84.0857 137.975C84.4199 137.975 84.5313 137.754 84.5313 137.533L80.8554 117.168C80.8554 116.947 80.6326 116.836 80.4099 116.836C80.1871 116.836 80.0757 117.057 80.0757 117.279L83.7516 137.643C83.7516 137.865 83.8629 137.975 84.0857 137.975Z" fill="#F6F5F3"/>
<path d="M101.017 150.482C101.128 150.482 101.128 150.482 101.24 150.371C101.463 150.26 101.463 150.039 101.351 149.818L80.7439 116.836C80.6326 116.614 80.4098 116.614 80.187 116.725C79.9642 116.836 79.9642 117.057 80.0756 117.278L100.683 150.371C100.794 150.482 100.906 150.482 101.017 150.482Z" fill="#F6F5F3"/>
<path d="M101.017 150.481C101.24 150.481 101.351 150.371 101.463 150.149L103.356 140.41C103.356 140.188 103.245 139.967 103.022 139.967C102.799 139.967 102.577 140.077 102.577 140.299L100.683 150.038C100.571 150.26 100.683 150.481 101.017 150.481Z" fill="#F6F5F3"/>
<path d="M102.911 140.742C103.022 140.742 103.245 140.631 103.245 140.521L110.708 123.587C110.819 123.366 110.708 123.144 110.485 123.034C110.262 122.923 110.04 123.034 109.928 123.255L102.465 140.189C102.354 140.41 102.465 140.631 102.688 140.742C102.799 140.742 102.911 140.742 102.911 140.742Z" fill="#F6F5F3"/>
<path d="M110.374 123.808C110.485 123.808 110.485 123.808 110.485 123.808C110.708 123.697 110.819 123.476 110.708 123.254L106.698 114.179C106.587 113.957 106.364 113.847 106.141 113.957C105.918 114.068 105.807 114.29 105.918 114.511L109.928 123.586C110.04 123.808 110.262 123.808 110.374 123.808Z" fill="#F6F5F3"/>
<path d="M106.364 114.843C106.475 114.843 106.586 114.843 106.698 114.732C106.809 114.511 106.809 114.29 106.586 114.179L86.8704 99.0161C86.6476 98.9054 86.4248 98.9054 86.3134 99.1267C86.202 99.3481 86.202 99.5694 86.4248 99.6801L106.141 114.732C106.141 114.843 106.252 114.843 106.364 114.843Z" fill="#F6F5F3"/>
<path d="M86.6479 99.7917C86.8707 99.7917 87.0935 99.5703 87.0935 99.349C87.0935 99.1276 86.8707 98.9063 86.6479 98.9063L60.0256 98.5742C59.8029 98.5742 59.5801 98.7956 59.5801 99.0169C59.5801 99.2383 59.8029 99.4597 60.0256 99.4597L86.6479 99.7917Z" fill="#F6F5F3"/>
<path d="M30.7297 107.316C30.8411 107.316 30.8411 107.316 30.7297 107.316L60.1367 99.4583C60.3595 99.3477 60.4709 99.1263 60.4709 99.0156C60.3595 98.7943 60.1367 98.6836 60.0253 98.6836L30.7297 106.542C30.5069 106.652 30.3955 106.874 30.3955 106.984C30.3955 107.206 30.6183 107.316 30.7297 107.316Z" fill="#F6F5F3"/>
<path d="M52.8963 135.873C53.0076 135.873 53.119 135.873 53.119 135.762C53.3418 135.652 53.3418 135.43 53.2304 135.209L31.0638 106.654C30.9524 106.433 30.7296 106.433 30.5068 106.543C30.284 106.654 30.284 106.875 30.3954 107.097L52.4507 135.762C52.5621 135.873 52.6735 135.873 52.8963 135.873Z" fill="#F6F5F3"/>
<path d="M52.8967 135.871C53.1195 135.871 53.2309 135.761 53.3423 135.539L60.5827 99.1263C60.5827 98.9049 60.4713 98.6836 60.2485 98.6836C60.0257 98.6836 59.8029 98.7943 59.8029 99.0156L52.4512 135.429C52.4512 135.65 52.5626 135.871 52.8967 135.871C52.7853 135.871 52.7853 135.871 52.8967 135.871Z" fill="#F6F5F3"/>
<path d="M80.41 117.611C80.5214 117.611 80.6327 117.611 80.7441 117.5C80.8555 117.39 80.8555 117.058 80.7441 116.947L60.3597 98.7959C60.2483 98.6852 59.9142 98.6852 59.8028 98.7959C59.6914 98.9066 59.6914 99.2386 59.8028 99.3493L80.1872 117.5C80.1872 117.5 80.2986 117.611 80.41 117.611Z" fill="#F6F5F3"/>
<path d="M80.4102 117.61C80.5216 117.61 80.7443 117.499 80.7443 117.389L86.9822 99.5695C87.0936 99.3481 86.9822 99.1268 86.7594 99.0161C86.5366 98.9054 86.3138 99.0161 86.2024 99.2374L79.9646 117.057C79.8532 117.278 79.9646 117.499 80.1874 117.61C80.2988 117.499 80.4102 117.61 80.4102 117.61Z" fill="#F6F5F3"/>
<path d="M14.2439 108.646L30.7297 107.318C30.9524 107.318 31.0638 107.096 31.0638 106.875C31.0638 106.654 30.9524 106.432 30.6183 106.543L14.1325 107.871C13.9097 107.871 13.7983 108.093 13.7983 108.314C13.9097 108.535 14.0211 108.646 14.2439 108.646Z" fill="#F6F5F3"/>
<path d="M14.244 108.646C14.3554 108.646 14.4668 108.646 14.4668 108.535C14.6896 108.425 14.6896 108.093 14.4668 107.982L4.66447 96.8036C4.55308 96.6929 4.21891 96.5822 4.10751 96.8036C3.88473 96.9143 3.88473 97.2463 4.10751 97.357L13.9099 108.535C14.0212 108.646 14.1326 108.646 14.244 108.646Z" fill="#F6F5F3"/>
<path d="M4.44165 97.4663C4.66443 97.4663 4.77583 97.3556 4.88722 97.1343L7.00363 74.888C7.00363 74.6667 6.89224 74.4453 6.66946 74.4453C6.44668 74.4453 6.2239 74.556 6.2239 74.7773L3.99609 97.1343C3.99609 97.2449 4.10748 97.4663 4.44165 97.4663Z" fill="#F6F5F3"/>
<path d="M6.55811 75.3312C6.6695 75.3312 6.6695 75.3312 6.78089 75.3312L21.2616 68.5799C21.4844 68.4692 21.5958 68.2478 21.4844 68.0265C21.373 67.8051 21.1502 67.6945 20.9274 67.8051L6.33533 74.5565C6.11255 74.6672 6.00116 74.8885 6.11255 75.1099C6.22394 75.2205 6.33533 75.3312 6.55811 75.3312Z" fill="#F6F5F3"/>
<path d="M21.0391 68.5793H21.1504C21.3732 68.4686 21.4846 68.2473 21.3732 68.0259L16.1379 56.2941C16.0265 56.0727 15.8037 55.962 15.5809 56.0727C15.3582 56.1834 15.2468 56.4047 15.3582 56.6261L20.5935 68.3579C20.7049 68.4686 20.8163 68.5793 21.0391 68.5793Z" fill="#F6F5F3"/>
<path d="M15.8037 56.7382C15.9151 56.7382 16.1379 56.6275 16.1379 56.5168L21.9302 42.9034C22.0416 42.6821 21.9302 42.4607 21.7074 42.3501C21.4846 42.2394 21.2618 42.3501 21.1504 42.5714L15.3582 56.1848C15.2468 56.4061 15.3582 56.6275 15.5809 56.7382C15.6923 56.7382 15.6923 56.7382 15.8037 56.7382Z" fill="#F6F5F3"/>
<path d="M37.7473 48.8788C37.8587 48.8788 38.0815 48.7681 38.0815 48.6574C38.1929 48.436 38.0815 48.2147 37.8587 48.104L21.7071 42.4594C21.4843 42.3488 21.2615 42.4594 21.1501 42.6808C21.0388 42.9021 21.1501 43.1235 21.3729 43.2342L37.5245 48.8788C37.6359 48.8788 37.6359 48.8788 37.7473 48.8788Z" fill="#F6F5F3"/>
<path d="M37.7475 48.8804C37.9703 48.8804 38.0817 48.7697 38.1931 48.5483L42.8715 24.6419C42.8715 24.4206 42.7601 24.1992 42.5373 24.1992C42.3145 24.1992 42.0918 24.3099 42.0918 24.5313L37.4134 48.4377C37.302 48.659 37.4134 48.7697 37.7475 48.8804C37.6361 48.8804 37.7475 48.8804 37.7475 48.8804Z" fill="#F6F5F3"/>
<path d="M60.3597 47.44C60.4711 47.44 60.5825 47.44 60.5825 47.3294C60.8053 47.2187 60.8053 46.8866 60.6939 46.776L42.7601 24.3084C42.6487 24.087 42.4259 24.087 42.2031 24.1977C41.9803 24.3084 41.9803 24.6404 42.0917 24.7511L60.0255 47.2187C60.1369 47.44 60.2483 47.44 60.3597 47.44Z" fill="#F6F5F3"/>
<path d="M60.3596 47.4397C60.5823 47.4397 60.6937 47.329 60.8051 47.1076L62.6988 13.0189C62.6988 12.7975 62.5874 12.5762 62.3646 12.5762C62.1418 12.5762 61.919 12.6868 61.919 12.9082L60.0254 46.997C60.0254 47.2183 60.1368 47.4397 60.3596 47.4397Z" fill="#F6F5F3"/>
<path d="M69.0477 29.0676H69.1591C69.3819 28.9569 69.4933 28.7356 69.3819 28.5142L62.5871 12.798C62.4757 12.5766 62.2529 12.4659 62.0302 12.5766C61.8074 12.6873 61.696 12.9087 61.8074 13.13L68.6022 28.8463C68.7136 28.9569 68.9363 29.0676 69.0477 29.0676Z" fill="#F6F5F3"/>
<path d="M78.1819 44.8957C78.2933 44.8957 78.2933 44.8957 78.4047 44.8957C78.6275 44.785 78.6275 44.5637 78.5161 44.3423L69.4935 28.5154C69.3821 28.2941 69.1593 28.2941 68.9365 28.4047C68.7137 28.5154 68.7137 28.7368 68.8251 28.9581L77.8477 44.6744C77.8477 44.785 77.9591 44.8957 78.1819 44.8957Z" fill="#F6F5F3"/>
<path d="M69.0483 29.0683C69.1597 29.0683 69.3825 28.9576 69.3825 28.847L81.6354 3.61243C81.7468 3.39108 81.6354 3.16972 81.4126 3.05904C81.1898 2.94837 80.967 3.05904 80.8556 3.2804L68.7141 28.5149C68.6027 28.7363 68.7141 28.9576 68.9369 29.0683H69.0483Z" fill="#F6F5F3"/>
<path d="M62.3645 13.3516C62.4759 13.3516 62.4759 13.3516 62.5873 13.3516L81.5236 3.83334C81.635 3.72266 81.7464 3.5013 81.635 3.27995C81.5236 3.05859 81.3008 3.05859 81.0781 3.05859L62.1417 12.5769C61.9189 12.6876 61.9189 12.9089 61.9189 13.1303C62.0303 13.2409 62.1417 13.3516 62.3645 13.3516Z" fill="#F6F5F3"/>
<path d="M42.4259 24.9732C42.5373 24.9732 42.5373 24.9732 42.6487 24.9732L62.4761 13.352C62.6989 13.2413 62.6989 13.02 62.5875 12.7986C62.4761 12.5773 62.2533 12.5773 62.0306 12.6879L42.2031 24.1984C41.9803 24.3091 41.9803 24.5305 42.0917 24.7518C42.2031 24.8625 42.3145 24.9732 42.4259 24.9732Z" fill="#F6F5F3"/>
<path d="M21.5955 43.2353C21.7069 43.2353 21.8183 43.2353 21.8183 43.1247L42.7596 24.8628C42.9824 24.7522 42.9824 24.4201 42.7596 24.3094C42.6482 24.1988 42.3141 24.0881 42.2027 24.3094L21.2613 42.4606C21.0385 42.5713 21.0385 42.9033 21.2613 43.014C21.3727 43.1247 21.4841 43.2353 21.5955 43.2353Z" fill="#F6F5F3"/>
<path d="M6.55805 75.3306C6.66944 75.3306 6.89222 75.22 6.89222 75.1093L16.1376 56.6261C16.249 56.4047 16.1376 56.1834 15.9148 56.0727C15.692 55.962 15.4693 56.0727 15.3579 56.2941L6.22387 74.6666C6.11248 74.8879 6.22387 75.1093 6.44666 75.22C6.44666 75.3306 6.44666 75.3306 6.55805 75.3306Z" fill="#F6F5F3"/>
<path d="M104.136 5.4935C104.359 5.4935 104.47 5.38283 104.582 5.16147C104.582 4.94012 104.47 4.71876 104.247 4.71876L81.301 3.05859C81.0783 3.05859 80.8555 3.16927 80.8555 3.39063C80.8555 3.61198 80.9669 3.83334 81.1896 3.83334L104.136 5.4935Z" fill="#F6F5F3"/>
<path d="M104.136 5.4943C104.136 5.4943 104.247 5.4943 104.136 5.4943L126.191 3.28075C126.414 3.28075 126.525 3.05939 126.525 2.83803C126.525 2.61668 126.303 2.39532 126.08 2.506L104.025 4.71956C103.802 4.71956 103.69 4.94091 103.69 5.16227C103.802 5.27295 104.025 5.4943 104.136 5.4943Z" fill="#F6F5F3"/>
<path d="M159.72 11.2489C159.942 11.2489 160.054 11.1382 160.054 10.9169C160.054 10.6955 159.942 10.4742 159.72 10.4742L126.302 2.39467C126.08 2.284 125.857 2.50535 125.857 2.72671C125.857 2.94806 125.968 3.16942 126.191 3.16942L159.72 11.2489C159.608 11.2489 159.608 11.2489 159.72 11.2489Z" fill="#F6F5F3"/>
<path d="M175.76 20.8779C175.871 20.8779 175.983 20.7673 176.094 20.6566C176.205 20.4352 176.094 20.2139 175.983 20.1032L159.942 10.5849C159.72 10.4742 159.497 10.5849 159.385 10.6956C159.274 10.9169 159.386 11.1383 159.497 11.249L175.537 20.7673C175.537 20.7673 175.648 20.8779 175.76 20.8779Z" fill="#F6F5F3"/>
<path d="M186.119 33.938C186.231 33.938 186.342 33.938 186.342 33.8273C186.565 33.7167 186.565 33.4953 186.453 33.274L176.094 20.1033C175.983 19.8819 175.648 19.8819 175.537 19.9926C175.314 20.1033 175.314 20.3247 175.426 20.546L185.785 33.7167C185.896 33.938 186.008 33.938 186.119 33.938Z" fill="#F6F5F3"/>
<path d="M187.456 54.8549C187.678 54.8549 187.901 54.6336 187.901 54.4122L186.453 33.4941C186.453 33.2728 186.23 33.1621 186.008 33.1621C185.785 33.1621 185.673 33.3835 185.673 33.6048L187.01 54.4122C187.121 54.6336 187.233 54.8549 187.456 54.8549Z" fill="#F6F5F3"/>
<path d="M201.045 66.5883C201.157 66.5883 201.268 66.5883 201.38 66.4776C201.491 66.2563 201.491 66.0349 201.38 65.9242L187.79 54.1924C187.679 54.0817 187.344 54.0817 187.233 54.1924C187.122 54.4137 187.122 54.6351 187.233 54.7458L200.823 66.4776C200.823 66.5883 200.934 66.5883 201.045 66.5883Z" fill="#F6F5F3"/>
<path d="M183.446 84.5167C183.557 84.5167 183.669 84.5167 183.78 84.406L201.268 66.4762C201.38 66.3656 201.38 66.0335 201.268 65.9229C201.157 65.8122 200.823 65.8122 200.711 65.9229L183.223 83.8527C183.112 83.9633 183.112 84.2954 183.223 84.406C183.335 84.406 183.446 84.5167 183.446 84.5167Z" fill="#F6F5F3"/>
<path d="M175.983 95.9171C176.094 95.9171 176.205 95.8065 176.317 95.6958L183.891 84.296C184.003 84.0747 184.003 83.8533 183.78 83.7426C183.557 83.6319 183.334 83.6319 183.223 83.8533L175.648 95.2531C175.537 95.4744 175.537 95.6958 175.76 95.8065C175.76 95.9171 175.871 95.9171 175.983 95.9171Z" fill="#F6F5F3"/>
<path d="M175.983 95.918C176.205 95.918 176.317 95.8073 176.428 95.5859C176.428 95.3646 176.317 95.1432 176.094 95.1432L162.282 94.2578C162.059 94.2578 161.836 94.3685 161.836 94.5898C161.836 94.8112 161.947 95.0325 162.17 95.0325L175.983 95.918Z" fill="#F6F5F3"/>
<path d="M143.457 95.364L162.17 95.0319C162.393 95.0319 162.616 94.8106 162.616 94.5892C162.616 94.3678 162.393 94.1465 162.17 94.1465L143.457 94.4785C143.234 94.4785 143.011 94.6999 143.011 94.9212C143.011 95.1426 143.234 95.364 143.457 95.364Z" fill="#F6F5F3"/>
<path d="M129.755 113.846C129.867 113.846 129.978 113.736 130.09 113.736L143.791 95.1417C143.902 94.9204 143.902 94.699 143.679 94.5883C143.456 94.4776 143.234 94.4776 143.122 94.699L129.421 113.293C129.31 113.514 129.31 113.736 129.533 113.846C129.533 113.846 129.644 113.846 129.755 113.846Z" fill="#F6F5F3"/>
<path d="M110.374 123.808C110.485 123.808 110.485 123.808 110.597 123.808L129.867 113.847C130.09 113.736 130.09 113.515 130.09 113.294C129.978 113.072 129.756 113.072 129.533 113.072L110.262 123.033C110.04 123.144 110.04 123.365 110.04 123.587C110.151 123.808 110.262 123.808 110.374 123.808Z" fill="#F6F5F3"/>
<path d="M110.374 123.808C110.597 123.808 110.708 123.697 110.82 123.476L113.604 96.5814C113.604 96.36 113.493 96.1387 113.27 96.1387C113.047 96.1387 112.825 96.2494 112.825 96.4707L110.04 123.365C109.928 123.587 110.151 123.808 110.374 123.808Z" fill="#F6F5F3"/>
<path d="M113.159 96.9132H113.27L128.085 91.8221C128.308 91.7114 128.419 91.49 128.308 91.2687C128.196 91.0473 127.974 90.9366 127.751 91.0473L112.936 96.1385C112.713 96.2492 112.602 96.4705 112.713 96.6919C112.825 96.9132 112.936 96.9132 113.159 96.9132Z" fill="#F6F5F3"/>
<path d="M143.457 95.364C143.679 95.364 143.791 95.2533 143.902 95.0319C143.902 94.8106 143.791 94.5892 143.568 94.5892L128.085 91.1582C127.862 91.1582 127.639 91.2689 127.639 91.4902C127.639 91.7116 127.751 91.9329 127.973 91.9329L143.457 95.364C143.345 95.364 143.457 95.364 143.457 95.364Z" fill="#F6F5F3"/>
<path d="M143.456 95.3635C143.568 95.3635 143.679 95.3635 143.679 95.2528L156.935 83.189C157.046 83.0783 157.157 82.7463 156.935 82.6356C156.823 82.5249 156.489 82.4143 156.378 82.6356L143.122 94.6995C143.011 94.8101 142.899 95.1422 143.122 95.2528C143.234 95.2528 143.345 95.3635 143.456 95.3635Z" fill="#F6F5F3"/>
<path d="M162.059 94.9211C162.171 94.9211 162.171 94.9211 162.282 94.9211C162.505 94.8104 162.616 94.5891 162.505 94.3677L157.047 82.6359C156.935 82.4145 156.712 82.3038 156.49 82.4145C156.267 82.5252 156.155 82.7465 156.267 82.9679L161.725 94.6998C161.836 94.9211 161.948 94.9211 162.059 94.9211Z" fill="#F6F5F3"/>
<path d="M162.059 94.9205C162.17 94.9205 162.17 94.9205 162.282 94.9205L183.669 84.4061C183.892 84.2954 184.003 84.074 183.892 83.8527C183.78 83.6313 183.557 83.5206 183.335 83.6313L161.948 94.2564C161.725 94.3671 161.613 94.5884 161.725 94.8098C161.836 94.9205 161.948 94.9205 162.059 94.9205Z" fill="#F6F5F3"/>
<path d="M183.446 84.5181C183.557 84.5181 183.78 84.4074 183.78 84.2968C183.891 84.0754 183.78 83.854 183.557 83.7434L152.814 69.9087C152.591 69.798 152.368 69.9087 152.257 70.13C152.145 70.3514 152.257 70.5727 152.479 70.6834L183.334 84.5181H183.446Z" fill="#F6F5F3"/>
<path d="M152.702 70.682C152.813 70.682 152.925 70.5713 153.036 70.4606L160.945 56.5152C161.056 56.2939 160.945 56.0725 160.834 55.9619C160.611 55.8512 160.388 55.9619 160.277 56.0725L152.368 70.1286C152.257 70.35 152.368 70.5713 152.479 70.682C152.591 70.682 152.591 70.682 152.702 70.682Z" fill="#F6F5F3"/>
<path d="M160.611 56.7365L187.456 54.855C187.678 54.855 187.79 54.6336 187.79 54.4123C187.79 54.1909 187.567 53.9695 187.344 54.0802L160.499 55.9617C160.276 55.9617 160.165 56.1831 160.165 56.4044C160.276 56.5151 160.388 56.7365 160.611 56.7365Z" fill="#F6F5F3"/>
<path d="M21.0388 68.5805C21.1502 68.5805 21.2616 68.5805 21.373 68.4699L38.0815 48.7692C38.1929 48.5479 38.1929 48.3265 38.0815 48.2158C37.8587 48.1051 37.636 48.1051 37.5246 48.2158L20.7046 67.9165C20.5932 68.1378 20.5932 68.3592 20.7046 68.4699C20.816 68.4699 20.9274 68.5805 21.0388 68.5805Z" fill="#F6F5F3"/>
<path d="M38.5273 66.81C38.7501 66.81 38.9729 66.5887 38.9729 66.3673L38.1932 48.4375C38.1932 48.2161 37.9704 48.1055 37.7476 48.1055C37.5248 48.1055 37.302 48.3268 37.4134 48.5482L38.1932 66.478C38.0818 66.6993 38.3045 66.81 38.5273 66.81Z" fill="#F6F5F3"/>
<path d="M21.0388 68.5788L38.5271 66.8079C38.7499 66.8079 38.8612 66.5866 38.8612 66.3652C38.8612 66.1439 38.6385 66.0332 38.4157 66.0332L20.9274 67.6934C20.7047 67.6934 20.5933 67.9147 20.5933 68.1361C20.5933 68.3574 20.816 68.5788 21.0388 68.5788Z" fill="#F6F5F3"/>
<path d="M21.0388 68.5802C21.2616 68.5802 21.4844 68.3589 21.4844 68.1375L22.0413 42.7923C22.0413 42.571 21.8186 42.3496 21.5958 42.3496C21.373 42.3496 21.1502 42.571 21.1502 42.7923L20.5933 68.1375C20.5933 68.3589 20.816 68.5802 21.0388 68.5802Z" fill="#F6F5F3"/>
<path d="M60.3592 47.4408C60.582 47.4408 60.6934 47.3301 60.8048 47.1088C60.8048 46.8874 60.6934 46.666 60.4706 46.666L21.5955 42.3496C21.3727 42.3496 21.1499 42.4603 21.1499 42.6816C21.1499 42.903 21.2613 43.1244 21.4841 43.1244L60.3592 47.4408Z" fill="#F6F5F3"/>
<path d="M67.8226 56.7375C67.9339 56.7375 68.0453 56.7375 68.0453 56.6268C68.2681 56.5161 68.2681 56.2948 68.1567 56.0734L60.805 46.6658C60.6936 46.4444 60.3594 46.4444 60.248 46.5551C60.0253 46.6658 60.0253 46.8872 60.1366 47.1085L67.4884 56.5161C67.5998 56.7375 67.7112 56.7375 67.8226 56.7375Z" fill="#F6F5F3"/>
<path d="M67.8225 56.7378C68.0453 56.7378 68.1567 56.6272 68.1567 56.4058C68.2681 56.1844 68.0453 55.9631 67.8225 55.9631L37.7472 47.9943C37.5244 47.8836 37.3016 48.105 37.3016 48.3263C37.1902 48.5477 37.413 48.769 37.6358 48.769L67.8225 56.7378C67.7111 56.7378 67.7111 56.7378 67.8225 56.7378Z" fill="#F6F5F3"/>
<path d="M63.8126 71.1261C63.924 71.1261 64.0354 71.1261 64.1468 71.0154C64.2582 70.7941 64.2582 70.5727 64.1468 70.462L37.9701 48.2158C37.8587 48.1051 37.5245 48.1051 37.4131 48.2158C37.3017 48.4372 37.3017 48.6585 37.4131 48.7692L63.4784 71.0154C63.5898 71.1261 63.7012 71.1261 63.8126 71.1261Z" fill="#F6F5F3"/>
<path d="M63.8128 71.1259C64.0355 71.1259 64.1469 71.0152 64.1469 70.7938L68.0456 56.4057C68.157 56.1844 67.9342 55.963 67.7114 55.963C67.4886 55.8524 67.2659 56.0737 67.2659 56.2951L63.3672 70.6832C63.3672 70.9045 63.4786 71.1259 63.8128 71.1259Z" fill="#F6F5F3"/>
<path d="M90.6577 69.9079C90.7691 69.9079 90.8805 69.7972 90.9919 69.6866C91.1033 69.4652 90.9919 69.2438 90.8805 69.1332L67.9341 56.0732C67.7114 55.9625 67.4886 56.0732 67.3772 56.1839C67.2658 56.4052 67.3772 56.6266 67.4886 56.7373L90.435 69.9079C90.5464 69.9079 90.6577 69.9079 90.6577 69.9079Z" fill="#F6F5F3"/>
<path d="M63.8131 71.125L90.6581 69.9076C90.8809 69.9076 91.1037 69.6862 90.9923 69.4648C90.9923 69.2435 90.8809 69.1328 90.5467 69.1328L63.7017 70.3503C63.4789 70.3503 63.2561 70.5716 63.3675 70.793C63.4789 71.0143 63.5903 71.125 63.8131 71.125Z" fill="#F6F5F3"/>
<path d="M56.2383 86.509C56.3497 86.509 56.5725 86.3983 56.5725 86.2877L64.147 70.9034C64.2584 70.6821 64.147 70.4607 63.9242 70.3501C63.7014 70.2394 63.4787 70.3501 63.3673 70.5714L55.7927 85.9556C55.6813 86.177 55.7927 86.3983 56.0155 86.509C56.1269 86.509 56.2383 86.509 56.2383 86.509Z" fill="#F6F5F3"/>
<path d="M56.2382 86.5101C56.3496 86.5101 56.461 86.5101 56.461 86.3994C56.5724 86.2887 56.6838 85.9567 56.461 85.846L38.8614 66.1454C38.75 66.0347 38.4158 65.924 38.3044 66.1454C38.193 66.2561 38.0816 66.5881 38.3044 66.6988L56.0155 86.3994C56.0155 86.3994 56.1268 86.5101 56.2382 86.5101Z" fill="#F6F5F3"/>
<path d="M63.8126 71.1244C64.0354 71.1244 64.1468 71.0137 64.2582 70.7923C64.2582 70.571 64.1468 70.3496 63.924 70.3496L38.6384 66.0332C38.4156 66.0332 38.1929 66.1439 38.1929 66.3652C38.1929 66.5866 38.3043 66.8079 38.527 66.8079L63.8126 71.1244Z" fill="#F6F5F3"/>
<path d="M76.2883 89.4979C76.3997 89.4979 76.3997 89.4979 76.5111 89.3873C76.7339 89.2766 76.7339 89.0552 76.6225 88.8339L64.1468 70.5721C64.0354 70.3507 63.8126 70.3507 63.5898 70.4614C63.3671 70.572 63.367 70.7934 63.4784 71.0148L75.9542 89.2766C76.0655 89.3873 76.1769 89.4979 76.2883 89.4979Z" fill="#F6F5F3"/>
<path d="M76.2882 89.4974C76.5109 89.4974 76.6223 89.3867 76.7337 89.1654C76.7337 88.944 76.6223 88.7227 76.3995 88.7227L56.4607 85.7344C56.2379 85.7344 56.0151 85.8451 56.0151 86.0664C56.0151 86.2878 56.1265 86.5091 56.3493 86.5091L76.2882 89.4974C76.1768 89.4974 76.2882 89.4974 76.2882 89.4974Z" fill="#F6F5F3"/>
<path d="M43.8741 89.1654L56.4612 86.5091C56.6839 86.5091 56.7953 86.2878 56.7953 86.0664C56.7953 85.8451 56.5725 85.7344 56.3498 85.7344L43.8741 88.3906C43.6513 88.3906 43.5399 88.612 43.5399 88.8333C43.4285 89.0547 43.6513 89.1654 43.8741 89.1654Z" fill="#F6F5F3"/>
<path d="M43.8737 89.1657C43.9851 89.1657 44.0965 89.1657 44.2079 89.055C44.3193 88.9444 44.3193 88.6123 44.2079 88.5016L38.0814 82.6357C37.97 82.5251 37.6359 82.5251 37.5245 82.6357C37.4131 82.7464 37.4131 83.0785 37.5245 83.1891L43.6509 89.055C43.6509 89.1657 43.7623 89.1657 43.8737 89.1657Z" fill="#F6F5F3"/>
<path d="M37.7476 83.4103C37.9704 83.4103 38.1932 83.1889 38.1932 83.0782L38.9729 66.5872C38.9729 66.3659 38.8615 66.1445 38.6387 66.1445C38.4159 66.1445 38.1932 66.2552 38.1932 66.4766L37.4134 82.9676C37.302 83.1889 37.5248 83.2996 37.7476 83.4103Z" fill="#F6F5F3"/>
<path d="M4.4418 97.4672C4.55319 97.4672 4.66458 97.4672 4.66458 97.3565L38.75 66.6988C38.8614 66.5881 38.9728 66.2561 38.75 66.1454C38.6386 66.0347 38.3044 65.924 38.193 66.1454L4.10763 96.8031C3.99624 96.9138 3.88485 97.2458 4.10763 97.3565C4.21902 97.4672 4.33041 97.4672 4.4418 97.4672Z" fill="#F6F5F3"/>
<path d="M4.44141 97.4674H4.5528L37.8585 83.3006C38.0812 83.1899 38.1926 82.9686 38.0812 82.7472C37.9699 82.5258 37.7471 82.4152 37.5243 82.5258L4.21863 96.8033C3.99585 96.914 3.88446 97.1353 3.99585 97.3567C4.10724 97.4674 4.21863 97.4674 4.44141 97.4674Z" fill="#F6F5F3"/>
<path d="M37.7475 83.4107C37.8589 83.4107 37.8589 83.4107 37.9703 83.4107L64.0356 71.2361C64.2584 71.1255 64.3698 70.9041 64.2584 70.6827C64.147 70.4614 63.9242 70.3507 63.7014 70.4614L37.6361 82.6359C37.4133 82.7466 37.3019 82.968 37.4133 83.1893C37.4133 83.3 37.5247 83.4107 37.7475 83.4107Z" fill="#F6F5F3"/>
<path d="M63.8126 71.1251C63.924 71.1251 63.924 71.1251 63.924 71.1251C64.1468 71.0144 64.2582 70.7931 64.1468 70.5717L42.8713 24.4191C42.7599 24.1977 42.5371 24.087 42.3143 24.1977C42.0915 24.3084 41.9802 24.5297 42.0916 24.7511L63.4785 70.9037C63.4785 71.0144 63.7012 71.1251 63.8126 71.1251Z" fill="#F6F5F3"/>
<path d="M69.0477 29.069C69.2705 29.069 69.3819 28.9584 69.4933 28.737C69.4933 28.5157 69.3819 28.2943 69.1591 28.2943L42.5369 24.1992C42.3141 24.1992 42.0913 24.3099 42.0913 24.5313C42.0913 24.7526 42.2027 24.974 42.4255 24.974L69.0477 29.069Z" fill="#F6F5F3"/>
<path d="M67.823 56.7365C68.0458 56.7365 68.2686 56.5152 68.2686 56.4045L69.4939 28.6244C69.4939 28.403 69.3825 28.1816 69.1597 28.1816C68.9369 28.1816 68.7141 28.2923 68.7141 28.5137L67.3774 56.2938C67.3774 56.6258 67.4888 56.7365 67.823 56.7365Z" fill="#F6F5F3"/>
<path d="M67.823 56.7374C67.9344 56.7374 68.0458 56.7374 68.1572 56.6267L78.4051 44.6735C78.5164 44.4522 78.5164 44.2308 78.4051 44.1201C78.1823 44.0094 77.9595 44.0094 77.8481 44.1201L67.4888 56.0733C67.3774 56.2947 67.3774 56.516 67.4888 56.6267C67.6002 56.7374 67.7116 56.7374 67.823 56.7374Z" fill="#F6F5F3"/>
<path d="M60.3596 47.4395C60.3596 47.4395 60.471 47.4395 60.3596 47.4395L78.182 44.8939C78.4048 44.8939 78.5162 44.6725 78.5162 44.4512C78.5162 44.2298 78.2934 44.1191 78.0706 44.1191L60.3596 46.6647C60.1368 46.6647 60.0254 46.8861 60.0254 47.1074C60.0254 47.3288 60.2482 47.4395 60.3596 47.4395Z" fill="#F6F5F3"/>
<path d="M108.257 53.0853C108.48 53.0853 108.591 52.9747 108.703 52.7533C108.703 52.5319 108.591 52.3106 108.369 52.3106L60.5823 46.666C60.3595 46.666 60.1367 46.7767 60.1367 46.998C60.1367 47.2194 60.2481 47.4408 60.4709 47.4408L108.257 53.0853C108.146 53.0853 108.146 53.0853 108.257 53.0853Z" fill="#F6F5F3"/>
<path d="M90.6579 69.908C90.7693 69.908 90.8807 69.908 90.9921 69.7973L108.48 52.9743C108.592 52.8636 108.592 52.5316 108.48 52.4209C108.369 52.3102 108.035 52.3102 107.923 52.4209L90.4351 69.2439C90.3237 69.3546 90.3237 69.6866 90.4351 69.7973C90.4351 69.908 90.5465 69.908 90.6579 69.908Z" fill="#F6F5F3"/>
<path d="M103.802 81.7498C103.913 81.7498 104.025 81.7498 104.136 81.6391C104.247 81.5284 104.247 81.1964 104.136 81.0857L90.9921 69.2432C90.8807 69.1325 90.5465 69.1325 90.4351 69.2432C90.3237 69.3538 90.3237 69.6859 90.4351 69.7966L103.579 81.6391C103.579 81.7498 103.691 81.7498 103.802 81.7498Z" fill="#F6F5F3"/>
<path d="M103.802 81.7508C104.025 81.7508 104.136 81.6401 104.247 81.4188L108.703 52.7533C108.703 52.5319 108.591 52.3105 108.369 52.3105C108.146 52.3105 107.923 52.4212 107.923 52.6426L103.468 81.3081C103.356 81.5295 103.468 81.7508 103.802 81.7508Z" fill="#F6F5F3"/>
<path d="M108.257 53.0853C108.369 53.0853 108.369 53.0853 108.48 53.0853C108.703 52.9746 108.814 52.7532 108.703 52.5319L95.2248 25.1945C95.1134 24.9731 94.8906 24.8624 94.6678 24.9731C94.4451 25.0838 94.3337 25.3051 94.4451 25.5265L107.701 52.7532C107.923 52.9746 108.035 53.0853 108.257 53.0853Z" fill="#F6F5F3"/>
<path d="M78.1819 44.895C78.2933 44.895 78.4047 44.895 78.516 44.7843L95.336 25.7477C95.4474 25.5264 95.4474 25.305 95.336 25.1943C95.2246 25.0837 94.8904 25.0837 94.779 25.1943L77.8477 44.2309C77.7363 44.4523 77.7363 44.6736 77.8477 44.7843C77.9591 44.7843 78.0705 44.895 78.1819 44.895Z" fill="#F6F5F3"/>
<path d="M78.1821 44.8951H78.2935L120.288 27.74C120.51 27.6294 120.622 27.408 120.51 27.1867C120.399 26.9653 120.176 26.8546 119.953 26.9653L77.9593 44.1204C77.7366 44.231 77.6252 44.4524 77.7366 44.6737C77.848 44.7844 77.9594 44.8951 78.1821 44.8951Z" fill="#F6F5F3"/>
<path d="M108.257 53.0853C108.369 53.0853 108.591 52.9746 108.591 52.8639L120.51 27.5187C120.622 27.2973 120.51 27.076 120.287 26.9653C120.065 26.8546 119.842 26.9653 119.731 27.1867L107.812 52.4212C107.7 52.6425 107.812 52.8639 108.035 52.9746C108.146 52.9746 108.146 53.0853 108.257 53.0853Z" fill="#F6F5F3"/>
<path d="M120.176 62.9346C120.287 62.9346 120.399 62.9346 120.51 62.824C120.621 62.6026 120.621 62.3813 120.51 62.2706L108.48 52.3096C108.257 52.1989 108.034 52.1989 107.923 52.3096C107.812 52.5309 107.812 52.7523 107.923 52.863L119.842 62.7133C119.953 62.9346 120.064 62.9346 120.176 62.9346Z" fill="#F6F5F3"/>
<path d="M120.176 62.9356C120.288 62.9356 120.399 62.9356 120.399 62.825L135.882 49.5436C135.994 49.4329 136.105 49.1009 135.882 48.9902C135.771 48.7689 135.437 48.7689 135.325 48.9902L119.842 62.2716C119.731 62.3822 119.619 62.7143 119.842 62.825C119.953 62.825 120.065 62.9356 120.176 62.9356Z" fill="#F6F5F3"/>
<path d="M135.548 49.6542C135.659 49.6542 135.659 49.6542 135.771 49.5436C135.993 49.4329 135.993 49.2115 135.882 48.9902L120.399 27.076C120.287 26.8546 120.065 26.8546 119.842 26.9653C119.619 27.076 119.619 27.2973 119.73 27.5187L135.214 49.4329C135.325 49.5436 135.436 49.6542 135.548 49.6542Z" fill="#F6F5F3"/>
<path d="M120.176 27.7407C120.288 27.7407 120.51 27.6301 120.51 27.5194L124.075 18.6652C124.186 18.4438 124.075 18.2225 123.852 18.1118C123.629 18.0011 123.407 18.1118 123.295 18.3331L119.731 27.1874C119.619 27.4087 119.731 27.6301 119.953 27.7407C120.065 27.7407 120.065 27.7407 120.176 27.7407Z" fill="#F6F5F3"/>
<path d="M138.556 31.3917C138.667 31.3917 138.779 31.3917 138.89 31.281C139.001 31.0597 139.001 30.8383 138.89 30.7276L123.964 18.1104C123.741 17.9997 123.518 17.9997 123.407 18.1104C123.295 18.3317 123.295 18.5531 123.407 18.6637L138.333 31.1703C138.333 31.3917 138.444 31.3917 138.556 31.3917Z" fill="#F6F5F3"/>
<path d="M135.548 49.6538C135.771 49.6538 135.882 49.5431 135.993 49.3217L139.001 31.0599C139.001 30.8385 138.89 30.6172 138.667 30.6172C138.444 30.6172 138.221 30.7279 138.221 30.9492L135.214 49.2111C135.102 49.4324 135.325 49.5431 135.548 49.6538Z" fill="#F6F5F3"/>
<path d="M135.548 49.655H135.66C135.882 49.5443 135.994 49.3229 135.882 49.1016L124.075 18.3331C123.964 18.1118 123.741 18.0011 123.518 18.1118C123.295 18.2225 123.184 18.4438 123.295 18.6652L135.214 49.3229C135.214 49.5443 135.437 49.655 135.548 49.655Z" fill="#F6F5F3"/>
<path d="M123.629 18.8859C123.741 18.8859 123.852 18.7753 123.963 18.6646C124.075 18.4432 124.075 18.2219 123.852 18.1112L104.359 4.71918C104.247 4.60851 104.024 4.60851 103.802 4.82986C103.69 5.05122 103.69 5.27257 103.913 5.38325L123.406 18.7753C123.518 18.7753 123.629 18.8859 123.629 18.8859Z" fill="#F6F5F3"/>
<path d="M94.8906 25.7473C95.002 25.7473 95.2248 25.6367 95.2248 25.526L104.47 5.16126C104.582 4.93991 104.47 4.71855 104.247 4.60787C104.025 4.49719 103.802 4.60787 103.69 4.82923L94.4451 25.1939C94.3337 25.4153 94.4451 25.6367 94.6678 25.7473C94.7792 25.7473 94.8906 25.7473 94.8906 25.7473Z" fill="#F6F5F3"/>
<path d="M94.8905 25.7486C95.0019 25.7486 95.0019 25.7486 95.1133 25.6379C95.3361 25.5273 95.3361 25.3059 95.2247 25.0846L81.6351 3.28103C81.5237 3.05968 81.3009 3.05968 81.0781 3.17036C80.8553 3.28103 80.8553 3.50239 80.9667 3.72374L94.6677 25.6379C94.6677 25.7486 94.7791 25.7486 94.8905 25.7486Z" fill="#F6F5F3"/>
<path d="M120.065 27.7408C120.176 27.7408 120.288 27.6302 120.399 27.5195C120.51 27.2981 120.51 27.0768 120.288 26.9661L81.4123 3.17036C81.1896 3.05968 80.9668 3.05968 80.8554 3.28103C80.744 3.50239 80.744 3.72374 80.9668 3.83442L119.842 27.7408C119.953 27.7408 120.065 27.7408 120.065 27.7408Z" fill="#F6F5F3"/>
<path d="M120.064 27.7396C120.287 27.7396 120.399 27.6289 120.51 27.4076C120.51 27.1862 120.399 26.9649 120.176 26.9649L95.0017 24.9727C94.7789 24.9727 94.5562 25.0833 94.5562 25.3047C94.5562 25.526 94.6675 25.7474 94.8903 25.7474L120.064 27.7396Z" fill="#F6F5F3"/>
<path d="M69.0481 29.0677C69.0481 29.0677 69.1595 29.0677 69.0481 29.0677L94.8906 25.7474C95.1134 25.7474 95.2248 25.526 95.2248 25.3047C95.2248 25.0833 95.002 24.9727 94.7792 24.9727L68.9367 28.293C68.7139 28.293 68.6025 28.5143 68.6025 28.7357C68.7139 28.9571 68.8253 29.0677 69.0481 29.0677Z" fill="#F6F5F3"/>
<path d="M108.257 53.0852C108.369 53.0852 108.48 52.9745 108.591 52.8639C108.703 52.6425 108.703 52.4212 108.48 52.3105L69.2707 28.2934C69.048 28.1827 68.8252 28.1827 68.7138 28.4041C68.6024 28.6254 68.6024 28.8468 68.8252 28.9575L107.923 52.9745C108.035 52.9745 108.146 53.0852 108.257 53.0852Z" fill="#F6F5F3"/>
<path d="M127.974 91.8218C128.085 91.8218 128.085 91.8218 128.196 91.8218C128.419 91.7112 128.419 91.4898 128.419 91.2685L108.592 52.4206C108.48 52.1992 108.258 52.1992 108.035 52.1992C107.812 52.3099 107.812 52.5313 107.812 52.7526L127.639 91.6005C127.751 91.8219 127.862 91.8218 127.974 91.8218Z" fill="#F6F5F3"/>
<path d="M127.973 91.8211C128.085 91.8211 128.085 91.8211 127.973 91.8211C128.307 91.7105 128.419 91.4891 128.308 91.2677L120.51 62.3809C120.399 62.1595 120.176 62.0488 120.065 62.0488C119.842 62.1595 119.73 62.3809 119.73 62.4915L127.639 91.4891C127.639 91.7105 127.862 91.8211 127.973 91.8211Z" fill="#F6F5F3"/>
<path d="M141.006 73.5598C141.118 73.5598 141.34 73.4491 141.34 73.3384C141.452 73.1171 141.34 72.8957 141.118 72.785L120.288 62.0493C120.065 61.9386 119.842 62.0493 119.731 62.2706C119.619 62.492 119.731 62.7133 119.953 62.824L140.783 73.5598C140.895 73.5598 140.895 73.5598 141.006 73.5598Z" fill="#F6F5F3"/>
<path d="M141.006 73.5614C141.34 73.4507 141.452 73.34 141.452 73.1186L135.994 49.1016C135.994 48.8802 135.771 48.7695 135.548 48.7695C135.325 48.7695 135.214 48.9909 135.214 49.2122L140.561 73.2293C140.672 73.4507 140.783 73.5614 141.006 73.5614Z" fill="#F6F5F3"/>
<path d="M152.702 70.6822C152.813 70.6822 152.925 70.6822 152.925 70.5715C153.148 70.4608 153.148 70.1288 153.036 70.0181L135.882 48.8787C135.771 48.6573 135.437 48.6573 135.325 48.768C135.102 48.8787 135.102 49.2107 135.214 49.3214L152.368 70.4608C152.479 70.6822 152.591 70.6822 152.702 70.6822Z" fill="#F6F5F3"/>
<path d="M156.712 83.2994H156.824C157.046 83.1887 157.158 82.9673 157.046 82.746L153.036 70.2394C152.925 70.018 152.702 69.9074 152.479 70.018C152.257 70.1287 152.145 70.3501 152.257 70.5714L156.155 83.078C156.378 83.1887 156.489 83.2994 156.712 83.2994Z" fill="#F6F5F3"/>
<path d="M156.712 83.2992C156.823 83.2992 156.935 83.1885 157.046 83.0778C157.158 82.8565 157.158 82.6351 156.935 82.5244L141.229 72.8955C141.006 72.7848 140.783 72.8955 140.672 73.0061C140.56 73.2275 140.56 73.4488 140.783 73.5595L156.489 83.1885C156.489 83.2992 156.601 83.2992 156.712 83.2992Z" fill="#F6F5F3"/>
<path d="M127.973 91.8228C128.085 91.8228 128.196 91.7121 128.307 91.6015L141.34 73.4503C141.451 73.229 141.451 73.0076 141.229 72.8969C141.006 72.7862 140.783 72.7862 140.672 73.0076L127.75 91.2694C127.639 91.4908 127.639 91.7121 127.862 91.8228H127.973Z" fill="#F6F5F3"/>
<path d="M127.973 91.8215C128.085 91.8215 128.308 91.7108 128.308 91.6001C128.419 91.3788 128.308 91.1574 128.085 91.0467L103.913 80.9751C103.69 80.8644 103.468 80.9751 103.356 81.1964C103.245 81.4178 103.356 81.6391 103.579 81.7498L127.751 91.8215C127.862 91.8215 127.973 91.8215 127.973 91.8215Z" fill="#F6F5F3"/>
<path d="M113.159 96.9133C113.27 96.9133 113.27 96.9133 113.381 96.8026C113.604 96.6919 113.604 96.4706 113.493 96.2492L104.136 81.197C104.025 80.9757 103.802 80.9757 103.579 81.0864C103.356 81.197 103.356 81.4184 103.468 81.6398L112.824 96.8026C112.824 96.9133 113.047 96.9133 113.159 96.9133Z" fill="#F6F5F3"/>
<path d="M86.6477 99.7917L113.159 97.0248C113.381 97.0248 113.493 96.8034 113.493 96.582C113.493 96.3607 113.381 96.25 113.047 96.25L86.5363 99.017C86.3135 99.017 86.2021 99.2383 86.2021 99.4597C86.3135 99.5703 86.4249 99.7917 86.6477 99.7917Z" fill="#F6F5F3"/>
<path d="M86.6475 99.7912C86.8703 99.7912 86.9817 99.6805 87.0931 99.4592L91.1031 69.6868C91.1031 69.4655 90.9917 69.2441 90.7689 69.2441C90.5461 69.2441 90.3234 69.3548 90.3234 69.5762L86.3133 99.3485C86.2019 99.5699 86.4247 99.6806 86.6475 99.7912Z" fill="#F6F5F3"/>
<path d="M76.2882 89.4973C76.3996 89.4973 76.511 89.3866 76.6224 89.3866L91.1031 69.9073C91.2145 69.686 91.2145 69.4646 90.9917 69.3539C90.7689 69.2433 90.5462 69.2433 90.4348 69.4646L75.954 88.9439C75.8426 89.1653 75.8426 89.3866 76.0654 89.4973C76.0654 89.3866 76.1768 89.4973 76.2882 89.4973Z" fill="#F6F5F3"/>
<path d="M113.158 96.9141C113.381 96.9141 113.493 96.8034 113.604 96.5821C113.604 96.3607 113.493 96.1394 113.27 96.1394L76.3997 88.6133C76.1769 88.6133 75.9541 88.724 75.9541 88.9453C75.9541 89.1667 76.0655 89.388 76.2883 89.388L113.158 96.9141C113.047 96.9141 113.158 96.9141 113.158 96.9141Z" fill="#F6F5F3"/>
<path d="M113.159 96.9127C113.27 96.9127 113.493 96.8021 113.493 96.6914C113.604 96.47 113.493 96.2487 113.382 96.138L64.0357 70.3501C63.8129 70.2394 63.5901 70.3501 63.4788 70.5714C63.3674 70.7928 63.4788 71.0141 63.5901 71.1248L112.936 96.9127C113.047 96.9127 113.047 96.9127 113.159 96.9127Z" fill="#F6F5F3"/>
<path d="M60.0255 99.4595H60.1369C60.3596 99.3488 60.471 99.1275 60.3596 99.0168L56.5724 86.0675C56.461 85.8462 56.2382 85.7355 56.1268 85.8462C55.9041 85.9568 55.7927 86.1782 55.9041 86.2889L59.6913 99.2382C59.6913 99.3488 59.9141 99.4595 60.0255 99.4595Z" fill="#F6F5F3"/>
<path d="M30.7296 107.317C30.841 107.317 30.9524 107.317 30.9524 107.206L56.4607 86.3989C56.6835 86.2882 56.6835 85.9562 56.5721 85.8455C56.4607 85.6241 56.1266 85.6241 56.0152 85.7348L30.5068 106.542C30.284 106.653 30.284 106.985 30.3954 107.096C30.5068 107.206 30.6182 107.317 30.7296 107.317Z" fill="#F6F5F3"/>
<path d="M30.7296 107.317C30.841 107.317 30.9524 107.206 31.0638 107.096L44.0964 88.9444C44.2078 88.7231 44.2078 88.5017 43.985 88.3911C43.7623 88.2804 43.5395 88.2804 43.4281 88.5017L30.3954 106.653C30.284 106.874 30.284 107.096 30.5068 107.206C30.6182 107.317 30.6182 107.317 30.7296 107.317Z" fill="#F6F5F3"/>
<path d="M52.8963 135.871C53.2305 135.871 53.3419 135.65 53.3419 135.429L44.3193 88.7227C44.3193 88.5013 44.0965 88.3906 43.8737 88.3906C43.6509 88.3906 43.5396 88.612 43.5396 88.8333L52.5621 135.539C52.4507 135.761 52.6735 135.871 52.8963 135.871Z" fill="#F6F5F3"/>
<path d="M52.8965 135.871C53.0079 135.871 53.2307 135.761 53.2307 135.65L76.6226 89.1652C76.734 88.9438 76.6226 88.7225 76.3998 88.6118C76.177 88.5011 75.9542 88.6118 75.8428 88.8331L52.4509 135.318C52.3395 135.539 52.4509 135.761 52.6737 135.871C52.6737 135.871 52.7851 135.871 52.8965 135.871Z" fill="#F6F5F3"/>
<path d="M96.7843 129.674C96.8957 129.674 97.0071 129.564 97.1185 129.453L106.698 114.622C106.809 114.401 106.809 114.179 106.587 114.069C106.364 113.958 106.141 113.958 106.03 114.179L96.4501 129.01C96.3387 129.232 96.3387 129.453 96.5615 129.564C96.6729 129.674 96.6729 129.674 96.7843 129.674Z" fill="#F6F5F3"/>
<path d="M80.4099 117.61L106.364 114.843C106.587 114.843 106.698 114.622 106.698 114.4C106.698 114.179 106.587 114.068 106.252 114.068L80.2985 116.835C80.0757 116.835 79.9644 117.057 79.9644 117.278C80.0757 117.389 80.1871 117.61 80.4099 117.61Z" fill="#F6F5F3"/>
<path d="M106.364 114.842C106.475 114.842 106.698 114.732 106.698 114.621L113.493 96.8019C113.604 96.5805 113.493 96.3592 113.27 96.2485C113.047 96.1378 112.824 96.2485 112.713 96.4699L105.918 114.289C105.807 114.51 105.918 114.732 106.141 114.842C106.252 114.842 106.252 114.842 106.364 114.842Z" fill="#F6F5F3"/>
<path d="M129.756 113.847C129.978 113.847 130.201 113.625 130.201 113.404L128.53 91.379C128.53 91.1577 128.307 90.9363 128.085 91.047C127.862 91.047 127.75 91.2684 127.75 91.4897L129.421 113.515C129.31 113.736 129.533 113.847 129.756 113.847Z" fill="#F6F5F3"/>
<path d="M110.373 123.808C110.485 123.808 110.708 123.698 110.708 123.587L128.307 91.6012C128.419 91.3798 128.307 91.1585 128.196 91.0478C127.973 90.9371 127.75 91.0478 127.639 91.1585L110.039 123.255C109.928 123.476 110.039 123.698 110.151 123.808C110.262 123.808 110.373 123.808 110.373 123.808Z" fill="#F6F5F3"/>
<path d="M135.548 49.6543C135.548 49.6543 135.659 49.6543 135.548 49.6543L152.925 46.1126C153.148 46.1126 153.259 45.8913 153.259 45.6699C153.259 45.4486 153.036 45.3379 152.814 45.3379L135.548 48.8796C135.325 48.8796 135.214 49.1009 135.214 49.3223C135.214 49.5437 135.437 49.6543 135.548 49.6543Z" fill="#F6F5F3"/>
<path d="M152.702 70.6824C152.925 70.6824 153.147 70.4611 153.147 70.2397L153.259 45.6693C153.259 45.4479 153.036 45.2266 152.813 45.2266C152.591 45.2266 152.368 45.4479 152.368 45.6693L152.256 70.2397C152.256 70.5718 152.479 70.6824 152.702 70.6824Z" fill="#F6F5F3"/>
<path d="M152.814 46.1118C152.925 46.1118 152.925 46.1118 153.036 46.0011L164.844 37.811C165.067 37.7003 165.066 37.479 164.955 37.2576C164.844 37.0362 164.621 37.0362 164.398 37.1469L152.591 45.3371C152.368 45.4477 152.368 45.6691 152.479 45.8905C152.591 46.0011 152.702 46.1118 152.814 46.1118Z" fill="#F6F5F3"/>
<path d="M164.621 37.9211C164.732 37.9211 164.732 37.9211 164.844 37.8105C165.067 37.6998 165.067 37.4784 164.955 37.2571L149.472 15.2322C149.361 15.0108 149.138 15.0108 148.915 15.1215C148.692 15.2322 148.692 15.4536 148.804 15.6749L164.287 37.6998C164.398 37.8105 164.51 37.9211 164.621 37.9211Z" fill="#F6F5F3"/>
<path d="M149.137 15.7856H149.249L159.719 11.2479C159.942 11.1372 160.054 10.9158 159.942 10.6945C159.831 10.4731 159.608 10.3624 159.385 10.4731L148.914 15.0109C148.692 15.1216 148.58 15.3429 148.692 15.5643C148.914 15.675 149.026 15.7856 149.137 15.7856Z" fill="#F6F5F3"/>
<path d="M152.813 46.1129C153.036 46.1129 153.148 46.0022 153.259 45.7808L160.165 10.9173C160.165 10.696 160.054 10.4746 159.831 10.4746C159.608 10.4746 159.385 10.5853 159.385 10.8066L152.479 45.6702C152.368 45.8915 152.479 46.1129 152.813 46.1129C152.702 46.1129 152.702 46.1129 152.813 46.1129Z" fill="#F6F5F3"/>
<path d="M152.813 46.1117C152.925 46.1117 153.036 46.1117 153.036 46.0011C153.148 45.8904 153.148 45.5583 153.036 45.4477L138.778 30.7275C138.667 30.6169 138.333 30.6169 138.221 30.7275C138.11 30.8382 138.11 31.1703 138.221 31.2809L152.479 46.0011C152.591 46.1117 152.702 46.1117 152.813 46.1117Z" fill="#F6F5F3"/>
<path d="M138.556 31.3925C138.667 31.3925 138.779 31.2818 138.89 31.1711L149.472 15.5655C149.583 15.3442 149.583 15.1228 149.361 15.0122C149.138 14.9015 148.915 14.9015 148.804 15.1228L138.222 30.7284C138.11 30.9497 138.11 31.1711 138.333 31.2818C138.444 31.3925 138.444 31.3925 138.556 31.3925Z" fill="#F6F5F3"/>
<path d="M149.138 15.7862C149.249 15.7862 149.472 15.6755 149.472 15.5648C149.583 15.3435 149.472 15.1221 149.36 15.0114L126.414 2.50483C126.191 2.39415 125.969 2.50483 125.857 2.61551C125.746 2.83686 125.857 3.05822 125.969 3.1689L148.915 15.7862C149.026 15.7862 149.138 15.7862 149.138 15.7862Z" fill="#F6F5F3"/>
<path d="M123.629 18.8862C123.852 18.8862 123.964 18.7755 124.075 18.5541L126.637 2.94857C126.637 2.72721 126.526 2.50586 126.303 2.50586C126.08 2.50586 125.857 2.61654 125.857 2.83789L123.295 18.4435C123.184 18.5541 123.407 18.7755 123.629 18.8862Z" fill="#F6F5F3"/>
<path d="M94.8903 25.7474C95.0017 25.7474 95.0017 25.7474 94.8903 25.7474L123.74 18.7747C123.963 18.7747 124.075 18.5534 124.075 18.332C124.075 18.1107 123.852 18 123.629 18L94.8903 24.9727C94.6675 24.9727 94.5562 25.1941 94.5562 25.4154C94.5562 25.6368 94.7789 25.7474 94.8903 25.7474Z" fill="#F6F5F3"/>
<path d="M94.8903 25.748C95.0016 25.748 95.0016 25.748 95.113 25.6373L126.414 3.05903C126.636 2.94835 126.636 2.727 126.525 2.50564C126.414 2.28429 126.191 2.28429 125.968 2.39496L94.6675 25.0839C94.4447 25.1946 94.4447 25.4159 94.5561 25.6373C94.6675 25.748 94.7789 25.748 94.8903 25.748Z" fill="#F6F5F3"/>
<path d="M138.555 31.3926H138.667C138.889 31.2819 139.001 31.0605 138.889 30.8392L126.636 2.61634C126.525 2.39498 126.302 2.2843 126.079 2.39498C125.857 2.50566 125.745 2.72702 125.857 2.94837L138.221 31.1712C138.221 31.2819 138.444 31.3926 138.555 31.3926Z" fill="#F6F5F3"/>
<path d="M138.556 31.3911C138.556 31.3911 138.667 31.3911 138.556 31.3911L175.76 20.7661C175.983 20.6554 176.094 20.434 175.983 20.3234C175.871 20.102 175.649 19.9913 175.537 20.102L138.444 30.6164C138.221 30.7271 138.11 30.9484 138.221 31.0591C138.221 31.2805 138.333 31.3911 138.556 31.3911Z" fill="#F6F5F3"/>
<path d="M164.621 37.9231C164.732 37.9231 164.843 37.8124 164.955 37.7017L175.983 20.6573C176.094 20.436 176.094 20.2146 175.871 20.1039C175.648 19.9933 175.426 19.9933 175.314 20.2146L164.287 37.259C164.175 37.4804 164.175 37.7017 164.398 37.8124C164.509 37.8124 164.621 37.9231 164.621 37.9231Z" fill="#F6F5F3"/>
<path d="M187.456 54.856C187.567 54.856 187.678 54.856 187.79 54.7453C187.901 54.524 187.901 54.3026 187.678 54.1919L164.844 37.2582C164.621 37.1476 164.398 37.1476 164.287 37.3689C164.175 37.5903 164.175 37.8116 164.398 37.9223L187.233 54.856C187.344 54.7453 187.344 54.856 187.456 54.856Z" fill="#F6F5F3"/>
<path d="M164.621 37.9219C164.621 37.9219 164.732 37.9219 164.621 37.9219L186.119 34.0482C186.342 34.0482 186.453 33.8268 186.453 33.6055C186.453 33.3841 186.231 33.2734 186.008 33.2734L164.509 37.1472C164.287 37.1472 164.175 37.3685 164.175 37.5899C164.287 37.7005 164.509 37.9219 164.621 37.9219Z" fill="#F6F5F3"/>
<path d="M160.611 56.738C160.722 56.738 160.834 56.738 160.834 56.6273L186.342 33.8277C186.453 33.717 186.565 33.385 186.342 33.2743C186.231 33.1636 185.896 33.0529 185.785 33.2743L160.277 56.0739C160.165 56.1846 160.054 56.5166 160.277 56.6273C160.388 56.738 160.499 56.738 160.611 56.738Z" fill="#F6F5F3"/>
<path d="M186.119 33.9381C186.231 33.9381 186.453 33.8274 186.453 33.7167C186.565 33.4954 186.453 33.274 186.231 33.1633L149.36 15.0122C149.138 14.9015 148.915 15.0122 148.803 15.2335C148.692 15.4549 148.803 15.6762 149.026 15.7869L185.896 33.9381C186.008 33.9381 186.008 33.9381 186.119 33.9381Z" fill="#F6F5F3"/>
<path d="M187.456 54.8548H187.567C187.79 54.7442 187.901 54.5228 187.79 54.3014L176.094 20.3234C175.983 20.102 175.76 19.9913 175.537 20.102C175.314 20.2127 175.203 20.434 175.314 20.6554L187.122 54.6335C187.122 54.7442 187.344 54.8548 187.456 54.8548Z" fill="#F6F5F3"/>
<path d="M201.045 66.588C201.268 66.588 201.379 66.4773 201.379 66.2559C201.379 66.0346 201.268 65.8132 201.045 65.8132L160.611 55.9629C160.388 55.9629 160.165 56.0736 160.165 56.2949C160.165 56.5163 160.276 56.7376 160.499 56.7376L201.045 66.588C200.934 66.588 200.934 66.588 201.045 66.588Z" fill="#F6F5F3"/>
<path d="M152.702 70.6823L201.045 66.5872C201.268 66.5872 201.379 66.3659 201.379 66.1445C201.379 65.9232 201.157 65.8125 200.934 65.8125L152.591 69.9076C152.368 69.9076 152.256 70.1289 152.256 70.3503C152.368 70.5716 152.479 70.6823 152.702 70.6823Z" fill="#F6F5F3"/>
<path d="M156.712 83.3H156.824L201.157 66.5877C201.38 66.477 201.491 66.2557 201.38 66.0343C201.268 65.813 201.046 65.7023 200.823 65.813L156.49 82.5253C156.267 82.636 156.155 82.8573 156.267 83.0787C156.378 83.1894 156.49 83.3 156.712 83.3Z" fill="#F6F5F3"/>
<path d="M162.059 94.9206C162.17 94.9206 162.281 94.81 162.393 94.6993L187.79 54.6339C187.901 54.4125 187.901 54.1912 187.678 54.0805C187.456 53.9698 187.233 53.9698 187.122 54.1912L161.725 94.3672C161.613 94.5886 161.613 94.81 161.836 94.9206C161.947 94.9206 162.059 94.9206 162.059 94.9206Z" fill="#F6F5F3"/>
<path d="M162.059 94.9208C162.282 94.9208 162.505 94.6995 162.505 94.4781L161.056 56.1836C161.056 55.9622 160.834 55.8516 160.611 55.8516C160.388 55.8516 160.165 56.0729 160.277 56.2943L161.725 94.5888C161.725 94.8101 161.836 94.9208 162.059 94.9208Z" fill="#F6F5F3"/>
<path d="M175.983 95.918H176.094C176.317 95.8074 176.428 95.586 176.317 95.3647L160.945 56.1847C160.834 55.9633 160.611 55.8527 160.388 55.9633C160.165 56.074 160.054 56.2954 160.165 56.5167L175.537 95.586C175.649 95.8074 175.76 95.918 175.983 95.918Z" fill="#F6F5F3"/>
<path d="M160.611 56.7381C160.722 56.7381 160.722 56.7381 160.834 56.6275C161.056 56.5168 161.056 56.2954 160.945 56.0741L153.148 45.449C153.036 45.2276 152.814 45.2276 152.591 45.3383C152.368 45.449 152.368 45.6704 152.479 45.8917L160.277 56.5168C160.388 56.6275 160.499 56.7381 160.611 56.7381Z" fill="#F6F5F3"/>
<path d="M160.611 56.7379C160.834 56.7379 160.945 56.6272 160.945 56.4058C161.056 56.1845 160.834 55.9631 160.722 55.9631L135.66 48.8798C135.437 48.7691 135.214 48.9905 135.214 49.1011C135.103 49.3225 135.325 49.5438 135.437 49.5438L160.611 56.7379C160.5 56.7379 160.611 56.7379 160.611 56.7379Z" fill="#F6F5F3"/>
<path d="M160.611 56.7384C160.834 56.7384 160.945 56.6277 161.056 56.4064L165.066 37.5911C165.066 37.3698 164.955 37.1484 164.732 37.1484C164.51 37.1484 164.287 37.2591 164.287 37.4805L160.277 56.2957C160.165 56.5171 160.277 56.6277 160.611 56.7384Z" fill="#F6F5F3"/>
<path d="M120.176 62.9356L160.722 56.7376C160.945 56.7376 161.057 56.5163 161.057 56.2949C161.057 56.0736 160.834 55.9629 160.611 55.9629L120.176 62.1609C119.954 62.1609 119.842 62.3822 119.842 62.6036C119.731 62.8249 119.954 62.9356 120.176 62.9356Z" fill="#F6F5F3"/>
<path d="M103.802 81.75L141.118 73.5599C141.34 73.5599 141.452 73.3385 141.452 73.1172C141.452 72.8958 141.229 72.7852 141.006 72.7852L103.802 80.9753C103.579 80.9753 103.468 81.1966 103.468 81.418C103.468 81.6394 103.579 81.75 103.802 81.75Z" fill="#F6F5F3"/>
<path d="M143.457 95.3641C143.679 95.3641 143.902 95.1427 143.902 94.9213L141.452 73.2285C141.452 73.0072 141.229 72.8965 141.006 72.8965C140.783 72.8965 140.672 73.1178 140.672 73.3392L143.122 95.032C143.011 95.1427 143.234 95.3641 143.457 95.3641Z" fill="#F6F5F3"/>
<path d="M143.456 95.3639C143.568 95.3639 143.568 95.3639 143.679 95.2533C143.902 95.1426 143.902 94.9212 143.791 94.6999L120.51 62.2713C120.399 62.0499 120.176 62.0499 119.953 62.1606C119.73 62.2713 119.73 62.4926 119.842 62.714L143.122 95.1426C143.234 95.2533 143.345 95.3639 143.456 95.3639Z" fill="#F6F5F3"/>
<path d="M141.006 73.5605L152.813 70.6829C153.036 70.6829 153.148 70.4616 153.148 70.2402C153.148 70.0189 152.925 69.9082 152.702 69.9082L141.006 72.7858C140.783 72.7858 140.672 73.0072 140.672 73.2285C140.672 73.4499 140.783 73.5605 141.006 73.5605Z" fill="#F6F5F3"/>
<path d="M156.712 83.3001C156.935 83.3001 157.158 83.0788 157.158 82.8574C157.158 82.6361 156.935 82.4147 156.824 82.4147L103.913 80.8652C103.691 80.8652 103.468 81.0866 103.468 81.3079C103.468 81.5293 103.691 81.7507 103.802 81.7507L156.712 83.3001C156.601 83.3001 156.712 83.3001 156.712 83.3001Z" fill="#F6F5F3"/>
<path d="M106.364 114.844H106.475C106.698 114.733 106.809 114.512 106.698 114.29L91.1032 69.4659C90.9918 69.2446 90.769 69.1339 90.5463 69.2446C90.3235 69.3553 90.2121 69.5766 90.3235 69.798L105.918 114.622C106.029 114.733 106.141 114.844 106.364 114.844Z" fill="#F6F5F3"/>
<path d="M108.257 53.0852C108.369 53.0852 108.369 53.0852 108.48 52.9745L138.778 31.2817C139.001 31.171 139.001 30.9497 138.89 30.7283C138.778 30.5069 138.556 30.5069 138.333 30.6176L108.035 52.3105C107.812 52.4211 107.812 52.6425 107.923 52.8639C107.923 52.9745 108.035 53.0852 108.257 53.0852Z" fill="#F6F5F3"/>
<path d="M108.258 53.0847L135.66 49.6537C135.882 49.6537 135.994 49.4323 135.994 49.2109C135.994 48.9896 135.771 48.8789 135.548 48.8789L108.146 52.3099C107.923 52.3099 107.812 52.5313 107.812 52.7526C107.812 52.8633 108.035 53.0847 108.258 53.0847Z" fill="#F6F5F3"/>
<path d="M67.823 56.7372L108.258 52.9741C108.48 52.9741 108.592 52.7527 108.592 52.5314C108.592 52.31 108.369 52.0887 108.146 52.1994L67.7116 55.9624C67.4888 55.9624 67.3774 56.1838 67.3774 56.4051C67.3774 56.6265 67.6002 56.7372 67.823 56.7372Z" fill="#F6F5F3"/>
<path d="M14.2441 108.645C14.4669 108.645 14.5783 108.534 14.6897 108.313L21.4845 68.2474C21.4845 68.026 21.3731 67.8047 21.1503 67.8047C20.9275 67.8047 20.7047 67.9154 20.7047 68.1367L13.9099 108.202C13.7985 108.423 13.9099 108.645 14.2441 108.645Z" fill="#F6F5F3"/>
<path d="M30.7297 107.317C30.8411 107.317 30.8411 107.317 30.7297 107.317C31.0639 107.206 31.1753 106.985 31.1753 106.874L21.4843 68.1367C21.4843 67.9154 21.1501 67.8047 21.0388 67.8047C20.816 67.8047 20.7046 68.026 20.7046 68.2474L30.3955 106.985C30.3955 107.206 30.6183 107.317 30.7297 107.317Z" fill="#F6F5F3"/>
<path d="M30.7299 107.318C30.8413 107.318 30.9527 107.318 30.9527 107.207C31.1755 107.096 31.1755 106.875 31.0641 106.654L6.89239 74.6678C6.781 74.4464 6.55822 74.4464 6.33544 74.5571C6.11266 74.6678 6.11266 74.8891 6.22405 75.1105L30.3957 107.096C30.5071 107.207 30.6185 107.318 30.7299 107.318Z" fill="#F6F5F3"/>
<path d="M80.4097 117.611C80.6325 117.611 80.7439 117.5 80.8553 117.279C80.8553 117.057 80.7439 116.836 80.5211 116.836L30.8411 106.543C30.6183 106.543 30.3955 106.654 30.3955 106.875C30.3955 107.096 30.5069 107.318 30.7297 107.318L80.4097 117.611Z" fill="#F6F5F3"/>
<path d="M77.6252 132.551C77.7365 132.551 77.7365 132.551 77.8479 132.551C78.0707 132.44 78.0707 132.219 77.9593 131.998L60.3597 98.9049C60.2483 98.6836 60.0255 98.6836 59.8027 98.6836C59.5799 98.7943 59.5799 99.0156 59.6913 99.237L77.291 132.33C77.291 132.44 77.4024 132.551 77.6252 132.551Z" fill="#F6F5F3"/>
<path d="M77.6251 132.551C77.7365 132.551 77.9593 132.441 77.9593 132.33C78.0707 132.108 77.9593 131.887 77.8479 131.776L31.064 106.542C30.8412 106.431 30.6185 106.542 30.5071 106.653C30.3957 106.874 30.5071 107.095 30.6185 107.206L77.4024 132.441C77.5137 132.441 77.5138 132.551 77.6251 132.551Z" fill="#F6F5F3"/>
<path d="M77.625 132.552C77.8477 132.552 77.9591 132.441 78.0705 132.22L80.8553 117.279C80.8553 117.057 80.7439 116.836 80.5211 116.836C80.2983 116.836 80.0755 116.947 80.0755 117.168L77.2908 132.109C77.1794 132.22 77.2908 132.441 77.625 132.552C77.5136 132.441 77.5136 132.552 77.625 132.552Z" fill="#F6F5F3"/>
<path d="M96.784 129.674H96.8954C97.1181 129.563 97.2295 129.342 97.1181 129.12L86.9816 99.2374C86.8702 99.0161 86.6475 98.9054 86.4247 99.0161C86.2019 99.1268 86.0905 99.3481 86.2019 99.5695L96.3384 129.452C96.4498 129.563 96.5612 129.674 96.784 129.674Z" fill="#F6F5F3"/>
<path d="M129.756 113.847C129.867 113.847 129.978 113.847 130.09 113.736C130.201 113.625 130.201 113.293 130.09 113.183L113.493 96.249C113.381 96.1383 113.047 96.1383 112.936 96.249C112.824 96.3597 112.824 96.6917 112.936 96.8024L129.533 113.736C129.533 113.847 129.644 113.847 129.756 113.847Z" fill="#F6F5F3"/>
<path d="M129.755 113.847C129.978 113.847 130.09 113.736 130.09 113.626C130.201 113.404 130.09 113.183 129.867 113.072L86.7589 99.0161C86.5361 98.9054 86.3133 99.0161 86.2019 99.2374C86.0905 99.4588 86.2019 99.6801 86.4247 99.7908L129.533 113.958C129.644 113.847 129.644 113.847 129.755 113.847Z" fill="#F6F5F3"/>
<path d="M90.6579 69.9078C90.8807 69.9078 90.9921 69.7971 91.1035 69.5758L95.3363 25.4154C95.3363 25.194 95.2249 24.9727 95.0021 24.9727C94.7793 24.9727 94.5565 25.0833 94.5565 25.3047L90.3237 69.4651C90.3237 69.6865 90.4351 69.9078 90.6579 69.9078Z" fill="#F6F5F3"/>
<path d="M90.6578 69.9084C90.7692 69.9084 90.7692 69.9084 90.8806 69.9084C91.1034 69.7977 91.2148 69.5763 91.1034 69.355L78.5163 44.2311C78.4049 44.0098 78.1821 44.0098 77.9593 44.0098C77.7366 44.1204 77.6252 44.3418 77.7366 44.5632L90.3236 69.687C90.435 69.9084 90.5464 69.9084 90.6578 69.9084Z" fill="#F6F5F3"/>
<path d="M108.258 53.0842C108.48 53.0842 108.592 52.9735 108.592 52.7521C108.703 52.5308 108.48 52.3094 108.258 52.3094L78.1822 44.1193C77.9594 44.0086 77.7367 44.23 77.7367 44.4513C77.6253 44.6727 77.848 44.894 78.0708 44.894L108.258 53.0842C108.146 53.0842 108.146 53.0842 108.258 53.0842Z" fill="#F6F5F3"/>
<path d="M78.1819 44.8956C78.2933 44.8956 78.4047 44.7849 78.5161 44.6742C78.6275 44.4529 78.5161 44.2315 78.4047 44.1208L42.7598 24.3095C42.537 24.1988 42.3143 24.3095 42.2029 24.4202C42.0915 24.6415 42.2029 24.8629 42.3143 24.9736L77.9591 44.7849C77.9591 44.7849 78.0705 44.8956 78.1819 44.8956Z" fill="#F6F5F3"/>
<path d="M69.048 29.0683C69.1594 29.0683 69.1594 29.0683 69.2707 28.9576L104.359 5.38325C104.581 5.27257 104.581 5.05122 104.47 4.82986C104.359 4.60851 104.136 4.60851 103.913 4.71918L68.8252 28.2936C68.6024 28.4042 68.6024 28.6256 68.7138 28.8469C68.8252 28.9576 68.9366 29.0683 69.048 29.0683Z" fill="#F6F5F3"/>
<path d="M62.3645 13.3516L104.247 5.49349C104.47 5.49349 104.581 5.27214 104.581 5.05078C104.581 4.82943 104.359 4.71875 104.136 4.71875L62.2531 12.5769C62.0303 12.5769 61.9189 12.7982 61.9189 13.0196C61.9189 13.2409 62.1417 13.3516 62.3645 13.3516Z" fill="#F6F5F3"/>
<path d="M123.518 18.7748L149.249 15.7865C149.472 15.7865 149.583 15.5651 149.583 15.3438C149.583 15.1224 149.36 15.0117 149.138 15.0117L123.406 17.8893C123.184 17.8893 123.072 18.1107 123.072 18.3321C123.072 18.5534 123.295 18.7748 123.518 18.7748Z" fill="#F6F5F3"/>
<path d="M135.548 49.6534C135.659 49.6534 135.771 49.5427 135.882 49.4321C135.994 49.2107 135.882 48.9893 135.771 48.8787L95.1133 25.083C94.8906 24.9723 94.6678 25.083 94.5564 25.1936C94.445 25.415 94.5564 25.6363 94.6678 25.747L135.325 49.5427C135.437 49.6534 135.548 49.6534 135.548 49.6534Z" fill="#F6F5F3"/>
<path d="M90.6579 69.9069C90.7693 69.9069 90.7693 69.9069 90.6579 69.9069L120.176 62.8236C120.399 62.8236 120.51 62.6022 120.51 62.3809C120.51 62.1595 120.176 62.0488 120.065 62.0488L90.6579 69.1322C90.4351 69.1322 90.3237 69.3536 90.3237 69.5749C90.3237 69.7963 90.5465 69.9069 90.6579 69.9069Z" fill="#F6F5F3"/>
<path d="M86.6477 99.7915C86.7591 99.7915 86.8705 99.7915 86.9819 99.6808L104.136 81.6403C104.247 81.5296 104.247 81.1976 104.136 81.0869C104.025 80.9762 103.69 80.9762 103.579 81.0869L86.3135 99.1274C86.2021 99.2381 86.2021 99.5701 86.3135 99.6808C86.4249 99.6808 86.5363 99.7915 86.6477 99.7915Z" fill="#F6F5F3"/>
<path d="M76.2886 89.497C76.5114 89.497 76.7342 89.2757 76.7342 89.165L78.6278 44.5619C78.6278 44.3405 78.5164 44.1191 78.2936 44.1191C78.0709 44.1191 77.8481 44.3405 77.8481 44.4512L75.9544 89.0543C75.843 89.2757 76.0658 89.497 76.2886 89.497Z" fill="#F6F5F3"/>
<path d="M80.4097 117.61C80.7439 117.61 80.8553 117.388 80.8553 117.167L76.7338 89.0547C76.7338 88.8333 76.511 88.7227 76.2883 88.7227C76.0655 88.7227 75.9541 88.944 75.9541 89.1654L80.0755 117.278C80.0755 117.388 80.1869 117.61 80.4097 117.61Z" fill="#F6F5F3"/>
<path d="M103.801 81.7498C103.913 81.7498 104.024 81.7498 104.136 81.6391L120.51 62.8239C120.621 62.6025 120.621 62.3812 120.51 62.2705C120.287 62.1598 120.064 62.1598 119.953 62.2705L103.579 81.0857C103.467 81.3071 103.467 81.5284 103.579 81.6391C103.579 81.7498 103.69 81.7498 103.801 81.7498Z" fill="#F6F5F3"/>
<path d="M120.176 62.9345C120.399 62.9345 120.622 62.7131 120.622 62.4918V27.2962C120.622 27.0749 120.399 26.8535 120.176 26.8535C119.953 26.8535 119.73 27.0749 119.73 27.2962V62.4918C119.73 62.7131 119.953 62.9345 120.176 62.9345Z" fill="#F6F5F3"/>
<path d="M108.257 53.0849C108.48 53.0849 108.703 52.8636 108.703 52.6422L104.693 5.05078C104.693 4.82943 104.47 4.71875 104.247 4.71875C104.024 4.71875 103.913 4.94011 103.913 5.16146L107.923 52.7529C107.812 52.8636 108.035 53.0849 108.257 53.0849Z" fill="#F6F5F3"/>
<path d="M120.176 27.7401H120.288L149.361 15.7869C149.583 15.6762 149.695 15.4549 149.583 15.2335C149.472 15.0122 149.249 14.9015 149.026 15.0122L119.953 26.9654C119.731 27.0761 119.619 27.2974 119.731 27.5188C119.842 27.6294 119.953 27.7401 120.176 27.7401Z" fill="#F6F5F3"/>
<path d="M135.548 49.6537C135.659 49.6537 135.771 49.543 135.882 49.4323L159.942 11.1378C160.054 10.9165 160.054 10.6951 159.831 10.5844C159.608 10.4737 159.386 10.4737 159.274 10.6951L135.214 48.9896C135.102 49.211 135.102 49.4323 135.325 49.543C135.437 49.6537 135.548 49.6537 135.548 49.6537Z" fill="#F6F5F3"/>
<path d="M38.5272 66.8089C38.6386 66.8089 38.75 66.8089 38.75 66.6982L60.5825 47.3296C60.6939 47.2189 60.8053 46.8869 60.5825 46.7762C60.4711 46.6656 60.1369 46.5549 60.0255 46.7762L38.1931 66.1448C38.0817 66.2555 37.9703 66.5876 38.1931 66.6982C38.3045 66.8089 38.4159 66.8089 38.5272 66.8089Z" fill="#F6F5F3"/>
<path d="M37.7473 83.41C37.8587 83.41 37.9701 83.41 38.0814 83.2993C38.1928 83.1886 38.1928 82.8566 38.0814 82.7459L21.3729 67.915C21.2615 67.8044 20.9274 67.8044 20.816 67.915C20.7046 68.0257 20.7046 68.3578 20.816 68.4684L37.5245 83.2993C37.5245 83.2993 37.6359 83.41 37.7473 83.41Z" fill="#F6F5F3"/>
</g>
<defs>
<clipPath id="clip0">
<rect x="0.431641" y="0.402344" width="205.738" height="185.164" fill="white"/>
</clipPath>
</defs>
</svg>
