<svg width="120" height="34" viewBox="0 0 120 34" fill="none" xmlns="http://www.w3.org/2000/svg">
<path d="M11.4264 23.3952C9.14814 23.3954 6.91821 22.7413 5.00428 21.5113C4.80027 21.3916 4.6328 21.2189 4.51976 21.0118C4.40672 20.8046 4.35238 20.5708 4.36253 20.3353C4.36253 19.685 4.79036 18.7627 5.64603 17.5683C5.76975 17.3782 5.9426 17.2248 6.14643 17.1242C6.35025 17.0236 6.57754 16.9794 6.80442 16.9964C7.39056 16.9964 8.07633 17.227 8.86635 17.702C9.96914 18.3292 10.9043 18.6428 11.672 18.6428C13.0451 18.6428 13.7324 18.3738 13.7339 17.8357C13.7339 17.6051 13.5184 17.423 13.0922 17.2639C12.566 17.0849 12.0225 16.9612 11.4704 16.8949C10.7478 16.7874 10.0392 16.601 9.35751 16.3392C8.62126 16.0683 7.91418 15.7246 7.24692 15.3131C6.53754 14.8442 5.97544 14.1856 5.62517 13.4131C5.17671 12.4496 4.95713 11.3963 4.98343 10.3347C4.98343 6.79908 7.4284 5.03125 12.3184 5.03125C14.0272 5.05978 15.71 5.45294 17.2531 6.18418C18.0408 6.5439 18.4347 7.03736 18.4347 7.66455C18.4347 8.12572 18.203 8.71833 17.7257 9.48157C17.2068 10.2886 16.6901 10.6922 16.1712 10.6922C15.7663 10.6582 15.3724 10.5438 15.0128 10.3555C14.1625 9.93186 13.2295 9.69814 12.279 9.67066C10.9491 9.67066 10.2865 9.91969 10.2865 10.4108C10.2865 10.7706 10.5043 11.0565 10.9445 11.2686C11.4683 11.5055 12.0282 11.6536 12.601 11.7067C13.3278 11.8006 14.0454 11.9549 14.7463 12.1679C15.4846 12.3806 16.2031 12.656 16.894 12.9911C17.5953 13.3602 18.1674 13.9328 18.5343 14.6329C18.9986 15.5075 19.2262 16.4873 19.1946 17.476C19.2303 18.53 19.0035 19.5765 18.5343 20.5221C18.1281 21.3098 17.4784 21.9468 16.6809 22.3391C15.9109 22.7212 15.0926 22.9981 14.2482 23.1623C13.317 23.3277 12.3723 23.4057 11.4264 23.3952Z" fill="white"/>
<path d="M36.6052 5.56852C37.935 6.15268 38.6 6.85904 38.6 7.68761C38.6 8.04502 38.4308 8.5846 38.0926 9.30172V9.33631C38.0824 9.3444 38.074 9.35453 38.068 9.36605C38.0621 9.37758 38.0586 9.39023 38.0578 9.40318L29.2031 29.1137C29.0653 29.4464 28.9106 29.772 28.7397 30.0891C28.5914 30.3426 28.3899 30.5612 28.149 30.7301C27.8753 30.9322 27.5421 31.0384 27.2014 31.0322C26.7519 31.0322 26.131 30.8639 25.348 30.5272C24.0181 29.9446 23.3532 29.2528 23.3532 28.4519C23.3532 28.0922 23.5339 27.5088 23.8953 26.7018C24.7263 24.7941 25.6275 22.8095 26.599 20.748L19.8804 9.47927C19.4294 8.73832 19.2039 8.18876 19.2039 7.83058C19.2039 7.11268 19.8124 6.39479 21.0295 5.6769C21.794 5.22956 22.4474 5.00589 22.9895 5.00589C23.2999 5.00392 23.6039 5.09381 23.8629 5.26415C24.0954 5.40789 24.2964 5.59691 24.4537 5.81986C24.5788 6.01202 24.7649 6.30947 25.012 6.71223C26.9952 10.0942 28.4934 12.6053 29.5066 14.2455C29.6193 13.8873 30.7005 11.4769 32.7501 7.0143C32.9076 6.65459 33.0258 6.39863 33.1045 6.23953C33.2101 6.04316 33.335 5.85777 33.4776 5.68612C33.6214 5.48871 33.8125 5.33019 34.0336 5.22495C34.2693 5.12857 34.5226 5.08224 34.7773 5.0889C35.4127 5.12544 36.0343 5.28853 36.6052 5.56852Z" fill="white"/>
<path d="M50.0218 5.36548C51.0936 5.34691 52.1559 5.56856 53.1301 6.01401C54.1042 6.45946 54.9652 7.11731 55.6492 7.93883C57.1474 9.65439 57.8965 11.7458 57.8965 14.2131V20.1322C57.9021 20.5172 57.8859 20.9021 57.8479 21.2852C57.7965 21.5916 57.6931 21.8872 57.542 22.1591C57.4481 22.3289 57.3203 22.4778 57.1665 22.5967C57.0128 22.7157 56.8363 22.8021 56.6478 22.8509C56.0863 23.0022 55.5055 23.0706 54.9241 23.0538C54.4336 23.0646 53.944 23.0079 53.4691 22.8854C53.1578 22.8063 52.8614 22.6778 52.5911 22.505C52.3659 22.33 52.2034 22.0874 52.1277 21.8132C52.0396 21.5629 51.9828 21.3026 51.9586 21.0384C51.947 20.8378 51.9424 20.5242 51.9424 20.0977V14.1785C51.9424 13.2562 51.6759 12.5413 51.1477 12.0271C50.6195 11.5129 49.9036 11.2524 49.0024 11.2524C48.6083 11.2369 48.2152 11.3004 47.8463 11.439C47.4774 11.5776 47.1402 11.7886 46.8547 12.0594C46.5776 12.3368 46.361 12.6683 46.2187 13.0329C46.0764 13.3976 46.0113 13.7876 46.0276 14.1785V20.1322C46.0339 20.5172 46.0169 20.9022 45.9767 21.2852C45.9273 21.5918 45.8246 21.8876 45.6732 22.1591C45.5789 22.3291 45.4508 22.4782 45.2966 22.5971C45.1425 22.7161 44.9655 22.8024 44.7766 22.8509C44.2151 23.0022 43.6343 23.0706 43.0529 23.0538C42.4829 23.0695 41.9138 23.0011 41.3639 22.8509C41.1734 22.8019 40.9952 22.7138 40.8408 22.5923C40.6864 22.4708 40.5592 22.3185 40.4674 22.1453C40.3181 21.8662 40.2156 21.5648 40.1639 21.2529C40.1235 20.87 40.1065 20.4849 40.1129 20.1V8.19247C40.1067 7.81593 40.1237 7.43937 40.1639 7.0649C40.214 6.76116 40.3225 6.4699 40.4836 6.20712C40.5847 6.0431 40.7174 5.9006 40.874 5.78782C41.0307 5.67503 41.2082 5.59419 41.3964 5.54995C41.9492 5.41279 42.5181 5.35074 43.0876 5.36548C43.6469 5.34978 44.2054 5.41819 44.7441 5.5684C45.1056 5.64768 45.4249 5.85709 45.6407 6.15639C45.7731 6.35688 45.8703 6.57833 45.928 6.81126C45.9666 7.04519 45.9836 7.28214 45.979 7.51916C46.0357 7.43838 46.0976 7.36136 46.1643 7.28857C46.2431 7.19787 46.4122 7.02955 46.6717 6.78359C46.9253 6.53882 47.2006 6.31733 47.4942 6.1218C47.8494 5.90351 48.2298 5.72854 48.6271 5.60068C49.0758 5.44639 49.547 5.36692 50.0218 5.36548Z" fill="white"/>
<path d="M75.1008 5.36574C75.6708 5.34904 76.2401 5.41744 76.7897 5.56866C76.9803 5.61764 77.1585 5.70571 77.3129 5.82721C77.4673 5.94872 77.5945 6.10098 77.6863 6.27425C77.8356 6.55331 77.9381 6.85472 77.9898 7.16662C78.0302 7.54955 78.0473 7.93457 78.0408 8.31956V20.1002C78.0472 20.4852 78.0302 20.8702 77.9898 21.2532C77.9404 21.5627 77.8378 21.8615 77.6863 22.1363C77.5921 22.3063 77.464 22.4554 77.3098 22.5743C77.1556 22.6933 76.9787 22.7796 76.7897 22.8281C76.2285 22.9805 75.6475 23.0489 75.066 23.031C74.0513 23.031 73.3377 22.8788 72.9207 22.5698C72.7105 22.4136 72.5366 22.2141 72.4111 21.9849C72.2855 21.7556 72.2112 21.5021 72.1932 21.2416C71.3592 22.4299 70.007 23.0241 68.1365 23.0241C66.1101 23.0241 64.2629 22.1378 62.5948 20.3654C60.9689 18.6996 60.0703 16.4618 60.095 14.1396C60.095 11.8337 60.9336 9.79839 62.611 8.03363C64.2884 6.26887 66.1302 5.39111 68.1365 5.40033C68.8519 5.39215 69.5615 5.52947 70.2216 5.80386C70.6999 5.98194 71.1454 6.2375 71.5399 6.56018C71.7646 6.77032 71.9679 7.00203 72.1469 7.25194C72.1616 6.9787 72.234 6.71162 72.3594 6.46808C72.4847 6.22454 72.6602 6.01 72.8744 5.83844C73.303 5.53407 74.0397 5.36574 75.1008 5.36574ZM69.0401 17.1395C69.427 17.1459 69.8107 17.0679 70.1641 16.9109C70.5175 16.754 70.8321 16.5219 71.0858 16.231C71.6118 15.6892 71.908 14.9667 71.9129 14.2134C71.9036 13.4682 71.6238 12.7516 71.1252 12.1957C70.8637 11.8853 70.534 11.6389 70.1617 11.4753C69.7893 11.3118 69.3842 11.2356 68.9775 11.2526C68.5718 11.2401 68.1685 11.3183 67.7972 11.4815C67.4259 11.6447 67.0961 11.8888 66.8322 12.1957C66.3076 12.7516 66.0117 13.4831 66.0028 14.2456C66.0067 14.621 66.0867 14.9918 66.2379 15.3357C66.3892 15.6796 66.6087 15.9896 66.8832 16.2471C67.1611 16.5363 67.4963 16.765 67.8675 16.9186C68.2388 17.0722 68.6381 17.1474 69.0401 17.1395Z" fill="white"/>
<path d="M80.7444 27.9014V8.26001C80.7369 7.87501 80.7539 7.48993 80.7954 7.10707C80.8469 6.80607 80.9495 6.51599 81.0989 6.24929C81.1888 6.0825 81.3114 5.93535 81.4594 5.81653C81.6074 5.69772 81.7779 5.60965 81.9607 5.55753C82.4988 5.40424 83.0578 5.33577 83.6172 5.35462C84.6304 5.35462 85.3455 5.50834 85.7625 5.81579C85.9731 5.97267 86.1471 6.17299 86.2727 6.40302C86.3983 6.63306 86.4724 6.88738 86.49 7.14858C87.3457 5.98335 88.63 5.40073 90.3428 5.40073C92.3028 5.40073 94.1053 6.2639 95.7502 7.99022C97.3951 9.71655 98.2176 11.7011 98.2176 13.944C98.2415 16.2166 97.3602 18.4061 95.7664 20.0338C94.1338 21.7616 92.3298 22.6248 90.3544 22.6232C88.6431 22.6232 87.3696 22.1075 86.534 21.076V27.8714C86.5407 28.2563 86.5244 28.6413 86.4854 29.0243C86.4315 29.325 86.3282 29.6149 86.1796 29.8821C86.0894 30.0487 85.9667 30.1956 85.8187 30.3144C85.6707 30.4332 85.5004 30.5214 85.3177 30.5739C84.7792 30.7251 84.2205 30.7928 83.6612 30.7745C83.0967 30.7916 82.5328 30.724 81.9885 30.5739C81.6178 30.474 81.302 30.2319 81.1105 29.9006C80.96 29.6401 80.8572 29.3551 80.807 29.0589C80.7614 28.6748 80.7405 28.2882 80.7444 27.9014ZM87.4353 12.0601C86.941 12.605 86.6649 13.3114 86.6591 14.0454C86.6643 14.7775 86.9483 15.4805 87.4538 16.0123C87.7014 16.3004 88.0103 16.5299 88.3582 16.6842C88.706 16.8386 89.084 16.9139 89.4648 16.9047C89.8582 16.9124 90.2489 16.8386 90.6122 16.6882C90.9755 16.5378 91.3035 16.3139 91.5753 16.0308C91.846 15.7746 92.062 15.4668 92.2105 15.1257C92.359 14.7845 92.4368 14.4172 92.4395 14.0454C92.4379 13.2993 92.1475 12.5825 91.6286 12.0439C91.3672 11.7532 91.0452 11.5227 90.6851 11.3686C90.325 11.2144 89.9354 11.1404 89.5435 11.1516C89.1458 11.1333 88.7492 11.2057 88.3838 11.3631C88.0185 11.5206 87.694 11.7589 87.4353 12.0601Z" fill="white"/>
<path d="M106.97 23.3952C104.692 23.3948 102.462 22.7407 100.548 21.5113C100.344 21.3915 100.177 21.2189 100.064 21.0117C99.9507 20.8046 99.8963 20.5708 99.9065 20.3353C99.9065 19.685 100.334 18.7627 101.19 17.5682C101.314 17.3784 101.487 17.2251 101.691 17.1245C101.894 17.0239 102.122 16.9797 102.348 16.9964C102.934 16.9964 103.621 17.2316 104.41 17.702C105.515 18.3292 106.45 18.6428 107.216 18.6428C108.589 18.6428 109.276 18.3738 109.278 17.8357C109.278 17.6051 109.062 17.423 108.636 17.2639C108.11 17.0847 107.566 16.961 107.014 16.8949C106.292 16.7876 105.583 16.6013 104.901 16.3392C104.164 16.0683 103.457 15.7246 102.789 15.3131C102.078 14.8449 101.516 14.1862 101.167 13.4131C100.717 12.4501 100.497 11.3964 100.525 10.3347C100.525 6.79908 102.969 5.03125 107.858 5.03125C109.567 5.05921 111.25 5.4524 112.792 6.18418C113.58 6.5439 113.976 7.03735 113.976 7.66455C113.976 8.12572 113.745 8.71833 113.265 9.48157C112.748 10.2886 112.229 10.6922 111.71 10.6922C111.306 10.6579 110.912 10.5435 110.552 10.3555C109.7 9.93546 108.766 9.70566 107.816 9.68218C106.486 9.68218 105.821 9.93122 105.821 10.4224C105.821 10.7821 106.041 11.068 106.479 11.2801C107.003 11.517 107.563 11.6651 108.136 11.7183C108.863 11.8123 109.582 11.9666 110.283 12.1794C111.021 12.3925 111.738 12.6679 112.429 13.0026C113.137 13.3712 113.715 13.9465 114.085 14.6513C114.548 15.5265 114.774 16.5061 114.743 17.4945C114.775 18.542 114.55 19.5814 114.085 20.5221C113.679 21.3096 113.029 21.9465 112.232 22.3391C111.462 22.7212 110.644 22.9981 109.799 23.1623C108.866 23.3281 107.919 23.4061 106.97 23.3952Z" fill="white"/>
</svg>
