<svg width="207" height="186" viewBox="0 0 207 186" fill="none" xmlns="http://www.w3.org/2000/svg">

  <g clip-path="url(#clip0)">
    <g filter="url(#filter0_d)">
      <path d="M120.224 28.418c.112 0 .334-.11.334-.22l3.565-8.855c.111-.221 0-.443-.223-.553-.223-.111-.445 0-.557.22l-3.564 8.855c-.112.221 0 .443.222.553h.223zm15.372 21.724c.223 0 .334-.11.445-.332l3.008-18.262c0-.221-.111-.442-.334-.442-.223 0-.446.11-.446.331L135.262 49.7c-.112.222.111.332.334.443zm-66.5-20.397l25.843-3.32c.222 0 .334-.221.334-.442 0-.222-.223-.332-.446-.332l-25.842 3.32c-.223 0-.335.221-.335.442.112.222.223.332.446.332z" fill="#A8ABB8"/>
      <path d="M123.677 19.564c.223 0 .335-.11.446-.332l2.562-15.606c0-.221-.111-.442-.334-.442-.223 0-.446.11-.446.332l-2.562 15.605c-.111.11.112.332.334.443z" fill="#A8ABB8"/>
      <path d="M94.939 26.425c.11 0 .11 0 0 0l28.849-6.973c.223 0 .335-.22.335-.442s-.223-.332-.446-.332L94.938 25.65c-.223 0-.334.222-.334.443s.223.332.335.332zm92.565 28.918h.111c.223-.11.334-.332.223-.553l-11.696-33.978c-.111-.222-.334-.332-.557-.222-.223.111-.334.332-.223.554l11.808 33.978c0 .11.222.221.334.221zm-43.999 40.699c.222 0 .334-.111.445-.332 0-.222-.111-.443-.334-.443l-15.483-3.431c-.223 0-.446.11-.446.332 0 .221.112.443.334.443l15.484 3.43zm18.602-.632h.223l21.387-10.516c.223-.11.334-.332.223-.553-.112-.221-.335-.332-.557-.221l-21.387 10.625c-.223.11-.335.332-.223.553.111.11.223.111.334.111z" fill="#A8ABB8"/>
      <path d="M138.604 31.88c.111 0 .223 0 .334-.11.111-.222.111-.443 0-.554l-14.926-12.617c-.223-.111-.446-.111-.557 0-.112.22-.112.442 0 .553l14.926 12.507c0 .221.111.221.223.221zm18.156 51.907c.111 0 .223-.11.334-.221.112-.221.112-.443-.111-.553l-15.706-9.63c-.223-.11-.446 0-.557.111-.112.222-.112.443.111.554l15.706 9.629c0 .11.112.11.223.11z" fill="#A8ABB8"/>
      <path d="M152.861 46.6c.112 0 .223 0 .223-.11.112-.111.112-.443 0-.554l-14.258-14.72c-.111-.11-.445-.11-.557 0-.111.11-.111.443 0 .553l14.258 14.72c.112.111.223.111.334.111z" fill="#A8ABB8"/>
      <path d="M138.604 31.88c.111 0 .223-.11.334-.22l10.582-15.607c.111-.221.111-.442-.111-.553-.223-.11-.446-.11-.557.111L138.27 31.217c-.112.221-.112.442.111.553.111.11.111.11.223.11z" fill="#A8ABB8"/>
      <path d="M138.604 31.88l37.204-10.626c.223-.11.334-.332.223-.442-.112-.222-.334-.332-.446-.222l-37.093 10.515c-.223.11-.334.332-.223.442 0 .222.112.333.335.333z" fill="#A8ABB8"/>
      <path d="M164.669 38.411c.111 0 .222-.11.334-.221l11.028-17.044c.111-.222.111-.443-.112-.554-.223-.11-.445-.11-.557.11l-11.027 17.045c-.112.222-.112.443.111.554.111 0 .223.11.223.11zM152.75 71.17l48.343-4.094c.223 0 .334-.222.334-.443s-.222-.332-.445-.332l-48.343 4.095c-.223 0-.335.221-.335.443.112.22.223.332.446.332z" fill="#A8ABB8"/>
      <path d="M162.107 95.41c.223 0 .446-.222.446-.444l-1.449-38.294c0-.222-.222-.332-.445-.332s-.446.221-.334.442l1.448 38.295c0 .221.111.332.334.332zm-18.602.442c.222 0 .445-.221.445-.442l-2.45-21.693c0-.221-.223-.332-.446-.332s-.334.221-.334.442l2.45 21.693c-.111.111.112.332.335.332zm-19.939-76.589l25.731-2.988c.223 0 .334-.222.334-.443s-.223-.332-.445-.332l-25.732 2.878c-.222 0-.334.221-.334.442 0 .222.223.443.446.443zM37.795 49.558c.223 0 .335-.11.446-.332l4.678-23.906c0-.222-.111-.443-.334-.443-.223 0-.445.11-.445.332l-4.68 23.906c-.111.222 0 .332.334.443z" fill="#A8ABB8"/>
      <path d="M21.087 69.258c.111 0 .222 0 .334-.11l16.708-19.701c.112-.221.112-.443 0-.553-.222-.111-.445-.111-.556 0l-16.82 19.7c-.112.222-.112.443 0 .554.11 0 .222.11.334.11z" fill="#A8ABB8"/>
      <path d="M38.575 67.488c.223 0 .446-.222.446-.443l-.78-17.93c0-.221-.223-.332-.446-.332-.222 0-.445.221-.334.443l.78 17.93c-.111.221.111.332.334.332z" fill="#A8ABB8"/>
      <path d="M67.87 57.416c.223 0 .335-.111.335-.332.111-.222-.112-.443-.335-.443l-30.075-7.969c-.223-.11-.446.11-.446.332-.11.221.112.443.335.443l30.186 7.968c-.111 0-.111 0 0 0zM37.795 84.088c.223 0 .446-.221.446-.332l.78-16.491c0-.221-.112-.443-.334-.443-.223 0-.446.111-.446.332l-.78 16.491c-.111.222.112.332.334.443z" fill="#A8ABB8"/>
      <path d="M67.87 57.414c.112 0 .224.001.335-.11l10.248-11.953c.111-.221.111-.443 0-.553-.223-.11-.446-.11-.557 0L67.536 56.75c-.11.221-.11.443 0 .553.112.111.223.11.335.11zm67.726-7.272c.111 0 .111 0 .223-.11.222-.11.222-.332.111-.553l-15.483-21.915c-.112-.221-.334-.221-.557-.11-.223.11-.223.332-.112.553l15.484 21.914c.111.11.222.221.334.221zM94.938 26.426c.112 0 .111 0 .223-.111.223-.11.223-.331.112-.553L81.683 3.96c-.111-.222-.334-.222-.557-.11-.223.11-.223.331-.112.552l13.702 21.915c0 .11.111.11.222.11z" fill="#A8ABB8"/>
      <path d="M120.112 28.417c.223 0 .335-.11.446-.332 0-.221-.111-.442-.334-.442L95.05 25.65c-.223 0-.446.11-.446.332 0 .22.112.442.335.442l25.173 1.992zm-11.806 25.345l27.402-3.43c.222 0 .334-.222.334-.443 0-.222-.223-.332-.446-.332l-27.402 3.43c-.223 0-.334.222-.334.443 0 .111.223.332.446.332zM37.795 84.088c.112 0 .223 0 .334-.111.112-.11.112-.443 0-.553L21.421 68.593c-.112-.11-.446-.11-.557 0-.111.11-.111.442 0 .553l16.708 14.831s.112.111.223.111zm59.037 46.265c.111 0 .223-.111.334-.111.112-.221.112-.442-.111-.553L80.68 117.514c-.222-.11-.445-.11-.556.111-.112.221-.112.443.11.553l16.375 12.175h.223z" fill="#A8ABB8"/>
      <path d="M52.944 136.361c.111 0 .111 0 .223-.111l27.513-18.262c.223-.11.223-.332.112-.553-.112-.221-.335-.221-.557-.111L52.61 135.697c-.223.111-.223.332-.111.553.11.111.222.111.445.111z" fill="#A8ABB8"/>
      <path d="M52.944 136.359c.223 0 .335-.11.446-.332l7.24-36.412c0-.222-.11-.443-.334-.443-.222 0-.445.11-.445.332l-7.352 36.413c0 .221.111.442.445.442-.11 0-.11 0 0 0z" fill="#A8ABB8"/>
      <path d="M80.458 118.099c.111 0 .222 0 .334-.111.111-.11.111-.442 0-.553l-20.385-18.15c-.11-.111-.445-.111-.556 0-.112.11-.112.442 0 .553l20.384 18.15s.111.111.223.111zm6.237-17.63l26.512-2.766c.222 0 .334-.222.334-.443 0-.222-.112-.332-.446-.332l-26.51 2.767c-.224 0-.335.221-.335.442.111.111.223.332.445.332z" fill="#A8ABB8"/>
      <path d="M60.073 99.948h.112c.222-.11.334-.332.222-.443l-3.787-12.95c-.111-.22-.334-.331-.445-.22-.223.11-.334.332-.223.442l3.787 12.95c0 .11.223.22.334.22z" fill="#A8ABB8"/>
      <path d="M77.673 133.039h.223c.222-.111.222-.332.111-.553l-17.6-33.093c-.11-.221-.334-.221-.556-.221-.223.11-.223.332-.112.553l17.6 33.093c0 .11.111.221.334.221zM21.087 69.257h.111c.223-.11.334-.332.223-.553l-5.235-11.732c-.112-.221-.334-.332-.557-.221-.223.11-.334.332-.223.553l5.235 11.732c.112.11.223.221.446.221zm92.12 28.334h.111l14.815-5.091c.223-.11.334-.332.223-.553-.112-.222-.334-.333-.557-.222l-14.815 5.091c-.223.111-.334.332-.223.554.112.221.223.221.446.221zm-69.285-7.937l12.587-2.657c.223 0 .334-.22.334-.442s-.223-.332-.445-.332l-12.476 2.656c-.223 0-.334.221-.334.443-.112.221.111.332.334.332z" fill="#A8ABB8"/>
      <path d="M113.206 97.592c.223 0 .335-.11.446-.332 0-.222-.111-.443-.334-.443l-36.87-7.526c-.223 0-.446.11-.446.332 0 .221.111.443.334.443l36.87 7.526zm-82.429 10.213c.112 0 .223-.111.335-.221l13.032-18.151c.112-.222.112-.443-.111-.554-.223-.11-.446-.11-.557.111l-13.033 18.151c-.111.221-.111.443.112.553.111.111.111.111.223.111z" fill="#A8ABB8"/>
      <path d="M30.777 107.805c.112 0 .112 0 0 0 .335-.111.446-.332.446-.443l-9.69-38.737c0-.221-.335-.332-.446-.332-.223 0-.335.221-.335.443l9.691 38.737c0 .221.223.332.334.332zm104.819-57.662h.112c.222-.11.334-.332.222-.553l-11.807-30.77c-.111-.22-.334-.332-.557-.22-.223.11-.334.331-.223.553l11.919 30.657c0 .222.223.332.334.332z" fill="#A8ABB8"/>
      <path d="M135.596 50.333l17.377-3.543c.223 0 .334-.221.334-.442 0-.222-.223-.332-.445-.332l-17.266 3.54c-.223 0-.334.223-.334.445 0 .221.223.332.334.332z" fill="#A8ABB8"/>
      <path d="M152.861 46.6c.111 0 .112 0 .223-.11l11.808-8.19c.223-.111.222-.333.111-.554-.111-.221-.334-.221-.557-.11l-11.807 8.19c-.223.11-.223.331-.112.553.112.11.222.221.334.221z" fill="#A8ABB8"/>
      <path d="M164.669 38.41c.111 0 .111 0 .223-.11.223-.111.223-.333.111-.554L149.52 15.72c-.111-.22-.334-.22-.557-.11-.223.11-.223.332-.111.553l15.483 22.025c.111.11.223.221.334.221z" fill="#A8ABB8"/>
      <path d="M187.504 55.343c.111 0 .222.001.334-.11.111-.22.111-.442-.112-.553l-22.834-16.934c-.223-.11-.446-.11-.557.111-.112.222-.112.443.111.554l22.835 16.933c.111-.11.111 0 .223 0zm-51.908-5.201c.111 0 .223-.111.334-.222l24.06-38.294c.112-.221.112-.443-.111-.553-.223-.111-.445-.111-.557.11l-24.06 38.295c-.112.221-.112.442.111.553a.35.35 0 00.223.111zm-79.31 36.855c.112 0 .334-.11.334-.221l7.575-15.384c.111-.222 0-.443-.223-.554-.223-.11-.445 0-.557.222l-7.574 15.384c-.112.221 0 .443.222.553h.223zm21.387 46.042c.111 0 .334-.11.334-.221.111-.222 0-.443-.111-.554L31.112 107.03c-.223-.111-.446 0-.557.111-.111.221 0 .442.111.553l46.784 25.235c.111 0 .112.11.223.11z" fill="#A8ABB8"/>
      <path d="M77.673 133.039c.223 0 .334-.11.445-.331l2.785-14.941c0-.222-.111-.443-.334-.443-.223 0-.446.111-.446.332l-2.784 14.941c-.112.111 0 .331.334.442-.111-.111-.111 0 0 0zM63.86 71.804c.223 0 .335-.111.335-.332l3.899-14.389c.11-.22-.112-.442-.335-.442-.222-.11-.445.11-.445.332L63.415 71.36c0 .221.111.443.446.443zm56.364-8.192c.111 0 .223 0 .334-.11.111-.222.111-.443 0-.554l-12.03-9.96c-.223-.111-.446-.111-.557 0-.111.22-.111.442 0 .553l11.919 9.85c.111.221.222.221.334.221zM164.669 38.6l21.498-3.874c.223 0 .334-.221.334-.443 0-.221-.222-.332-.445-.332l-21.499 3.874c-.222 0-.334.221-.334.443.112.11.334.332.446.332z" fill="#A8ABB8"/>
      <path d="M108.306 53.762c.222 0 .334-.11.334-.332.111-.221-.112-.443-.334-.443l-30.076-8.19c-.223-.11-.445.11-.445.332-.112.221.11.443.334.443l30.187 8.19c-.112 0-.112 0 0 0zm2.116 70.724h.111c.223-.111.334-.332.223-.554l-4.01-9.075c-.111-.222-.334-.332-.557-.222-.223.111-.334.333-.223.554l4.01 9.075c.112.222.334.222.446.222zm-23.727-24.017c.223 0 .446-.221.446-.442 0-.222-.222-.443-.445-.443l-26.622-.332c-.223 0-.446.221-.446.443 0 .221.223.442.446.442l26.621.332z" fill="#A8ABB8"/>
      <path d="M30.777 107.805c.112 0 .112 0 0 0l29.408-7.858c.222-.111.334-.332.334-.443-.112-.221-.334-.332-.446-.332l-29.295 7.858c-.223.11-.335.333-.335.443 0 .222.223.332.334.332zM6.606 75.82h.223l14.48-6.752c.223-.11.335-.332.223-.553-.111-.222-.334-.332-.557-.222L6.383 75.045c-.223.11-.334.332-.223.553.112.11.223.222.446.222z" fill="#A8ABB8"/>
      <path d="M21.087 69.257l17.488-1.771c.223 0 .334-.222.334-.443s-.223-.332-.445-.332l-17.489 1.66c-.223 0-.334.221-.334.443 0 .221.223.443.446.443z" fill="#A8ABB8"/>
      <path d="M63.86 71.802c.223 0 .335-.11.446-.332 0-.221-.111-.442-.334-.442L38.686 66.71c-.222 0-.445.11-.445.332 0 .221.111.443.334.443l25.285 4.316z" fill="#A8ABB8"/>
      <path d="M63.86 71.802h.112c.223-.11.334-.331.223-.553L42.919 25.097c-.111-.222-.334-.332-.557-.222-.223.111-.334.332-.223.554l21.387 46.153c0 .11.223.22.334.22zm26.846-1.406c.111 0 .223 0 .334-.11l17.488-16.823c.112-.111.112-.443 0-.554-.111-.11-.445-.11-.557 0L90.483 69.732c-.111.11-.111.443 0 .554 0 .11.111.11.223.11z" fill="#A8ABB8"/>
      <path d="M108.305 53.574c.112 0 .334-.111.334-.222l11.919-25.345c.112-.221 0-.443-.223-.553-.222-.111-.445 0-.556.221L107.86 52.91c-.112.22 0 .442.223.553.111 0 .111.11.222.11z" fill="#A8ABB8"/>
      <path d="M128.022 92.5h.222c.223-.111.223-.332.223-.554L108.64 53.098c-.112-.221-.334-.221-.557-.221-.223.11-.223.332-.223.553l19.827 38.848c.112.222.223.222.335.222zm-14.815 5.091c.111 0 .334-.111.334-.222.111-.221 0-.443-.111-.553L64.083 71.028c-.222-.11-.445 0-.556.221-.112.222 0 .443.11.553l49.347 25.788.223.001zm-82.429 10.215c.111 0 .223 0 .223-.111.222-.111.222-.332.111-.553L6.94 75.156c-.111-.221-.334-.222-.557-.111-.223.11-.222.332-.111.554l24.171 31.985c.112.111.223.222.335.222zM78.23 45.574c.111 0 .222-.111.334-.222.111-.221 0-.444-.111-.554l-35.645-19.81c-.223-.111-.446 0-.557.11-.112.221 0 .443.111.553l35.645 19.812s.111.11.223.11zm24.729 95.846h.223c.222-.111.222-.332.111-.553l-6.238-11.068c-.111-.221-.334-.221-.557-.111-.223.111-.223.332-.111.554l6.238 11.067c.111 0 .222.111.334.111z" fill="#A8ABB8"/>
      <path d="M84.133 138.652c.112 0 .112 0 .223-.11l12.699-8.301c.222-.111.222-.332.111-.553-.111-.222-.334-.222-.557-.111l-12.698 8.301c-.223.11-.223.332-.112.553 0 .111.223.221.334.221z" fill="#A8ABB8"/>
      <path d="M84.133 138.652c.335 0 .446-.22.446-.441l-3.676-20.365c0-.221-.223-.332-.445-.332-.223 0-.334.221-.334.443l3.675 20.364c0 .222.112.331.334.331zM63.861 71.613l26.845-1.217c.222 0 .446-.222.334-.443 0-.221-.111-.332-.445-.332L63.75 70.84c-.223 0-.446.22-.335.442.112.222.223.332.446.332z" fill="#A8ABB8"/>
      <path d="M37.795 84.088h.223l26.066-12.174c.222-.11.334-.332.222-.554-.111-.22-.334-.332-.557-.22L37.684 83.313c-.223.11-.334.332-.223.553 0 .11.112.221.334.221zM152.75 71.17c.223 0 .445-.22.445-.442l.112-24.57c0-.222-.223-.443-.446-.443-.222 0-.445.221-.445.442l-.112 24.57c0 .333.223.444.446.444zm-62.044-.585c.223 0 .334-.11.445-.331l4.233-44.16c0-.222-.112-.444-.334-.444-.223 0-.446.111-.446.333l-4.232 44.16c0 .221.111.442.334.442zm-69.619-1.327c.222 0 .445-.221.445-.443l.557-25.345c0-.221-.223-.443-.445-.443-.223 0-.446.222-.446.443l-.557 25.345c0 .222.223.443.446.443zm102.59-49.694c.112 0 .223-.111.334-.222.112-.221.112-.442-.111-.552L104.407 5.396c-.112-.11-.335-.11-.557.11-.112.222-.112.443.111.554l19.493 13.392c.112 0 .223.11.223.11z" fill="#A8ABB8"/>
      <path d="M14.292 109.133c.223 0 .334-.111.446-.332l6.794-40.065c0-.222-.111-.443-.334-.443-.223 0-.445.11-.445.332l-6.795 40.065c-.112.221 0 .443.334.443z" fill="#A8ABB8"/>
    </g>
    <g filter="url(#filter1_d)">
      <path d="M149.186 16.464c.111 0 .334-.11.334-.221.111-.222 0-.443-.112-.554L126.462 3.183c-.223-.111-.445 0-.557.11-.111.222 0 .443.112.554l22.946 12.617h.223z" fill="#A8ABB8"/>
      <path d="M94.939 26.425c.11 0 .11 0 .222-.11l31.301-22.578c.222-.11.222-.332.111-.554-.111-.221-.334-.221-.557-.11l-31.3 22.689c-.223.11-.223.332-.112.553.111.11.223.11.335.11zm15.483 98.061c.223 0 .334-.111.446-.332l2.784-26.895c0-.221-.111-.443-.334-.443-.223 0-.445.111-.445.332l-2.785 26.895c-.112.222.111.443.334.443zm34.016-28.445c.112 0 .223 0 .223-.11l13.256-12.064c.111-.111.222-.443 0-.554-.112-.11-.446-.221-.557 0l-13.256 12.064c-.111.11-.223.443 0 .553.112 0 .223.111.334.111zm39.99-10.845c.111 0 .334-.11.334-.221.111-.222 0-.443-.223-.554l-30.743-13.835c-.223-.11-.446 0-.557.222-.112.221 0 .442.222.553l30.855 13.835h.112z" fill="#A8ABB8"/>
      <path d="M153.684 71.36c.111 0 .223 0 .223-.11.223-.111.223-.443.111-.554l-17.154-21.14c-.111-.22-.445-.22-.557-.11-.223.11-.223.443-.111.553l17.154 21.14c.111.221.223.221.334.221zm-40.477 26.231c.111 0 .111 0 .222-.11.223-.111.223-.333.112-.554l-9.357-15.052c-.111-.222-.334-.222-.557-.11-.223.11-.223.331-.111.552l9.356 15.163c0 .111.223.111.335.111zm-2.785 26.895c.112 0 .334-.11.334-.221l17.599-31.986c.112-.221 0-.443-.111-.553-.223-.111-.446 0-.557.11l-17.6 32.097c-.111.221 0 .443.112.553h.223zm28.181-92.416h.112c.222-.11.334-.332.222-.553L126.684 3.294c-.111-.221-.334-.332-.557-.221-.222.11-.334.332-.222.553l12.364 28.223c0 .11.223.221.334.221zm47.564 2.546c.112 0 .334-.11.334-.222.112-.22 0-.442-.222-.553l-36.87-18.151c-.222-.11-.446 0-.558.221-.111.222 0 .443.223.554l36.87 18.15h.223zm-41.729 61.425c.112 0 .112 0 .223-.11.223-.111.223-.332.112-.553l-23.281-32.429c-.111-.221-.334-.221-.557-.11-.223.11-.223.331-.111.553l23.28 32.428c.112.111.223.221.334.221z" fill="#A8ABB8"/>
      <path d="M129.804 114.525c.223 0 .334-.111.334-.221.111-.222 0-.443-.223-.554L86.807 99.694c-.223-.11-.446 0-.557.221-.112.222 0 .443.223.554l43.108 14.167c.111-.111.112-.111.223-.111zM37.795 49.556c.112 0 .334-.11.334-.22.112-.222 0-.444-.222-.554l-16.152-5.645c-.223-.11-.446 0-.557.221-.111.222 0 .443.223.554l16.151 5.645h.223z" fill="#A8ABB8"/>
      <path d="M63.86 71.804c.112 0 .223 0 .335-.11.111-.222.111-.444 0-.554L38.018 48.894c-.111-.111-.446-.111-.557 0-.111.22-.111.442 0 .553l26.065 22.246c.112.11.223.11.334.11zm4.01-14.39c.224 0 .447-.221.447-.332l1.225-27.78c0-.221-.112-.443-.334-.443-.223 0-.446.111-.446.332l-1.337 27.78c0 .333.112.443.446.443zm27.069-30.989c.11 0 .334-.11.334-.221l9.245-20.365c.112-.221 0-.443-.223-.553-.222-.111-.445 0-.557.221l-9.245 20.365c-.111.221 0 .442.223.553h.223zm-13.546 91.863c.111 0 .334-.111.334-.221l6.238-17.82c.111-.221 0-.442-.223-.553-.223-.11-.446 0-.557.221l-6.238 17.82c-.111.221 0 .442.223.553.111-.111.223 0 .223 0z" fill="#A8ABB8"/>
      <path d="M69.096 29.745h.111c.223-.11.334-.332.223-.553l-6.795-15.716c-.111-.222-.334-.332-.557-.222-.223.111-.334.332-.223.554l6.795 15.716c.111.11.334.221.446.221zm17.599 70.724c.112 0 .223 0 .335-.11l17.154-18.04c.111-.112.111-.444 0-.554-.111-.111-.446-.112-.557 0l-17.266 18.04c-.111.11-.111.443 0 .554.112 0 .223.11.334.11zM76.336 90.175c.112 0 .223-.11.334-.11l14.481-19.48c.111-.221.111-.443-.111-.553-.223-.111-.446-.111-.557.11l-14.481 19.48c-.111.221-.111.442.111.553 0-.11.112 0 .223 0zm43.888-26.562c.112 0 .223 0 .223-.11L135.93 50.22c.112-.11.223-.442 0-.553-.111-.221-.445-.221-.557 0L119.89 62.949c-.111.11-.223.443 0 .554.111 0 .223.11.334.11zm37.47 20.364h.112c.222-.11.334-.332.222-.553l-4.01-12.507c-.111-.221-.334-.332-.557-.221-.222.11-.334.332-.222.553l3.898 12.507c.223.11.334.221.557.221z" fill="#A8ABB8"/>
      <path d="M160.659 57.416c.223 0 .334-.111.334-.332.111-.222-.111-.443-.223-.443l-25.062-7.084c-.223-.11-.446.111-.446.222-.111.221.111.442.223.442l25.174 7.195zM103.85 82.428l37.316-8.19c.222 0 .334-.222.334-.443s-.223-.332-.446-.332l-37.204 8.19c-.223 0-.334.221-.334.443 0 .221.111.332.334.332z" fill="#A8ABB8"/>
      <path d="M156.76 83.977c.223 0 .446-.22.446-.442 0-.221-.223-.443-.334-.443l-52.911-1.55c-.222 0-.445.222-.445.444 0 .221.223.442.334.442l52.91 1.55zm-21.164-33.646c.111 0 .223-.11.334-.221.112-.221 0-.443-.111-.553L95.161 25.76c-.223-.11-.445 0-.557.11-.111.222 0 .443.112.554l40.657 23.796c.112.11.223.11.223.11zM91.64 70.585c.112 0 .112 0 0 0l29.518-7.084c.223 0 .334-.221.334-.442 0-.222-.334-.332-.445-.332L91.64 69.81c-.222 0-.334.221-.334.443 0 .221.223.332.334.332zm-.934.001c.111 0 .222-.111.334-.222.111-.221 0-.443-.112-.553L67.982 56.75c-.223-.11-.446 0-.557.11-.111.222 0 .443.112.554l22.946 13.17h.223z" fill="#A8ABB8"/>
      <path d="M87.63 100.469c.223 0 .334-.111.446-.332l4.01-29.772c0-.222-.112-.443-.335-.443-.223 0-.445.11-.445.332l-4.01 29.772c-.112.222.111.332.334.443zm9.202 29.883c.112 0 .223-.11.334-.221l9.58-14.831c.111-.221.111-.443-.111-.553-.223-.111-.446-.111-.557.11l-9.58 14.831c-.112.222-.112.443.111.554.112.11.112.11.223.11z" fill="#A8ABB8"/>
      <path d="M96.832 130.352h.111c.223-.111.334-.332.223-.554L87.03 99.915c-.112-.221-.335-.332-.557-.221-.223.11-.335.332-.223.553l10.136 29.883c.112.111.223.222.446.222zM67.87 57.415c.112 0 .223 0 .223-.11.223-.111.223-.333.112-.554l-7.352-9.407c-.111-.222-.446-.222-.557-.111-.223.11-.223.332-.111.553l7.351 9.408c.112.221.223.221.335.221zm92.789.001c.111 0 .223 0 .223-.111l25.508-22.8c.111-.11.223-.442 0-.553-.111-.11-.446-.221-.557 0l-25.508 22.8c-.112.11-.223.442 0 .553.111.11.222.11.334.11z" fill="#A8ABB8"/>
      <path d="M176.031 96.596h.111c.223-.11.334-.332.223-.554l-15.372-39.18c-.111-.221-.334-.332-.557-.221-.223.11-.334.332-.223.553l15.372 39.07c.112.221.223.332.446.332zM67.87 57.415l40.436-3.763c.222 0 .334-.222.334-.443s-.223-.443-.446-.332l-40.435 3.764c-.222 0-.334.22-.334.442 0 .221.223.332.446.332zm38.542 58.106c.111 0 .222 0 .334-.111.111-.221.111-.442-.112-.553L86.918 99.694c-.223-.11-.445-.11-.557.111-.111.222-.111.442.112.553l19.716 15.052c0 .111.111.111.223.111z" fill="#A8ABB8"/>
      <path d="M108.305 53.763h.223c.223-.11.334-.332.223-.553L95.273 25.872c-.112-.221-.334-.332-.557-.221-.223.11-.334.332-.223.553l13.256 27.227c.222.221.334.332.556.332z" fill="#A8ABB8"/>
      <path d="M78.23 45.573c.111 0 .223 0 .334-.111l16.82-19.037c.111-.22.111-.442 0-.553-.112-.11-.446-.11-.557 0L77.896 44.909c-.112.221-.112.442 0 .553.111 0 .222.111.334.111zm12.296 134.584c.112 0 .223 0 .223-.111.223-.111.223-.443 0-.553l-10.025-11.954c-.111-.221-.446-.221-.557 0a.313.313 0 000 .554l10.025 11.953c.112.111.223.111.334.111zm11.473-28.997c.223 0 .445-.222.445-.443s-.222-.443-.445-.443l-15.706-.221c-.223 0-.445.221-.445.443 0 .221.222.442.445.442l15.706.222z" fill="#A8ABB8"/>
      <path d="M80.501 168.205c.111 0 .223 0 .223-.111l21.498-17.044c.223-.111.223-.443.111-.554-.111-.221-.334-.221-.557-.111L80.278 167.43c-.223.111-.223.443-.111.553.111.222.223.222.334.222z" fill="#A8ABB8"/>
      <path d="M82.172 184.031c.112 0 .223-.111.335-.222l19.827-32.76c.111-.222 0-.443-.112-.554-.223-.11-.445 0-.557.111l-19.827 32.761c-.111.221 0 .442.112.553.11 0 .11.111.222.111z" fill="#A8ABB8"/>
      <path d="M90.526 180.156c.223 0 .335-.11.446-.332l7.24-49.805c0-.221-.111-.443-.334-.443-.223 0-.445.111-.445.332l-7.24 49.805c-.112.222 0 .443.333.443z" fill="#A8ABB8"/>
      <path d="M90.526 180.156c.223 0 .446-.221.446-.443l-4.344-29.219c0-.221-.223-.332-.446-.332s-.334.222-.334.443l4.233 29.219c.11.221.222.332.445.332z" fill="#A8ABB8"/>
      <path d="M82.172 184.03c.223 0 .334-.111.445-.332l4.122-33.093c0-.221-.112-.443-.334-.443-.223 0-.446.111-.446.332l-4.121 33.093c-.112.111.111.332.334.443z" fill="#A8ABB8"/>
      <path d="M86.293 150.937h.223l17.711-9.518c.223-.111.223-.332.111-.554-.111-.221-.334-.221-.557-.11l-17.71 9.407c-.223.111-.223.332-.112.554 0 .11.112.221.334.221z" fill="#A8ABB8"/>
      <path d="M101.999 151.16c.111 0 .111.001.223-.11.223-.111.223-.333.111-.554l-20.607-32.982c-.111-.222-.334-.222-.557-.111-.222.111-.222.332-.111.553l20.607 33.093c.111.111.223.111.334.111zM76.336 90.175c.112 0 .112 0 .223-.11.223-.11.223-.332.111-.553L64.195 71.25c-.112-.222-.334-.222-.557-.11-.223.11-.223.332-.112.553l12.476 18.261c.111.111.223.221.334.221zm27.514-7.747c.111 0 .223 0 .334-.111.111-.11.111-.443 0-.554L91.04 69.921c-.111-.11-.446-.11-.557 0-.112.11-.112.443 0 .553l13.144 11.843c0 .11.112.11.223.11zm37.204-8.191l11.807-2.876c.223 0 .335-.222.335-.443s-.223-.332-.446-.332l-11.696 2.877c-.223 0-.334.222-.334.443 0 .222.111.331.334.331z" fill="#A8ABB8"/>
      <path d="M106.412 115.522h.111c.223-.111.334-.332.223-.554L91.151 70.144c-.111-.222-.334-.332-.557-.222-.223.111-.334.332-.223.554l15.595 44.824c.111.111.223.222.446.222z" fill="#A8ABB8"/>
      <path d="M90.706 70.586h.222c.223-.11.335-.332.223-.553L78.564 44.909c-.111-.221-.334-.221-.557-.221-.223.11-.334.332-.223.553l12.587 25.124c.112.221.223.22.335.22zm13.144 11.842c.112 0 .222 0 .334-.111l16.374-18.815c.111-.222.111-.443 0-.554-.223-.11-.446-.11-.557 0l-16.374 18.816c-.112.222-.112.442 0 .553 0 .11.112.11.223.11zm-43.443-34.31c.223 0 .334-.11.446-.332 0-.22-.112-.442-.334-.442l-38.875-4.317c-.223 0-.446.11-.446.331 0 .222.111.444.334.444l38.875 4.316zm2.005-34.088l41.883-7.859c.223 0 .334-.221.334-.442 0-.222-.222-.333-.445-.333l-41.883 7.859c-.223 0-.334.22-.334.442s.223.332.445.332z" fill="#A8ABB8"/>
    </g>
    <g filter="url(#filter2_d)">
      <path d="M120.113 28.419c.111 0 .223-.111.334-.222.111-.221.111-.442-.111-.553L81.46 3.848c-.222-.11-.445-.11-.557.11-.111.222-.111.443.112.554L119.89 28.42h.223zm9.691 86.106c.222 0 .445-.222.445-.443l-1.671-22.025c0-.222-.223-.443-.445-.332-.223 0-.335.221-.335.443l1.671 22.025c-.111.221.112.332.335.332zm32.303-18.926h.223c.223-.11.334-.332.223-.553l-5.458-11.732c-.112-.222-.335-.332-.557-.222-.223.111-.335.332-.223.554l5.458 11.732c.111.22.223.22.334.22z" fill="#A8ABB8"/>
      <path d="M128.021 92.5c.112 0 .223-.11.334-.22l13.033-18.152c.111-.221.111-.443-.111-.553-.223-.111-.446-.111-.557.11l-12.922 18.262c-.111.222-.111.443.112.554h.111zm-21.609 23.02c.111 0 .334-.11.334-.221l6.795-17.82c.111-.22 0-.442-.223-.553-.223-.11-.446 0-.557.222l-6.795 17.819c-.111.221 0 .443.223.553h.223zm55.695-19.921c.111 0 .222-.111.334-.222l25.397-40.065c.111-.222.111-.443-.112-.554-.222-.11-.445-.11-.556.111l-25.397 40.176c-.112.221-.112.443.111.553h.223zm-1.448-38.183c.111 0 .111 0 .223-.11.222-.111.222-.333.111-.554l-7.797-10.625c-.112-.222-.334-.222-.557-.11-.223.11-.223.331-.112.552l7.798 10.626c.111.11.222.22.334.22z" fill="#A8ABB8"/>
      <path d="M129.804 114.525c.111 0 .222 0 .334-.111.111-.111.111-.443 0-.553l-16.597-16.934c-.112-.11-.446-.111-.557 0-.112.11-.112.442 0 .553l16.597 16.934c0 .111.111.111.223.111zm-9.58-50.913c.223 0 .446-.221.446-.442V27.974c0-.221-.223-.443-.446-.443s-.446.222-.446.443V63.17c0 .22.223.442.446.442zM69.096 29.745c.111 0 .334-.11.334-.22L81.683 4.29c.112-.221 0-.443-.223-.553-.222-.11-.445 0-.557.222L68.762 29.193c-.111.221 0 .442.223.553h.111zM43.922 89.843c.11 0 .222 0 .334-.11.111-.11.111-.443 0-.554l-6.127-5.866c-.111-.11-.445-.11-.557 0-.111.111-.111.443 0 .554l6.127 5.866c0 .11.111.11.223.11zM4.49 98.145c.111 0 .222 0 .222-.11l34.086-30.659c.111-.11.223-.442 0-.553-.112-.11-.446-.221-.557 0L4.155 97.481c-.11.11-.222.443 0 .553.112.11.223.11.335.11z" fill="#A8ABB8"/>
      <path d="M4.49 98.145h.11l33.306-14.167c.223-.11.334-.332.223-.553-.111-.221-.334-.332-.557-.221L4.266 97.48c-.222.11-.334.332-.222.553.111.111.223.11.446.11zm55.917-50.028l17.823-2.545c.223 0 .334-.222.334-.443s-.223-.332-.446-.332l-17.71 2.546c-.223 0-.335.22-.335.442s.223.332.334.332z" fill="#A8ABB8"/>
      <path d="M108.305 53.763c.223 0 .334-.11.446-.332 0-.221-.112-.443-.334-.443L60.63 47.344c-.223 0-.445.11-.445.332 0 .221.111.443.334.443l47.786 5.644c-.111 0-.111 0 0 0z" fill="#A8ABB8"/>
      <path d="M103.85 82.428c.223 0 .334-.11.445-.331l4.456-28.666c0-.221-.112-.443-.334-.443-.223 0-.446.11-.446.332l-4.455 28.666c-.112.221 0 .442.334.442zM78.23 45.573h.111l41.995-17.155c.222-.11.334-.332.222-.554-.111-.221-.334-.332-.557-.221L78.007 44.798c-.223.11-.334.332-.223.553.112.111.223.222.446.222z" fill="#A8ABB8"/>
      <path d="M108.305 53.763c.112 0 .223-.11.334-.221.112-.222.112-.443-.111-.554l-39.21-24.017c-.222-.11-.445-.11-.556.11-.112.222-.112.444.111.554l39.098 24.017c.112 0 .223.111.334.111zM128.021 92.5c.112 0 .335-.112.335-.222.111-.222 0-.443-.223-.553l-24.172-10.072c-.223-.11-.445 0-.557.221-.111.222 0 .443.223.553L127.799 92.5h.222zM60.407 48.117c.112 0 .223 0 .223-.11.223-.11.223-.443.112-.553L42.808 24.986c-.111-.221-.334-.221-.557-.11-.223.11-.223.442-.111.553l17.933 22.468c.112.22.223.22.334.22zm-4.121 39.071c.111 0 .223 0 .223-.11.111-.112.223-.444 0-.554l-17.6-19.7c-.111-.112-.445-.222-.557 0-.111.11-.222.442 0 .552l17.711 19.701s.112.11.223.11z" fill="#A8ABB8"/>
      <path d="M69.096 29.747c.222 0 .334-.11.445-.332 0-.221-.111-.443-.334-.443l-26.622-4.095c-.223 0-.446.11-.446.332 0 .221.112.443.334.443l26.623 4.095zM52.945 136.549c.334 0 .445-.221.445-.442L44.367 89.4c0-.22-.223-.332-.445-.332-.223 0-.334.222-.334.443l9.022 46.706c-.111.222.112.332.335.332z" fill="#A8ABB8"/>
      <path d="M52.945 136.549c.111 0 .334-.11.334-.221L76.67 89.843c.11-.222 0-.443-.223-.553-.223-.111-.446 0-.557.22l-23.392 46.486c-.112.221 0 .443.223.553h.223zM69.096 29.745c.111 0 .111.001.223-.11l35.088-23.574c.222-.11.222-.332.111-.553-.111-.222-.334-.222-.557-.111L68.873 28.97c-.223.11-.223.332-.111.554.111.11.223.22.334.22z" fill="#A8ABB8"/>
      <path d="M76.336 90.175c.223 0 .334-.11.445-.332 0-.221-.11-.443-.334-.443l-19.939-2.988c-.222 0-.445.11-.445.332 0 .222.111.443.334.443l19.939 2.988zm51.685 2.325c.112 0 .112 0 0 0 .334-.111.446-.333.335-.555l-7.798-28.886c-.111-.222-.334-.332-.445-.332-.223.11-.335.332-.335.443l7.909 28.997c0 .221.223.332.334.332zm24.729-21.14c.111 0 .223-.111.334-.222l7.909-13.945c.111-.221 0-.443-.111-.553-.223-.111-.446 0-.557.11l-7.909 14.056c-.111.222 0 .443.111.554h.223z" fill="#A8ABB8"/>
      <path d="M160.659 57.414l26.845-1.881c.222 0 .334-.222.334-.443s-.223-.443-.446-.332l-26.845 1.881c-.223 0-.334.222-.334.443.111.11.223.332.446.332zM141.054 74.24c.334-.111.446-.222.446-.444l-5.458-24.017c0-.221-.223-.332-.446-.332s-.334.222-.334.443l5.347 24.017c.111.222.222.332.445.332z" fill="#A8ABB8"/>
      <path d="M201.093 67.266c.223 0 .334-.111.334-.332 0-.222-.111-.443-.334-.443l-40.434-9.85c-.223 0-.446.11-.446.332 0 .221.111.442.334.442l40.546 9.85c-.111 0-.111 0 0 0z" fill="#A8ABB8"/>
      <path d="M156.76 83.977h.112l44.333-16.712c.223-.11.334-.332.223-.553-.112-.221-.334-.332-.557-.221l-44.333 16.712c-.223.11-.335.332-.223.553.111.111.223.221.445.221zM38.575 67.487c.111 0 .223 0 .223-.11l21.832-19.37c.112-.11.223-.442 0-.553-.111-.11-.445-.221-.557 0l-21.832 19.37c-.112.11-.223.441 0 .552.111.11.223.11.334.11zm-7.798 40.508c.112 0 .223 0 .223-.111l25.51-20.807c.223-.11.222-.443.111-.554-.111-.221-.445-.221-.557-.11L30.555 107.22c-.223.111-.223.443-.112.554.112.11.223.221.334.221zm49.681 10.293l25.954-2.768c.223 0 .334-.22.334-.442 0-.221-.111-.332-.446-.332l-25.954 2.767c-.222 0-.334.222-.334.443.112.111.223.332.446.332z" fill="#A8ABB8"/>
      <path d="M80.458 118.288c.223 0 .334-.11.445-.331 0-.222-.111-.443-.334-.443l-49.68-10.293c-.223 0-.446.111-.446.332 0 .221.112.442.334.442l49.68 10.293zm80.201-60.872c.223 0 .334-.11.445-.332l4.01-18.815c0-.221-.111-.443-.334-.443-.222 0-.445.11-.445.332l-4.01 18.816c-.112.22 0 .331.334.442z" fill="#A8ABB8"/>
      <path d="M120.224 63.612l40.546-6.197c.223 0 .335-.221.335-.442 0-.222-.223-.332-.446-.332l-40.435 6.198c-.222 0-.334.22-.334.442-.111.222.112.331.334.331zM78.23 45.573h.223c.222-.11.222-.332.111-.553l-9.023-15.827c-.111-.221-.334-.221-.557-.11-.222.11-.222.331-.11.552l9.022 15.717c0 .11.111.22.334.22zm30.075 8.19c.112 0 .112 0 .223-.11l30.298-21.694c.223-.11.223-.331.112-.553-.112-.221-.334-.221-.557-.11l-30.298 21.692c-.223.11-.223.331-.112.553 0 .11.112.222.334.222z" fill="#A8ABB8"/>
      <path d="M76.336 90.175c.223 0 .445-.221.445-.332l1.895-44.603c0-.222-.112-.443-.335-.443-.222 0-.445.221-.445.332l-1.894 44.603c-.111.222.111.443.334.443zm31.969-36.412c.223 0 .446-.222.446-.443l-4.01-47.591c0-.222-.223-.333-.446-.333s-.334.222-.334.443l4.01 47.592c-.111.11.112.332.334.332zm32.749 20.474c.112 0 .334-.11.334-.22.112-.222 0-.444-.222-.554l-20.83-10.736c-.223-.11-.446 0-.557.221-.112.222 0 .443.222.554l20.83 10.735h.223z" fill="#A8ABB8"/>
      <path d="M80.458 118.288c.334 0 .445-.222.445-.443l-4.121-28.113c0-.221-.223-.332-.446-.332s-.334.222-.334.443l4.122 28.113c0 .11.111.332.334.332zM60.407 48.117c.223 0 .335-.11.446-.332l1.894-34.088c0-.222-.112-.443-.335-.443-.222 0-.445.11-.445.332l-1.894 34.089c0 .221.112.442.334.442zm88.778-31.654h.112l10.47-4.537c.223-.111.335-.332.223-.554-.111-.221-.334-.332-.557-.221l-10.471 4.538c-.222.11-.334.332-.222.553.222.11.334.221.445.221z" fill="#A8ABB8"/>
      <path d="M152.861 46.79c.223 0 .335-.11.446-.331l6.906-34.864c0-.221-.111-.443-.334-.443-.223 0-.446.111-.446.332l-6.906 34.864c-.111.221 0 .443.334.443-.111 0-.111 0 0 0zm-32.637-18.372h.112l29.073-11.953c.222-.111.334-.332.222-.554-.111-.221-.334-.332-.557-.221l-29.073 11.953c-.222.11-.334.332-.222.553.111.111.222.222.445.222z" fill="#A8ABB8"/>
    </g>
    <g filter="url(#filter3_d)">
      <mask id="path-5-inside-1" fill="white">
        <path d="M14.304 109.281c.111 0 .222 0 .222-.111.223-.11.223-.442 0-.553L4.724 97.438c-.111-.11-.446-.221-.557 0a.313.313 0 000 .554l9.803 11.178c.11.111.222.111.334.111z"/>
        <path d="M4.501 98.101c.223 0 .334-.11.446-.332l2.116-22.246c0-.221-.111-.443-.334-.443-.223 0-.446.11-.446.332L4.056 97.77c0 .11.111.332.445.332zm11.362-40.728c.112 0 .335-.11.335-.221l5.792-13.614c.111-.221 0-.442-.223-.553-.223-.11-.446 0-.557.221L15.418 56.82c-.112.22 0 .442.223.553h.222zm26.623-31.765h.222l19.828-11.621c.222-.11.222-.332.111-.554-.111-.22-.334-.22-.557-.11l-19.827 11.51c-.223.11-.223.332-.112.554.112.11.223.221.334.221z"/>
        <path d="M21.655 43.87c.111 0 .223 0 .223-.11l20.941-18.262a.313.313 0 000-.554c-.111-.11-.445-.221-.557 0L21.321 43.095a.313.313 0 000 .554c.111.11.223.221.334.221zM6.618 75.965c.111 0 .334-.11.334-.22l9.245-18.484c.112-.222 0-.443-.223-.553-.222-.111-.445 0-.556.22L6.283 75.302c-.111.222 0 .443.223.554 0 .11 0 .11.112.11zM81.25 183.987c.222 0 .445-.221.445-.442l-1.671-15.717c0-.221-.223-.332-.446-.332-.222 0-.334.222-.334.443l1.671 15.716c0 .111.111.332.334.332z"/>
        <path d="M79.578 168.16c.223 0 .334-.11.334-.221l5.793-17.266c.111-.221 0-.442-.223-.553-.223-.111-.446 0-.557.221l-5.792 17.266c-.112.221 0 .443.222.553h.223z"/>
        <path d="M85.37 150.894c.223 0 .446-.221.446-.443l-1.225-12.285c0-.221-.223-.332-.446-.332s-.334.222-.334.443l1.225 12.285c-.111.111.112.332.335.332zm-32.414-14.387l24.84-3.431c.223 0 .334-.222.334-.443s-.222-.332-.445-.332l-24.84 3.431c-.223 0-.334.221-.334.443 0 .221.222.332.445.332z"/>
        <path d="M84.145 138.61c.112 0 .223 0 .335-.111.111-.221.111-.442 0-.553l-6.461-5.423c-.223-.111-.446-.111-.557 0-.111.221-.111.442 0 .553l6.46 5.423s.112.111.223.111zm-31.189-2.102c.111 0 .223 0 .223-.111.222-.11.222-.332.111-.553l-22.167-28.555c-.111-.221-.334-.221-.557-.111-.222.111-.222.332-.111.554l22.055 28.665c.112.111.223.111.446.111z"/>
        <path d="M14.304 109.281l16.485-1.328c.223 0 .334-.222.334-.443s-.111-.443-.445-.332l-16.486 1.328c-.223 0-.334.222-.334.443.111.221.223.332.446.332zm48.12-95.295h.223l18.936-9.518c.112-.11.223-.332.112-.553-.112-.222-.335-.222-.557-.222L62.2 13.212c-.223.11-.223.332-.223.553.112.11.223.221.446.221zm41.772-7.856l22.055-2.214c.223 0 .334-.222.334-.443 0-.222-.222-.443-.445-.332l-22.055 2.213c-.223 0-.335.222-.335.443.112.11.335.332.446.332z"/>
        <path d="M104.196 6.13c.223 0 .334-.112.446-.334 0-.221-.112-.442-.335-.442l-22.946-1.66c-.223 0-.446.11-.446.331 0 .222.111.443.334.443l22.947 1.661zm55.584 5.754c.222 0 .334-.111.334-.332 0-.222-.112-.443-.334-.443l-33.418-8.08c-.222-.11-.445.111-.445.332 0 .222.111.443.334.443l33.529 8.08c-.112 0-.112 0 0 0zm41.325 55.339c.112 0 .223 0 .335-.11.111-.222.111-.443 0-.554l-13.59-11.732c-.111-.11-.446-.11-.557 0-.111.221-.111.443 0 .554l13.59 11.731c0 .111.111.111.222.111z"/>
        <path d="M175.82 21.513c.111 0 .223-.11.334-.222.111-.221 0-.442-.111-.553l-16.041-9.518c-.222-.111-.445 0-.557.11-.111.222.001.443.112.554l16.04 9.518s.111.11.223.11z"/>
        <path d="M186.179 34.573c.112 0 .223 0 .223-.11.223-.111.223-.333.111-.554l-10.359-13.17c-.111-.222-.446-.222-.557-.112-.223.111-.223.332-.111.554l10.359 13.17c.111.222.223.222.334.222z"/>
        <path d="M187.516 55.49c.222 0 .445-.222.445-.443l-1.448-20.918c0-.221-.223-.332-.445-.332-.223 0-.335.221-.335.443l1.337 20.807c.111.221.223.443.446.443zm-11.473 41.062c.111 0 .222-.11.334-.221l7.574-11.4c.112-.221.112-.443-.111-.554-.223-.11-.446-.11-.557.11l-7.575 11.4c-.111.222-.111.444.112.554 0 .11.111.11.223.11z"/>
        <path d="M176.043 96.552c.222 0 .334-.11.445-.331 0-.222-.111-.443-.334-.443l-13.812-.885c-.223 0-.446.11-.446.332 0 .221.111.442.334.442l13.813.885z"/>
        <path d="M143.517 95.999l18.713-.332c.223 0 .446-.222.446-.443s-.223-.443-.446-.443l-18.713.332c-.223 0-.446.222-.446.443s.223.443.446.443zm-42.44 55.117c.223 0 .334-.11.446-.332l1.893-9.739c0-.222-.111-.443-.334-.443-.223 0-.445.11-.445.332l-1.894 9.739c-.112.222 0 .443.334.443z"/>
        <path d="M102.971 141.377c.111 0 .334-.111.334-.221l7.463-16.934c.111-.221 0-.443-.223-.553-.223-.111-.445 0-.557.221l-7.463 16.934c-.111.221 0 .442.223.553h.223zm26.844-26.896c.112 0 .223-.11.335-.11l13.701-18.594c.111-.222.111-.443-.112-.554-.223-.11-.445-.11-.557.11l-13.701 18.595c-.111.221-.111.443.112.553h.222z"/>
        <path d="M110.434 124.443h.223l19.27-9.961c.223-.111.223-.332.223-.553-.112-.222-.334-.222-.557-.222l-19.271 9.961c-.222.111-.222.332-.222.554.111.221.222.221.334.221zm-20.831 55.672c.112 0 .335-.111.335-.222l11.473-28.997c.112-.221 0-.443-.222-.554-.223-.11-.446 0-.557.222l-11.474 28.997c-.111.222 0 .443.223.554h.222z"/>
        <path d="M81.25 183.987l.11.001 8.355-3.763c.222-.111.334-.332.222-.554-.11-.221-.334-.332-.556-.221l-8.355 3.763c-.222.111-.334.332-.222.553.11.111.334.221.445.221zm101.811-98.281c.111 0 .223 0 .334-.11l17.488-17.93c.112-.11.112-.443 0-.554-.111-.11-.445-.11-.557 0l-17.488 17.93c-.111.11-.111.443 0 .553.112 0 .223.111.223.111z"/>
      </mask>
      <path d="M14.526 109.17l-.442-.897-.558.275v.622h1zm0-.553l-.752.659.13.148.176.088.446-.895zM4.724 97.438l.752-.659-.023-.026-.024-.024-.705.71zm-.557 0l.445.896.299-.148.15-.298-.894-.45zm0 .554l.752-.66-.13-.148-.177-.088-.445.896zm9.803 11.178l-.752.659.022.025.023.024.707-.708zm-9.023-11.4l.893.449.085-.168.017-.187-.995-.095zm2.116-22.247l.996.095.004-.048v-.047h-1zm-.78-.11l.996.098.004-.05v-.049h-1zM4.056 97.768l-.995-.1-.005.05v.05h1zm12.142-40.617l-.92-.392-.08.188v.204h1zm5.792-13.614l-.893-.45-.015.03-.012.029.92.391zm-.223-.553l-.445.895.445-.895zm-.557.221l-.893-.45-.015.03-.012.029.92.391zM15.418 56.82l.893.45.014-.03.013-.029-.92-.391zm.223.553l-.446.895.21.105h.236v-1zm27.067-31.765v1h.272l.234-.137-.506-.863zm19.828-11.621l-.445-.896-.031.016-.03.017.506.863zm.111-.554l.893-.45-.893.45zm-.557-.11l-.445-.896-.029.014-.028.017.502.865zm-19.827 11.51l.445.896.029-.015.028-.016-.502-.865zm-.112.554l-.893.45.073.144.115.115.705-.71zM21.878 43.76l-.657-.754-.343.299v.455h1zm20.941-18.262l-.445-.896-.115.057-.097.085.657.754zm0-.554l-.704.71.114.114.145.072.445-.896zm-.557 0l.655.756.15-.13.089-.176-.894-.45zM21.321 43.095l.445.896.114-.057.096-.083-.655-.756zm0 .554l.705-.71-.115-.114-.145-.072-.445.896zM6.95 75.744l-.894-.447-.105.21v.237h1zm9.246-18.483l-.893-.45-.001.002.894.448zm-.78-.332l-.893-.45-.002.005.896.445zM6.284 75.3l.894.45.002-.005-.896-.445zm.223.554h1v-.62l-.555-.276-.445.896zm75.189 107.69h1v-.053l-.006-.053-.994.106zm-1.671-15.717h-1v.053l.005.052.995-.105zm-.78.111h-1v.053l.006.052.994-.105zm1.671 15.716h1v-.053l-.006-.053-.994.106zm-1.003-15.716l-.948-.318-.052.155v.163h1zm5.793-17.266l-.893-.45-.033.064-.022.068.948.318zm-.223-.553l-.446.895.446-.895zm-.557.221l-.893-.45-.032.064-.023.068.948.318zm-5.792 17.266l.892.45.033-.064.023-.068-.948-.318zm.222.553l-.442.896.209.104h.233v-1zm6.461-17.709h1v-.05l-.005-.049-.995.099zm-1.225-12.285h-1v.05l.005.049.995-.099zm-.78.111h-1v.05l.005.049.995-.099zm1.225 12.285l.706.708.337-.335-.048-.472-.995.099zm-32.08-14.055v1h.069l.068-.01-.137-.99zm24.84-3.431v-1h-.068l-.068.009.136.991zm-.111-.775v-1h-.069l-.068.009.137.991zm-24.84 3.431v1h.069l.068-.01-.137-.99zm31.635 2.767l.705.708.115-.114.073-.144-.893-.45zm0-.553l.705-.709-.03-.03-.032-.027-.643.766zm-6.461-5.423l.643-.766-.091-.076-.106-.053-.446.895zm-.557 0l-.706-.709-.114.114-.073.145.893.45zm0 .553l-.706.708.03.03.033.028.643-.766zm6.46 5.423l.706-.709-.03-.03-.032-.027-.643.766zm-30.743-2.102l-.443-.897-.557.275v.622h1zm.111-.553l.893-.45-.044-.087-.06-.076-.789.613zm-22.167-28.555l-.893.45.044.086.06.077.79-.613zm-.557-.111l-.442-.897-.004.002.446.895zm-.111.554l-.894.448.043.086.058.076.793-.61zm22.055 28.665l-.792.61.04.052.046.046.706-.708zm-21.72-28.444v-1h-.04l-.041.003.08.997zm-.112-.775l.08.997.12-.01.115-.038-.315-.949zm-16.486 1.328v1h.04l.04-.003-.08-.997zm-.334.443h-1v.238l.107.212.893-.45zm48.789-94.963v1h.237l.212-.106-.45-.894zm18.936-9.518l.45.894.142-.072.113-.112-.705-.71zm.112-.553l-.894.45.894-.45zm-.557-.222v-1H80.9l-.211.107.449.893zM62.2 13.212l.445.895.004-.002-.449-.893zm-.223.553h-1v.416l.296.294.704-.71zm64.273-9.85v-1h-.05l-.05.006.1.995zm-.111-.774l.099.995.182-.018.163-.081-.444-.896zm-22.055 2.213v1h.05l.049-.005-.099-.995zm-.335.443h-1v.418l.297.293.703-.711zm.892 0l.892.45.108-.212v-.239h-1zm-.335-.443l-.073.997.036.003h.037v-1zM81.36 3.694l.072-.998-.036-.003h-.036v1zm-.112.774l.072-.997-.036-.003h-.036v1zm78.531 6.641l-.235.972.115.028h.12v-1zm-33.418-8.08l-.447.895.102.05.11.027.235-.972zm-.111.775l.234-.972-.116-.028h-.118v1zm75.189 63.308l.703.712.117-.116.073-.147-.893-.449zm0-.553l.706-.708-.026-.025-.027-.024-.653.757zm-13.59-11.732l-.707.708.026.026.027.023.654-.757zm-.557 0l-.707-.708-.115.115-.072.145.894.448zm0 .554l-.707.708.026.025.027.024.654-.757zm-11.139-34.09l.706.708.115-.114.073-.146-.894-.448zm-.111-.553l.706-.708-.089-.088-.107-.064-.51.86zm-16.041-9.518l.51-.86-.032-.019-.032-.016-.446.895zm-.557.11l-.703-.71-.117.115-.074.147.894.448zm.112.554l-.707.708.089.088.107.064.511-.86zm16.04 9.518l.705-.708-.088-.088-.107-.064-.51.86zm10.805 13.06l-.445-.896-.555.276v.62h1zm.111-.553l.892-.452-.045-.088-.061-.078-.786.618zm-10.359-13.17l-.894.447.045.09.063.08.786-.618zm-.557-.112l.444.896.146-.072.116-.116-.706-.708zm-.111.554l-.893.451.045.089.062.078.786-.618zm10.359 13.17l.893-.448-.045-.09-.062-.08-.786.619zm2.116 20.696h1v-.035l-.003-.034-.997.069zm-1.448-20.918h-1v.034l.002.035.998-.07zm-.78.11h-1v.033l.002.032.998-.064zm1.337 20.808l-.998.064.013.203.091.181.894-.448zm-10.693 41.284l.703.71.073-.071.056-.086-.832-.553zm7.574-11.4l.832.553.033-.049.027-.053-.892-.451zm-.668-.444l.832.554.034-.05.028-.055-.894-.449zm-7.575 11.4l-.833-.553-.034.051-.027.054.894.449zm.112.554h1v-.62l-.556-.275-.444.895zm.668-.22l.894.448.106-.212v-.236h-1zm-.334-.443l-.064.998.032.002h.032v-1zm-13.812-.885l.064-.998-.032-.002h-.032v1zm-18.825 1.106v1h.017l-.017-1zm18.713-1.218v-1h-.018l.018 1zm-18.713.332v1h.017l-.017-1zm-41.994 55.671l.892.45.063-.123.026-.136-.981-.191zm1.893-9.739l.981.191.019-.095v-.096h-1zm-.779-.111l.981.191.019-.095v-.096h-1zm-1.894 9.739l.892.45.063-.123.026-.136-.981-.191zm2.562-9.517l-.915-.404-.085.193v.211h1zm7.463-16.934l-.894-.449-.011.022-.01.023.915.404zm-.223-.553l-.446.895.003.002.443-.897zm-.557.221l-.892-.452-.013.024-.01.024.915.404zm-7.463 16.934l.893.449.011-.023.011-.023-.915-.403zm.223.553l-.446.895.21.105h.236v-1zm27.402-27.006v1h.505l.3-.407-.805-.593zm13.701-18.594l.805.593.05-.069.038-.076-.893-.448zm-.669-.443l.805.593.049-.067.038-.075-.892-.451zm-13.701 18.594l-.805-.593-.051.068-.038.076.894.449zm.112.553l-.443.897.209.103h.234v-1zm-18.936 9.962v1h.243l.216-.112-.459-.888zm19.27-9.961l-.446-.895-.007.003-.007.003.46.889zm.223-.553h1v-.238l-.108-.213-.892.451zm-.557-.222v-1h-.244l-.216.111.46.889zm-19.271 9.961l.447.894.012-.006-.459-.888zm-.222.554h-1v.237l.106.212.894-.449zm-20.162 55.671l-.93-.368-.07.177v.191h1zm11.473-28.997l-.892-.452-.021.041-.017.043.93.368zm-.222-.554l.447-.895-.005-.002-.442.897zm-.557.222l-.895-.447-.02.038-.015.041.93.368zm-11.474 28.997l.894.448.02-.039.016-.041-.93-.368zm.223.554l-.446.895.21.105h.236v-1zm-8.02 3.873l-.995-.102-.177 1.726 1.582-.712-.41-.912zm8.354-3.763l.41.912.018-.008.018-.009-.446-.895zm.222-.554l.894-.449v-.001l-.894.45zm-.556-.221l.41.912.018-.009.018-.008-.446-.895zm-8.355 3.763l-.41-.912-.018.008-.018.009.446.895zm-.222.553l-.894.45.073.144.115.114.706-.708zm102.257-98.06l-.707.708.293.292h.414v-1zm.334-.11l.706.708.009-.01-.715-.698zm17.488-17.93l-.703-.712-.007.007-.006.006.716.699zm-.557-.554l-.703-.71-.007.006-.006.006.716.698zm-17.488 17.93l.705.709.005-.005.005-.006-.715-.698zm0 .553l-.706.709.292.291h.414v-1zM14.304 110.281c.02 0 .082 0 .148-.004.062-.004.183-.016.32-.061a1.098 1.098 0 00.754-1.046h-2a.9.9 0 01.193-.551.892.892 0 01.423-.301c.095-.032.167-.036.177-.037h-.015v2zm.665-.215c.97-.478.962-1.867.003-2.344l-.892 1.79a.696.696 0 01-.386-.618c0-.217.114-.485.39-.621l.885 1.793zm.31-2.109L5.475 96.779l-1.504 1.319 9.803 11.178 1.503-1.319zm-9.85-11.228a1.512 1.512 0 00-.86-.407c-.324-.04-.97.021-1.295.667l1.786.899a.782.782 0 01-.41.373.675.675 0 01-.328.045.45.45 0 01-.135-.037.588.588 0 01-.168-.121l1.41-1.419zm-1.707-.186c-.963.478-.963 1.866 0 2.344l.89-1.79a.696.696 0 01.388.618.696.696 0 01-.388.619l-.89-1.791zm-.307 2.108l9.803 11.178 1.503-1.319L4.92 97.332l-1.504 1.32zm9.848 11.227c.423.421.915.403 1.04.403v-2h-.02a.647.647 0 01.393.181l-1.413 1.416zM4.501 99.101c.297 0 .61-.08.887-.3.24-.192.376-.43.452-.582l-1.786-.9c-.035.07-.012-.003.09-.084a.64.64 0 01.202-.108.523.523 0 01.155-.026v2zm1.441-1.237L8.06 75.618l-1.991-.19L3.95 97.674l1.991.19zm2.121-22.341c0-.26-.062-.578-.253-.862a1.292 1.292 0 00-1.081-.58v2a.714.714 0 01-.58-.305.453.453 0 01-.086-.253h2zM6.73 74.08c-.259 0-.575.061-.859.25a1.29 1.29 0 00-.587 1.082h2a.718.718 0 01-.308.585.445.445 0 01-.246.083v-2zm-1.44 1.233L3.06 97.67l1.99.198 2.228-22.357-1.99-.198zM3.055 97.769c0 .669.565 1.332 1.445 1.332v-2c.07 0 .221.031.357.166a.693.693 0 01.198.502h-2zm12.807-39.396a1.45 1.45 0 001.052-.483c.104-.12.283-.373.283-.738h-2c0-.31.15-.509.21-.576a.634.634 0 01.152-.131.43.43 0 01.088-.04.679.679 0 01.215-.032v2zm1.255-.83L22.91 43.93l-1.84-.783-5.793 13.613 1.84.783zm5.765-13.555c.187-.371.2-.792.039-1.164a1.484 1.484 0 00-.71-.735l-.89 1.792a.52.52 0 01-.236-.265.634.634 0 01.01-.527l1.787.899zm-.671-1.899a1.374 1.374 0 00-1.157-.038c-.35.15-.595.421-.738.706l1.786.899a.518.518 0 01-.265.235.627.627 0 01-.516-.01l.89-1.792zm-1.922.726l-5.792 13.613 1.84.783 5.792-13.613-1.84-.783zM14.525 56.37c-.187.371-.2.791-.04 1.164.152.351.427.594.71.734l.89-1.79c.061.03.169.106.237.264a.634.634 0 01-.011.527l-1.786-.9zm1.115 2.003h.224v-2h-.223v2zm26.846-31.765h.223v-2h-.223v2zm.728-.137L63.04 14.85l-1.011-1.726-19.827 11.621 1.01 1.726zM62.98 14.882a1.3 1.3 0 00.725-.988 1.546 1.546 0 00-.166-.91l-1.786.899a.283.283 0 01-.021-.064.581.581 0 01-.006-.21.712.712 0 01.133-.321.657.657 0 01.23-.197l.89 1.791zm.56-1.898a1.305 1.305 0 00-.99-.72 1.555 1.555 0 00-.906.163l.89 1.791a.279.279 0 01-.06.02.575.575 0 01-.205.006.706.706 0 01-.516-.361l1.786-.9zm-1.953-.526L41.76 23.968l1.004 1.73 19.827-11.51-1.004-1.73zm-19.77 11.48a1.303 1.303 0 00-.726.988c-.054.376.06.701.166.91l1.786-.9a.306.306 0 01.022.065.58.58 0 01.005.21.711.711 0 01-.133.321.655.655 0 01-.23.197l-.89-1.791zm-.372 2.158c.043.042.151.152.275.245.113.084.385.267.765.267v-2a.79.79 0 01.315.064.582.582 0 01.115.065c.013.01.014.012 0 0a2.776 2.776 0 01-.06-.06l-1.41 1.419zM21.656 44.87c.02 0 .082 0 .147-.004.063-.004.183-.015.32-.06a1.099 1.099 0 00.756-1.046h-2.001c0-.147.04-.358.194-.553a.898.898 0 01.422-.3.693.693 0 01.177-.036h-.016v2zm.88-.357l20.94-18.262-1.314-1.507L21.22 43.006l1.314 1.507zm20.728-18.12c.963-.478.963-1.866 0-2.344l-.89 1.79a.696.696 0 01-.388-.618.7.7 0 01.389-.62l.889 1.792zm.26-2.159a1.514 1.514 0 00-.86-.407c-.324-.04-.97.022-1.295.667l1.787.9a.782.782 0 01-.412.373.674.674 0 01-.327.045.453.453 0 01-.135-.038.589.589 0 01-.167-.12l1.409-1.42zm-1.917-.046L20.666 42.34l1.31 1.511L42.917 25.7l-1.31-1.511zM20.876 42.2c-.963.478-.963 1.866 0 2.344l.89-1.79a.696.696 0 01.388.618.696.696 0 01-.388.619l-.89-1.791zm-.26 2.158c.043.043.15.153.275.245.113.085.384.267.764.267v-2a.79.79 0 01.315.064.581.581 0 01.115.065c.013.01.014.012 0 0a2.94 2.94 0 01-.06-.06l-1.409 1.42zM6.618 76.965a1.452 1.452 0 001.05-.482c.105-.12.284-.373.284-.739h-2c0-.31.15-.508.21-.576a.638.638 0 01.153-.13.435.435 0 01.088-.041.682.682 0 01.215-.032v2zm1.228-.774l9.245-18.483-1.788-.895-9.246 18.484 1.79.894zm9.244-18.48c.187-.372.2-.792.04-1.164a1.485 1.485 0 00-.71-.735l-.89 1.791a.518.518 0 01-.237-.264.634.634 0 01.01-.528l1.787.9zm-.67-1.9a1.373 1.373 0 00-1.158-.037 1.49 1.49 0 00-.738.705l1.787.9a.518.518 0 01-.265.235.627.627 0 01-.517-.011l.89-1.791zm-1.898.673L5.388 74.856l1.79.89 9.135-18.372-1.791-.89zM5.39 74.852c-.187.37-.2.791-.039 1.164.152.351.427.593.71.734l.89-1.79a.52.52 0 01.237.264.634.634 0 01-.011.527l-1.787-.9zm.116 1.003c0 .003-.001.09.008.175.009.078.045.377.302.631.255.253.552.288.628.297.083.009.17.007.174.007v-2c-.052 0-.007-.001.045.005.044.005.32.033.562.272a.95.95 0 01.277.566c.006.053.004.099.004.047h-2zM81.25 184.987c.434 0 .786-.205 1.01-.428a1.44 1.44 0 00.436-1.014h-2c0-.218.1-.35.156-.406a.556.556 0 01.398-.152v2zm1.44-1.548l-1.67-15.717-1.99.211 1.67 15.717 1.99-.211zm-1.665-15.611c0-.502-.274-.875-.587-1.083a1.561 1.561 0 00-.859-.249v2a.441.441 0 01-.246-.084.717.717 0 01-.308-.584h2zm-1.446-1.332a1.29 1.29 0 00-1.081.582c-.19.284-.253.601-.253.861h2a.453.453 0 01-.085.252.714.714 0 01-.58.305v-2zm-1.328 1.548l1.67 15.716 1.99-.211-1.671-15.716-1.99.211zm1.665 15.611c0 .32.13.619.305.835.2.248.55.497 1.03.497v-2c.256 0 .439.138.527.248a.583.583 0 01.093.161.715.715 0 01.045.259h-2zm-.337-14.495c.48 0 1.334-.303 1.334-1.221h-2c0-.3.155-.528.32-.651a.599.599 0 01.346-.128v2zm1.282-.903l5.793-17.266-1.897-.636-5.792 17.266 1.896.636zm5.737-17.134c.188-.371.2-.792.04-1.164a1.481 1.481 0 00-.71-.734l-.891 1.79a.522.522 0 01-.236-.264.633.633 0 01.012-.528l1.785.9zm-.67-1.898a1.37 1.37 0 00-1.157-.039c-.35.149-.595.421-.738.705l1.786.9a.52.52 0 01-.265.235.629.629 0 01-.517-.011l.892-1.79zm-1.95.798l-5.793 17.266 1.897.636 5.792-17.266-1.896-.636zm-5.737 17.134c-.188.371-.2.792-.04 1.164.152.352.427.595.713.735l.885-1.793c.063.031.17.108.239.266a.634.634 0 01-.012.528l-1.785-.9zm1.115 2.003h.222v-2h-.222v2zm6.016-17.266c.433 0 .786-.206 1.01-.429a1.44 1.44 0 00.435-1.014h-2c0-.216.099-.348.156-.405a.558.558 0 01.399-.152v2zm1.44-1.542l-1.225-12.285-1.99.198 1.225 12.285 1.99-.198zm-1.22-12.186c0-.502-.274-.875-.587-1.083a1.561 1.561 0 00-.859-.249v2a.441.441 0 01-.246-.084.716.716 0 01-.308-.584h2zm-1.446-1.332c-.497 0-.871.268-1.081.582-.19.284-.253.601-.253.861h2a.452.452 0 01-.086.252.714.714 0 01-.58.305v-2zm-1.329 1.542l1.225 12.285 1.99-.198-1.225-12.285-1.99.198zm1.514 11.477a1.1 1.1 0 00-.292 1.04c.066.277.22.472.335.586.228.226.584.415.998.415v-2c.19 0 .323.078.412.166a.768.768 0 01.2.368.9.9 0 01-.24.842l-1.412-1.417zm-31.237-12.356l24.84-3.431-.273-1.981-24.84 3.431.273 1.981zm24.703-3.421c.498 0 .872-.269 1.082-.582.19-.284.252-.601.252-.861h-2a.45.45 0 01.086-.252.714.714 0 01.58-.305v2zm1.334-1.443a1.29 1.29 0 00-.586-1.083 1.561 1.561 0 00-.859-.249v2a.442.442 0 01-.246-.084.716.716 0 01-.308-.584h2zm-1.582-1.323l-24.84 3.431.274 1.981 24.84-3.431-.274-1.981zm-24.703 3.422c-.496 0-.87.266-1.081.581a1.551 1.551 0 00-.253.862h2a.45.45 0 01-.086.252.712.712 0 01-.58.305v-2zm-1.334 1.443c0 .501.273.875.586 1.082.284.188.6.25.86.25v-2c.036 0 .129.006.245.083a.717.717 0 01.308.585h-2zm32.634 3.435c.126 0 .618.018 1.04-.403l-1.411-1.417a.645.645 0 01.393-.18h-.022v2zm1.228-.661c.112-.223.19-.487.19-.768 0-.275-.08-.647-.378-.944l-1.411 1.417a.683.683 0 01-.21-.473c0-.087.022-.13.023-.132l1.785.9zm-.25-1.769l-6.461-5.423-1.286 1.532 6.46 5.423 1.287-1.532zm-6.658-5.552a1.723 1.723 0 00-.766-.188c-.273 0-.644.077-.943.374l1.412 1.417a.682.682 0 01-.47.209c-.084 0-.124-.022-.125-.022l.892-1.79zm-1.896.445c-.112.223-.19.487-.19.768 0 .274.079.646.377.943l1.412-1.417a.68.68 0 01.21.474c0 .087-.022.13-.023.132l-1.786-.9zm.25 1.769l6.46 5.423 1.287-1.532-6.461-5.423-1.286 1.532zm7.104 4.657l-.706.708v.001l.001.001.002.001.003.003.007.007.017.016.045.041c.035.029.085.069.147.11.092.061.351.223.706.223v-2a.694.694 0 01.446.146 1.347 1.347 0 00.027.024l.005.005a.07.07 0 00.003.003l.001.001v.001h.001l-.705.709zm-30.967-.991c.02 0 .083 0 .148-.004.063-.004.183-.016.32-.061.143-.048.354-.149.524-.367.177-.226.23-.478.23-.679h-2a.9.9 0 01.193-.551.891.891 0 01.423-.301c.095-.032.167-.036.177-.037h-.015v2zm.665-.215a1.3 1.3 0 00.728-.989 1.543 1.543 0 00-.166-.91l-1.786.9c-.001-.003-.012-.024-.021-.064a.58.58 0 01-.006-.21.708.708 0 01.366-.52l.885 1.793zm.459-2.062l-22.167-28.555-1.58 1.226L52.5 136.457l1.58-1.226zm-22.064-28.392a1.305 1.305 0 00-.988-.72 1.558 1.558 0 00-.904.162l.885 1.793a.268.268 0 01-.06.02.57.57 0 01-.203.005.7.7 0 01-.516-.36l1.786-.9zm-1.896-.556a1.302 1.302 0 00-.725.988 1.55 1.55 0 00.166.909l1.788-.897c0 .002.011.023.02.063a.55.55 0 01.006.209.713.713 0 01-.133.322.653.653 0 01-.23.196l-.892-1.79zm-.458 2.059l22.056 28.665 1.585-1.22-22.055-28.665-1.586 1.22zm22.142 28.763c.45.449 1.01.403 1.152.403v-2l-.108-.001c-.018-.001.002-.001.039.006a.653.653 0 01.33.175l-1.413 1.417zm-37.42-26.827l16.486-1.328-.161-1.994-16.486 1.328.16 1.994zm16.405-1.325c.498 0 .872-.269 1.082-.582.19-.284.252-.601.252-.861h-2a.45.45 0 01.086-.252.714.714 0 01.58-.305v2zm1.334-1.443c0-.231-.05-.66-.392-1-.421-.419-.972-.413-1.368-.281l.63 1.898a.58.58 0 01-.254.014.762.762 0 01-.418-.213c-.203-.201-.198-.409-.198-.418h2zm-1.525-1.329l-16.486 1.328.16 1.994 16.486-1.328-.16-1.994zm-16.406 1.325c-.497 0-.871.268-1.081.582-.19.284-.253.601-.253.861h2a.453.453 0 01-.086.252.713.713 0 01-.58.305v-2zm-1.227 1.893c.076.151.211.39.452.581.276.22.59.301.887.301v-2c.027 0 .083.003.155.026a.64.64 0 01.202.108c.102.08.125.153.09.084l-1.786.9zm49.46-94.413h.22v-2h-.221v2zm.671-.106l18.936-9.518-.898-1.787-18.936 9.518.898 1.787zm19.192-9.703c.268-.266.686-.944.3-1.712l-1.787.9a.572.572 0 01-.04-.408.442.442 0 01.117-.198l1.41 1.419zm.3-1.712a1.359 1.359 0 00-.857-.706c-.257-.073-.516-.066-.593-.066v2c.061 0 .085 0 .101.002.014 0-.01 0-.054-.012a.634.634 0 01-.383-.319l1.786-.899zm-1.9-.665l-18.936 9.518.898 1.787 18.937-9.518L80.69 2.8zm-18.932 9.516a1.358 1.358 0 00-.71.854c-.075.258-.068.519-.068.595h2c0-.061 0-.084.002-.1 0-.013 0 .013-.013.058a.633.633 0 01-.321.384l-.89-1.79zm-.482 2.159c.123.121.49.511 1.15.511v-2a.525.525 0 01.299.108l-.01-.008a2.671 2.671 0 01-.03-.03l-1.41 1.419zm43.021-7.35L126.35 4.91l-.199-1.99-22.055 2.213.199 1.99zm21.956-2.21c.496 0 .87-.267 1.081-.581a1.55 1.55 0 00.253-.861h-2c0-.038.006-.134.085-.253a.716.716 0 01.581-.305v2zm1.334-1.442c0-.426-.202-.813-.501-1.06a1.273 1.273 0 00-1.389-.168l.889 1.792a.727.727 0 01-.777-.085.61.61 0 01-.222-.48h2zm-1.545-1.327l-22.055 2.213.199 1.99 22.055-2.213-.199-1.99zm-21.955 2.208c-.496 0-.87.267-1.081.58a1.553 1.553 0 00-.254.863h2a.46.46 0 01-.087.254.713.713 0 01-.578.303v-2zm-1.038 2.154c.05.05.165.165.289.267.061.05.149.12.252.18.069.04.299.174.608.174v-2a.86.86 0 01.405.102c.027.015.032.022.009.003a3.084 3.084 0 01-.158-.148l-1.405 1.422zm1.149.621a1.4 1.4 0 00.888-.302 1.7 1.7 0 00.45-.58l-1.785-.902c-.036.071-.013 0 .088-.081a.636.636 0 01.202-.108.525.525 0 01.157-.027v2zm1.446-1.333c0-.261-.064-.578-.255-.863a1.293 1.293 0 00-1.08-.58v2a.716.716 0 01-.579-.303.455.455 0 01-.086-.254h2zm-1.263-1.44l-22.946-1.66-.145 1.995 22.946 1.66.145-1.995zM81.361 2.693a1.56 1.56 0 00-.859.25 1.29 1.29 0 00-.587 1.082h2a.717.717 0 01-.308.585.444.444 0 01-.246.083v-2zm-1.446 1.332c0 .26.063.578.253.862.21.314.585.581 1.081.581v-2a.713.713 0 01.58.305c.08.118.086.214.086.252h-2zm1.262 1.44l22.946 1.661.145-1.994L81.321 3.47l-.144 1.994zm78.603 7.419c.264 0 .645-.067.954-.374.311-.308.38-.69.38-.958h-2c0-.047.012-.264.211-.461a.675.675 0 01.455-.207v2zm1.334-1.332c0-.262-.064-.579-.254-.862a1.293 1.293 0 00-1.08-.581v2a.713.713 0 01-.58-.304.453.453 0 01-.086-.253h2zm-1.099-1.415l-33.418-8.08-.47 1.944 33.418 8.08.47-1.944zm-33.207-8.003a1.273 1.273 0 00-1.39.167 1.388 1.388 0 00-.501 1.06h2a.612.612 0 01-.223.48.728.728 0 01-.779.083l.893-1.79zm-1.891 1.227c0 .26.062.577.252.862.211.314.585.581 1.082.581v-2a.715.715 0 01.58.305.456.456 0 01.086.252h-2zm1.099 1.415l33.529 8.08.469-1.944-33.529-8.08-.469 1.944zm33.764 6.108h-.084v2h.084v-2h-.084v2h.084v-2zm41.325 57.34c.127 0 .615.017 1.038-.4l-1.406-1.423a.65.65 0 01.39-.178h-.022v2zm1.228-.663c.112-.224.19-.487.19-.767 0-.273-.079-.645-.377-.943l-1.413 1.416a.683.683 0 01-.21-.473c0-.086.022-.128.023-.13l1.787.897zm-.24-1.759l-13.59-11.732-1.307 1.514 13.59 11.732 1.307-1.514zm-13.537-11.683a1.267 1.267 0 00-.552-.316 1.593 1.593 0 00-.866 0 1.272 1.272 0 00-.552.316l1.413 1.416a.734.734 0 01-.315.192.412.412 0 01-.113.017.412.412 0 01-.113-.017.74.74 0 01-.315-.192l1.413-1.416zm-2.157.26c-.112.223-.19.487-.19.766 0 .274.079.646.377.944l1.413-1.416c.187.186.21.393.21.472a.295.295 0 01-.023.13l-1.787-.896zm.24 1.759l13.59 11.731 1.307-1.514-13.59-11.731-1.307 1.514zm13.244 10.974a1.096 1.096 0 00.753 1.046c.138.046.258.057.321.061.065.005.127.004.148.004v-2h-.016c.011.001.083.006.178.037a.893.893 0 01.423.301.898.898 0 01.193.551h-2zm-24.063-44.6c.379 0 .65-.182.764-.266.124-.093.232-.203.276-.247l-1.413-1.416-.058.058c-.014.012-.012.01.001 0a.55.55 0 01.114-.064.799.799 0 01.316-.064v2zm1.228-.773c.384-.765-.031-1.442-.299-1.71l-1.413 1.417a.451.451 0 01-.116-.197.566.566 0 01.04-.406l1.788.896zm-.495-1.861l-16.041-9.518-1.021 1.72 16.041 9.518 1.021-1.72zm-16.105-9.553c-.764-.38-1.439.03-1.706.294l1.406 1.423a.434.434 0 01-.193.112.566.566 0 01-.4-.04l.893-1.79zm-1.897.557c-.386.769.035 1.446.299 1.71l1.413-1.416c.048.048.09.109.115.195a.568.568 0 01-.04.408l-1.787-.897zm.495 1.862l16.04 9.518 1.021-1.72-16.04-9.518-1.021 1.72zm16.551 8.658l-.706.709h.001l.002.002a.09.09 0 01.003.003.057.057 0 00.007.007l.017.016.046.041c.035.03.085.07.147.111.093.062.352.222.706.222v-2c.133 0 .232.031.286.053a.627.627 0 01.159.093l.017.015.01.01.005.004.003.003.001.001.001.001-.705.71zm10.582 14.17c.02 0 .083.001.148-.003a1.29 1.29 0 00.32-.06c.142-.048.354-.15.524-.367a1.1 1.1 0 00.231-.68h-2a.905.905 0 01.615-.852c.096-.032.167-.036.178-.037h-.016v2zm.667-.214c.388-.192.663-.546.727-.99a1.543 1.543 0 00-.168-.91l-1.785.902c-.001-.002-.012-.024-.021-.064a.584.584 0 01-.006-.21.717.717 0 01.134-.323.656.656 0 01.23-.197l.889 1.792zm.453-2.067L176.94 20.12l-1.572 1.236 10.359 13.171 1.572-1.236zM177.048 20.29c-.251-.5-.722-.683-1.05-.724-.278-.035-.751-.002-1.108.353l1.413 1.416a.752.752 0 01-.347.202.555.555 0 01-.204.014.653.653 0 01-.492-.365l1.788-.896zm-1.896-.558a1.3 1.3 0 00-.726.989c-.054.377.061.702.167.911l1.785-.903c.001.003.012.024.021.065.009.04.02.113.006.21a.703.703 0 01-.364.52l-.889-1.792zm-.452 2.067l10.359 13.17 1.572-1.236-10.359-13.17-1.572 1.236zm10.251 13c.113.227.3.485.616.642.295.146.581.132.612.132v-2c-.081 0 .094-.015.277.076a.64.64 0 01.282.254l-1.787.897zm2.565 21.69c.434 0 .786-.206 1.01-.428a1.44 1.44 0 00.435-1.014h-2c0-.217.099-.348.155-.405a.558.558 0 01.4-.152v2zm1.442-1.511L187.51 34.06l-1.995.138 1.448 20.918 1.995-.138zm-1.445-20.85a1.29 1.29 0 00-.587-1.082c-.284-.188-.6-.25-.858-.25v2a.446.446 0 01-.247-.082.72.72 0 01-.308-.585h2zm-1.445-1.331c-.496 0-.87.266-1.081.58a1.552 1.552 0 00-.254.863h2a.46.46 0 01-.087.254.713.713 0 01-.578.303v-2zm-1.333 1.507l1.337 20.807 1.996-.128-1.337-20.808-1.996.129zm1.441 21.191c.042.084.149.31.309.5.188.223.527.495 1.031.495v-2a.7.7 0 01.337.087.57.57 0 01.163.131c.019.022.021.03.007.006a2.347 2.347 0 01-.059-.115l-1.788.896zm-10.133 42.057c.38 0 .651-.184.764-.268.123-.091.231-.201.273-.242l-1.406-1.423-.062.06c-.014.014-.013.011-.001.002a.588.588 0 01.115-.065.798.798 0 01.317-.064v2zm1.166-.668l7.574-11.4-1.665-1.107-7.574 11.4 1.665 1.107zm7.634-11.502a1.54 1.54 0 00.168-.911 1.304 1.304 0 00-.727-.99l-.889 1.792a.658.658 0 01-.23-.197.716.716 0 01-.134-.322.584.584 0 01.006-.21c.009-.04.02-.062.021-.065l1.785.903zm-.559-1.9a1.555 1.555 0 00-.904-.164 1.301 1.301 0 00-.991.721l1.788.897a.71.71 0 01-.519.363.576.576 0 01-.204-.007.266.266 0 01-.059-.019l.889-1.791zm-1.834.452l-7.575 11.4 1.665 1.107 7.575-11.4-1.665-1.107zm-7.636 11.505c-.105.21-.22.534-.165.91a1.3 1.3 0 00.726.988l.889-1.791a.649.649 0 01.23.196.714.714 0 01.134.321.577.577 0 01-.006.21.237.237 0 01-.021.063l-1.787-.897zm.006 1.002a1.087 1.087 0 00.755 1.046c.137.046.257.057.32.061.065.004.127.004.148.004v-2h-.017c.011.001.082.005.177.037a.907.907 0 01.617.853h-2zm1.223 1.11a1.4 1.4 0 00.884-.298c.242-.191.377-.43.455-.584l-1.788-.897c-.034.068-.011-.006.092-.087a.644.644 0 01.202-.107.525.525 0 01.155-.026v2zm1.445-1.33c0-.26-.063-.577-.253-.861a1.292 1.292 0 00-1.081-.582v2a.715.715 0 01-.581-.305.451.451 0 01-.085-.252h2zm-1.27-1.441l-13.812-.885-.128 1.996 13.812.885.128-1.996zm-13.876-.887c-.259 0-.575.06-.859.249a1.29 1.29 0 00-.587 1.083h2a.722.722 0 01-.309.585.444.444 0 01-.245.083v-2zm-1.446 1.332c0 .26.062.576.252.86.211.315.585.582 1.082.582v-2a.715.715 0 01.58.305.456.456 0 01.086.253h-2zm1.27 1.44l13.813.885.127-1.996-13.813-.885-.127 1.996zM143.534 97l18.713-.332-.035-2-18.713.332.035 2zm18.696-.332a1.44 1.44 0 001.011-.43 1.44 1.44 0 00.435-1.013h-2a.56.56 0 01.155-.404.557.557 0 01.399-.153v2zm1.446-1.443c0-.439-.211-.791-.435-1.014a1.448 1.448 0 00-1.011-.429v2a.555.555 0 01-.398-.152.562.562 0 01-.156-.405h2zm-1.464-1.443l-18.713.332.035 2 18.713-.332-.035-2zm-18.695.332c-.435 0-.787.206-1.012.429a1.441 1.441 0 00-.434 1.014h2a.56.56 0 01-.157.405.552.552 0 01-.397.152v-2zm-1.446 1.443c0 .439.21.791.434 1.014.225.223.577.429 1.012.429v-2c.211 0 .34.095.397.152a.561.561 0 01.157.405h-2zm-40.994 56.56a1.4 1.4 0 00.886-.3c.241-.191.376-.43.452-.582l-1.785-.901c-.036.071-.012-.002.09-.083a.618.618 0 01.357-.134v2zm1.427-1.141l1.893-9.739-1.963-.382-1.893 9.739 1.963.382zm1.912-9.93c0-.26-.062-.577-.253-.862a1.292 1.292 0 00-1.081-.581v2a.712.712 0 01-.581-.305.455.455 0 01-.085-.252h2zm-1.334-1.443c-.258 0-.574.06-.859.249a1.29 1.29 0 00-.586 1.083h2a.719.719 0 01-.309.584.449.449 0 01-.246.084v-2zm-1.427 1.141l-1.894 9.739 1.963.382 1.894-9.739-1.963-.382zm-1.805 9.479c-.173.343-.246.854.062 1.313.304.452.794.581 1.165.581v-2a.64.64 0 01.495.304.707.707 0 01.063.703l-1.785-.901zm3.121-7.845c.3 0 .563-.117.72-.211.093-.055.217-.142.33-.271.103-.118.284-.372.284-.739h-2a.88.88 0 01.21-.578.623.623 0 01.152-.129.426.426 0 01.087-.04.686.686 0 01.217-.032v2zm1.249-.818l7.463-16.934-1.83-.807-7.463 16.934 1.83.807zm7.441-16.888a1.37 1.37 0 00.039-1.163 1.483 1.483 0 00-.713-.736l-.885 1.794a.519.519 0 01-.239-.267.633.633 0 01.011-.526l1.787.898zm-.671-1.897a1.37 1.37 0 00-1.158-.039c-.35.149-.594.421-.736.703l1.784.904a.523.523 0 01-.263.233.63.63 0 01-.518-.011l.891-1.79zm-1.917.712l-7.464 16.934 1.831.807 7.463-16.934-1.83-.807zm-7.442 16.889c-.186.371-.199.79-.038 1.163.151.351.426.593.709.734l.891-1.79c.06.029.168.105.236.263a.637.637 0 01-.011.528l-1.787-.898zm1.117 2.002h.223v-2h-.223v2zm27.067-26.896c.189 0 .34-.046.43-.079.086-.032.161-.07.179-.079.038-.019.018-.008-.012.003a.745.745 0 01-.262.045v-2c-.19 0-.341.046-.431.079-.085.032-.161.07-.179.079-.038.018-.018.008.012-.003a.747.747 0 01.263-.045v2zm1.14-.517l13.701-18.594-1.61-1.187-13.701 18.595 1.61 1.186zm13.789-18.74c.105-.208.22-.533.166-.909a1.304 1.304 0 00-.727-.988l-.889 1.792a.659.659 0 01-.23-.197.714.714 0 01-.134-.32.577.577 0 01.006-.21.292.292 0 01.021-.064l1.787.897zm-.561-1.897a1.554 1.554 0 00-.905-.163 1.307 1.307 0 00-.989.718l1.785.903a.707.707 0 01-.515.359.572.572 0 01-.205-.006.258.258 0 01-.06-.02l.889-1.79zm-1.806.414l-13.701 18.594 1.61 1.186 13.701-18.594-1.61-1.186zm-13.79 18.738a1.54 1.54 0 00-.165.91c.063.441.338.796.728.989l.885-1.794a.654.654 0 01.232.197.72.72 0 01.134.322.58.58 0 01-.006.21.257.257 0 01-.021.064l-1.787-.898zm1.006 1.002v1h.222v-2h-.222v1zm-19.159 10.962h.223v-2h-.223v2zm.682-.112l19.27-9.961-.919-1.777-19.27 9.961.919 1.777zm19.256-9.954a1.36 1.36 0 00.711-.854c.074-.258.067-.518.067-.594h-2c0 .061-.001.083-.002.099-.001.013 0-.013.013-.058a.607.607 0 01.109-.209.617.617 0 01.211-.174l.891 1.79zm.67-1.899a1.355 1.355 0 00-.855-.705c-.257-.073-.517-.066-.594-.066v2l.101.001c.014.001-.011.001-.055-.012a.617.617 0 01-.207-.107.621.621 0 01-.175-.21l1.785-.901zm-1.909-.66l-19.271 9.961.919 1.777 19.271-9.961-.919-1.777zm-19.259 9.955a1.36 1.36 0 00-.708.855c-.074.257-.066.517-.066.594h2l.001-.1c.001-.014.001.011-.012.057a.633.633 0 01-.32.383l-.895-1.789zm-.668 1.898c.113.224.299.482.615.64.296.146.582.132.613.132v-2c-.082 0 .093-.015.277.077.206.102.281.25.282.253l-1.787.898zm-19.603 56.444a1.456 1.456 0 001.053-.484c.104-.12.282-.374.282-.738h-2c0-.309.15-.507.209-.575a.627.627 0 01.152-.131.424.424 0 01.088-.04.68.68 0 01.216-.032v2zm1.265-.854l11.472-28.997-1.859-.736-11.473 28.997 1.86.736zm11.435-28.913c.188-.373.2-.794.04-1.166a1.487 1.487 0 00-.707-.735l-.895 1.789a.52.52 0 01-.235-.263.636.636 0 01.013-.529l1.784.904zm-.672-1.903a1.377 1.377 0 00-1.155-.037c-.351.15-.596.423-.739.709l1.789.894a.518.518 0 01-.266.237.628.628 0 01-.514-.009l.885-1.794zm-1.93.751l-11.473 28.997 1.86.736 11.473-28.997-1.86-.736zm-11.437 28.916a1.366 1.366 0 00-.038 1.163c.152.352.426.594.709.735l.892-1.79a.51.51 0 01.235.263.634.634 0 01-.01.526l-1.788-.897zm1.117 2.003h.222v-2h-.222v2zm-8.132 3.872h.08l-.024-.001a1.18 1.18 0 01-.07-.006c-.011-.002-.069-.008-.14-.028a.994.994 0 01-.735-.957c.002-.055.006-.109 1-.007.995.102 1 .047 1-.008a1.006 1.006 0 00-.215-.611.993.993 0 00-.28-.244c-.113-.067-.214-.094-.24-.101a.88.88 0 00-.213-.035l-.048-.002h-.115v2zm.522-.087l8.354-3.763-.821-1.824-8.354 3.763.821 1.824zm8.39-3.78a1.49 1.49 0 00.709-.735 1.37 1.37 0 00-.039-1.163l-1.787.897a.634.634 0 01-.01-.526.514.514 0 01.235-.263l.892 1.79zm.67-1.899a1.483 1.483 0 00-.739-.705 1.37 1.37 0 00-1.157.039l.892 1.79a.629.629 0 01-.518.011.52.52 0 01-.264-.235l1.785-.9zm-1.861-.683l-8.354 3.763.821 1.824 8.354-3.763-.821-1.824zm-8.39 3.78c-.282.14-.557.382-.709.734-.16.372-.148.793.04 1.164l1.785-.9c.076.15.089.349.012.528a.521.521 0 01-.236.264l-.892-1.79zm-.482 2.156c.155.155.339.268.485.34.115.057.37.173.666.173v-2a.76.76 0 01.14.012c.029.006.049.012.06.015.02.006.026.01.021.008l-.005-.003.011.008a.463.463 0 01.033.03l-1.411 1.417zM183.06 86.706c.123 0 .617.019 1.04-.403l-1.413-1.416a.623.623 0 01.299-.165.518.518 0 01.095-.016h-.021v2zm1.049-.412l17.488-17.93-1.431-1.397-17.488 17.93 1.431 1.397zm17.475-17.917c.195-.192.281-.412.321-.551a1.585 1.585 0 000-.874 1.26 1.26 0 00-.321-.551l-1.405 1.423a.73.73 0 01-.195-.316.418.418 0 010-.238.73.73 0 01.195-.316l1.405 1.423zm.004-1.973a1.27 1.27 0 00-.551-.316 1.596 1.596 0 00-.867 0 1.268 1.268 0 00-.548.313l1.406 1.423a.734.734 0 01-.312.188.405.405 0 01-.113.017.41.41 0 01-.113-.017.74.74 0 01-.315-.192l1.413-1.416zm-1.979.01l-17.488 17.93 1.431 1.396 17.488-17.93-1.431-1.396zm-17.478 17.92a1.263 1.263 0 00-.318.55 1.573 1.573 0 000 .869c.039.138.125.358.318.55l1.411-1.416a.725.725 0 01.193.315.406.406 0 010 .233.725.725 0 01-.193.316l-1.411-1.417zm.706 2.261a.78.78 0 01-.287-.053.59.59 0 01-.186-.118l-.005-.004-.003-.003-.001-.001-.001-.001.706-.709.705-.708-.001-.001-.001-.002a.09.09 0 01-.003-.003l-.007-.007-.017-.016-.046-.04a1.555 1.555 0 00-.147-.112 1.287 1.287 0 00-.706-.221v2z" fill="#495993" mask="url(#path-5-inside-1)"/>
    </g>
    <path d="M68.77 12.909c0 3.51-2.864 6.362-6.405 6.362-3.541 0-6.407-2.852-6.407-6.362 0-3.51 2.866-6.362 6.407-6.362 3.54 0 6.406 2.851 6.406 6.362zM46.27 24.64c0 2.105-1.718 3.817-3.844 3.817s-3.845-1.712-3.845-3.816c0-2.105 1.719-3.817 3.845-3.817 2.126 0 3.844 1.712 3.844 3.817zm18.49 22.357c0 2.41-1.967 4.37-4.4 4.37-2.434 0-4.401-1.96-4.401-4.37s1.967-4.37 4.4-4.37c2.434 0 4.402 1.96 4.402 4.37zm48.789 5.645c0 2.9-2.366 5.255-5.292 5.255-2.926 0-5.292-2.356-5.292-5.255 0-2.9 2.366-5.255 5.292-5.255 2.926 0 5.292 2.355 5.292 5.255zm9.691 9.85c0 1.738-1.418 3.153-3.175 3.153-1.758 0-3.176-1.415-3.176-3.153s1.418-3.152 3.176-3.152c1.757 0 3.175 1.414 3.175 3.152zm41.327-6.198c0 2.166-1.768 3.927-3.956 3.927-2.188 0-3.956-1.76-3.956-3.927 0-2.165 1.768-3.927 3.956-3.927 2.188 0 3.956 1.762 3.956 3.927zm4.232-18.814c0 2.289-1.867 4.149-4.178 4.149s-4.179-1.86-4.179-4.148c0-2.288 1.868-4.149 4.179-4.149s4.178 1.86 4.178 4.148zm10.137-17.044c0 1.738-1.419 3.152-3.176 3.152-1.757 0-3.176-1.415-3.176-3.152 0-1.738 1.419-3.153 3.176-3.153 1.757 0 3.176 1.415 3.176 3.153zm-16.263-9.519a2.942 2.942 0 01-2.953 2.931 2.942 2.942 0 01-2.953-2.93 2.942 2.942 0 012.953-2.932 2.942 2.942 0 012.953 2.931zm-10.917 4.426a2.609 2.609 0 01-2.619 2.6 2.608 2.608 0 01-2.618-2.6 2.608 2.608 0 012.618-2.599 2.609 2.609 0 012.619 2.6zm-10.247 15.606a2.942 2.942 0 01-2.953 2.93 2.942 2.942 0 01-2.953-2.93 2.942 2.942 0 012.953-2.931 2.942 2.942 0 012.953 2.93zm15.483 39.401c0 2.35-1.918 4.26-4.29 4.26s-4.29-1.91-4.29-4.26c0-2.348 1.918-4.258 4.29-4.258s4.29 1.91 4.29 4.259zm35.756-15.937c0 2.9-2.366 5.256-5.292 5.256-2.926 0-5.292-2.356-5.292-5.256 0-2.899 2.366-5.255 5.292-5.255 2.926 0 5.292 2.356 5.292 5.255zm12.921 11.733c0 2.532-2.067 4.591-4.624 4.591-2.557 0-4.624-2.059-4.624-4.591 0-2.533 2.067-4.591 4.624-4.591 2.557 0 4.624 2.058 4.624 4.59zm-17.488 17.929c0 2.594-2.117 4.702-4.735 4.702-2.619 0-4.736-2.108-4.736-4.702s2.117-4.702 4.736-4.702c2.618 0 4.735 2.108 4.735 4.702zm-28.07-1.217c0 1.86-1.519 3.374-3.399 3.374-1.88 0-3.399-1.514-3.399-3.374s1.519-3.374 3.399-3.374c1.88 0 3.399 1.514 3.399 3.374zm-77.416 34.198a2.276 2.276 0 01-2.285 2.267 2.276 2.276 0 01-2.285-2.267 2.276 2.276 0 012.285-2.267 2.276 2.276 0 012.285 2.267zm8.465-17.708c0 2.471-2.017 4.48-4.512 4.48-2.495 0-4.513-2.009-4.513-4.48 0-2.472 2.018-4.48 4.513-4.48s4.512 2.008 4.512 4.48zm3.565-29.771c0 2.227-1.818 4.038-4.067 4.038-2.25 0-4.067-1.811-4.067-4.038 0-2.227 1.818-4.038 4.067-4.038s4.067 1.81 4.067 4.038zM67.1 70.794c0 1.8-1.469 3.263-3.287 3.263-1.819 0-3.288-1.463-3.288-3.263 0-1.799 1.47-3.263 3.288-3.263 1.818 0 3.287 1.464 3.287 3.263zm-7.24 15.274c0 1.982-1.619 3.595-3.622 3.595s-3.621-1.613-3.621-3.595c0-1.983 1.618-3.595 3.621-3.595s3.622 1.612 3.622 3.595zm-19.494-3.1a2.609 2.609 0 01-2.619 2.6 2.609 2.609 0 01-2.619-2.6 2.61 2.61 0 012.62-2.599 2.61 2.61 0 012.618 2.6zM7.52 96.984c0 1.922-1.568 3.485-3.51 3.485-1.942 0-3.51-1.563-3.51-3.485 0-1.92 1.568-3.484 3.51-3.484 1.942 0 3.51 1.563 3.51 3.484zm27.5 9.89c0 2.35-1.918 4.26-4.29 4.26s-4.29-1.91-4.29-4.26c0-2.349 1.918-4.259 4.29-4.259s4.29 1.91 4.29 4.259zM23.212 68.137c0 1.188-.97 2.156-2.173 2.156a2.165 2.165 0 01-2.174-2.156c0-1.188.97-2.156 2.174-2.156 1.203 0 2.173.968 2.173 2.156zM10.18 74.888c0 1.983-1.619 3.595-3.622 3.595s-3.621-1.612-3.621-3.595 1.618-3.595 3.621-3.595 3.621 1.612 3.621 3.595zm13.478-32.096c0 1.126-.92 2.045-2.062 2.045a2.054 2.054 0 01-2.062-2.045c0-1.127.92-2.046 2.062-2.046s2.062.919 2.062 2.046zm18.268 23.685c0 1.86-1.519 3.374-3.399 3.374-1.88 0-3.399-1.513-3.399-3.374 0-1.86 1.519-3.374 3.4-3.374 1.88 0 3.398 1.514 3.398 3.374zm39.989-22.025c0 2.043-1.668 3.706-3.733 3.706-2.065 0-3.733-1.663-3.733-3.706 0-2.044 1.668-3.706 3.733-3.706 2.065 0 3.733 1.662 3.733 3.706zm16.04-19.037a2.942 2.942 0 01-2.953 2.931 2.942 2.942 0 01-2.953-2.93 2.942 2.942 0 012.953-2.932 2.942 2.942 0 012.953 2.931zm28.738-6.973a3.052 3.052 0 01-3.064 3.042c-1.696 0-3.065-1.365-3.065-3.042 0-1.677 1.369-3.042 3.065-3.042a3.052 3.052 0 013.064 3.042zM107.646 5.05c0 1.922-1.568 3.485-3.51 3.485-1.942 0-3.51-1.563-3.51-3.484 0-1.922 1.568-3.485 3.51-3.485 1.942 0 3.51 1.563 3.51 3.485zm31.301 44.162c0 1.86-1.519 3.373-3.399 3.373-1.88 0-3.399-1.513-3.399-3.373 0-1.86 1.519-3.374 3.399-3.374 1.88 0 3.399 1.513 3.399 3.374zm16.263-3.543c0 1.31-1.07 2.377-2.396 2.377a2.387 2.387 0 01-2.397-2.377c0-1.31 1.07-2.378 2.397-2.378a2.387 2.387 0 012.396 2.378zM78.796 89.055a2.498 2.498 0 01-2.508 2.488 2.498 2.498 0 01-2.507-2.488 2.498 2.498 0 012.507-2.489 2.498 2.498 0 012.508 2.489zm-15.483 9.962c0 1.799-1.469 3.263-3.287 3.263-1.819 0-3.288-1.464-3.288-3.263 0-1.8 1.469-3.263 3.288-3.263 1.818 0 3.287 1.464 3.287 3.263zM55.85 135.54a2.942 2.942 0 01-2.953 2.931 2.942 2.942 0 01-2.954-2.931 2.942 2.942 0 012.954-2.931 2.942 2.942 0 012.953 2.931zm29.74 1.991c0 .822-.67 1.492-1.504 1.492-.835 0-1.505-.67-1.505-1.492 0-.821.67-1.492 1.505-1.492.834 0 1.505.671 1.505 1.492zm22.167-23.13c0 .76-.621 1.382-1.393 1.382a1.388 1.388 0 01-1.394-1.382c0-.76.621-1.381 1.394-1.381.773 0 1.393.621 1.393 1.381zm35.2-41.173c0 1.066-.87 1.935-1.951 1.935-1.08 0-1.95-.87-1.95-1.935 0-1.066.87-1.935 1.95-1.935 1.081 0 1.951.87 1.951 1.935zm-19.605-45.931c0 1.738-1.418 3.152-3.176 3.152-1.757 0-3.176-1.414-3.176-3.152 0-1.738 1.419-3.152 3.176-3.152 1.758 0 3.176 1.414 3.176 3.152zm4.79-24.46c0 1.066-.87 1.935-1.951 1.935-1.08 0-1.95-.869-1.95-1.935 0-1.065.87-1.935 1.95-1.935 1.081 0 1.951.87 1.951 1.935zM17.977 56.406c0 1.188-.97 2.157-2.173 2.157a2.165 2.165 0 01-2.174-2.157c0-1.188.97-2.156 2.174-2.156 1.203 0 2.173.968 2.173 2.156zm-.668 51.907c0 1.677-1.37 3.042-3.065 3.042-1.695 0-3.064-1.365-3.064-3.042 0-1.677 1.369-3.042 3.064-3.042 1.696 0 3.065 1.365 3.065 3.042zm28.738-19.59c0 1.188-.97 2.156-2.173 2.156a2.165 2.165 0 01-2.173-2.156c0-1.188.97-2.157 2.173-2.157s2.173.969 2.173 2.157zm23.949-32.317c0 1.188-.97 2.157-2.173 2.157a2.165 2.165 0 01-2.174-2.157c0-1.188.97-2.156 2.174-2.156 1.203 0 2.173.968 2.173 2.156zm2.005-27.781a2.83 2.83 0 01-2.841 2.82 2.831 2.831 0 01-2.842-2.82c0-1.555 1.27-2.82 2.842-2.82a2.831 2.831 0 012.84 2.82zM40.366 48.437a2.609 2.609 0 01-2.619 2.599 2.609 2.609 0 01-2.619-2.6 2.609 2.609 0 012.62-2.598 2.61 2.61 0 012.618 2.599zm123.755 46.152c0 1.126-.92 2.045-2.062 2.045a2.054 2.054 0 01-2.062-2.045c0-1.127.92-2.046 2.062-2.046s2.062.919 2.062 2.046zm13.701.886c0 1.004-.82 1.824-1.839 1.824a1.831 1.831 0 01-1.839-1.824c0-1.005.82-1.825 1.839-1.825 1.019 0 1.839.82 1.839 1.825zm10.359-61.869c0 1.127-.92 2.046-2.062 2.046a2.054 2.054 0 01-2.062-2.046c0-1.127.92-2.046 2.062-2.046s2.062.92 2.062 2.046zM83.809 3.501a2.609 2.609 0 01-2.62 2.6 2.609 2.609 0 01-2.618-2.6A2.609 2.609 0 0181.19.902a2.609 2.609 0 012.619 2.6z" fill="#003451" stroke="#000920"/>
    <path d="M132.263 91.49c0 2.349-1.917 4.259-4.29 4.259-2.372 0-4.289-1.91-4.289-4.26 0-2.349 1.917-4.258 4.289-4.258 2.373 0 4.29 1.91 4.29 4.259zm-14.703 5.09c0 2.411-1.968 4.371-4.402 4.371-2.433 0-4.401-1.96-4.401-4.37s1.968-4.37 4.401-4.37c2.434 0 4.402 1.96 4.402 4.37zm14.703 16.936a2.497 2.497 0 01-2.507 2.488 2.498 2.498 0 01-2.508-2.488 2.498 2.498 0 012.508-2.489 2.498 2.498 0 012.507 2.489zm-31.858 15.825c0 1.983-1.618 3.595-3.621 3.595s-3.621-1.612-3.621-3.595c0-1.982 1.618-3.595 3.621-3.595s3.621 1.613 3.621 3.595zm6.684-48.033c0 1.8-1.468 3.263-3.287 3.263s-3.287-1.464-3.287-3.263c0-1.8 1.468-3.263 3.287-3.263s3.287 1.464 3.287 3.263zm-3.788 68.842a2.275 2.275 0 01-2.284 2.267 2.276 2.276 0 01-2.285-2.267 2.276 2.276 0 012.285-2.267 2.275 2.275 0 012.284 2.267zm-12.029 28.997a1.72 1.72 0 01-1.728 1.714 1.72 1.72 0 01-1.728-1.714c0-.943.77-1.713 1.728-1.713.957 0 1.728.77 1.728 1.713zm-7.909 3.763c0 1.188-.97 2.156-2.174 2.156a2.165 2.165 0 01-2.173-2.156c0-1.188.97-2.156 2.173-2.156 1.204 0 2.174.968 2.174 2.156zm-2.673-15.717c0 .638-.522 1.161-1.171 1.161-.65 0-1.171-.523-1.171-1.161s.52-1.16 1.17-1.16c.65 0 1.171.522 1.171 1.16zm6.571-17.375c0 1.065-.87 1.935-1.95 1.935s-1.95-.87-1.95-1.935c0-1.066.87-1.935 1.95-1.935s1.95.869 1.95 1.935zm17.934-9.52a2.275 2.275 0 01-2.284 2.267 2.276 2.276 0 01-2.285-2.267 2.276 2.276 0 012.285-2.267 2.275 2.275 0 012.284 2.267zm40.658-45.378c0 1.31-1.07 2.378-2.396 2.378a2.386 2.386 0 01-2.396-2.377 2.386 2.386 0 012.396-2.378 2.387 2.387 0 012.396 2.378zm-32.415 28.555c0 1.677-1.369 3.042-3.064 3.042-1.696 0-3.065-1.365-3.065-3.042 0-1.677 1.369-3.041 3.065-3.041 1.695 0 3.064 1.364 3.064 3.041z" fill="#003451" stroke="#000C2D"/>
    <path d="M78.796 132.109c0 .638-.522 1.161-1.171 1.161-.65 0-1.17-.523-1.17-1.161 0-.637.52-1.16 1.17-1.16.65 0 1.17.523 1.17 1.16z" fill="#003451" stroke="#000920"/>
  </g>
  <defs>
    <filter id="filter0_d" x="2.117" y="3.184" width="203.31" height="146.236" filterUnits="userSpaceOnUse" color-interpolation-filters="sRGB">
      <feFlood flood-opacity="0" result="BackgroundImageFix"/>
      <feColorMatrix in="SourceAlpha" type="matrix" values="0 0 0 0 0 0 0 0 0 0 0 0 0 0 0 0 0 0 127 0"/>
      <feOffset dy="4"/>
      <feGaussianBlur stdDeviation="2"/>
      <feColorMatrix type="matrix" values="0 0 0 0 0 0 0 0 0 0 0 0 0 0 0 0 0 0 0.25 0"/>
      <feBlend mode="normal" in2="BackgroundImageFix" result="effect1_dropShadow"/>
      <feBlend mode="normal" in="SourceGraphic" in2="effect1_dropShadow" result="shape"/>
    </filter>
    <filter id="filter1_d" x="17.154" y="3" width="173.391" height="189.031" filterUnits="userSpaceOnUse" color-interpolation-filters="sRGB">
      <feFlood flood-opacity="0" result="BackgroundImageFix"/>
      <feColorMatrix in="SourceAlpha" type="matrix" values="0 0 0 0 0 0 0 0 0 0 0 0 0 0 0 0 0 0 127 0"/>
      <feOffset dy="4"/>
      <feGaussianBlur stdDeviation="2"/>
      <feColorMatrix type="matrix" values="0 0 0 0 0 0 0 0 0 0 0 0 0 0 0 0 0 0 0.25 0"/>
      <feBlend mode="normal" in2="BackgroundImageFix" result="effect1_dropShadow"/>
      <feBlend mode="normal" in="SourceGraphic" in2="effect1_dropShadow" result="shape"/>
    </filter>
    <filter id="filter2_d" x="0" y="3.693" width="205.471" height="140.855" filterUnits="userSpaceOnUse" color-interpolation-filters="sRGB">
      <feFlood flood-opacity="0" result="BackgroundImageFix"/>
      <feColorMatrix in="SourceAlpha" type="matrix" values="0 0 0 0 0 0 0 0 0 0 0 0 0 0 0 0 0 0 127 0"/>
      <feOffset dy="4"/>
      <feGaussianBlur stdDeviation="2"/>
      <feColorMatrix type="matrix" values="0 0 0 0 0 0 0 0 0 0 0 0 0 0 0 0 0 0 0.25 0"/>
      <feBlend mode="normal" in2="BackgroundImageFix" result="effect1_dropShadow"/>
      <feBlend mode="normal" in="SourceGraphic" in2="effect1_dropShadow" result="shape"/>
    </filter>
    <filter id="filter3_d" x="0" y="3" width="205.523" height="188.988" filterUnits="userSpaceOnUse" color-interpolation-filters="sRGB">
      <feFlood flood-opacity="0" result="BackgroundImageFix"/>
      <feColorMatrix in="SourceAlpha" type="matrix" values="0 0 0 0 0 0 0 0 0 0 0 0 0 0 0 0 0 0 127 0"/>
      <feOffset dy="4"/>
      <feGaussianBlur stdDeviation="2"/>
      <feColorMatrix type="matrix" values="0 0 0 0 0 0 0 0 0 0 0 0 0 0 0 0 0 0 0.25 0"/>
      <feBlend mode="normal" in2="BackgroundImageFix" result="effect1_dropShadow"/>
      <feBlend mode="normal" in="SourceGraphic" in2="effect1_dropShadow" result="shape"/>
    </filter>
    <clipPath id="clip0">
      <path fill="white" d="M0 0h207v186H0z"/>
    </clipPath>
  </defs>
</svg>
