<svg width="207" height="186" viewBox="0 0 207 186" fill="none" xmlns="http://www.w3.org/2000/svg">
<path d="M68.7709 12.9089C68.7709 16.4195 65.9058 19.2709 62.3647 19.2709C58.8236 19.2709 55.9585 16.4195 55.9585 12.9089C55.9585 9.39827 58.8236 6.54688 62.3647 6.54688C65.9058 6.54688 68.7709 9.39827 68.7709 12.9089Z" stroke="#000920"/>
<path d="M46.27 24.6406C46.27 26.7454 44.5519 28.4571 42.4258 28.4571C40.2996 28.4571 38.5815 26.7454 38.5815 24.6406C38.5815 22.5359 40.2996 20.8242 42.4258 20.8242C44.5519 20.8242 46.27 22.5359 46.27 24.6406Z" stroke="#000920"/>
<path d="M64.7608 46.9968C64.7608 49.4071 62.7934 51.3666 60.3597 51.3666C57.9259 51.3666 55.9585 49.4071 55.9585 46.9968C55.9585 44.5863 57.9259 42.627 60.3597 42.627C62.7934 42.627 64.7608 44.5863 64.7608 46.9968Z" stroke="#000920"/>
<path d="M113.549 52.642C113.549 55.5414 111.183 57.8972 108.257 57.8972C105.331 57.8972 102.965 55.5414 102.965 52.642C102.965 49.7425 105.331 47.3867 108.257 47.3867C111.183 47.3867 113.549 49.7425 113.549 52.642Z" stroke="#000920"/>
<path d="M123.24 62.4922C123.24 64.2304 121.822 65.6446 120.065 65.6446C118.307 65.6446 116.889 64.2303 116.889 62.4922C116.889 60.7542 118.307 59.3398 120.065 59.3398C121.822 59.3398 123.24 60.7541 123.24 62.4922Z" stroke="#000920"/>
<path d="M164.567 56.2943C164.567 58.4601 162.799 60.2214 160.611 60.2214C158.423 60.2214 156.655 58.4601 156.655 56.2943C156.655 54.1285 158.423 52.3672 160.611 52.3672C162.799 52.3672 164.567 54.1285 164.567 56.2943Z" stroke="#000920"/>
<path d="M168.799 37.4805C168.799 39.7687 166.932 41.629 164.621 41.629C162.31 41.629 160.442 39.7686 160.442 37.4805C160.442 35.1925 162.31 33.332 164.621 33.332C166.932 33.332 168.799 35.1923 168.799 37.4805Z" stroke="#000920"/>
<path d="M178.936 20.4356C178.936 22.1735 177.517 23.5879 175.76 23.5879C174.003 23.5879 172.584 22.1735 172.584 20.4356C172.584 18.6976 174.003 17.2832 175.76 17.2832C177.517 17.2832 178.936 18.6976 178.936 20.4356Z" stroke="#000920"/>
<path d="M162.673 10.9173C162.673 12.5331 161.354 13.8484 159.72 13.8484C158.086 13.8484 156.767 12.5331 156.767 10.9173C156.767 9.3016 158.086 7.98633 159.72 7.98633C161.354 7.98633 162.673 9.3016 162.673 10.9173Z" stroke="#000920"/>
<path d="M151.756 15.3431C151.756 16.7755 150.587 17.9421 149.137 17.9421C147.688 17.9421 146.519 16.7756 146.519 15.3431C146.519 13.9107 147.688 12.7441 149.137 12.7441C150.587 12.7441 151.756 13.9108 151.756 15.3431Z" stroke="#000920"/>
<path d="M141.509 30.9486C141.509 32.5643 140.19 33.8796 138.556 33.8796C136.922 33.8796 135.603 32.5643 135.603 30.9486C135.603 29.3328 136.922 28.0176 138.556 28.0176C140.19 28.0176 141.509 29.3328 141.509 30.9486Z" stroke="#000920"/>
<path d="M156.992 70.3509C156.992 72.7002 155.074 74.6101 152.702 74.6101C150.33 74.6101 148.412 72.7002 148.412 70.3509C148.412 68.0017 150.33 66.0918 152.702 66.0918C155.074 66.0918 156.992 68.0017 156.992 70.3509Z" stroke="#000920"/>
<path d="M192.748 54.4134C192.748 57.3129 190.382 59.6687 187.456 59.6687C184.53 59.6687 182.164 57.3129 182.164 54.4134C182.164 51.514 184.53 49.1582 187.456 49.1582C190.382 49.1582 192.748 51.514 192.748 54.4134Z" stroke="#000920"/>
<path d="M205.669 66.1459C205.669 68.6784 203.602 70.737 201.045 70.737C198.488 70.737 196.421 68.6784 196.421 66.1459C196.421 63.6132 198.488 61.5547 201.045 61.5547C203.602 61.5547 205.669 63.6132 205.669 66.1459Z" stroke="#000920"/>
<path d="M188.181 84.0749C188.181 86.6687 186.064 88.7768 183.446 88.7768C180.827 88.7768 178.71 86.6686 178.71 84.0749C178.71 81.4812 180.827 79.373 183.446 79.373C186.064 79.373 188.181 81.4812 188.181 84.0749Z" stroke="#000920"/>
<path d="M160.111 82.8581C160.111 84.7182 158.592 86.2318 156.712 86.2318C154.832 86.2318 153.313 84.7182 153.313 82.8581C153.313 80.9979 154.832 79.4844 156.712 79.4844C158.592 79.4844 160.111 80.9979 160.111 82.8581Z" stroke="#000920"/>
<path d="M82.6945 117.056C82.6945 118.305 81.6746 119.323 80.4097 119.323C79.1449 119.323 78.125 118.305 78.125 117.056C78.125 115.807 79.1449 114.789 80.4097 114.789C81.6746 114.789 82.6945 115.807 82.6945 117.056Z" stroke="#000920"/>
<path d="M91.1604 99.3477C91.1604 101.819 89.1431 103.828 86.6478 103.828C84.1526 103.828 82.1353 101.819 82.1353 99.3477C82.1353 96.8761 84.1526 94.8672 86.6478 94.8672C89.1431 94.8672 91.1604 96.8762 91.1604 99.3477Z" stroke="#000920"/>
<path d="M94.7248 69.5768C94.7248 71.8038 92.907 73.6146 90.6578 73.6146C88.4086 73.6146 86.5908 71.8038 86.5908 69.5768C86.5908 67.3498 88.4086 65.5391 90.6578 65.5391C92.907 65.5391 94.7248 67.3498 94.7248 69.5768Z" stroke="#000920"/>
<path d="M67.0999 70.7943C67.0999 72.5935 65.6312 74.0574 63.8127 74.0574C61.9941 74.0574 60.5254 72.5935 60.5254 70.7943C60.5254 68.9952 61.9941 67.5312 63.8127 67.5312C65.6312 67.5312 67.0999 68.9952 67.0999 70.7943Z" stroke="#000920"/>
<path d="M59.8596 86.0677C59.8596 88.0502 58.2412 89.6628 56.2381 89.6628C54.235 89.6628 52.6167 88.0502 52.6167 86.0677C52.6167 84.0852 54.235 82.4727 56.2381 82.4727C58.2412 82.4727 59.8596 84.0852 59.8596 86.0677Z" stroke="#000920"/>
<path d="M40.3663 82.9681C40.3663 84.4005 39.1968 85.5671 37.7473 85.5671C36.2979 85.5671 35.1284 84.4005 35.1284 82.9681C35.1284 81.5358 36.2979 80.3691 37.7473 80.3691C39.1968 80.3691 40.3663 81.5358 40.3663 82.9681Z" stroke="#000920"/>
<path d="M7.5201 96.9844C7.5201 98.9057 5.95166 100.469 4.01005 100.469C2.06844 100.469 0.5 98.9057 0.5 96.9844C0.5 95.0631 2.06847 93.5 4.01005 93.5C5.95162 93.5 7.5201 95.0631 7.5201 96.9844Z" stroke="#000920"/>
<path d="M35.0195 106.874C35.0195 109.224 33.1018 111.134 30.7297 111.134C28.3576 111.134 26.4399 109.224 26.4399 106.874C26.4399 104.525 28.3575 102.615 30.7297 102.615C33.1019 102.615 35.0195 104.525 35.0195 106.874Z" stroke="#000920"/>
<path d="M23.212 68.1367C23.212 69.3246 22.242 70.293 21.0386 70.293C19.8352 70.293 18.8652 69.3246 18.8652 68.1367C18.8652 66.9489 19.8352 65.9805 21.0386 65.9805C22.242 65.9805 23.212 66.9489 23.212 68.1367Z" stroke="#000920"/>
<path d="M10.1794 74.8881C10.1794 76.8705 8.56107 78.4831 6.55796 78.4831C4.55485 78.4831 2.93652 76.8705 2.93652 74.8881C2.93652 72.9055 4.55486 71.293 6.55796 71.293C8.56106 71.293 10.1794 72.9055 10.1794 74.8881Z" stroke="#000920"/>
<path d="M23.6576 42.7917C23.6576 43.9184 22.7375 44.8373 21.5957 44.8373C20.4538 44.8373 19.5337 43.9184 19.5337 42.7917C19.5337 41.665 20.4538 40.7461 21.5957 40.7461C22.7375 40.7461 23.6576 41.6649 23.6576 42.7917Z" stroke="#000920"/>
<path d="M41.9257 66.4772C41.9257 68.3375 40.4071 69.851 38.5271 69.851C36.647 69.851 35.1284 68.3375 35.1284 66.4772C35.1284 64.617 36.647 63.1035 38.5271 63.1035C40.4071 63.1035 41.9257 64.617 41.9257 66.4772Z" stroke="#000920"/>
<path d="M81.9149 44.4518C81.9149 46.4954 80.2467 48.1576 78.182 48.1576C76.1174 48.1576 74.4492 46.4954 74.4492 44.4518C74.4492 42.4083 76.1174 40.7461 78.182 40.7461C80.2467 40.7461 81.9149 42.4083 81.9149 44.4518Z" stroke="#000920"/>
<path d="M97.955 25.4154C97.955 27.0311 96.6359 28.3464 95.0019 28.3464C93.3679 28.3464 92.0488 27.0311 92.0488 25.4154C92.0488 23.7996 93.3679 22.4844 95.0019 22.4844C96.6359 22.4844 97.955 23.7996 97.955 25.4154Z" stroke="#000920"/>
<path d="M126.693 18.4421C126.693 20.1191 125.325 21.4838 123.629 21.4838C121.933 21.4838 120.564 20.1189 120.564 18.4421C120.564 16.7653 121.933 15.4004 123.629 15.4004C125.325 15.4004 126.693 16.7651 126.693 18.4421Z" stroke="#000920"/>
<path d="M107.646 5.05081C107.646 6.9722 106.078 8.53521 104.136 8.53521C102.194 8.53521 100.626 6.9722 100.626 5.05081C100.626 3.12941 102.194 1.56641 104.136 1.56641C106.078 1.56641 107.646 3.12941 107.646 5.05081Z" stroke="#000920"/>
<path d="M138.947 49.2116C138.947 51.0718 137.428 52.5853 135.548 52.5853C133.668 52.5853 132.149 51.0718 132.149 49.2116C132.149 47.3514 133.668 45.8379 135.548 45.8379C137.428 45.8379 138.947 47.3514 138.947 49.2116Z" stroke="#000920"/>
<path d="M155.21 45.6686C155.21 46.9787 154.14 48.0463 152.814 48.0463C151.487 48.0463 150.417 46.9786 150.417 45.6686C150.417 44.3587 151.487 43.291 152.814 43.291C154.14 43.291 155.21 44.3586 155.21 45.6686Z" stroke="#000920"/>
<path d="M78.7958 89.0547C78.7958 90.426 77.6762 91.543 76.2883 91.543C74.9004 91.543 73.7808 90.426 73.7808 89.0547C73.7808 87.6835 74.9004 86.5664 76.2883 86.5664C77.6762 86.5664 78.7958 87.6835 78.7958 89.0547Z" stroke="#000920"/>
<path d="M63.3128 99.0169C63.3128 100.816 61.8441 102.28 60.0256 102.28C58.207 102.28 56.7383 100.816 56.7383 99.0169C56.7383 97.2179 58.207 95.7539 60.0256 95.7539C61.8441 95.7539 63.3128 97.2179 63.3128 99.0169Z" stroke="#000920"/>
<path d="M55.8496 135.54C55.8496 137.156 54.5305 138.471 52.8965 138.471C51.2625 138.471 49.9434 137.156 49.9434 135.54C49.9434 133.924 51.2625 132.609 52.8965 132.609C54.5305 132.609 55.8496 133.924 55.8496 135.54Z" stroke="#000920"/>
<path d="M85.5906 137.531C85.5906 138.353 84.92 139.023 84.0856 139.023C83.2511 139.023 82.5806 138.353 82.5806 137.531C82.5806 136.71 83.2513 136.039 84.0856 136.039C84.9198 136.039 85.5906 136.71 85.5906 137.531Z" stroke="#000920"/>
<path d="M107.757 114.401C107.757 115.161 107.136 115.783 106.364 115.783C105.591 115.783 104.97 115.161 104.97 114.401C104.97 113.641 105.591 113.02 106.364 113.02C107.137 113.02 107.757 113.641 107.757 114.401Z" stroke="#000920"/>
<path d="M142.957 73.2279C142.957 74.2935 142.087 75.1628 141.006 75.1628C139.926 75.1628 139.056 74.2936 139.056 73.2279C139.056 72.1621 139.926 71.293 141.006 71.293C142.087 71.293 142.957 72.1623 142.957 73.2279Z" stroke="#000920"/>
<path d="M123.352 27.2969C123.352 29.0349 121.934 30.4493 120.176 30.4493C118.419 30.4493 117 29.0348 117 27.2969C117 25.559 118.419 24.1445 120.176 24.1445C121.934 24.1445 123.352 25.5589 123.352 27.2969Z" stroke="#000920"/>
<path d="M128.142 2.83725C128.142 3.90283 127.272 4.77217 126.191 4.77217C125.111 4.77217 124.241 3.90296 124.241 2.83725C124.241 1.77155 125.111 0.902344 126.191 0.902344C127.272 0.902344 128.142 1.77169 128.142 2.83725Z" stroke="#000920"/>
<path d="M17.9771 56.4063C17.9771 57.5941 17.0071 58.5625 15.8037 58.5625C14.6004 58.5625 13.6304 57.5941 13.6304 56.4063C13.6304 55.2184 14.6004 54.25 15.8037 54.25C17.0071 54.25 17.9771 55.2184 17.9771 56.4063Z" stroke="#000920"/>
<path d="M17.3087 108.313C17.3087 109.99 15.9396 111.355 14.2442 111.355C12.5488 111.355 11.1797 109.99 11.1797 108.313C11.1797 106.636 12.5488 105.271 14.2442 105.271C15.9396 105.271 17.3087 106.636 17.3087 108.313Z" stroke="#000920"/>
<path d="M46.0474 88.7227C46.0474 89.9105 45.0774 90.8789 43.874 90.8789C42.6707 90.8789 41.7007 89.9105 41.7007 88.7227C41.7007 87.5349 42.6707 86.5664 43.874 86.5664C45.0774 86.5664 46.0474 87.5349 46.0474 88.7227Z" stroke="#000920"/>
<path d="M69.9962 56.4063C69.9962 57.5941 69.0261 58.5625 67.8228 58.5625C66.6194 58.5625 65.6494 57.5941 65.6494 56.4063C65.6494 55.2184 66.6194 54.25 67.8228 54.25C69.0261 54.25 69.9962 55.2184 69.9962 56.4063Z" stroke="#000920"/>
<path d="M72.0013 28.625C72.0013 30.1796 70.7321 31.4453 69.1596 31.4453C67.5871 31.4453 66.3179 30.1796 66.3179 28.625C66.3179 27.0704 67.5871 25.8047 69.1596 25.8047C70.7321 25.8047 72.0013 27.0704 72.0013 28.625Z" stroke="#000920"/>
<path d="M40.3663 48.4369C40.3663 49.8692 39.1968 51.0358 37.7473 51.0358C36.2979 51.0358 35.1284 49.8692 35.1284 48.4369C35.1284 47.0045 36.2979 45.8379 37.7473 45.8379C39.1968 45.8379 40.3663 47.0046 40.3663 48.4369Z" stroke="#000920"/>
<path d="M164.121 94.5886C164.121 95.7152 163.201 96.6341 162.059 96.6341C160.917 96.6341 159.997 95.7152 159.997 94.5886C159.997 93.4618 160.917 92.543 162.059 92.543C163.201 92.543 164.121 93.4618 164.121 94.5886Z" stroke="#000920"/>
<path d="M177.822 95.4746C177.822 96.4792 177.002 97.2989 175.983 97.2989C174.964 97.2989 174.144 96.4792 174.144 95.4746C174.144 94.4701 174.964 93.6504 175.983 93.6504C177.002 93.6504 177.822 94.4701 177.822 95.4746Z" stroke="#000920"/>
<path d="M188.181 33.6061C188.181 34.7329 187.261 35.6517 186.119 35.6517C184.977 35.6517 184.057 34.7329 184.057 33.6061C184.057 32.4794 184.977 31.5605 186.119 31.5605C187.261 31.5605 188.181 32.4794 188.181 33.6061Z" stroke="#000920"/>
<path d="M83.8087 3.50132C83.8087 4.93367 82.6392 6.1003 81.1897 6.1003C79.7403 6.1003 78.5708 4.93368 78.5708 3.50132C78.5708 2.06896 79.7403 0.902344 81.1897 0.902344C82.6392 0.902344 83.8087 2.06897 83.8087 3.50132Z" stroke="#000920"/>
<path d="M132.263 91.4896C132.263 93.8388 130.346 95.7488 127.973 95.7488C125.601 95.7488 123.684 93.8389 123.684 91.4896C123.684 89.1403 125.601 87.2305 127.973 87.2305C130.346 87.2305 132.263 89.1403 132.263 91.4896Z" stroke="#000C2D"/>
<path d="M117.56 96.5808C117.56 98.9911 115.592 100.951 113.158 100.951C110.725 100.951 108.757 98.9912 108.757 96.5808C108.757 94.1704 110.725 92.2109 113.158 92.2109C115.592 92.2109 117.56 94.1705 117.56 96.5808Z" stroke="#000C2D"/>
<path d="M132.263 113.516C132.263 114.887 131.144 116.004 129.756 116.004C128.368 116.004 127.248 114.887 127.248 113.516C127.248 112.144 128.368 111.027 129.756 111.027C131.144 111.027 132.263 112.144 132.263 113.516Z" stroke="#000C2D"/>
<path d="M100.405 129.341C100.405 131.324 98.7871 132.936 96.784 132.936C94.7809 132.936 93.1626 131.324 93.1626 129.341C93.1626 127.359 94.781 125.746 96.784 125.746C98.787 125.746 100.405 127.359 100.405 129.341Z" stroke="#000C2D"/>
<path d="M107.089 81.308C107.089 83.1071 105.621 84.571 103.802 84.571C101.983 84.571 100.515 83.1071 100.515 81.308C100.515 79.5088 101.983 78.0449 103.802 78.0449C105.621 78.0449 107.089 79.5088 107.089 81.308Z" stroke="#000C2D"/>
<path d="M103.301 150.15C103.301 151.399 102.282 152.417 101.017 152.417C99.7518 152.417 98.7319 151.399 98.7319 150.15C98.7319 148.901 99.7518 147.883 101.017 147.883C102.282 147.883 103.301 148.901 103.301 150.15Z" stroke="#000C2D"/>
<path d="M91.2715 179.147C91.2715 180.091 90.5009 180.861 89.5437 180.861C88.5865 180.861 87.8159 180.091 87.8159 179.147C87.8159 178.204 88.5863 177.434 89.5437 177.434C90.5011 177.434 91.2715 178.204 91.2715 179.147Z" stroke="#000C2D"/>
<path d="M83.3628 182.91C83.3628 184.098 82.3928 185.066 81.1895 185.066C79.986 185.066 79.0161 184.098 79.0161 182.91C79.0161 181.722 79.986 180.754 81.1895 180.754C82.3928 180.754 83.3628 181.722 83.3628 182.91Z" stroke="#000C2D"/>
<path d="M80.6894 167.193C80.6894 167.831 80.1679 168.354 79.5185 168.354C78.8691 168.354 78.3477 167.831 78.3477 167.193C78.3477 166.555 78.8687 166.033 79.5185 166.033C80.1683 166.033 80.6894 166.555 80.6894 167.193Z" stroke="#000C2D"/>
<path d="M87.2615 149.818C87.2615 150.883 86.3911 151.753 85.3109 151.753C84.2308 151.753 83.3604 150.883 83.3604 149.818C83.3604 148.752 84.2306 147.883 85.3109 147.883C86.3912 147.883 87.2615 148.752 87.2615 149.818Z" stroke="#000C2D"/>
<path d="M105.195 140.298C105.195 141.547 104.176 142.565 102.911 142.565C101.646 142.565 100.626 141.547 100.626 140.298C100.626 139.049 101.646 138.031 102.911 138.031C104.176 138.031 105.195 139.049 105.195 140.298Z" stroke="#000C2D"/>
<path d="M145.853 94.9206C145.853 96.2307 144.783 97.2982 143.457 97.2982C142.13 97.2982 141.061 96.2308 141.061 94.9206C141.061 93.6104 142.13 92.543 143.457 92.543C144.783 92.543 145.853 93.6105 145.853 94.9206Z" stroke="#000C2D"/>
<path d="M113.438 123.475C113.438 125.152 112.069 126.517 110.374 126.517C108.678 126.517 107.309 125.152 107.309 123.475C107.309 121.798 108.678 120.434 110.374 120.434C112.069 120.434 113.438 121.798 113.438 123.475Z" stroke="#000C2D"/>
<path d="M78.7958 132.109C78.7958 132.747 78.2743 133.27 77.6249 133.27C76.9756 133.27 76.4541 132.747 76.4541 132.109C76.4541 131.472 76.9754 130.949 77.6249 130.949C78.2745 130.949 78.7958 131.472 78.7958 132.109Z" stroke="#000920"/>
</svg>
