<svg width="135" height="101" viewBox="0 0 135 101" fill="none" xmlns="http://www.w3.org/2000/svg">
<path fill-rule="evenodd" clip-rule="evenodd" d="M37.0247 83.354C37.0403 78.0114 37.143 72.6669 37.3233 67.3274C37.4572 63.3699 37.6287 59.4096 37.9605 55.4633C38.0919 53.8999 38.2447 52.3352 38.4852 50.7843C38.6342 49.824 38.7711 48.7778 39.1763 47.8837C39.309 47.5911 39.4371 47.4008 39.7193 47.2511C40.763 46.6972 42.1929 46.6158 43.3435 46.4989C45.2299 46.3073 47.1393 46.252 49.0348 46.2911C48.9237 48.33 48.8127 50.369 48.7017 52.4078C48.6162 53.9781 48.5306 55.5485 48.4452 57.1187C48.3912 58.1099 48.261 59.1293 48.2816 60.122C48.2983 60.9308 49.2493 61.7048 49.7328 62.3363C50.3258 60.5223 50.9187 58.7084 51.5118 56.8945C51.8254 57.7041 52.1605 58.5067 52.525 59.2944C52.7655 59.814 53.0104 60.3489 53.3293 60.8265C53.6207 61.2629 53.7061 61.3244 54.2125 61.25C54.8222 61.1604 55.2851 60.9796 55.6455 61.4328C55.9649 61.8346 56.2624 62.2443 56.6091 62.6257C60.4369 66.8358 66.3357 69.4503 71.8014 70.6331C75.0206 71.3296 78.2682 71.8952 81.4861 72.6055C86.3993 73.69 91.4459 74.7593 96.1386 76.6129C96.874 76.9034 97.6174 77.2155 98.2884 77.6382C99.0283 78.1041 99.5567 78.8091 100.069 79.5072C101.32 81.2129 102.786 84.0105 100.857 85.7908C99.3776 87.1556 97.0665 87.2926 95.145 87.4462C93.1588 87.6051 91.1657 87.6825 89.1745 87.7472C83.751 87.9235 78.3223 87.9616 72.8964 87.9667C67.9388 87.9705 62.9805 87.9425 58.0238 87.8477C55.7752 87.8047 53.6083 87.8569 51.4324 87.2799C46.9792 86.099 42.5388 84.8697 38.0965 83.6487C37.7393 83.5506 37.382 83.4524 37.0247 83.354Z" fill="#FF909A"/>
<path fill-rule="evenodd" clip-rule="evenodd" d="M82.2771 36.6622C82.069 36.8784 82.4062 37.0449 82.558 37.0921C82.5335 36.8836 82.4329 36.7893 82.2771 36.6622ZM53.7617 77.3055C53.6814 77.1164 53.5618 76.9608 53.3431 77.0501C52.9814 77.1976 53.713 77.3035 53.7617 77.3055ZM85.2045 46.833C85.354 46.8515 85.9654 46.8132 85.7764 46.4805C85.5573 46.0949 85.2562 46.7136 85.2045 46.833ZM74.2409 43.4217C74.5623 43.1462 74.8503 42.725 74.8537 42.2873C74.5507 42.4884 74.3888 43.1107 74.2409 43.4217ZM81.9483 37.8899C82.216 37.9034 81.971 37.5265 81.9737 37.4514C81.9792 37.2903 82.1299 37.152 82.1055 36.9609C82.1045 36.9531 81.8347 36.349 81.7635 36.3106C81.5632 36.2027 81.4468 36.4004 81.2671 36.4615C81.0009 36.5522 80.871 36.4722 80.5852 36.5001C80.3333 36.5247 80.1212 36.6472 79.8579 36.6471C79.7955 36.6471 79.7263 36.5145 79.6545 36.5219C79.5426 36.5333 79.5319 36.676 79.4528 36.6831C79.1746 36.7079 79.1584 36.5974 78.899 36.4936C78.4677 36.3211 78.1651 36.7225 78.1749 37.1968C78.1876 37.8252 78.8431 38.082 79.3453 38.2264C79.993 38.4125 80.3528 38.5247 81.0109 38.4075C81.2012 38.3734 81.3945 38.4341 81.5447 38.3028C81.7466 38.1263 81.6395 37.754 81.8699 37.582C81.8961 37.6846 81.9221 37.7873 81.9483 37.8899ZM59.1616 62.8901C59.2154 63.3007 59.1026 63.5122 59.5009 63.7873C59.7361 63.9498 60.0317 64.0568 60.2808 64.2196C60.6415 64.4554 61.1821 64.6069 61.5021 64.878C61.7053 65.0502 61.7415 65.5376 62.0232 65.5966C62.2629 65.6467 62.5487 65.2135 62.6309 65.0185C62.7219 64.8024 62.6611 64.6245 62.6981 64.4087C62.7229 64.2639 62.8313 64.2338 62.8122 64.0636C62.7924 63.8851 62.6193 63.7909 62.5441 63.6492C62.4767 63.5223 62.4563 63.3423 62.4036 63.2421C62.2791 63.0063 62.0028 62.5053 61.7564 62.3492C61.5489 62.8939 61.3916 62.342 61.1039 62.1821C60.9966 62.1792 60.8891 62.1781 60.7818 62.1793C60.7262 62.1263 60.6695 62.0744 60.612 62.0236C60.4794 62.0113 60.2608 62.0821 60.1411 62.1191C60.0754 62.1041 60.0087 62.0953 59.9411 62.0928C59.8514 62.119 59.8158 62.1689 59.8347 62.2426C59.8737 62.2247 59.657 62.3562 59.6364 62.3703C59.2086 62.6609 58.8161 62.7769 58.7368 63.3951C58.8785 63.2269 59.0201 63.0585 59.1616 62.8901ZM62.498 40.8156C62.0406 39.6301 62.1858 38.5857 62.23 37.3449C62.2404 37.0536 62.3025 36.4287 61.998 36.2353C61.6181 35.9943 61.3019 36.5395 61.1035 36.7652C60.7629 37.1525 60.2875 37.5081 60.113 38.0107C59.9588 38.4542 60.1178 38.9982 60.2354 39.4376C60.3622 39.9111 60.5189 40.5476 60.9499 40.8098C61.4102 41.0898 62.0342 41.0623 62.498 40.8156ZM78.6217 66.0269C78.5559 65.1183 77.2922 65.4367 76.7239 65.7168C76.299 65.9263 76.0612 66.2458 75.7936 66.6256C75.4898 67.0568 75.3903 67.1772 75.4145 67.6899C75.4367 68.1575 75.4107 68.6279 75.5278 69.0932C75.5873 69.3294 75.6006 69.3711 75.7573 69.5338C75.7569 69.5334 76.0288 69.8042 75.9531 69.7609C76.3037 69.9611 76.8266 69.9946 77.2385 70.0256C77.8273 70.0698 77.9689 70.0778 78.2079 69.5183C78.2538 69.6157 78.2998 69.713 78.3456 69.8105C78.3603 69.7416 78.5239 68.9242 78.4862 68.9323C78.4201 68.9465 78.3493 69.1366 78.3169 69.185C78.3374 68.8085 78.6054 68.5271 78.7352 68.1913C78.8548 67.8827 78.9038 67.5331 78.996 67.2138C79.0852 66.9048 79.185 66.4748 79.0987 66.1541C78.9841 65.7281 78.9479 65.8494 78.6217 66.0269ZM86.2512 45.9984C86.4565 46.1919 86.2735 46.5047 86.3002 46.7443C86.5793 46.5732 86.4825 46.4816 86.5906 46.2032C86.6602 46.0239 86.8653 45.6809 87.0445 45.9747C87.1198 46.0982 86.8707 46.2679 87.0393 46.3405C87.1385 46.3831 87.4023 46.0511 87.4506 45.9989C87.7831 45.6389 87.9959 45.2708 88.0234 44.7797C88.0311 44.6453 88.0291 44.3099 87.9813 44.2328C87.8431 44.01 87.4754 44.1417 87.507 43.7345C87.6534 43.8073 87.7997 43.88 87.9461 43.9529C87.9916 43.4949 87.4972 43.2238 87.2906 42.8603C87.0552 42.4462 86.9024 42.1449 86.5189 41.7886C86.3419 41.6241 86.0539 41.2852 85.824 41.206C85.6453 41.1445 85.5729 41.2354 85.3926 41.2371C85.0156 41.2406 84.4491 41.1387 85.0103 41.5569C84.8962 41.6104 84.7464 41.6437 84.6493 41.728C84.5772 41.7905 84.5502 41.9689 84.4658 42.0117C84.2835 42.1037 84.1471 41.9241 83.9413 42.1286C83.7247 42.3441 83.9465 42.48 83.8982 42.5749C83.7595 42.8481 83.5685 42.7122 83.5747 43.1286C83.5848 43.8151 83.9801 44.6277 84.1929 45.2692C84.318 45.6462 84.4578 46.2358 84.9853 46.0813C84.9653 46.2627 84.9194 46.4387 85.0372 46.6006C85.1473 46.4711 85.1867 46.1867 85.2609 46.0346C85.3703 45.8105 85.5484 45.594 85.6741 45.3761C85.6557 45.7205 85.6184 45.8163 85.3843 46.0771C85.6923 46.1148 86.0717 46.3616 86.2512 45.9984ZM63.7157 55.9751C63.9982 55.7611 63.6272 55.5224 64.1845 55.6438C64.3267 55.6748 64.1839 55.841 64.3985 55.8471C64.4795 55.8493 64.6782 55.65 64.7344 55.6031C64.7858 55.5603 65.0167 55.249 65.0538 55.2289C64.9917 55.2623 65.3342 55.1296 65.2273 55.2157C65.4312 55.0515 65.5866 54.7813 65.6782 54.453C65.9031 53.648 65.871 52.6861 65.4048 51.9946C65.2094 51.7048 65.0534 51.351 64.759 51.1565C64.3596 50.8927 63.6994 50.7358 63.2533 50.5683L63.3977 50.217C62.1731 50.7705 61.3285 52.0626 61.2254 53.3754C61.1883 53.8476 61.0538 54.4473 61.3414 54.8659C61.6415 55.3029 62.3984 55.7623 62.8163 55.2769C62.7528 55.5474 62.9391 55.8709 63.225 55.9403C63.3331 55.9666 63.4352 55.8881 63.483 55.8951C63.5439 55.9038 63.6724 55.9837 63.7157 55.9751ZM52.4742 28.567C51.6513 28.469 51.7789 29.9553 51.9333 30.4017C52.0577 30.7617 52.5036 31.2628 52.7396 31.5765C53.0207 31.9501 53.3958 32.229 53.7947 32.4674C53.9314 32.5491 54.0315 32.5753 54.1495 32.6209C54.1914 32.5792 54.2416 32.5575 54.3001 32.5557C54.3515 32.6414 54.4244 32.7056 54.5185 32.7481C54.8177 32.8412 55.3128 32.827 55.6102 32.8145C56.0894 32.7942 56.649 32.5185 57.1257 32.4265C57.3485 32.3835 57.4725 32.3662 57.6695 32.2504C57.7688 32.1922 57.9632 31.7431 57.9909 32.1842C58.1137 32.1085 58.0749 31.9841 58.1648 31.9288C58.2505 31.8759 58.5247 31.825 58.6269 31.7086C58.7695 31.5463 58.959 31.1761 59.0581 30.9544C59.1219 30.8121 59.2571 30.4455 59.2464 30.2974C59.2238 29.9837 59.1227 30.0559 58.8547 29.926C58.6756 29.8392 58.5725 29.7665 58.3935 29.7185C58.3727 29.713 58.323 29.8199 58.2879 29.8107C58.2264 29.7948 58.2017 29.724 58.1587 29.7102C57.8318 29.6042 57.4459 29.29 57.0417 29.3204C56.8672 29.3335 56.7037 29.5995 56.614 29.5859C56.4762 29.565 56.545 29.282 56.4488 29.1794C56.2036 28.9182 55.3853 28.9604 55.0676 28.9152C54.2039 28.7921 53.3394 28.6773 52.4742 28.567ZM81.2985 51.1588C81.3773 50.5421 81.4743 49.9297 80.7981 49.6261C80.5443 49.5122 80.3331 49.5534 80.0728 49.5225C79.7347 49.4823 79.7839 49.3367 79.533 49.6995C79.3942 49.5213 79.4864 49.4635 79.2593 49.4423C79.1655 49.4336 78.7564 49.6998 78.65 49.7433C78.2062 49.9249 77.6409 49.9081 77.3061 50.2743C76.9808 50.6303 76.7176 50.9725 76.5804 51.4582C76.5113 51.7028 76.4658 51.9562 76.3803 52.1964C76.2878 52.4561 76.0799 52.6799 76.0088 52.9397C75.719 53.997 76.9506 54.962 77.8157 55.2425C77.9271 55.2197 78.0364 55.2269 78.1436 55.264C78.2191 55.3138 78.2867 55.3726 78.3466 55.4403C78.6188 55.5257 78.6835 55.4975 78.9605 55.3726C79.4171 55.1668 79.9505 55.0967 80.2961 55.5783C80.4028 55.0178 80.7919 55.3513 80.9791 54.9903C81.0824 54.7912 80.8566 54.2396 80.9875 54.0962C81.2096 53.8525 81.9024 54.2858 81.8845 53.7166C81.8779 53.5092 81.6423 53.4406 81.5606 53.2767C81.414 52.9825 81.4954 52.6711 81.6992 52.4126C81.7183 52.4572 81.7921 52.7503 81.8898 52.6727C82.1488 52.4666 81.7229 52.1421 81.6299 52.0296C81.4767 51.8443 81.3373 51.7028 81.3715 51.4441C81.3927 51.2837 81.65 51.1168 81.6408 50.9608C81.6337 50.8421 81.3157 51.1449 81.2985 51.1588ZM69.2654 57.8165C69.2829 58.2487 69.0068 58.3052 68.8249 58.6025C68.7754 58.6835 68.7721 58.8775 68.703 58.9962C68.5738 59.2189 68.484 59.2327 68.4426 59.4496C68.4472 59.4254 68.5117 59.6644 68.5133 59.6917C68.5311 59.9968 68.319 60.2407 68.3773 60.5762C68.4593 61.0482 68.8179 61.5738 69.0708 61.9664C69.6425 62.8538 70.4417 63.5418 71.5365 63.6045C72.2677 63.6465 73.988 63.3541 74.1447 62.5896C74.1034 62.501 74.0685 62.4097 74.0399 62.3158C74.0231 62.18 74.0735 62.0873 74.191 62.0377C74.2812 62.0139 74.3519 61.9638 74.4028 61.8871C74.378 61.8094 74.3373 61.741 74.2807 61.6821C74.301 61.5798 74.4734 61.5748 74.4706 61.5088C74.4655 61.3859 74.3574 61.0781 74.3285 60.938C74.2782 60.696 74.2507 60.4656 74.2067 60.2221C74.1709 60.0251 74.05 59.9277 74.019 59.747C73.9977 59.6238 74.1229 59.512 74.1122 59.3813C74.0299 59.3075 73.963 59.2215 73.9117 59.1233C73.9059 59.0212 73.931 58.9265 73.987 58.8394C73.8642 57.9797 72.6477 57.2575 71.7824 57.2378C71.3175 57.2272 70.5237 57.1938 70.1057 57.4367C69.8262 57.5989 69.6388 58.1746 69.2654 57.8165ZM50.6029 88.1184C49.9918 87.8429 49.4444 87.5494 48.7899 87.4156C48.3175 87.319 47.912 87.0536 47.4372 86.9671C46.3855 86.7753 45.2497 86.5984 44.241 86.2297C43.1594 85.8341 41.9816 85.6925 40.8731 85.3637C40.3274 85.2018 39.851 85.0957 39.2866 85.0644C38.7366 85.034 38.1712 84.7273 37.6215 84.7791C37.162 84.8225 36.8343 85.1755 36.4748 85.4271C36.0085 85.7534 35.5001 86.0347 34.9991 86.3041C34.4674 86.5901 33.8751 86.7335 33.3503 87.0124C32.9146 87.2439 32.4867 87.4698 32.0375 87.6821C29.6507 88.8099 27.346 89.8634 25.1935 91.4326C25.8876 91.6438 26.6772 91.4333 27.367 91.3589C28.3474 91.2529 29.3243 91.1733 30.2949 90.9917C30.8629 90.8856 31.9716 90.4804 32.5139 90.7918C32.9905 91.0653 32.954 91.7676 33.0223 92.2373C33.4722 92.0638 33.9202 91.8857 34.374 91.7226C34.7309 91.5944 35.3101 91.2418 35.6739 91.2294C36.6871 91.1951 36.5764 92.6171 36.4778 93.2697C37.0698 93.0686 37.6328 92.9283 38.2067 92.6792C38.6668 92.4795 39.1748 92.4354 39.6217 92.1972C40.732 91.6054 41.964 91.2346 43.1529 90.8145C44.4941 90.3404 45.8325 89.8575 47.1623 89.3517C47.7089 89.1438 48.248 88.8694 48.8071 88.7008C49.4092 88.5191 50.0256 88.3826 50.6029 88.1184ZM63.8369 33.8967C63.752 34.6965 63.8396 35.5031 63.864 36.3039C63.8927 37.2415 63.8939 38.1692 64.0153 39.1013C64.2344 40.783 64.5428 42.465 65.1448 44.0561C65.693 45.5054 66.618 46.5301 68.1845 46.8434C69.592 47.1247 70.9636 46.6422 71.8593 45.5176C72.7885 44.3515 73.0738 42.8787 73.6179 41.5272C73.8839 40.8663 74.0809 40.2018 74.3028 39.5256C74.4359 39.1205 75.0956 37.9577 74.9068 37.5416C74.7226 37.1354 73.6354 36.9965 73.259 36.7707C72.661 36.4118 72.108 35.6923 71.6517 35.1666C71.3459 34.8142 71.1673 34.5537 70.9611 35.1126C70.7132 35.7843 70.8929 36.5602 70.6615 37.2117C70.4339 37.8523 69.9371 37.2204 69.886 36.8028C69.7882 36.0011 69.9059 35.0904 69.9438 34.2846C70.0144 32.7831 70.1129 31.0463 71.4669 30.1205C72.7502 29.2431 74.143 28.97 74.8555 27.4552C75.1412 26.8479 75.4769 26.2116 75.2985 25.5321C75.0923 24.7479 74.787 23.9278 74.4868 23.1741C73.91 21.7267 73.0066 20.4665 72.2169 19.1375C72.1103 18.9583 72.0879 18.7285 71.8549 18.6779C71.5913 18.6206 70.9761 19.0689 70.7206 19.1412C70.0248 19.338 69.403 18.9298 68.7891 19.3918C68.2965 19.7626 67.8788 20.2963 67.2141 20.3351C66.928 20.3518 66.5396 20.0963 66.293 20.1573C65.9789 20.235 65.888 20.7038 65.7669 20.9672C65.4887 21.5717 65.1784 22.329 64.7196 22.8231C64.5639 22.9908 64.2888 23.0426 64.1559 23.1987C64.0011 23.3801 64.0871 23.7483 63.8654 23.7813C63.7369 23.8004 63.6343 23.6261 63.5262 23.5846C63.3425 23.5138 63.1623 23.5003 62.9657 23.5061C62.6019 23.5167 62.2245 23.6046 61.9048 23.7787C61.1614 24.1835 60.8866 24.7991 61.7801 25.1693C62.1382 25.3177 62.5271 25.4282 62.9145 25.4627C63.3397 25.5004 63.7699 25.3677 64.1903 25.4195C65.0011 25.5193 65.2504 26.1974 65.4603 26.8942C65.7488 27.8526 65.982 28.823 66.3061 29.7715C66.5708 30.5463 67.0517 31.334 67.1906 32.1434C67.2759 32.6406 67.1642 32.6035 66.8322 32.911C66.5793 33.1451 66.4273 33.4524 66.1534 33.6873C65.3896 34.3421 64.724 34.1676 63.8369 33.8967ZM113.137 80.4491C113.114 80.2783 109.493 80.605 109.082 80.5626C108.379 80.4903 107.631 80.6827 106.905 80.6581C106.262 80.6363 105.336 80.3868 104.805 80.6986C104.609 80.8142 104.604 80.9507 104.294 80.8918C104.005 80.8371 103.701 80.6333 103.485 80.4443C102.885 79.9185 102.517 79.0913 102.124 78.4094C101.338 77.0449 100.664 75.631 100.012 74.196C98.6668 71.2403 97.373 68.2677 96.0298 65.3114C95.3654 63.8491 94.7248 62.3842 94.0082 60.949C93.7024 60.3365 93.3667 59.6646 93.1313 59.0229C92.8747 58.3232 92.5374 57.6663 92.3074 56.9489C91.8199 55.4296 91.2373 53.9328 90.864 52.3704C90.7695 51.9748 90.7344 51.5605 90.6205 51.1706C90.499 50.7541 90.2508 50.398 90.0952 49.9948C89.9366 49.5839 89.9362 49.2173 89.8573 48.7973C89.7786 48.3789 89.5863 47.9709 89.4478 47.5701C88.7349 48 87.9231 48.3912 87.267 48.9022C86.6217 49.4049 85.68 49.826 85.9502 50.7349C86.1958 51.5616 86.6309 52.3217 86.8897 53.1473C87.18 54.0735 87.5367 54.979 87.8169 55.9073C88.4184 57.9004 88.9448 59.9168 89.4833 61.9277C89.7363 62.8725 90.0525 63.8191 90.2379 64.7801C90.3345 65.2799 90.3187 65.7269 90.5004 66.2112C90.678 66.6845 90.8463 67.1475 90.9921 67.6321C91.2517 68.4947 91.4995 69.3591 91.7867 70.2128C91.9422 70.6748 92.0664 71.1419 92.1769 71.6165C92.2439 71.9033 92.4715 72.455 92.4075 72.752C92.2236 73.607 91.0926 72.7358 90.822 72.3868C90.194 71.5772 89.7436 70.5868 89.2733 69.6803C87.3851 66.0403 86.4566 62.1144 85.483 58.1519C85.2271 57.1103 84.98 56.0779 84.6924 55.047C84.391 53.9668 84.3033 52.8373 83.9475 51.7632C83.5799 50.6534 83.205 49.5838 82.935 48.4419C82.8102 47.9132 82.6782 47.3848 82.5673 46.8531C82.5081 46.5692 82.5056 46.0469 82.1275 45.9904C82.371 47.7721 82.4609 49.8594 83.171 51.5304C83.8146 53.0459 84.3261 55.1223 83.6754 56.7314C83.3626 57.5052 82.8676 58.166 82.4954 58.9031C82.0791 59.7273 81.808 60.6735 81.529 61.5518C80.9514 63.3703 80.781 65.2828 80.3945 67.1431C80.1918 68.1181 80.1879 68.785 80.3637 69.7443C80.4203 70.0532 80.3205 70.2988 80.5806 70.4968C80.8423 70.6961 81.4475 70.7363 81.7709 70.8506C82.7526 71.1976 83.5966 71.4522 84.6362 71.566C85.6182 71.6736 86.5404 71.8686 87.4757 72.1903C89.1611 72.7699 90.9138 73.2031 92.5699 73.7841C93.4757 74.1019 94.3493 74.6682 95.2202 75.0743C96.126 75.4969 97.087 75.7729 97.9409 76.3003C98.8608 76.8681 99.7705 77.5276 100.642 78.1643C101.45 78.754 101.837 79.487 102.173 80.4047C102.812 82.1493 104.423 84.4134 102.935 86.1738C103.456 86.4005 104.053 86.4906 104.553 86.733C104.726 86.8167 104.777 86.8984 104.974 86.9465C105.23 87.0095 105.56 86.9592 105.823 86.9763C106.203 87.001 107.004 87.2744 107.375 87.1639C107.721 87.0606 107.736 86.5581 107.985 86.31C108.354 85.9423 108.708 86.1795 109.16 86.1385C109.828 86.0779 110.495 85.9902 111.164 85.9318C112.514 85.8141 113.86 85.7864 115.215 85.7895C114.509 85.0069 111.916 86.4313 111.853 85.0136C111.779 83.3731 113.781 83.8653 114.754 83.3921C113.87 83.4181 112.985 83.4267 112.102 83.4968C111.566 83.5394 110.536 83.7958 110.233 83.207C109.908 82.574 110.431 81.8417 110.922 81.5111C111.601 81.0537 112.386 80.762 113.137 80.4491ZM39.3497 58.5757C39.1874 58.8992 39.4387 59.0295 39.5526 59.2903C39.7099 59.6506 39.5546 59.579 39.523 59.918C39.5019 60.1454 39.5639 60.2527 39.551 60.4656C39.5457 60.5562 39.4168 60.6766 39.4017 60.7797C39.3744 60.9647 39.4745 61.0499 39.4636 61.1843C39.4582 61.251 39.5445 61.2628 39.5268 61.3595C39.5116 61.4438 39.3175 61.5031 39.306 61.5561C39.2403 61.8634 39.4245 61.7096 39.4527 61.8553C39.4998 62.0984 39.363 62.1401 39.2851 62.3638C39.1509 62.7495 39.2807 62.9293 39.3636 63.291C39.4339 63.596 39.3296 63.5981 39.29 63.8894C39.2659 64.066 39.317 64.0875 39.3162 64.2518C39.3138 64.8191 39.1869 65.4091 39.1816 66.0102C39.1691 67.4329 39.0487 68.8349 39.0307 70.2542C39.0129 71.6487 38.9114 73.0606 38.8504 74.4727C38.8206 75.1611 38.7508 75.8472 38.7207 76.5358C38.6856 77.3354 38.7638 78.1311 38.6965 78.9276C38.6353 79.6515 38.672 80.3779 38.642 81.1038C38.628 81.4482 38.4507 82.4904 38.6769 82.722C38.9707 83.0227 40.1611 82.7026 40.5462 82.7237C41.27 82.7633 42.0332 82.909 42.7424 83.0584C44.4232 83.4125 46.1079 83.8633 47.7894 84.1809C49.1914 84.4456 50.5068 85.1191 51.8118 85.689C51.6922 84.4902 51.4811 83.3207 51.4421 82.1124C51.4071 81.0263 51.5094 79.946 51.4854 78.8613C51.4339 76.547 51.3028 74.2583 51.3545 71.9444C51.4072 69.5914 51.5969 67.1888 51.9245 64.8582C52.075 63.7873 52.1925 62.6464 52.5756 61.629C52.7492 61.168 53.0318 60.83 52.9145 60.3229C52.7873 59.7737 52.5361 59.1996 52.3504 58.6669C52.2139 59.5344 51.7329 65.3147 49.7565 63.577C48.9848 62.8986 48.6275 61.4287 48.455 60.4655C48.2219 59.1634 48.3056 57.7949 48.3116 56.4773C48.3237 53.7928 48.619 51.0541 48.8897 48.3843C48.9438 47.851 49.2131 47.3741 48.529 47.3997C47.8876 47.4237 47.2285 47.5756 46.5907 47.6504C46.0386 47.7151 45.4843 47.5576 44.9582 47.6281C44.717 47.6604 44.5037 47.8033 44.2602 47.8394C43.9528 47.8851 43.6317 47.8183 43.3222 47.8186C42.8008 47.8193 42.1962 47.8165 41.7634 48.141C41.3088 48.4817 40.919 49.0456 40.7663 49.5909C40.6138 50.1363 40.6546 50.75 40.558 51.2947C40.4766 51.7538 40.4593 52.3204 40.3831 52.8418C40.0532 52.4283 40.0743 53.0251 40.0708 53.2015C40.0667 53.4145 39.8375 53.8456 39.8965 53.9706C39.9347 54.0512 40.1908 54.0086 40.2125 54.0717C40.2571 54.2019 40.1029 54.2569 40.1001 54.3542C40.0892 54.7335 40.1109 55.1255 40.11 55.5079C40.0205 55.4395 39.9308 55.3712 39.8413 55.3026C39.7942 55.405 39.7793 55.5383 39.7345 55.6418C39.7143 55.6889 39.5251 55.6759 39.5162 55.7685C39.5045 55.8893 39.7691 56.1221 39.8201 56.2541C39.9115 56.4901 39.9698 56.3969 39.8149 56.6513C39.6365 56.9442 39.3446 56.9605 39.3913 57.3862C39.4857 57.3138 39.568 57.2297 39.6385 57.1338C39.6827 57.3879 39.5722 57.6118 39.5588 57.8649C39.55 58.0303 39.7513 58.6906 39.5996 58.8011C39.5358 58.8476 39.3652 58.5936 39.3497 58.5757ZM52.6841 37.7434C52.6853 37.186 51.8716 36.3288 51.5917 35.8624C51.1454 35.1182 50.6654 34.4444 50.0979 33.7868C49.5278 33.126 48.9192 32.4962 48.3663 31.8211C48.1375 31.5419 47.9677 31.2157 47.7344 30.9423C47.4429 30.6009 47.3813 30.7059 47.0202 30.7149C46.7456 30.7219 46.5665 30.6752 46.3127 30.7568C46.1779 30.8 46.0905 30.8643 45.9457 30.9042C45.8551 30.9293 45.7356 30.8413 45.6139 30.8838C45.313 30.9886 45.2107 31.2569 44.8476 31.2514C44.8041 31.2507 44.6647 31.1475 44.6446 31.1533C44.62 31.1604 44.5071 31.2465 44.5111 31.2456C44.4869 31.2511 44.4939 31.4219 44.4294 31.4515C44.3192 31.5023 44.2411 31.3321 44.1408 31.3432C43.8872 31.371 43.6986 31.6327 43.4181 31.6961C43.0578 31.7775 42.7461 31.6588 42.4019 31.8265C42.1269 31.9603 41.9879 32.2649 41.7592 31.9501C41.5521 32.3898 41.1709 32.2566 40.79 32.4419C40.259 32.7003 39.6833 32.8313 39.1179 33.0265C37.9544 33.428 36.7828 33.8394 35.6486 34.3227C33.296 35.3253 31.0177 36.4371 28.7177 37.5149C26.4684 38.5691 24.3879 39.9669 22.3636 41.3741C21.371 42.0639 20.3843 42.7885 19.6101 43.7331C19.3755 44.0193 18.9837 44.4638 19.1418 44.8665C19.3091 45.2923 20.0161 45.5567 20.4159 45.6383C20.9401 45.7456 21.5164 45.7816 22.05 45.8172C22.6262 45.8559 23.2451 45.8749 23.8153 45.8672C24.9392 45.8516 26.0415 45.7421 27.1707 45.7172C28.4551 45.6888 29.7143 45.4179 30.9962 45.4019C32.4053 45.3843 33.7984 45.2076 35.2096 45.2627C37.9298 45.3693 40.6476 45.4478 43.3758 45.4609C43.7152 45.4625 44.048 45.4216 44.3814 45.4808C44.6519 45.5287 44.8474 45.6233 45.1375 45.6026C45.4077 45.5832 45.6583 45.465 45.9336 45.4507C46.2953 45.4319 46.6658 45.4914 47.0293 45.4839C48.2565 45.4588 49.7121 45.3473 50.8951 45.7354C51.365 45.8897 51.9558 46.3388 51.6693 46.9208C51.3861 47.4963 50.6625 47.0272 50.2146 47.2888C49.7973 47.5325 50.0287 48.1974 50.0582 48.595C50.1138 49.3482 50.124 50.0976 50.1041 50.8525C50.0603 52.5195 49.9588 54.1845 49.9393 55.8521C49.93 56.6621 49.9416 57.4718 49.9843 58.2807C50.022 58.9947 49.9969 59.7718 50.241 60.4531C50.581 59.6024 50.6224 58.6631 50.7572 57.7666C50.9032 56.7967 51.0458 55.8268 51.1846 54.8558C51.267 54.279 51.3527 50.8147 52.4814 51.2672C53.6813 51.7482 53.2642 54.4132 53.3186 55.3714C53.37 56.2758 53.4625 57.1768 53.6674 58.0604C53.7627 58.4711 54.0247 60.2152 54.5513 60.3279C54.9375 58.5027 55.3458 56.6803 55.6298 54.8355C55.7551 54.0212 55.8657 53.2007 55.9157 52.378C55.9417 51.9498 55.91 50.9205 56.529 50.8706C58.3486 50.724 57.1279 58.3906 58.4876 59.3551C58.9905 58.3547 59.1871 57.3115 59.3236 56.2024C59.3857 55.6976 59.5185 55.1292 59.44 54.6229C59.3371 53.9604 59.2253 53.5543 59.3636 52.8698C59.4767 52.3095 59.5581 51.7341 59.6888 51.1786C59.7831 50.7783 60.0292 50.5829 60.159 50.2219C60.5247 49.2054 60.5012 47.9187 60.647 46.8518C60.7947 45.7712 60.9504 44.7088 60.7589 43.6187C60.5694 42.5392 59.7797 42.1959 58.8819 41.7502C57.9772 41.3013 57.1044 40.8078 56.111 40.6098C54.9955 40.3875 53.9718 40.1718 52.83 40.1128C50.815 40.0088 48.8403 40.1295 46.8344 40.225C44.6039 40.3312 42.3713 40.1988 40.1421 40.1682C39.0584 40.1533 37.9544 40.1324 36.8726 40.15C36.3305 40.159 35.8046 40.253 35.2589 40.2393C34.7941 40.2277 33.8853 40.3711 33.4784 40.1238C33.1591 39.9299 33.1595 39.5001 33.4291 39.2632C33.6962 39.0285 34.22 39.0161 34.5535 38.9437C35.6194 38.7123 36.6819 38.5795 37.7554 38.3938C38.3736 38.2869 38.8923 38.2514 39.5119 38.2815C40.1135 38.311 40.7271 38.139 41.3355 38.1098C42.6247 38.0482 43.9214 37.9872 45.2113 37.9671C47.711 37.9281 50.182 37.7373 52.6841 37.7434ZM53.9885 62.1944C53.7874 62.272 53.8386 63.2327 53.8203 63.4246C53.766 63.9992 53.7064 64.5731 53.6553 65.1479C53.5372 66.475 53.4483 67.8049 53.3757 69.1352C53.3032 70.4655 53.2172 71.8001 53.2216 73.1328C53.2235 73.7002 53.2489 74.267 53.2375 74.8343C53.2289 75.2584 53.0423 76.052 53.4042 76.3533C53.647 76.5554 54.1225 76.4644 54.4062 76.4457C54.9667 76.409 55.5286 76.3715 56.0906 76.3673C56.7397 76.3623 57.3844 76.4322 58.0339 76.4152C58.2831 76.4088 58.5614 76.3672 58.8081 76.4141C58.9868 76.4485 59.1819 76.6026 59.3495 76.6093C59.4729 76.6143 59.6324 76.4919 59.7688 76.4678C59.9811 76.4303 60.2301 76.4737 60.4461 76.4711C60.5997 76.4692 60.97 76.3998 61.1113 76.4906C61.2489 76.5789 61.196 76.7803 61.3218 76.8249C61.3697 76.8418 61.643 76.5173 61.6898 76.4967C61.899 76.4055 62.2041 76.4765 62.4247 76.479C63.0596 76.4861 63.6949 76.446 64.3301 76.452C64.9493 76.4578 65.5464 76.5299 66.1407 76.6018C66.5337 76.6494 66.9849 76.5301 67.4021 76.4952C68.069 76.4393 68.7387 76.4496 69.4073 76.4631C69.7429 76.4698 70.0788 76.475 70.4144 76.4833C70.4939 76.4853 70.6512 76.4544 70.7278 76.4773C71.0358 76.5697 70.8404 76.5751 71.058 76.7157C70.7725 76.5312 71.6969 76.411 71.7502 76.4106C72.1697 76.4074 72.5541 76.6135 72.9033 76.5731C73.2815 76.5295 73.6676 76.2958 74.0837 76.3682C74.2782 76.4022 74.4397 76.6197 74.5842 76.6447C74.8178 76.6851 74.8976 76.5163 75.1119 76.4319C75.5393 76.2633 76.0352 76.4102 76.4814 76.381C77.1078 76.3401 77.7109 76.3387 78.3397 76.3302C79.4868 76.3151 80.6339 76.2962 81.7811 76.3074C82.8376 76.3176 83.6863 76.7412 84.737 76.7182C85.288 76.7062 85.8484 76.6581 86.3986 76.6714C86.8711 76.6826 87.1124 77.0347 86.7553 77.4485C86.5138 77.7282 86.0704 77.7578 85.7299 77.8089C85.2245 77.8851 84.7282 77.9945 84.2245 78.0789C83.0268 78.2796 81.7733 78.2734 80.5618 78.3099C75.6211 78.4586 70.6793 78.8978 65.7356 78.9443C63.5648 78.9647 61.3709 79.1475 59.207 79.0622C57.9999 79.0146 56.8198 79.2741 55.6033 79.0876C55.0905 79.009 54.5862 78.9612 54.0691 78.9243C54.0018 78.9195 53.6069 78.8431 53.5323 78.8771C53.312 78.9774 53.435 78.8857 53.3425 79.1405C53.1909 79.559 53.2542 80.2264 53.255 80.6719C53.2565 81.382 53.2911 82.0934 53.3149 82.8031C53.3379 83.483 53.3757 84.1623 53.4162 84.8416C53.4329 85.1226 53.3223 86.1793 53.539 86.3888C53.7067 86.5511 54.4912 86.4743 54.7034 86.4289C54.958 86.3745 54.9818 86.3611 55.2575 86.3934C55.4608 86.4174 55.5331 86.4114 55.7367 86.3895C56.3197 86.3265 56.9874 86.3153 57.5727 86.4206C58.0269 86.5023 58.5041 86.2868 58.6779 86.7645C58.9718 86.4047 58.9651 86.612 59.2881 86.6843C59.6209 86.7586 59.5189 86.5437 59.8009 86.5141C59.9996 86.4934 60.1769 86.6504 60.3918 86.6518C60.7467 86.6541 61.066 86.5603 61.4456 86.6077C63.1213 86.8167 64.8206 87.0047 66.5104 87.0202C67.2115 87.0268 67.9043 87.0376 68.6016 87.0589C68.9573 87.0696 69.2937 87.1067 69.6435 87.1487C69.9732 87.1884 70.2323 87.1091 70.575 87.0917C71.3329 87.0531 72.128 87.1685 72.886 87.21C73.2424 87.2294 73.6888 87.1681 74.0306 87.215C74.3741 87.2619 74.4 87.5228 74.6731 87.6741C74.7163 86.8275 76.4865 87.3698 76.9473 87.3708C77.1283 87.3713 77.3494 87.2943 77.5678 87.3082C77.9293 87.3315 78.2934 87.3374 78.6554 87.3502C79.2327 87.3704 79.7907 87.4054 80.3391 87.3354C81.0556 87.2442 81.8338 87.3415 82.5575 87.337C83.3455 87.332 84.1336 87.3214 84.9212 87.2956C85.7192 87.2694 86.5158 87.2206 87.3137 87.195C88.0067 87.1726 88.742 87.2285 89.4252 87.1777C89.6023 87.1646 89.7717 87.0348 89.9301 87.0281C90.1496 87.0187 90.3953 87.113 90.6486 87.0913C91.447 87.0232 92.191 87.012 92.9979 87.0148C94.3822 87.0195 95.8204 86.7639 97.1476 86.3972C97.7594 86.2282 98.3952 86.219 99.0027 86.0378C99.7039 85.8284 100.346 85.4635 100.991 85.1258C101.497 84.8612 102.207 84.7381 102.002 84.0691C101.782 83.3549 101.431 82.6623 101.17 81.9607C100.942 81.3508 100.798 80.7565 100.305 80.2976C99.8181 79.8442 99.1962 79.5397 98.6775 79.1217C97.547 78.2106 96.367 77.6657 95.0283 77.1261C93.679 76.5822 92.4481 75.7801 91.0307 75.4185C89.7145 75.0826 88.4465 74.6323 87.1569 74.2881C85.7459 73.9116 84.2909 73.7751 82.8678 73.4404C81.5039 73.1195 80.1649 72.6477 78.783 72.4033C77.2878 72.1391 75.7789 72.0032 74.2893 71.6807C73.0264 71.4074 71.8215 70.872 70.552 70.6585C70.1811 70.596 69.7802 70.5579 69.4213 70.4413C69.0857 70.3323 68.8455 70.1116 68.5062 70.0222C67.7229 69.8159 67.0422 69.5346 66.3007 69.1992C65.9888 69.0581 65.816 68.8848 65.5458 68.7099C65.2235 68.5014 64.8106 68.4274 64.4489 68.3124C63.752 68.0911 63.0579 67.8735 62.4327 67.4848C61.7846 67.0822 61.1892 66.6269 60.5927 66.1563C60.3401 65.9571 60.07 65.7571 59.811 65.5707C59.492 65.3412 59.1646 65.2997 58.8071 65.1497C57.2562 64.499 56.577 62.9714 55.7322 61.6422C55.6529 62.7186 54.6231 63.2181 53.9885 62.1944ZM76.0301 43.3391C76.137 42.857 76.2894 42.1651 75.6885 42.1382C75.6499 42.1365 75.2518 42.2359 75.2108 42.2623C75.006 42.394 74.9285 42.8331 74.8504 43.0463C74.7816 43.2343 74.7339 43.4847 74.5811 43.6268C74.4304 43.7671 74.273 43.7705 74.1322 43.9386C73.7042 44.45 73.3853 45.3285 73.1263 45.9459C73.4776 45.861 73.2223 46.0966 73.3717 46.2309C73.6051 46.4406 73.5324 46.4027 73.8642 46.4352C74.4423 46.4917 74.7062 46.3377 75.1581 45.9776C75.5415 45.6723 75.6646 45.4722 75.8853 45.0314C76.2008 44.4017 76.0469 44.0005 76.0294 43.3387C76.1876 43.4843 76.3458 43.6299 76.504 43.7756C76.455 43.5848 76.4058 43.394 76.3567 43.2033L76.0301 43.3391ZM59.4003 5.27029C59.7075 4.21874 60.2814 4.14101 61.053 4.89654C61.1753 4.62629 61.3201 4.20664 61.6758 4.20899C61.9279 4.21071 61.9725 4.41456 62.1416 4.55211C62.3457 4.71848 62.5049 4.77687 62.764 4.82119C63.3293 4.91785 63.8547 4.8847 64.3868 5.13747C64.8715 5.36761 65.1021 5.70375 65.4753 6.04844C65.8245 6.3709 66.0792 6.16207 66.4778 6.32527C66.921 6.50675 67.1192 7.04384 67.2051 7.47901C67.3099 8.01136 67.2007 8.18101 67.5708 8.56752C67.9198 8.9322 68.105 9.39656 68.1471 9.89762C68.1866 10.3715 68.0821 10.9338 67.8086 11.3333C67.5007 11.7833 67.1816 11.6589 67.5825 12.1935C67.7842 12.4627 67.807 13.0357 68.0496 13.2083C68.4741 13.5098 69.0223 13.0234 69.3972 12.9009C69.9067 12.7346 69.7931 13.0128 70.0165 13.3485C70.3467 13.8442 70.5431 13.3327 70.9935 13.4317C71.159 13.4681 71.2076 13.6468 71.2658 13.6683C71.4715 13.7446 71.2531 13.7163 71.4881 13.6315C71.6443 13.5752 71.5373 13.2722 71.852 13.4451C72.0707 13.5654 71.906 13.7794 72.0055 13.9343C72.2007 14.2389 72.4907 14.0614 72.6351 14.4545C72.7787 14.846 72.9732 15.3652 73.0531 15.7932C73.1504 16.3132 72.9219 16.7658 72.9553 17.2577C72.9903 17.7715 73.4994 18.1178 73.8161 18.478C75.3691 20.2434 76.0266 22.5654 76.5332 24.8097C77.0042 26.8956 76.1754 29.257 74.5481 30.6707C73.7231 31.3875 72.6925 31.6948 71.9002 32.4836C71.5486 32.8337 71.5532 32.9446 71.9722 33.2315C72.3154 33.4665 72.6303 33.766 72.994 33.9517C73.9292 34.429 74.8404 34.7701 75.8846 34.9705C76.4112 35.0716 76.9594 35.0311 77.4922 35.0122C78.0468 34.9924 78.6728 35.0711 79.2149 35.0034C79.6937 34.9435 80.0724 34.557 80.5737 34.598C80.7702 34.6141 80.8907 34.6892 81.0907 34.6714C81.3533 34.6483 81.5743 34.5093 81.8536 34.5164C82.2783 34.5272 82.6984 34.5343 83.109 34.5498C83.5753 34.5671 84.1235 34.4394 84.5876 34.5201C85.028 34.5965 85.5518 34.9926 85.9349 35.2235C86.4072 35.5082 86.9741 35.8375 87.3969 36.1854C87.7963 36.5141 88.078 37.0373 88.3895 37.4455C88.719 37.8774 89.1002 38.2632 89.4315 38.6931C90.7358 40.3855 92.1097 42.4701 92.5175 44.6008C92.6208 45.14 92.6151 45.6725 92.5374 46.2141C92.4678 46.6978 92.014 46.8816 92.0002 47.4016C91.9722 48.454 92.4764 49.674 92.7691 50.6714C93.0775 51.7215 93.4637 52.7415 93.942 53.729C94.1272 54.1114 94.362 54.4276 94.4785 54.8237C94.6208 55.3075 94.8375 55.7665 94.996 56.2545C96.3671 60.4759 98.4926 64.4055 100.042 68.5628C100.874 70.7968 101.755 73.0116 102.663 75.217C103.11 76.3027 103.593 77.3552 104.079 78.4244C104.143 78.5649 104.188 78.8356 104.3 78.9323C104.488 79.0956 104.322 79.0027 104.585 78.9749C104.812 78.951 105.048 78.8475 105.277 78.8091C105.83 78.7162 106.396 78.7003 106.954 78.6453C107.594 78.582 108.158 78.549 108.799 78.58C109.396 78.6089 109.983 78.4316 110.577 78.3923C111.85 78.308 113.106 78.3525 114.378 78.3763C115.37 78.3948 116.639 78.277 117.556 78.7373C118.475 79.1983 118.158 80.2602 117.379 80.6646C116.445 81.1492 115.346 81.2183 114.418 81.7122C115.114 81.9265 115.867 81.8713 116.576 82.0386C117.033 82.1464 117.74 82.2261 118.085 82.5599C118.419 82.8833 118.385 83.4402 118.165 83.8195C117.89 84.2916 117.363 84.3732 116.888 84.5369C117.102 84.8204 117.434 84.7983 117.627 85.172C117.883 85.6689 117.723 86.1998 117.41 86.6295C116.73 87.5623 115.384 87.6411 114.333 87.774C113.3 87.9047 112.216 87.936 111.176 87.8653C110.584 87.8249 109.999 87.7953 109.414 87.7119C108.741 87.6159 108.806 88.0874 108.566 88.5699C108.334 89.037 108 89.2372 107.481 89.2084C106.922 89.1771 106.302 89.1391 105.747 89.0453C105.217 88.9556 104.757 88.6817 104.248 88.5676C103.79 88.4646 103.426 88.2983 102.991 88.0754C102.491 87.8196 102.225 87.3916 101.788 87.0977C101.339 86.796 100.869 87.2699 100.428 87.5059C99.3546 88.0791 98.1771 88.3327 97.0035 88.6145C95.8067 88.902 94.6413 89.2698 93.4242 89.4688C92.8577 89.5612 92.3197 89.5489 91.7559 89.609C91.1063 89.6783 90.5432 89.9264 89.8797 89.9278C87.5367 89.9326 85.1786 90.3556 82.8345 90.4338C80.514 90.5113 78.1559 90.3193 75.8379 90.4747C74.6528 90.5543 73.5057 90.3948 72.3271 90.456C71.1113 90.5194 69.8525 90.4554 68.6392 90.3625C66.1213 90.1699 63.6816 90.22 61.1902 90.0952C59.8941 90.0302 58.5727 89.9082 57.293 89.7023C56.0382 89.5006 54.6183 89.733 53.7309 88.6414C53.6333 89.0694 53.6066 89.5131 53.2939 89.8506C52.965 90.2054 52.4351 90.3486 51.9948 90.5102C50.8705 90.9228 49.734 91.3147 48.602 91.7062C47.529 92.0774 46.449 92.4795 45.3675 92.8197C44.2307 93.1772 43.1493 93.6107 42.0317 94.0305C41.0191 94.4108 39.9699 94.7113 38.9941 95.1699C38.5915 95.359 38.1699 95.3747 37.7851 95.5513C37.3098 95.7693 36.8684 95.9786 36.3592 96.1358C35.9224 96.2708 35.5229 96.3678 35.1002 96.5433C34.6817 96.717 34.0889 97.0187 33.651 96.7876C33.3431 96.6253 33.2222 96.2524 33.1276 95.9409C33.0089 95.5515 33.1101 94.8758 32.649 94.8933C32.1934 94.9106 31.5503 95.349 31.1037 95.4977C30.5694 95.6758 30.0225 95.9736 29.4721 96.0744C28.9211 96.1753 28.4873 96.145 28.1983 95.6327C27.8729 95.0561 27.9271 94.4451 28.0244 93.818C27.0865 93.8157 26.2177 93.9038 25.2716 93.9359C24.7505 93.9537 24.2436 93.9768 23.7239 93.9194C23.2548 93.8677 22.5574 94.0147 22.1505 93.8001C21.3234 93.3635 21.4465 92.1286 21.8637 91.4533C22.0954 91.0783 22.4585 90.8256 22.8275 90.5981C23.2903 90.313 23.6296 89.9896 24.0349 89.6263C23.7706 89.4442 23.4268 89.5327 23.1676 89.3157C22.9663 89.1474 22.8409 88.8665 22.749 88.6269C22.5777 88.1801 22.7985 87.1553 22.4118 86.9021C22.2053 86.767 21.8396 86.8242 21.6037 86.7159C21.2814 86.5679 21.055 86.295 20.9162 85.9703C20.6034 85.2384 20.8714 84.4764 21.1765 83.7925C20.0206 83.5954 18.3259 83.517 17.9953 82.1784C17.8896 81.7508 17.8751 81.2558 18.0206 80.8354C18.2365 80.2115 18.7394 80.1778 19.297 79.9949C21.6283 79.2298 23.8117 77.9873 26.3235 77.803C27.6688 77.7044 29.0239 77.6524 30.3677 77.5129C31.7174 77.3727 33.0185 77.1254 34.3772 77.2933C34.9552 77.3647 35.6243 77.3011 36.1771 77.4056C36.7117 77.5065 36.7795 78.1371 36.3709 78.5011C35.9737 78.8547 35.3977 78.6285 34.9248 78.6682C34.2546 78.7244 33.69 79.0415 33.0643 79.2411C31.5289 79.7311 29.8465 80.0788 28.2454 80.2548C27.3858 80.3492 26.574 80.3618 25.7326 80.591C24.9683 80.7994 24.2118 81.0359 23.4448 81.2353C24.2828 81.4594 25.9061 81.4344 26.185 82.4553C26.3161 82.9357 26.1706 83.6005 25.7482 83.8976C25.503 84.0702 24.9672 83.9914 24.8128 84.2491C25.4726 84.3301 26.2251 83.8225 26.5873 84.5485C27.0006 85.3768 26.5962 86.0307 26.0674 86.6458C26.5347 86.5683 27.0151 86.6566 27.4869 86.5967C27.8511 86.5504 28.1912 86.4409 28.5372 86.5549C28.7108 86.6121 28.6879 86.7668 28.9071 86.7677C29.0665 86.7683 29.3052 86.595 29.4435 86.5282C29.9693 86.2744 30.5029 86.0679 31.0463 85.8561C31.7075 85.5983 32.3359 85.4001 32.9958 85.2384C33.907 85.0148 34.8217 84.441 35.7107 84.1166C36.0873 83.9791 36.5715 83.8383 36.7587 83.4461C36.9517 83.0416 36.8038 82.4493 36.792 82.0215C36.7584 80.8179 36.7728 79.6126 36.7801 78.4088C36.7863 77.3963 36.8106 76.4028 36.9007 75.3943C37.0084 74.1874 36.912 72.9849 36.9582 71.7762C37.0007 70.6662 36.9011 69.5589 36.9314 68.4493C36.9652 67.2133 37.027 65.9817 37.0397 64.7442C37.0625 62.5212 37.1373 60.301 37.1803 58.0786C37.2245 55.7957 37.4665 53.5119 37.9544 51.2796C38.1729 50.2797 38.4583 49.2613 38.8388 48.3113C38.9592 48.0104 39.0855 47.9933 38.7959 47.8213C38.6242 47.7194 38.412 47.8332 38.2436 47.8559C37.8893 47.9032 37.573 47.9241 37.2124 47.9029C35.1453 47.7818 33.0051 47.8798 30.9455 48.0656C29.8744 48.1623 28.7974 48.2543 27.7219 48.2927C26.6493 48.3309 25.5767 48.4972 24.504 48.4186C22.7067 48.287 20.6567 48.4926 19.1163 47.3349C17.4726 46.0998 17.6273 43.9113 18.6888 42.3302C19.8601 40.5852 21.8166 39.591 23.4504 38.3682C25.0554 37.1668 26.9421 36.2857 28.6926 35.3182C32.44 33.2468 36.4669 31.3295 40.5016 29.898C44.6066 28.4418 48.7253 26.7676 53.1962 27.0522C55.4612 27.1964 57.9953 27.2805 59.9933 28.484C61.0606 29.1271 62.0939 29.7975 63.0109 30.6469C63.4429 31.0471 63.8237 31.5403 64.2837 31.9059C64.7112 32.2458 65.1306 32.0131 65.6192 31.8881C65.273 30.7712 64.9269 29.6542 64.5808 28.5372C64.1029 28.9081 63.4452 29.0491 62.8237 28.918C62.0692 28.7587 62.1303 28.4364 62.1978 27.7908C62.2294 27.4913 62.311 27.5425 62.0512 27.3534C61.8381 27.1982 61.4487 27.1474 61.2034 27.013C60.5915 26.6778 60.0611 26.1856 59.8356 25.5097C59.6114 24.8377 59.7702 24.2144 59.917 23.5473C60.0934 22.7453 59.6573 23.0806 59.1586 22.7077C58.9392 22.5435 58.8606 22.401 58.8983 22.1299C58.9291 21.9099 59.364 21.5931 59.3445 21.3765C59.321 21.1155 59.1757 21.1447 58.9692 20.9872C58.7414 20.8135 58.5774 20.6005 58.477 20.3271C58.2642 19.748 58.6979 19.3903 58.8797 18.8564C58.9678 18.5976 59.0544 18.3762 59.2275 18.1584C59.5342 17.7726 59.6532 17.781 60.081 17.7844C60.4412 17.7872 60.4373 17.7577 60.7071 17.432C60.8118 17.3056 60.9162 17.18 61.0067 17.0428C61.1622 16.8073 61.2053 16.8393 61.0391 16.6553C60.5325 16.0945 60.3014 16.97 59.8515 16.9171C59.3311 16.856 59.2378 16.0307 58.9115 15.7551C58.6832 15.5622 58.4227 15.6357 58.1731 15.5054C57.8677 15.3461 57.8064 15.0424 57.6082 14.788C57.2865 14.375 56.8195 14.3022 56.6049 13.7782C56.4831 13.4809 56.4664 13.1747 56.4417 12.8595C56.4063 12.4107 56.2889 12.0558 56.1583 11.6286C56.0252 11.1927 56.058 10.8778 56.2744 10.4768C56.4975 10.0636 56.5238 9.92458 56.4676 9.45851C56.4249 9.10369 56.4117 8.78872 56.5969 8.47218C56.7965 8.13104 56.8381 7.95297 56.9032 7.56436C56.9599 7.22362 57.0681 6.97822 57.3975 6.83685C57.622 6.74045 57.8651 6.84776 58.0237 6.62827C58.1819 6.40917 58.1396 6.05817 58.3022 5.81606C58.5673 5.42114 58.9661 5.35933 59.4003 5.27029Z" fill="black"/>
<path fill-rule="evenodd" clip-rule="evenodd" d="M72.5258 22.8199C72.3716 22.4578 71.856 20.7879 72.7041 20.7793C73.377 20.7725 73.1644 22.2216 73.1727 22.5774C73.1881 23.2432 73.8847 23.3377 74.1452 23.9418C74.4492 24.646 74.2395 25.4869 73.7656 26.0609C73.4039 26.499 72.7076 27.001 72.2107 26.4647C71.6581 25.8679 72.1891 25.5329 72.576 25.1613C73.1364 24.6227 72.0642 24.4662 71.7858 24.0294C71.3127 23.2869 71.832 22.9006 72.5258 22.8199Z" fill="black"/>
<path fill-rule="evenodd" clip-rule="evenodd" d="M70.0962 23.1963C70.0188 23.5401 70.0424 24.3251 69.6689 24.5104C69.0425 24.8211 68.8978 23.3224 68.9027 22.9916C68.908 22.6396 69.0297 21.8081 69.5487 21.9158C70.131 22.0367 69.8007 23.1149 70.0962 23.1963Z" fill="black"/>
<path fill-rule="evenodd" clip-rule="evenodd" d="M72.4395 27.5492C73.3656 27.578 73.3135 28.6824 72.4254 28.721C71.599 28.7569 71.6194 27.5238 72.4395 27.5492Z" fill="black"/>
<path fill-rule="evenodd" clip-rule="evenodd" d="M74.4087 44.0113C74.3222 44.3793 74.1205 44.7262 73.8181 44.9581C73.8894 44.8126 74.1988 43.9458 74.4087 44.0113Z" fill="black"/>
</svg>
