<svg width="42" height="42" viewBox="0 0 42 42" fill="none"
     xmlns="http://www.w3.org/2000/svg">
    <path d="M14.7656 7.54688H14.4375C14.618 7.54688 14.7656 7.39922 14.7656 7.21875V7.54688H27.2344V7.21875C27.2344 7.39922 27.382 7.54688 27.5625 7.54688H27.2344V10.5H30.1875V7.21875C30.1875 5.7709 29.0104 4.59375 27.5625 4.59375H14.4375C12.9896 4.59375 11.8125 5.7709 11.8125 7.21875V10.5H14.7656V7.54688ZM35.4375 10.5H6.5625C5.83652 10.5 5.25 11.0865 5.25 11.8125V13.125C5.25 13.3055 5.39766 13.4531 5.57812 13.4531H8.05547L9.06855 34.9043C9.13418 36.3029 10.2908 37.4062 11.6895 37.4062H30.3105C31.7133 37.4062 32.8658 36.307 32.9314 34.9043L33.9445 13.4531H36.4219C36.6023 13.4531 36.75 13.3055 36.75 13.125V11.8125C36.75 11.0865 36.1635 10.5 35.4375 10.5ZM29.9947 34.4531H12.0053L11.0127 13.4531H30.9873L29.9947 34.4531Z"
          fill="#6F6D68"/>
</svg>
