<svg width="42" height="42" viewBox="0 0 42 42" fill="none"
     xmlns="http://www.w3.org/2000/svg">
    <path d="M10.5697 30.8438C10.6518 30.8438 10.7338 30.8355 10.8158 30.8232L17.7146 29.6133C17.7967 29.5969 17.8746 29.56 17.932 29.4984L35.3186 12.1119C35.3566 12.074 35.3867 12.0289 35.4073 11.9793C35.4279 11.9297 35.4385 11.8765 35.4385 11.8228C35.4385 11.769 35.4279 11.7158 35.4073 11.6662C35.3867 11.6166 35.3566 11.5715 35.3186 11.5336L28.5018 4.7127C28.4238 4.63477 28.3213 4.59375 28.2105 4.59375C28.0998 4.59375 27.9973 4.63477 27.9193 4.7127L10.5328 22.0992C10.4713 22.1607 10.4344 22.2346 10.418 22.3166L9.20801 29.2154C9.16811 29.4352 9.18236 29.6613 9.24954 29.8743C9.31672 30.0872 9.4348 30.2806 9.59355 30.4377C9.86426 30.7002 10.2047 30.8438 10.5697 30.8438ZM13.3342 23.6906L28.2105 8.81836L31.217 11.8248L16.3406 26.6971L12.6943 27.341L13.3342 23.6906ZM36.0938 34.2891H5.90625C5.18027 34.2891 4.59375 34.8756 4.59375 35.6016V37.0781C4.59375 37.2586 4.74141 37.4062 4.92188 37.4062H37.0781C37.2586 37.4062 37.4062 37.2586 37.4062 37.0781V35.6016C37.4062 34.8756 36.8197 34.2891 36.0938 34.2891Z"
          fill="#6E6D68"/>
</svg>
