<svg width="67" height="85" viewBox="0 0 67 85" fill="none"
     xmlns="http://www.w3.org/2000/svg">
    <rect width="67" height="85"/>
    <g id="Frame 3">
        <rect x="-625" y="-417" width="1949" height="705"/>
        <g id="Frame">
            <path id="Vector"
                  d="M54 1H13C6.37258 1 1 6.37258 1 13V56C1 62.6274 6.37258 68 13 68H54C60.6274 68 66 62.6274 66 56V13C66 6.37258 60.6274 1 54 1Z"
                  fill="#98B7AD" fill-opacity="0.39" stroke="#92B2A9"
                  stroke-width="2"/>
            <path id="Vector_2"
                  d="M48.197 47.6461H18.023C16.266 47.6461 14.915 46.9681 14.315 45.7838C13.717 44.6012 13.978 43.127 15.033 41.7385L20.422 34.6547C22.383 32.0704 26.183 32.0641 28.157 34.6451L30.459 37.6474C31.26 38.6916 32.46 38.6936 33.271 37.6498L37.745 31.8662C39.771 29.2397 43.49 29.3897 45.304 32.1642L51.501 41.6504C52.44 43.0871 52.606 44.5912 51.952 45.7774C51.298 46.9661 49.93 47.6461 48.197 47.6461ZM17.111 44.4412C17.147 44.4412 17.429 44.5733 18.023 44.5733H48.197C48.861 44.5733 49.173 44.3954 49.221 44.3096C49.268 44.2235 49.25 43.8693 48.889 43.3192L42.692 33.833C41.992 32.7625 40.992 32.7246 40.216 33.7309L35.74 39.5161C33.755 42.0887 29.954 42.0768 27.981 39.5041L25.677 36.4994C24.878 35.4512 23.702 35.4532 22.909 36.5018L17.519 43.5849C17.152 44.0671 17.098 44.3734 17.109 44.4408C17.109 44.4412 17.11 44.4412 17.111 44.4412Z"
                  fill="#F6F5F3"/>
            <path id="Vector_3"
                  d="M31.0809 29.9192C27.4759 29.9192 24.5439 27.0223 24.5439 23.4616C24.5439 19.8986 27.4759 17 31.0809 17C34.6869 17 37.6219 19.8986 37.6219 23.4616C37.6219 27.0223 34.6869 29.9192 31.0809 29.9192ZM31.0809 20.0729C29.1909 20.0729 27.6539 21.5933 27.6539 23.4616C27.6539 25.3279 29.1909 26.8464 31.0809 26.8464C32.9729 26.8464 34.5119 25.3279 34.5119 23.4616C34.5119 21.5929 32.9719 20.0729 31.0809 20.0729Z"
                  fill="#F6F5F3"/>
            <path id="Vector_4"
                  d="M51 71H14C10.134 71 7 74.134 7 78C7 81.866 10.134 85 14 85H51C54.866 85 58 81.866 58 78C58 74.134 54.866 71 51 71Z"
                  fill="#92B2A9"/>
            <path id="Vector_5"
                  d="M13.863 79.9999V74.1499H15.969C16.275 74.1499 16.563 74.1739 16.833 74.2219C17.103 74.2639 17.337 74.3389 17.535 74.4469C17.733 74.5549 17.889 74.7049 18.003 74.8969C18.123 75.0829 18.183 75.3199 18.183 75.6079C18.183 75.7339 18.165 75.8629 18.129 75.9949C18.093 76.1209 18.042 76.2439 17.976 76.3639C17.916 76.4779 17.841 76.5799 17.751 76.6699C17.661 76.7599 17.559 76.8259 17.445 76.8679V76.9039C17.727 76.9879 17.964 77.1409 18.156 77.3629C18.354 77.5789 18.453 77.8819 18.453 78.2719C18.453 78.5719 18.39 78.8329 18.264 79.0549C18.144 79.2709 17.979 79.4509 17.769 79.5949C17.565 79.7329 17.322 79.8349 17.04 79.9009C16.758 79.9669 16.461 79.9999 16.149 79.9999H13.863ZM15.411 76.4359H15.933C16.185 76.4359 16.371 76.3819 16.491 76.2739C16.611 76.1659 16.671 76.0219 16.671 75.8419C16.671 75.6619 16.611 75.5329 16.491 75.4549C16.371 75.3769 16.185 75.3379 15.933 75.3379H15.411V76.4359ZM15.411 78.8119H16.041C16.641 78.8119 16.941 78.5959 16.941 78.1639C16.941 77.9479 16.866 77.7949 16.716 77.7049C16.572 77.6149 16.347 77.5699 16.041 77.5699H15.411V78.8119ZM19.248 79.9999V75.4999H20.508L20.616 76.2739H20.652C20.82 75.9679 21.018 75.7459 21.246 75.6079C21.48 75.4639 21.708 75.3919 21.93 75.3919C22.068 75.3919 22.179 75.4009 22.263 75.4189C22.347 75.4309 22.422 75.4519 22.488 75.4819L22.236 76.8139C22.152 76.7959 22.071 76.7809 21.993 76.7689C21.921 76.7509 21.834 76.7419 21.732 76.7419C21.57 76.7419 21.399 76.7989 21.219 76.9129C21.045 77.0209 20.904 77.2159 20.796 77.4979V79.9999H19.248ZM24.919 80.1079C24.631 80.1079 24.352 80.0569 24.082 79.9549C23.812 79.8469 23.572 79.6939 23.362 79.4959C23.158 79.2919 22.993 79.0429 22.867 78.7489C22.747 78.4549 22.687 78.1219 22.687 77.7499C22.687 77.3779 22.747 77.0449 22.867 76.7509C22.993 76.4569 23.158 76.2109 23.362 76.0129C23.572 75.8089 23.812 75.6559 24.082 75.5539C24.352 75.4459 24.631 75.3919 24.919 75.3919C25.207 75.3919 25.483 75.4459 25.747 75.5539C26.017 75.6559 26.254 75.8089 26.458 76.0129C26.668 76.2109 26.836 76.4569 26.962 76.7509C27.088 77.0449 27.151 77.3779 27.151 77.7499C27.151 78.1219 27.088 78.4549 26.962 78.7489C26.836 79.0429 26.668 79.2919 26.458 79.4959C26.254 79.6939 26.017 79.8469 25.747 79.9549C25.483 80.0569 25.207 80.1079 24.919 80.1079ZM24.919 78.8659C25.153 78.8659 25.318 78.7669 25.414 78.5689C25.516 78.3649 25.567 78.0919 25.567 77.7499C25.567 77.4079 25.516 77.1379 25.414 76.9399C25.318 76.7359 25.153 76.6339 24.919 76.6339C24.685 76.6339 24.517 76.7359 24.415 76.9399C24.319 77.1379 24.271 77.4079 24.271 77.7499C24.271 78.0919 24.319 78.3649 24.415 78.5689C24.517 78.7669 24.685 78.8659 24.919 78.8659ZM28.644 79.9999L27.564 75.4999H29.094L29.436 77.3899C29.472 77.6179 29.502 77.8459 29.526 78.0739C29.55 78.2959 29.58 78.5239 29.616 78.7579H29.652C29.688 78.5239 29.724 78.2929 29.76 78.0649C29.802 77.8309 29.85 77.6059 29.904 77.3899L30.318 75.4999H31.632L32.064 77.3899C32.118 77.6179 32.163 77.8459 32.199 78.0739C32.241 78.2959 32.286 78.5239 32.334 78.7579H32.37C32.406 78.5239 32.436 78.2959 32.46 78.0739C32.484 77.8459 32.514 77.6179 32.55 77.3899L32.892 75.4999H34.314L33.288 79.9999H31.488L31.164 78.4339C31.128 78.2239 31.092 78.0139 31.056 77.8039C31.02 77.5939 30.984 77.3629 30.948 77.1109H30.912C30.876 77.3629 30.843 77.5939 30.813 77.8039C30.783 78.0139 30.75 78.2239 30.714 78.4339L30.408 79.9999H28.644ZM36.436 80.1079C36.148 80.1079 35.842 80.0509 35.518 79.9369C35.2 79.8229 34.924 79.6699 34.69 79.4779L35.374 78.5239C35.782 78.8239 36.148 78.9739 36.472 78.9739C36.634 78.9739 36.748 78.9529 36.814 78.9109C36.886 78.8629 36.922 78.7939 36.922 78.7039C36.922 78.6439 36.898 78.5929 36.85 78.5509C36.802 78.5029 36.736 78.4609 36.652 78.4249C36.574 78.3829 36.484 78.3439 36.382 78.3079C36.28 78.2719 36.172 78.2299 36.058 78.1819C35.926 78.1279 35.791 78.0649 35.653 77.9929C35.521 77.9149 35.401 77.8219 35.293 77.7139C35.185 77.6059 35.095 77.4829 35.023 77.3449C34.957 77.2009 34.924 77.0359 34.924 76.8499C34.924 76.6279 34.966 76.4269 35.05 76.2469C35.14 76.0669 35.263 75.9139 35.419 75.7879C35.575 75.6619 35.761 75.5659 35.977 75.4999C36.199 75.4279 36.442 75.3919 36.706 75.3919C37.078 75.3919 37.396 75.4549 37.66 75.5809C37.93 75.7009 38.164 75.8359 38.362 75.9859L37.678 76.9039C37.516 76.7839 37.357 76.6909 37.201 76.6249C37.045 76.5589 36.898 76.5259 36.76 76.5259C36.496 76.5259 36.364 76.6099 36.364 76.7779C36.364 76.8379 36.385 76.8889 36.427 76.9309C36.475 76.9729 36.538 77.0119 36.616 77.0479C36.694 77.0839 36.784 77.1199 36.886 77.1559C36.988 77.1859 37.096 77.2219 37.21 77.2639C37.342 77.3119 37.477 77.3719 37.615 77.4439C37.753 77.5159 37.876 77.6059 37.984 77.7139C38.098 77.8159 38.188 77.9419 38.254 78.0919C38.326 78.2359 38.362 78.4099 38.362 78.6139C38.362 78.8239 38.32 79.0219 38.236 79.2079C38.152 79.3879 38.029 79.5469 37.867 79.6849C37.705 79.8169 37.504 79.9219 37.264 79.9999C37.024 80.0719 36.748 80.1079 36.436 80.1079ZM41.208 80.1079C40.878 80.1079 40.572 80.0569 40.29 79.9549C40.008 79.8469 39.762 79.6939 39.552 79.4959C39.348 79.2919 39.186 79.0429 39.066 78.7489C38.946 78.4549 38.886 78.1219 38.886 77.7499C38.886 77.3839 38.946 77.0569 39.066 76.7689C39.192 76.4749 39.354 76.2259 39.552 76.0219C39.756 75.8179 39.987 75.6619 40.245 75.5539C40.503 75.4459 40.77 75.3919 41.046 75.3919C41.376 75.3919 41.664 75.4489 41.91 75.5629C42.156 75.6769 42.36 75.8329 42.522 76.0309C42.684 76.2289 42.804 76.4599 42.882 76.7239C42.966 76.9879 43.008 77.2699 43.008 77.5699C43.008 77.7079 42.999 77.8369 42.981 77.9569C42.969 78.0769 42.957 78.1639 42.945 78.2179H40.38C40.452 78.4879 40.581 78.6769 40.767 78.7849C40.953 78.8869 41.172 78.9379 41.424 78.9379C41.58 78.9379 41.73 78.9169 41.874 78.8749C42.024 78.8269 42.18 78.7579 42.342 78.6679L42.846 79.5859C42.6 79.7599 42.327 79.8919 42.027 79.9819C41.733 80.0659 41.46 80.1079 41.208 80.1079ZM40.362 77.2099H41.694C41.694 77.0359 41.649 76.8859 41.559 76.7599C41.475 76.6279 41.316 76.5619 41.082 76.5619C40.908 76.5619 40.755 76.6129 40.623 76.7149C40.497 76.8169 40.41 76.9819 40.362 77.2099ZM46.577 80.1079C46.313 80.1079 46.097 80.0179 45.929 79.8379C45.761 79.6579 45.677 79.4359 45.677 79.1719C45.677 78.9079 45.761 78.6859 45.929 78.5059C46.097 78.3259 46.313 78.2359 46.577 78.2359C46.841 78.2359 47.057 78.3259 47.225 78.5059C47.393 78.6859 47.477 78.9079 47.477 79.1719C47.477 79.4359 47.393 79.6579 47.225 79.8379C47.057 80.0179 46.841 80.1079 46.577 80.1079ZM49.46 80.1079C49.196 80.1079 48.98 80.0179 48.812 79.8379C48.644 79.6579 48.56 79.4359 48.56 79.1719C48.56 78.9079 48.644 78.6859 48.812 78.5059C48.98 78.3259 49.196 78.2359 49.46 78.2359C49.724 78.2359 49.94 78.3259 50.108 78.5059C50.276 78.6859 50.36 78.9079 50.36 79.1719C50.36 79.4359 50.276 79.6579 50.108 79.8379C49.94 80.0179 49.724 80.1079 49.46 80.1079ZM52.342 80.1079C52.078 80.1079 51.862 80.0179 51.694 79.8379C51.526 79.6579 51.442 79.4359 51.442 79.1719C51.442 78.9079 51.526 78.6859 51.694 78.5059C51.862 78.3259 52.078 78.2359 52.342 78.2359C52.606 78.2359 52.822 78.3259 52.99 78.5059C53.158 78.6859 53.242 78.9079 53.242 79.1719C53.242 79.4359 53.158 79.6579 52.99 79.8379C52.822 80.0179 52.606 80.1079 52.342 80.1079Z"
                  fill="#F6F5F3"/>
        </g>
    </g>
</svg>
