<svg width="198" height="182" viewBox="0 0 198 182" fill="none" xmlns="http://www.w3.org/2000/svg">
    <path
            d="M10.3023 106.281C10.4133 106.281 10.5253 106.281 10.5253 106.17C10.7483 106.06 10.7483 105.728 10.5253 105.617L0.722314 94.4392C0.612314 94.3282 0.277314 94.2172 0.166314 94.4392C0.116097 94.4658 0.0740829 94.5056 0.0447821 94.5543C0.0154813 94.603 0 94.6588 0 94.7157C0 94.7725 0.0154813 94.8283 0.0447821 94.877C0.0740829 94.9257 0.116097 94.9655 0.166314 94.9922L9.96831 106.17C10.0793 106.281 10.1913 106.281 10.3023 106.281Z" fill="red"/>
    <path d="M0.500314 95.1012C0.722314 95.1012 0.834314 94.9912 0.945314 94.7692L3.06231 72.5232C3.06231 72.3022 2.95031 72.0802 2.72731 72.0802C2.50531 72.0802 2.28231 72.1912 2.28231 72.4122L0.0543141 94.7692C0.0543141 94.8792 0.165314 95.1012 0.500314 95.1012ZM11.8623 54.3732C11.9733 54.3732 12.1963 54.2632 12.1963 54.1522L17.9883 40.5382C18.1003 40.3182 17.9883 40.0962 17.7653 39.9852C17.5433 39.8752 17.3203 39.9852 17.2083 40.2062L11.4163 53.8202C11.3053 54.0412 11.4163 54.2622 11.6393 54.3732H11.8623ZM38.4843 22.6082H38.7073L58.5343 10.9872C58.7573 10.8772 58.7573 10.6552 58.6453 10.4342C58.5353 10.2122 58.3113 10.2122 58.0893 10.3232L38.2613 21.8332C38.0383 21.9442 38.0383 22.1652 38.1503 22.3872C38.2613 22.4972 38.3733 22.6082 38.4843 22.6082Z" fill="#294FD5"/>
    <path d="M17.6543 40.8702C17.7643 40.8702 17.8763 40.8702 17.8763 40.7602L38.8183 22.4982C38.8688 22.4716 38.911 22.4318 38.9405 22.3829C38.97 22.3341 38.9856 22.2782 38.9856 22.2212C38.9856 22.1641 38.97 22.1082 38.9405 22.0594C38.911 22.0105 38.8688 21.9707 38.8183 21.9442C38.7063 21.8342 38.3723 21.7242 38.2613 21.9442L17.3183 40.0962C17.2681 40.1228 17.2261 40.1626 17.1968 40.2113C17.1675 40.26 17.152 40.3158 17.152 40.3727C17.152 40.4295 17.1675 40.4853 17.1968 40.534C17.2261 40.5827 17.2681 40.6225 17.3183 40.6492C17.4303 40.7592 17.5413 40.8702 17.6533 40.8702H17.6543ZM2.61631 72.9652C2.72731 72.9652 2.95031 72.8552 2.95031 72.7452L12.1963 54.2612C12.3073 54.0402 12.1963 53.8182 11.9733 53.7082C11.7503 53.5972 11.5273 53.7082 11.4163 53.9292L2.28231 72.3022C2.17031 72.5222 2.28231 72.7442 2.50531 72.8552C2.50531 72.9652 2.50531 72.9652 2.61631 72.9652ZM77.2483 180.987C77.4703 180.987 77.6933 180.766 77.6933 180.545L76.0233 164.828C76.0233 164.607 75.7993 164.496 75.5773 164.496C75.3543 164.496 75.2433 164.718 75.2433 164.939L76.9133 180.655C76.9133 180.766 77.0253 180.987 77.2483 180.987Z" fill="#294FD5"/>
    <path d="M75.5773 165.16C75.7993 165.16 75.9113 165.05 75.9113 164.939L81.7033 147.673C81.8143 147.452 81.7033 147.231 81.4803 147.12C81.2583 147.009 81.0353 147.12 80.9233 147.341L75.1313 164.607C75.0203 164.828 75.1313 165.05 75.3543 165.16H75.5773Z" fill="#294FD5"/>
    <path d="M81.3683 147.894C81.5923 147.894 81.8153 147.673 81.8153 147.451L80.5893 135.166C80.5893 134.945 80.3663 134.834 80.1443 134.834C79.9213 134.834 79.8093 135.056 79.8093 135.277L81.0353 147.562C80.9233 147.673 81.1453 147.894 81.3683 147.894ZM48.9553 133.507L73.7953 130.076C74.0183 130.076 74.1293 129.854 74.1293 129.633C74.1293 129.412 73.9063 129.301 73.6833 129.301L48.8433 132.732C48.6213 132.732 48.5093 132.953 48.5093 133.175C48.5093 133.396 48.7323 133.507 48.9553 133.507Z" fill="#294FD5"/>
    <path d="M80.1443 135.61C80.2553 135.61 80.3673 135.61 80.4783 135.499C80.5893 135.278 80.5893 135.057 80.4783 134.946L74.0183 129.523C73.7953 129.412 73.5723 129.412 73.4603 129.523C73.3493 129.744 73.3493 129.965 73.4603 130.076L79.9213 135.499C79.9213 135.499 80.0323 135.61 80.1443 135.61ZM48.9543 133.508C49.0663 133.508 49.1773 133.508 49.1773 133.397C49.4003 133.287 49.4003 133.065 49.2883 132.844L27.1223 104.289C27.0103 104.068 26.7883 104.068 26.5653 104.178C26.3423 104.289 26.3423 104.51 26.4533 104.732L48.5093 133.397C48.6203 133.508 48.7313 133.508 48.9543 133.508Z" fill="#294FD5"/>
    <path d="M10.3023 106.281L26.7883 104.953C27.0103 104.953 27.1223 104.731 27.1223 104.51C27.1223 104.289 27.0103 104.067 26.6763 104.178L10.1913 105.506C9.96831 105.506 9.85631 105.728 9.85631 105.949C9.96831 106.17 10.0793 106.281 10.3023 106.281ZM58.4223 10.9872H58.6453L77.5823 1.46816C77.6933 1.35816 77.8043 1.13616 77.6933 0.915158C77.5823 0.694158 77.3593 0.694158 77.1363 0.694158L58.2003 10.2122C57.9773 10.3222 57.9773 10.5442 57.9773 10.7652C58.0883 10.8752 58.2003 10.9872 58.4233 10.9872H58.4223ZM100.194 3.12916L122.249 0.916158C122.472 0.916158 122.583 0.694158 122.583 0.473158C122.583 0.252158 122.361 0.0301578 122.138 0.141158L100.083 2.35516C99.8603 2.35516 99.7483 2.57516 99.7483 2.79716C99.8603 2.90716 100.083 3.12916 100.194 3.12916Z" fill="#294FD5"/>
    <path d="M100.194 3.12916C100.417 3.12916 100.528 3.01816 100.64 2.79616C100.64 2.57616 100.528 2.35416 100.305 2.35416L77.3593 0.694158C77.1363 0.694158 76.9143 0.804158 76.9143 1.02616C76.9143 1.24716 77.0243 1.46816 77.2483 1.46816L100.194 3.12916ZM155.778 8.88416C156 8.88416 156.112 8.77416 156.112 8.55216C156.112 8.33016 156 8.10916 155.778 8.10916L122.36 0.0291578C122.138 -0.0808422 121.915 0.140158 121.915 0.362158C121.915 0.583158 122.026 0.804158 122.249 0.804158L155.778 8.88416C155.666 8.88416 155.666 8.88416 155.778 8.88416ZM197.103 64.2232C197.215 64.2232 197.326 64.2232 197.438 64.1132C197.549 63.8912 197.549 63.6702 197.438 63.5592L183.848 51.8272C183.737 51.7172 183.402 51.7172 183.291 51.8272C183.18 52.0492 183.18 52.2702 183.291 52.3812L196.881 64.1132C196.881 64.2232 196.992 64.2232 197.103 64.2232Z" fill="#294FD5"/>
    <path d="M171.818 18.5132C171.929 18.5132 172.041 18.4032 172.152 18.2922C172.263 18.0702 172.152 17.8492 172.041 17.7382L156 8.22016C155.778 8.11016 155.555 8.22016 155.443 8.33016C155.332 8.55216 155.444 8.77316 155.555 8.88416L171.595 18.4022C171.595 18.4022 171.706 18.5132 171.818 18.5132Z" fill="#294FD5"/>
    <path d="M182.177 31.5732C182.289 31.5732 182.4 31.5732 182.4 31.4632C182.623 31.3522 182.623 31.1302 182.511 30.9092L172.152 17.7392C172.041 17.5172 171.706 17.5172 171.595 17.6282C171.372 17.7382 171.372 17.9602 171.484 18.1812L181.843 31.3512C181.954 31.5732 182.066 31.5732 182.177 31.5732Z" fill="#294FD5"/>
    <path d="M183.514 52.4902C183.736 52.4902 183.959 52.2692 183.959 52.0472L182.511 31.1292C182.511 30.9082 182.288 30.7972 182.066 30.7972C181.843 30.7972 181.731 31.0192 181.731 31.2402L183.068 52.0472C183.179 52.2692 183.291 52.4902 183.514 52.4902ZM172.041 93.5522C172.152 93.5522 172.263 93.4422 172.375 93.3312L179.949 81.9312C180.061 81.7102 180.061 81.4882 179.838 81.3782C179.615 81.2672 179.392 81.2662 179.281 81.4882L171.706 92.8882C171.595 93.1092 171.595 93.3312 171.818 93.4412C171.818 93.5522 171.929 93.5522 172.041 93.5522Z" fill="#294FD5"/>
    <path d="M172.041 93.5522C172.263 93.5522 172.375 93.4422 172.486 93.2212C172.486 93.0002 172.375 92.7782 172.152 92.7782L158.34 91.8932C158.117 91.8932 157.894 92.0032 157.894 92.2252C157.894 92.4462 158.005 92.6672 158.228 92.6672L172.041 93.5522Z" fill="#294FD5"/>
    <path d="M139.515 92.9992L158.228 92.6672C158.451 92.6672 158.674 92.4462 158.674 92.2242C158.674 92.0032 158.451 91.7822 158.228 91.7822L139.515 92.1132C139.292 92.1132 139.069 92.3352 139.069 92.5562C139.069 92.7782 139.292 92.9992 139.515 92.9992ZM97.0753 148.116C97.2983 148.116 97.4093 148.006 97.5213 147.784L99.4143 138.045C99.4143 137.823 99.3033 137.602 99.0803 137.602C98.8573 137.602 98.6353 137.712 98.6353 137.934L96.7413 147.673C96.6293 147.895 96.7413 148.116 97.0753 148.116Z" fill="#294FD5"/>
    <path d="M98.9693 138.377C99.0803 138.377 99.3033 138.266 99.3033 138.156L106.766 121.222C106.877 121.001 106.766 120.779 106.543 120.669C106.32 120.558 106.098 120.669 105.986 120.89L98.5233 137.824C98.4123 138.045 98.5233 138.266 98.7463 138.377H98.9693ZM125.813 111.481C125.925 111.481 126.036 111.371 126.148 111.371L139.849 92.7772C139.96 92.5552 139.96 92.3342 139.737 92.2232C139.514 92.1132 139.292 92.1132 139.18 92.3342L125.479 110.928C125.368 111.149 125.368 111.371 125.591 111.481H125.813Z" fill="#294FD5"/>
    <path d="M106.432 121.484H106.655L125.925 111.523C126.148 111.412 126.148 111.191 126.148 110.97C126.036 110.748 125.814 110.748 125.591 110.748L106.32 120.709C106.098 120.82 106.098 121.041 106.098 121.263C106.209 121.484 106.32 121.484 106.432 121.484ZM85.6023 177.156C85.7133 177.156 85.9363 177.045 85.9363 176.934L97.4093 147.937C97.5213 147.716 97.4093 147.494 97.1873 147.383C96.9643 147.273 96.7413 147.383 96.6303 147.605L85.1563 176.602C85.0453 176.824 85.1563 177.045 85.3793 177.156H85.6023Z" fill="#294FD5"/>
    <path d="M77.616 182H78.116L86.527 177.507C86.75 177.396 86.872 174.492 86.761 174.27C88.5069 173.261 86.416 176.621 86.193 176.732C86.193 176.732 79.2509 180.053 77.839 180.495C76.427 180.937 77.004 181.266 77.116 181.487C76.616 181.939 77.504 182 77.616 182ZM179.178 82.594C179.289 82.594 179.401 82.594 179.512 82.484L197 64.554C197.112 64.443 197.112 64.111 197 64C196.889 63.89 196.555 63.89 196.443 64L178.955 81.93C178.844 82.04 178.844 82.372 178.955 82.483C179.067 82.483 179.178 82.594 179.178 82.594Z" fill="#294FD5"/>


    <svg width="198" height="182" viewBox="0 0 198 182" fill="none"
         xmlns="http://www.w3.org/2000/svg">
        <path fill-rule="evenodd" clip-rule="evenodd"
              d="M.952 94.7l2.11-22.177v-.002l9.134-18.26a.427.427 0 00.038-.109.36.36 0 00.004-.099l5.666-13.317 20.788-18.128h.015l19.827-11.62h.111l18.895-9.5 22.641 1.64h.013a.585.585 0 00.111-.01l.002-.001L122.249.916a.282.282 0 00.187-.067l33.062 7.968a.66.66 0 00.057.067l16.04 9.518s.013.013.035.03a.44.44 0 00.1.061l10.002 12.717-.001.03 1.337 20.807.03.06c.055.107.113.21.185.282l.005.004a.409.409 0 00.096.069l13.224 11.415-17 17.43a.416.416 0 00-.046-.002.295.295 0 00-.223.097.368.368 0 00-.057.085l-.012.018-.003.005-7.472 11.245-.317-.02h-.003l-12.957-.83a.48.48 0 00-.172-.103l-.006-.002a.407.407 0 00-.112-.018l-18.713.331h-.015a.468.468 0 00-.321.17l-.025.032-.003.004a.486.486 0 00-.071.151l-13.468 18.278h-.021l-19.132 9.889-.027-.005a.355.355 0 00-.149.003l-.001.001a.281.281 0 00-.056.018.466.466 0 00-.235.227l-.005.009-7.463 16.934a.536.536 0 00-.037.11.358.358 0 00.03.222.415.415 0 00.059.09l-1.783 9.165-.004.003a.51.51 0 00-.158.191l-11.474 28.997-.009.02a.365.365 0 00.002.312.415.415 0 00.065.098c-.522.246-1.154.543-1.824.855a156.363 156.363 0 01-3.786 1.713 44.25 44.25 0 01-.572.241l-.002.001-.184.075a15.92 15.92 0 01-.623.231 4.588 4.588 0 00-.55.21l-1.65-15.53a.282.282 0 00-.03-.131l5.682-16.941a.43.43 0 00.058-.068l.003-.004a.404.404 0 00.08-.233l-1.227-12.285a.283.283 0 00-.106-.224l-.002-.002a.354.354 0 00-.054-.037l-.003-.003-6.295-5.284a.28.28 0 00-.055-.154l-.002-.002a.304.304 0 00-.05-.052.484.484 0 00-.227-.097.636.636 0 00-.107-.01h-.005l-24.516 3.387-.212-.273v-.001l-21.833-28.125a.396.396 0 00-.029-.049c-.075-.108-.183-.144-.305-.132a.84.84 0 00-.067.012l-.048.014-.01.003a.837.837 0 00-.098.041l-.01.006-.01.005-16.133 1.299-9.46-10.787zm-.786.292H.165a.318.318 0 01-.16-.223l-.001-.005a.313.313 0 01.077-.258l2.182-21.9a.36.36 0 01-.019-.194l.001-.004.003-.014a.409.409 0 01.034-.092l9.091-18.286a.358.358 0 01.025-.154v-.002a.424.424 0 01.018-.04l5.739-13.488a.312.312 0 01.042-.12l.005-.009a.322.322 0 01.03-.04l.005-.007a.542.542 0 01.067-.086.425.425 0 01.17-.11l20.603-17.856a.293.293 0 01.121-.232.382.382 0 01.057-.036l.006-.003 19.787-11.486a.338.338 0 01.03-.042l.002-.001a.333.333 0 01.082-.07.439.439 0 01.038-.022L77.136.694h.057a2.591 2.591 0 01.111.002.673.673 0 01.055-.002l22.823 1.651L121.978.157a.379.379 0 01.149-.132.26.26 0 01.233.004l33.418 8.08a.29.29 0 01.174.056l.02.017c.011.01.022.02.031.032l.013.015 15.727 9.332a.443.443 0 01.312.066.274.274 0 01.052.046l.01.01a.322.322 0 01.035.056l10.359 13.17c.015.03.028.06.039.089a.558.558 0 01.032.126v.005a.332.332 0 01-.003.111.287.287 0 01-.052.121l1.411 20.374v.002l.012.178 13.488 11.644a.204.204 0 01.019.02c.091.116.086.32-.015.528l-.003.006a.247.247 0 01-.055.094l-17.488 17.93-.004.004a.348.348 0 01-.139.085l-1.17 1.761-.002.003-6.097 9.177a.482.482 0 01.002.054 1.658 1.658 0 01-.076.133l-.001.001-.004.006a.594.594 0 01-.067.08.37.37 0 01-.235.108.584.584 0 01-.062.003c-.047 0-.095 0-.134-.008l-13.679-.877-18.54.33-13.54 18.374a.216.216 0 00-.068.012.328.328 0 01-.104.11.311.311 0 01-.051.03l-19.27 9.961h-.004l-7.247 16.444v.006a.694.694 0 01.01.111l-1.893 9.739a1.257 1.257 0 01-.082.141l-.013.019-.001.001a.92.92 0 01-.034.041l-.001.001-11.335 28.646.458-.218.022-.01.042-.02c.066-.033.144-.265.22-.574.178-.729.348-1.888.348-1.888.078.155.041 1.626-.064 2.532a5.03 5.03 0 01-.076.479.755.755 0 01-.061.188l-.008.013a.071.071 0 01-.025.025l-8.24 4.402-.005.002-.166.089H78l-.037-.001a1.832 1.832 0 01-.243-.03c-.183-.035-.384-.107-.37-.253a2.181 2.181 0 01-.132-.086c-.296-.206-.511-.455-.305-.628l-1.652-15.552a.463.463 0 01-.144-.179.354.354 0 01-.011-.255.426.426 0 01.025-.062l5.792-17.266a.54.54 0 01.078-.117l-1.178-11.807-6.315-5.301-.092.012-.01.002-24.272 3.352c-.042.026-.11.026-.178.026h-.006l-.107-.001c-.135-.002-.222-.015-.303-.082a.373.373 0 01-.03-.028l-21.877-28.431-16.184 1.303c-.041.012-.094.012-.147.012h-.048l-.057-.003-.006-.001a.35.35 0 01-.223-.107L.166 94.992zM171.818 18.18l.033-.032-.033.032z"
              fill="#D86161"/>
    </svg>

</svg>
