<svg width="207" height="186" viewBox="0 0 207 186" fill="none"
     xmlns="http://www.w3.org/2000/svg">
    <path d="M62.3647 19.7709C66.1789 19.7709 69.2709 16.6987 69.2709 12.9089C69.2709 9.11911 66.1789 6.04688 62.3647 6.04688C58.5505 6.04688 55.4585 9.11911 55.4585 12.9089C55.4585 16.6987 58.5505 19.7709 62.3647 19.7709Z"
          fill="#86F6FD" fill-opacity="0.37"/>
    <path d="M42.4258 28.9571C44.825 28.9571 46.77 27.0245 46.77 24.6406C46.77 22.2567 44.825 20.3242 42.4258 20.3242C40.0265 20.3242 38.0815 22.2567 38.0815 24.6406C38.0815 27.0245 40.0265 28.9571 42.4258 28.9571Z"
          fill="#86F6FD" fill-opacity="0.37"/>
    <path d="M60.3597 51.8666C63.0665 51.8666 65.2608 49.6863 65.2608 46.9968C65.2608 44.3072 63.0665 42.127 60.3597 42.127C57.6528 42.127 55.4585 44.3072 55.4585 46.9968C55.4585 49.6863 57.6528 51.8666 60.3597 51.8666Z"
          fill="#86F6FD" fill-opacity="0.37"/>
    <path d="M108.257 58.3972C111.456 58.3972 114.049 55.8205 114.049 52.642C114.049 49.4634 111.456 46.8867 108.257 46.8867C105.058 46.8867 102.465 49.4634 102.465 52.642C102.465 55.8205 105.058 58.3972 108.257 58.3972Z"
          fill="#86F6FD" fill-opacity="0.37"/>
    <path d="M127.973 96.2488C130.619 96.2488 132.763 94.118 132.763 91.4896C132.763 88.8612 130.619 86.7305 127.973 86.7305C125.328 86.7305 123.184 88.8612 123.184 91.4896C123.184 94.118 125.328 96.2488 127.973 96.2488Z"
          fill="#86F6FD" fill-opacity="0.37"/>
    <path d="M113.158 101.451C115.865 101.451 118.06 99.2703 118.06 96.5808C118.06 93.8912 115.865 91.7109 113.158 91.7109C110.452 91.7109 108.257 93.8912 108.257 96.5808C108.257 99.2703 110.452 101.451 113.158 101.451Z"
          fill="#86F6FD" fill-opacity="0.37"/>
    <path d="M120.065 66.1446C122.095 66.1446 123.74 64.5094 123.74 62.4922C123.74 60.4751 122.095 58.8398 120.065 58.8398C118.034 58.8398 116.389 60.4751 116.389 62.4922C116.389 64.5094 118.034 66.1446 120.065 66.1446Z"
          fill="#86F6FD" fill-opacity="0.37"/>
    <path d="M160.611 60.7214C163.072 60.7214 165.067 58.7393 165.067 56.2943C165.067 53.8493 163.072 51.8672 160.611 51.8672C158.15 51.8672 156.155 53.8493 156.155 56.2943C156.155 58.7393 158.15 60.7214 160.611 60.7214Z"
          fill="#86F6FD" fill-opacity="0.37"/>
    <path d="M164.621 42.129C167.205 42.129 169.299 40.0478 169.299 37.4805C169.299 34.9132 167.205 32.832 164.621 32.832C162.037 32.832 159.942 34.9132 159.942 37.4805C159.942 40.0478 162.037 42.129 164.621 42.129Z"
          fill="#86F6FD" fill-opacity="0.37"/>
    <path d="M175.76 24.0879C177.79 24.0879 179.436 22.4527 179.436 20.4356C179.436 18.4184 177.79 16.7832 175.76 16.7832C173.73 16.7832 172.084 18.4184 172.084 20.4356C172.084 22.4527 173.73 24.0879 175.76 24.0879Z"
          fill="#86F6FD" fill-opacity="0.37"/>
    <path d="M159.72 14.3484C161.627 14.3484 163.173 12.8122 163.173 10.9173C163.173 9.02244 161.627 7.48633 159.72 7.48633C157.813 7.48633 156.267 9.02244 156.267 10.9173C156.267 12.8122 157.813 14.3484 159.72 14.3484Z"
          fill="#86F6FD" fill-opacity="0.37"/>
    <path d="M149.137 18.4421C150.86 18.4421 152.256 17.0546 152.256 15.3431C152.256 13.6316 150.86 12.2441 149.137 12.2441C147.415 12.2441 146.019 13.6316 146.019 15.3431C146.019 17.0546 147.415 18.4421 149.137 18.4421Z"
          fill="#86F6FD" fill-opacity="0.37"/>
    <path d="M138.556 34.3796C140.463 34.3796 142.009 32.8435 142.009 30.9486C142.009 29.0537 140.463 27.5176 138.556 27.5176C136.649 27.5176 135.103 29.0537 135.103 30.9486C135.103 32.8435 136.649 34.3796 138.556 34.3796Z"
          fill="#86F6FD" fill-opacity="0.37"/>
    <path d="M152.702 75.1101C155.347 75.1101 157.492 72.9794 157.492 70.3509C157.492 67.7225 155.347 65.5918 152.702 65.5918C150.057 65.5918 147.912 67.7225 147.912 70.3509C147.912 72.9794 150.057 75.1101 152.702 75.1101Z"
          fill="#86F6FD" fill-opacity="0.37"/>
    <path d="M187.456 60.1687C190.655 60.1687 193.248 57.592 193.248 54.4134C193.248 51.2349 190.655 48.6582 187.456 48.6582C184.257 48.6582 181.664 51.2349 181.664 54.4134C181.664 57.592 184.257 60.1687 187.456 60.1687Z"
          fill="#86F6FD" fill-opacity="0.37"/>
    <path d="M201.045 71.237C203.875 71.237 206.169 68.9576 206.169 66.1459C206.169 63.3341 203.875 61.0547 201.045 61.0547C198.215 61.0547 195.921 63.3341 195.921 66.1459C195.921 68.9576 198.215 71.237 201.045 71.237Z"
          fill="#86F6FD" fill-opacity="0.37"/>
    <path d="M183.446 89.2768C186.337 89.2768 188.681 86.9478 188.681 84.0749C188.681 81.202 186.337 78.873 183.446 78.873C180.554 78.873 178.21 81.202 178.21 84.0749C178.21 86.9478 180.554 89.2768 183.446 89.2768Z"
          fill="#86F6FD" fill-opacity="0.37"/>
    <path d="M156.712 86.7318C158.865 86.7318 160.611 84.9975 160.611 82.8581C160.611 80.7187 158.865 78.9844 156.712 78.9844C154.559 78.9844 152.813 80.7187 152.813 82.8581C152.813 84.9975 154.559 86.7318 156.712 86.7318Z"
          fill="#86F6FD" fill-opacity="0.37"/>
    <path d="M129.756 116.504C131.417 116.504 132.763 115.166 132.763 113.516C132.763 111.865 131.417 110.527 129.756 110.527C128.095 110.527 126.748 111.865 126.748 113.516C126.748 115.166 128.095 116.504 129.756 116.504Z"
          fill="#86F6FD" fill-opacity="0.37"/>
    <path d="M96.784 133.436C99.0602 133.436 100.905 131.603 100.905 129.341C100.905 127.08 99.0602 125.246 96.784 125.246C94.5078 125.246 92.6626 127.08 92.6626 129.341C92.6626 131.603 94.5078 133.436 96.784 133.436Z"
          fill="#86F6FD" fill-opacity="0.37"/>
    <path d="M80.4097 119.823C81.9477 119.823 83.1945 118.584 83.1945 117.056C83.1945 115.528 81.9477 114.289 80.4097 114.289C78.8718 114.289 77.625 115.528 77.625 117.056C77.625 118.584 78.8718 119.823 80.4097 119.823Z"
          fill="#86F6FD" fill-opacity="0.37"/>
    <path d="M86.6478 104.328C89.4162 104.328 91.6604 102.098 91.6604 99.3477C91.6604 96.597 89.4162 94.3672 86.6478 94.3672C83.8795 94.3672 81.6353 96.597 81.6353 99.3477C81.6353 102.098 83.8795 104.328 86.6478 104.328Z"
          fill="#86F6FD" fill-opacity="0.37"/>
    <path d="M90.6578 74.1146C93.1801 74.1146 95.2248 72.083 95.2248 69.5768C95.2248 67.0707 93.1801 65.0391 90.6578 65.0391C88.1355 65.0391 86.0908 67.0707 86.0908 69.5768C86.0908 72.083 88.1355 74.1146 90.6578 74.1146Z"
          fill="#86F6FD" fill-opacity="0.37"/>
    <path d="M63.8127 74.5573C65.9043 74.5573 67.5999 72.8726 67.5999 70.7943C67.5999 68.716 65.9043 67.0312 63.8127 67.0312C61.721 67.0312 60.0254 68.716 60.0254 70.7943C60.0254 72.8726 61.721 74.5573 63.8127 74.5573Z"
          fill="#86F6FD" fill-opacity="0.37"/>
    <path d="M56.2381 90.1628C58.5143 90.1628 60.3596 88.3294 60.3596 86.0677C60.3596 83.8061 58.5143 81.9727 56.2381 81.9727C53.9619 81.9727 52.1167 83.8061 52.1167 86.0677C52.1167 88.3294 53.9619 90.1628 56.2381 90.1628Z"
          fill="#86F6FD" fill-opacity="0.37"/>
    <path d="M37.7473 86.0671C39.4699 86.0671 40.8663 84.6796 40.8663 82.9681C40.8663 81.2566 39.4699 79.8691 37.7473 79.8691C36.0248 79.8691 34.6284 81.2566 34.6284 82.9681C34.6284 84.6796 36.0248 86.0671 37.7473 86.0671Z"
          fill="#86F6FD" fill-opacity="0.37"/>
    <path d="M4.44169 101.119C6.65638 101.119 8.45174 99.3353 8.45174 97.1348C8.45174 94.9343 6.65638 93.1504 4.44169 93.1504C2.227 93.1504 0.431641 94.9343 0.431641 97.1348C0.431641 99.3353 2.227 101.119 4.44169 101.119Z"
          fill="#86F6FD" fill-opacity="0.37"/>
    <path d="M30.7297 111.634C33.375 111.634 35.5195 109.503 35.5195 106.874C35.5195 104.246 33.375 102.115 30.7297 102.115C28.0844 102.115 25.9399 104.246 25.9399 106.874C25.9399 109.503 28.0844 111.634 30.7297 111.634Z"
          fill="#86F6FD" fill-opacity="0.37"/>
    <path d="M21.0386 70.793C22.5151 70.793 23.712 69.6038 23.712 68.1367C23.712 66.6697 22.5151 65.4805 21.0386 65.4805C19.5621 65.4805 18.3652 66.6697 18.3652 68.1367C18.3652 69.6038 19.5621 70.793 21.0386 70.793Z"
          fill="#86F6FD" fill-opacity="0.37"/>
    <path d="M6.55796 78.9831C8.83417 78.9831 10.6794 77.1497 10.6794 74.8881C10.6794 72.6264 8.83417 70.793 6.55796 70.793C4.28175 70.793 2.43652 72.6264 2.43652 74.8881C2.43652 77.1497 4.28175 78.9831 6.55796 78.9831Z"
          fill="#86F6FD" fill-opacity="0.37"/>
    <path d="M21.5957 45.3373C23.0106 45.3373 24.1576 44.1976 24.1576 42.7917C24.1576 41.3858 23.0106 40.2461 21.5957 40.2461C20.1807 40.2461 19.0337 41.3858 19.0337 42.7917C19.0337 44.1976 20.1807 45.3373 21.5957 45.3373Z"
          fill="#86F6FD" fill-opacity="0.37"/>
    <path d="M38.5271 70.351C40.6802 70.351 42.4257 68.6166 42.4257 66.4772C42.4257 64.3378 40.6802 62.6035 38.5271 62.6035C36.3739 62.6035 34.6284 64.3378 34.6284 66.4772C34.6284 68.6166 36.3739 70.351 38.5271 70.351Z"
          fill="#86F6FD" fill-opacity="0.37"/>
    <path d="M78.182 48.6576C80.5198 48.6576 82.4149 46.7746 82.4149 44.4518C82.4149 42.1291 80.5198 40.2461 78.182 40.2461C75.8443 40.2461 73.9492 42.1291 73.9492 44.4518C73.9492 46.7746 75.8443 48.6576 78.182 48.6576Z"
          fill="#86F6FD" fill-opacity="0.37"/>
    <path d="M95.0019 28.8464C96.909 28.8464 98.455 27.3103 98.455 25.4154C98.455 23.5205 96.909 21.9844 95.0019 21.9844C93.0948 21.9844 91.5488 23.5205 91.5488 25.4154C91.5488 27.3103 93.0948 28.8464 95.0019 28.8464Z"
          fill="#86F6FD" fill-opacity="0.37"/>
    <path d="M123.629 21.9838C125.598 21.9838 127.193 20.3981 127.193 18.4421C127.193 16.4861 125.598 14.9004 123.629 14.9004C121.66 14.9004 120.064 16.4861 120.064 18.4421C120.064 20.3981 121.66 21.9838 123.629 21.9838Z"
          fill="#86F6FD" fill-opacity="0.37"/>
    <path d="M104.136 9.03521C106.351 9.03521 108.146 7.25133 108.146 5.05081C108.146 2.85028 106.351 1.06641 104.136 1.06641C101.921 1.06641 100.126 2.85028 100.126 5.05081C100.126 7.25133 101.921 9.03521 104.136 9.03521Z"
          fill="#86F6FD" fill-opacity="0.37"/>
    <path d="M135.548 53.0853C137.701 53.0853 139.447 51.351 139.447 49.2116C139.447 47.0722 137.701 45.3379 135.548 45.3379C133.395 45.3379 131.649 47.0722 131.649 49.2116C131.649 51.351 133.395 53.0853 135.548 53.0853Z"
          fill="#86F6FD" fill-opacity="0.37"/>
    <path d="M152.814 48.5463C154.413 48.5463 155.71 47.2579 155.71 45.6686C155.71 44.0794 154.413 42.791 152.814 42.791C151.214 42.791 149.917 44.0794 149.917 45.6686C149.917 47.2579 151.214 48.5463 152.814 48.5463Z"
          fill="#86F6FD" fill-opacity="0.37"/>
    <path d="M103.802 85.071C105.894 85.071 107.589 83.3862 107.589 81.308C107.589 79.2297 105.894 77.5449 103.802 77.5449C101.71 77.5449 100.015 79.2297 100.015 81.308C100.015 83.3862 101.71 85.071 103.802 85.071Z"
          fill="#86F6FD" fill-opacity="0.37"/>
    <path d="M76.2883 92.043C77.9493 92.043 79.2958 90.7051 79.2958 89.0547C79.2958 87.4043 77.9493 86.0664 76.2883 86.0664C74.6273 86.0664 73.2808 87.4043 73.2808 89.0547C73.2808 90.7051 74.6273 92.043 76.2883 92.043Z"
          fill="#86F6FD" fill-opacity="0.37"/>
    <path d="M60.0256 102.78C62.1172 102.78 63.8128 101.095 63.8128 99.0169C63.8128 96.9387 62.1172 95.2539 60.0256 95.2539C57.9339 95.2539 56.2383 96.9387 56.2383 99.0169C56.2383 101.095 57.9339 102.78 60.0256 102.78Z"
          fill="#86F6FD" fill-opacity="0.37"/>
    <path d="M52.8965 138.971C54.8036 138.971 56.3496 137.435 56.3496 135.54C56.3496 133.645 54.8036 132.109 52.8965 132.109C50.9894 132.109 49.4434 133.645 49.4434 135.54C49.4434 137.435 50.9894 138.971 52.8965 138.971Z"
          fill="#86F6FD" fill-opacity="0.37"/>
    <path d="M101.017 152.917C102.555 152.917 103.801 151.678 103.801 150.15C103.801 148.622 102.555 147.383 101.017 147.383C99.4787 147.383 98.2319 148.622 98.2319 150.15C98.2319 151.678 99.4787 152.917 101.017 152.917Z"
          fill="#86F6FD" fill-opacity="0.37"/>
    <path d="M89.5437 181.361C90.7741 181.361 91.7715 180.37 91.7715 179.147C91.7715 177.925 90.7741 176.934 89.5437 176.934C88.3133 176.934 87.3159 177.925 87.3159 179.147C87.3159 180.37 88.3133 181.361 89.5437 181.361Z"
          fill="#86F6FD" fill-opacity="0.37"/>
    <path d="M81.1895 185.566C82.6659 185.566 83.8628 184.377 83.8628 182.91C83.8628 181.443 82.6659 180.254 81.1895 180.254C79.713 180.254 78.5161 181.443 78.5161 182.91C78.5161 184.377 79.713 185.566 81.1895 185.566Z"
          fill="#86F6FD" fill-opacity="0.37"/>
    <path d="M79.5185 168.854C80.4413 168.854 81.1894 168.11 81.1894 167.193C81.1894 166.276 80.4413 165.533 79.5185 165.533C78.5957 165.533 77.8477 166.276 77.8477 167.193C77.8477 168.11 78.5957 168.854 79.5185 168.854Z"
          fill="#86F6FD" fill-opacity="0.37"/>
    <path d="M85.3109 152.253C86.6643 152.253 87.7615 151.162 87.7615 149.818C87.7615 148.473 86.6643 147.383 85.3109 147.383C83.9575 147.383 82.8604 148.473 82.8604 149.818C82.8604 151.162 83.9575 152.253 85.3109 152.253Z"
          fill="#86F6FD" fill-opacity="0.37"/>
    <path d="M84.0856 139.523C85.1929 139.523 86.0906 138.632 86.0906 137.531C86.0906 136.431 85.1929 135.539 84.0856 135.539C82.9782 135.539 82.0806 136.431 82.0806 137.531C82.0806 138.632 82.9782 139.523 84.0856 139.523Z"
          fill="#86F6FD" fill-opacity="0.37"/>
    <path d="M102.911 143.065C104.449 143.065 105.695 141.826 105.695 140.298C105.695 138.77 104.449 137.531 102.911 137.531C101.373 137.531 100.126 138.77 100.126 140.298C100.126 141.826 101.373 143.065 102.911 143.065Z"
          fill="#86F6FD" fill-opacity="0.37"/>
    <path d="M106.364 116.283C107.41 116.283 108.257 115.44 108.257 114.401C108.257 113.362 107.41 112.52 106.364 112.52C105.318 112.52 104.47 113.362 104.47 114.401C104.47 115.44 105.318 116.283 106.364 116.283Z"
          fill="#86F6FD" fill-opacity="0.37"/>
    <path d="M143.457 97.7982C145.056 97.7982 146.353 96.5099 146.353 94.9206C146.353 93.3313 145.056 92.043 143.457 92.043C141.857 92.043 140.561 93.3313 140.561 94.9206C140.561 96.5099 141.857 97.7982 143.457 97.7982Z"
          fill="#86F6FD" fill-opacity="0.37"/>
    <path d="M141.006 75.6628C142.36 75.6628 143.457 74.5727 143.457 73.2279C143.457 71.8831 142.36 70.793 141.006 70.793C139.653 70.793 138.556 71.8831 138.556 73.2279C138.556 74.5727 139.653 75.6628 141.006 75.6628Z"
          fill="#86F6FD" fill-opacity="0.37"/>
    <path d="M120.176 30.9493C122.207 30.9493 123.852 29.314 123.852 27.2969C123.852 25.2798 122.207 23.6445 120.176 23.6445C118.146 23.6445 116.5 25.2798 116.5 27.2969C116.5 29.314 118.146 30.9493 120.176 30.9493Z"
          fill="#86F6FD" fill-opacity="0.37"/>
    <path d="M126.191 5.27217C127.545 5.27217 128.642 4.18202 128.642 2.83725C128.642 1.49249 127.545 0.402344 126.191 0.402344C124.838 0.402344 123.741 1.49249 123.741 2.83725C123.741 4.18202 124.838 5.27217 126.191 5.27217Z"
          fill="#86F6FD" fill-opacity="0.37"/>
    <path d="M15.8037 59.0625C17.2802 59.0625 18.4771 57.8733 18.4771 56.4063C18.4771 54.9392 17.2802 53.75 15.8037 53.75C14.3273 53.75 13.1304 54.9392 13.1304 56.4063C13.1304 57.8733 14.3273 59.0625 15.8037 59.0625Z"
          fill="#86F6FD" fill-opacity="0.37"/>
    <path d="M14.2442 111.855C16.2128 111.855 17.8087 110.269 17.8087 108.313C17.8087 106.357 16.2128 104.771 14.2442 104.771C12.2756 104.771 10.6797 106.357 10.6797 108.313C10.6797 110.269 12.2756 111.855 14.2442 111.855Z"
          fill="#86F6FD" fill-opacity="0.37"/>
    <path d="M43.874 91.3789C45.3505 91.3789 46.5474 90.1897 46.5474 88.7227C46.5474 87.2557 45.3505 86.0664 43.874 86.0664C42.3976 86.0664 41.2007 87.2557 41.2007 88.7227C41.2007 90.1897 42.3976 91.3789 43.874 91.3789Z"
          fill="#86F6FD" fill-opacity="0.37"/>
    <path d="M67.8228 59.0625C69.2992 59.0625 70.4962 57.8733 70.4962 56.4063C70.4962 54.9392 69.2992 53.75 67.8228 53.75C66.3463 53.75 65.1494 54.9392 65.1494 56.4063C65.1494 57.8733 66.3463 59.0625 67.8228 59.0625Z"
          fill="#86F6FD" fill-opacity="0.37"/>
    <path d="M69.1596 31.9453C71.0052 31.9453 72.5013 30.4588 72.5013 28.625C72.5013 26.7912 71.0052 25.3047 69.1596 25.3047C67.314 25.3047 65.8179 26.7912 65.8179 28.625C65.8179 30.4588 67.314 31.9453 69.1596 31.9453Z"
          fill="#86F6FD" fill-opacity="0.37"/>
    <path d="M37.7473 51.5358C39.4699 51.5358 40.8663 50.1484 40.8663 48.4369C40.8663 46.7254 39.4699 45.3379 37.7473 45.3379C36.0248 45.3379 34.6284 46.7254 34.6284 48.4369C34.6284 50.1484 36.0248 51.5358 37.7473 51.5358Z"
          fill="#86F6FD" fill-opacity="0.37"/>
    <path d="M110.374 127.017C112.342 127.017 113.938 125.431 113.938 123.475C113.938 121.519 112.342 119.934 110.374 119.934C108.405 119.934 106.809 121.519 106.809 123.475C106.809 125.431 108.405 127.017 110.374 127.017Z"
          fill="#86F6FD" fill-opacity="0.37"/>
    <path d="M162.059 97.1341C163.474 97.1341 164.621 95.9944 164.621 94.5886C164.621 93.1827 163.474 92.043 162.059 92.043C160.644 92.043 159.497 93.1827 159.497 94.5886C159.497 95.9944 160.644 97.1341 162.059 97.1341Z"
          fill="#86F6FD" fill-opacity="0.37"/>
    <path d="M175.983 97.7989C177.275 97.7989 178.322 96.7583 178.322 95.4746C178.322 94.191 177.275 93.1504 175.983 93.1504C174.691 93.1504 173.644 94.191 173.644 95.4746C173.644 96.7583 174.691 97.7989 175.983 97.7989Z"
          fill="#86F6FD" fill-opacity="0.37"/>
    <path d="M186.119 36.1517C187.534 36.1517 188.681 35.012 188.681 33.6061C188.681 32.2002 187.534 31.0605 186.119 31.0605C184.704 31.0605 183.557 32.2002 183.557 33.6061C183.557 35.012 184.704 36.1517 186.119 36.1517Z"
          fill="#86F6FD" fill-opacity="0.37"/>
    <path d="M81.1897 6.6003C82.9123 6.6003 84.3087 5.21284 84.3087 3.50132C84.3087 1.7898 82.9123 0.402344 81.1897 0.402344C79.4672 0.402344 78.0708 1.7898 78.0708 3.50132C78.0708 5.21284 79.4672 6.6003 81.1897 6.6003Z"
          fill="#86F6FD" fill-opacity="0.37"/>
    <path d="M77.6249 133.77C78.5477 133.77 79.2958 133.026 79.2958 132.109C79.2958 131.193 78.5477 130.449 77.6249 130.449C76.7022 130.449 75.9541 131.193 75.9541 132.109C75.9541 133.026 76.7022 133.77 77.6249 133.77Z"
          fill="#86F6FD" fill-opacity="0.37"/>

    <g>

        <svg width="199" height="182" viewBox="0 0 199 182" fill="none" xmlns="http://www.w3.org/2000/svg">
            <path d="M11.244 106.646C11.3554 106.646 11.4668 106.646 11.4668 106.535C11.6896 106.425 11.6896 106.093 11.4668 105.982L1.66447 94.8036C1.55308 94.6929 1.21891 94.5822 1.10751 94.8036C0.884727 94.9143 0.884727 95.2463 1.10751 95.357L10.9099 106.535C11.0212 106.646 11.1326 106.646 11.244 106.646Z" fill="#294FD5"/>
            <path d="M1.44165 95.4663C1.66443 95.4663 1.77583 95.3556 1.88722 95.1343L4.00363 72.888C4.00363 72.6667 3.89224 72.4453 3.66946 72.4453C3.44668 72.4453 3.2239 72.556 3.2239 72.7773L0.996087 95.1343C0.996087 95.2449 1.10748 95.4663 1.44165 95.4663Z" fill="#294FD5"/>
            <path d="M12.8037 54.7382C12.9151 54.7382 13.1379 54.6275 13.1379 54.5168L18.9302 40.9034C19.0416 40.6821 18.9302 40.4607 18.7074 40.3501C18.4846 40.2394 18.2618 40.3501 18.1504 40.5714L12.3582 54.1848C12.2468 54.4061 12.3582 54.6275 12.5809 54.7382C12.6923 54.7382 12.6923 54.7382 12.8037 54.7382Z" fill="#294FD5"/>
            <path d="M39.4259 22.9732C39.5373 22.9732 39.5373 22.9732 39.6487 22.9732L59.4761 11.352C59.6989 11.2413 59.6989 11.02 59.5875 10.7986C59.4761 10.5773 59.2533 10.5773 59.0306 10.6879L39.2031 22.1984C38.9803 22.3091 38.9803 22.5305 39.0917 22.7518C39.2031 22.8625 39.3145 22.9732 39.4259 22.9732Z" fill="#294FD5"/>
            <path d="M18.5955 41.2353C18.7069 41.2353 18.8183 41.2353 18.8183 41.1247L39.7596 22.8628C39.9824 22.7522 39.9824 22.4201 39.7596 22.3094C39.6482 22.1988 39.3141 22.0881 39.2027 22.3094L18.2613 40.4606C18.0385 40.5713 18.0385 40.9033 18.2613 41.014C18.3727 41.1247 18.4841 41.2353 18.5955 41.2353Z" fill="#294FD5"/>
            <path d="M3.55805 73.3306C3.66944 73.3306 3.89222 73.22 3.89222 73.1093L13.1376 54.6261C13.249 54.4047 13.1376 54.1834 12.9148 54.0727C12.692 53.962 12.4693 54.0727 12.3579 54.2941L3.22387 72.6666C3.11248 72.8879 3.22387 73.1093 3.44666 73.22C3.44666 73.3306 3.44666 73.3306 3.55805 73.3306Z" fill="#294FD5"/>
            <path d="M78.1896 181.352C78.4124 181.352 78.6352 181.131 78.6352 180.91L76.9643 165.193C76.9643 164.972 76.7415 164.861 76.5187 164.861C76.296 164.861 76.1846 165.083 76.1846 165.304L77.8554 181.02C77.8554 181.131 77.9668 181.352 78.1896 181.352Z" fill="#294FD5"/>
            <path d="M76.5186 165.525C76.7413 165.525 76.8527 165.415 76.8527 165.304L82.645 148.038C82.7564 147.817 82.645 147.596 82.4222 147.485C82.1995 147.374 81.9767 147.485 81.8653 147.706L76.073 164.972C75.9616 165.193 76.073 165.415 76.2958 165.525C76.4072 165.525 76.5186 165.525 76.5186 165.525Z" fill="#294FD5"/>
            <path d="M82.3109 148.259C82.5337 148.259 82.7565 148.038 82.7565 147.816L81.5312 135.531C81.5312 135.31 81.3084 135.199 81.0856 135.199C80.8628 135.199 80.7515 135.421 80.7515 135.642L81.9768 147.927C81.8654 148.038 82.0881 148.259 82.3109 148.259Z" fill="#294FD5"/>
            <path d="M49.8967 133.872L74.7368 130.441C74.9595 130.441 75.0709 130.219 75.0709 129.998C75.0709 129.777 74.8482 129.666 74.6254 129.666L49.7853 133.097C49.5626 133.097 49.4512 133.318 49.4512 133.54C49.4512 133.761 49.6739 133.872 49.8967 133.872Z" fill="#294FD5"/>
            <path d="M81.0858 135.975C81.1972 135.975 81.3086 135.975 81.42 135.864C81.5314 135.643 81.5314 135.422 81.42 135.311L74.9593 129.888C74.7366 129.777 74.5138 129.777 74.4024 129.888C74.291 130.109 74.291 130.33 74.4024 130.441L80.863 135.864C80.863 135.864 80.9744 135.975 81.0858 135.975Z" fill="#294FD5"/>
            <path d="M49.8963 133.873C50.0076 133.873 50.119 133.873 50.119 133.762C50.3418 133.652 50.3418 133.43 50.2304 133.209L28.0638 104.654C27.9524 104.433 27.7296 104.433 27.5068 104.543C27.284 104.654 27.284 104.875 27.3954 105.097L49.4507 133.762C49.5621 133.873 49.6735 133.873 49.8963 133.873Z" fill="#294FD5"/>
            <path d="M11.244 106.646L27.7297 105.318C27.9524 105.318 28.0638 105.096 28.0638 104.875C28.0638 104.654 27.9524 104.432 27.6183 104.543L11.1325 105.871C10.9097 105.871 10.7983 106.093 10.7983 106.314C10.9097 106.535 11.0212 106.646 11.244 106.646Z" fill="#294FD5"/>
            <path d="M59.3645 11.3516C59.4759 11.3516 59.4759 11.3516 59.5873 11.3516L78.5236 1.83334C78.635 1.72266 78.7464 1.5013 78.635 1.27995C78.5236 1.05859 78.3008 1.05859 78.0781 1.05859L59.1417 10.5769C58.9189 10.6876 58.9189 10.9089 58.9189 11.1303C59.0303 11.2409 59.1417 11.3516 59.3645 11.3516Z" fill="#294FD5"/>
            <path d="M101.136 3.4943L123.191 1.28075C123.414 1.28075 123.525 1.05939 123.525 0.83803C123.525 0.61668 123.303 0.39532 123.08 0.506L101.025 2.71956C100.802 2.71956 100.69 2.94091 100.69 3.16227C100.802 3.27295 101.025 3.4943 101.136 3.4943Z" fill="#294FD5"/>
            <path d="M101.136 3.4943C101.359 3.4943 101.47 3.38283 101.582 3.16147C101.582 2.94012 101.47 2.71876 101.247 2.71876L78.301 1.05859C78.0783 1.05859 77.8555 1.16927 77.8555 1.39063C77.8555 1.61198 77.9669 1.83334 78.1896 1.83334L101.136 3.4943Z" fill="#294FD5"/>
            <path d="M156.72 9.2489C156.942 9.2489 157.054 9.1382 157.054 8.9169C157.054 8.6955 156.942 8.4742 156.72 8.4742L123.302 0.39467C123.08 0.284 122.857 0.50535 122.857 0.72671C122.857 0.94806 122.968 1.16942 123.191 1.16942L156.72 9.2489C156.608 9.2489 156.608 9.2489 156.72 9.2489Z" fill="#294FD5"/>
            <path d="M198.045 64.5883C198.157 64.5883 198.268 64.5883 198.38 64.4776C198.491 64.2563 198.491 64.0349 198.38 63.9242L184.79 52.1924C184.679 52.0817 184.344 52.0817 184.233 52.1924C184.122 52.4137 184.122 52.6351 184.233 52.7458L197.823 64.4776C197.823 64.5883 197.934 64.5883 198.045 64.5883Z" fill="#294FD5"/>
            <path d="M172.76 18.8779C172.871 18.8779 172.983 18.7673 173.094 18.6566C173.205 18.4352 173.094 18.2139 172.983 18.1032L156.942 8.5849C156.72 8.4742 156.497 8.5849 156.385 8.6956C156.274 8.9169 156.386 9.1383 156.497 9.249L172.537 18.7673C172.537 18.7673 172.648 18.8779 172.76 18.8779Z" fill="#294FD5"/>
            <path d="M183.119 31.938C183.231 31.938 183.342 31.938 183.342 31.8273C183.565 31.7167 183.565 31.4953 183.453 31.274L173.094 18.1033C172.983 17.8819 172.648 17.8819 172.537 17.9926C172.314 18.1033 172.314 18.3247 172.426 18.546L182.785 31.7167C182.896 31.938 183.008 31.938 183.119 31.938Z" fill="#294FD5"/>
            <path d="M184.456 52.8549C184.678 52.8549 184.901 52.6336 184.901 52.4122L183.453 31.4941C183.453 31.2728 183.23 31.1621 183.008 31.1621C182.785 31.1621 182.673 31.3835 182.673 31.6048L184.01 52.4122C184.121 52.6336 184.233 52.8549 184.456 52.8549Z" fill="#294FD5"/>
            <path d="M172.983 93.9171C173.094 93.9171 173.205 93.8065 173.317 93.6958L180.891 82.296C181.003 82.0747 181.003 81.8533 180.78 81.7426C180.557 81.6319 180.334 81.6313 180.223 81.8527L172.648 93.2531C172.537 93.4744 172.537 93.6958 172.76 93.8065C172.76 93.9171 172.871 93.9171 172.983 93.9171Z" fill="#294FD5"/>
            <path d="M172.983 93.9171C173.205 93.9171 173.317 93.8073 173.428 93.5859C173.428 93.3646 173.317 93.1432 173.094 93.1432L159.282 92.2578C159.059 92.2578 158.836 92.3685 158.836 92.5898C158.836 92.8112 158.947 93.0325 159.17 93.0325L172.983 93.9171Z" fill="#294FD5"/>
            <path d="M140.457 93.364L159.17 93.0325C159.393 93.0325 159.616 92.8106 159.616 92.5892C159.616 92.3678 159.393 92.1465 159.17 92.1465L140.457 92.4785C140.234 92.4785 140.011 92.6999 140.011 92.9212C140.011 93.1426 140.234 93.364 140.457 93.364Z" fill="#294FD5"/>
            <path d="M98.017 148.481C98.24 148.481 98.351 148.371 98.463 148.149L100.356 138.41C100.356 138.188 100.245 137.967 100.022 137.967C99.799 137.967 99.577 138.077 99.577 138.299L97.683 148.038C97.571 148.26 97.683 148.481 98.017 148.481Z" fill="#294FD5"/>
            <path d="M99.911 138.742C100.022 138.742 100.245 138.631 100.245 138.521L107.708 121.587C107.819 121.366 107.708 121.144 107.485 121.034C107.262 120.923 107.04 121.034 106.928 121.255L99.465 138.189C99.354 138.41 99.465 138.631 99.688 138.742C99.799 138.742 99.911 138.742 99.911 138.742Z" fill="#294FD5"/>
            <path d="M126.755 111.846C126.867 111.846 126.978 111.736 127.09 111.736L140.791 93.1417C140.902 92.9204 140.902 92.699 140.679 92.5883C140.456 92.4776 140.234 92.4776 140.122 92.699L126.421 111.293C126.31 111.514 126.31 111.736 126.533 111.846C126.533 111.846 126.644 111.846 126.755 111.846Z" fill="#294FD5"/>
            <path d="M107.374 121.808C107.485 121.808 107.485 121.808 107.597 121.808L126.867 111.847C127.09 111.736 127.09 111.515 127.09 111.294C126.978 111.072 126.756 111.072 126.533 111.072L107.262 121.033C107.04 121.144 107.04 121.365 107.04 121.587C107.151 121.808 107.262 121.808 107.374 121.808Z" fill="#294FD5"/>
            <path d="M86.5439 177.48C86.6553 177.48 86.8781 177.369 86.8781 177.258L98.351 148.261C98.463 148.04 98.351 147.818 98.129 147.707C97.906 147.597 97.683 147.707 97.572 147.929L86.0984 176.926C85.987 177.148 86.0984 177.369 86.3212 177.48C86.4326 177.48 86.4326 177.48 86.5439 177.48Z" fill="#294FD5"/>
            <path d="M78.1896 181.352C78.3009 181.352 78.3008 181.353 78.3008 181.353L86.6551 177.59C86.8779 177.479 86.9893 177.258 86.8779 177.036C86.7665 176.815 86.5437 176.704 86.321 176.815L77.9667 180.578C77.7439 180.689 77.6325 180.91 77.7439 181.131C77.8553 181.242 78.0782 181.352 78.1896 181.352Z" fill="#294FD5"/>
            <path d="M179.306 82.6768C179.417 82.6768 179.529 82.6768 179.64 82.5661L197.128 64.6363C197.24 64.5257 197.24 64.1936 197.128 64.083C197.017 63.9723 196.683 63.9723 196.571 64.083L179.083 82.0128C178.972 82.1234 178.972 82.4555 179.083 82.5661C179.195 82.5661 179.306 82.6768 179.306 82.6768Z" fill="#294FD5"/>
        </svg>



    </g>


</svg>



