<svg width="58" height="46" viewBox="0 0 58 46" fill="none" xmlns="http://www.w3.org/2000/svg"><defs/><path d="M28.521 40.845c9.62 0 17.42-7.776 17.42-17.369 0-9.592-7.8-17.369-17.42-17.369-9.62 0-17.419 7.777-17.419 17.37 0 9.592 7.8 17.368 17.42 17.368z" fill="#00f"/><path d="M20.35 14.205a.809.809 0 10-.81-.808.81.81 0 00.81.808z" fill="#ff0"/><path d="M18.005 15.278a.506.506 0 10.002-1.01.506.506 0 00-.002 1.01zm2.117 2.736a.581.581 0 10.002-1.163.581.581 0 00-.002 1.163zm5.644.76a.678.678 0 10.002-1.355.678.678 0 00-.002 1.355zm2.336 4.481a.56.56 0 10.001-1.12.56.56 0 00-.001 1.12zm-1.755.624a.58.58 0 10.002-1.159.58.58 0 00-.002 1.159zm.822-4.176a.437.437 0 10.001-.874.437.437 0 00-.001.874zm4.782-.649a.52.52 0 10.002-1.042.52.52 0 00-.002 1.042zm.476-2.2a.554.554 0 10.002-1.108.554.554 0 00-.002 1.108zm1.304-2.134a.437.437 0 10.002-.874.437.437 0 00-.002.873zm-1.891-1.157a.41.41 0 10.002-.822.41.41 0 00-.001.822zm-1.239.493a.371.371 0 10.001-.742.371.371 0 000 .742zm-1.252 1.887a.41.41 0 100-.82.41.41 0 000 .82zm1.669 4.813a.567.567 0 10.002-1.134.567.567 0 00-.002 1.134zm4.102-1.772a.678.678 0 10.003-1.355.678.678 0 00-.002 1.355zm1.6 1.324a.606.606 0 10.002-1.212.606.606 0 00-.002 1.212zm-2.068 2.127a.613.613 0 10.001-1.226.613.613 0 00-.001 1.226zm-3.168-.293a.466.466 0 10.002-.932.466.466 0 00-.002.932zm-3.179 3.518a.358.358 0 100-.715.358.358 0 000 .715zm-3.889 2.004a.488.488 0 10.001-.976.488.488 0 00-.001.976zm-1.931-1.599a.333.333 0 100-.666.333.333 0 000 .666zm.737-1.847a.586.586 0 10.002-1.173.586.586 0 00-.002 1.173zm.476-3.578a.54.54 0 10.002-1.083.54.54 0 00-.002 1.082zm-3.17.05a.449.449 0 100-.897.449.449 0 000 .898zm-.892 1.854a.484.484 0 10.002-.969.484.484 0 00-.002.969zm-2.189-.484a.372.372 0 100-.744.372.372 0 000 .744zm-3.932 1.774a.47.47 0 10.001-.938.47.47 0 00-.001.938zm3.109 1.255a.567.567 0 10.001-1.135.567.567 0 00-.001 1.135zm-1.149-4.847a.31.31 0 100-.619.31.31 0 000 .62zm-1.708.984a.492.492 0 10.001-.985.492.492 0 00-.001.985zm1.77-3.996a.3.3 0 100-.598.3.3 0 000 .599zm2.002 2.966a.465.465 0 10.001-.93.465.465 0 00-.001.93zm4.679-2.574a.495.495 0 10.001-.991.495.495 0 00-.001.99zm1.989-2.343a.41.41 0 10.001-.821.41.41 0 00-.001.82zm3.383-.813a.42.42 0 100-.841.42.42 0 000 .841zm-2.3-1.529a.475.475 0 10.002-.95.475.475 0 00-.002.95zm4.163 4.831a.462.462 0 10-.91-.148.462.462 0 00.91.148zm1.577-.146a.346.346 0 10.002-.692.346.346 0 00-.001.692zm-5.786 4.318a.443.443 0 10.002-.886.443.443 0 00-.002.886zm-3.248.823a.352.352 0 100-.704.352.352 0 000 .704zm-1.914 1.276a.445.445 0 10.001-.89.445.445 0 000 .89zm-.852 4.279a.405.405 0 10.001-.81.405.405 0 000 .81zm5.688 1.65a.326.326 0 100-.651.326.326 0 000 .651zm-1.357 3.369a.26.26 0 100-.522.26.26 0 000 .522zm-.985.508a.32.32 0 100-.639.32.32 0 000 .64zm-.195-1.991a.195.195 0 100-.39.195.195 0 000 .39zm.679-1.951a.293.293 0 100-.587.293.293 0 000 .587zm-.144-1.509a.24.24 0 100-.482.24.24 0 000 .482zm2.232.424a.333.333 0 100-.666.333.333 0 000 .666zm.397-3.182a.221.221 0 100-.443.221.221 0 000 .443zm4.378-2.187a.344.344 0 10.001-.688.344.344 0 000 .688zm-.291-2.627a.29.29 0 10.001-.58.29.29 0 000 .58zm-2.459-5.29a.433.433 0 100-.865.433.433 0 000 .865zm.72-3.05a.286.286 0 100-.572.286.286 0 000 .572zM14.855 18.85a.31.31 0 100-.619.31.31 0 000 .62zm-.179 6.251a.417.417 0 10.001-.833.417.417 0 00-.001.833zm3.492-2.407a.318.318 0 100-.635.318.318 0 000 .635zm2.826-3.844a.31.31 0 10.001-.619.31.31 0 000 .62zm.156-3.207a.387.387 0 10.002-.774.387.387 0 00-.002.774zm-3.703 2.331a.372.372 0 10.001-.744.372.372 0 00-.001.744zm8.577 8.93a.42.42 0 100-.841.42.42 0 000 .841zm6.101-3.54a.301.301 0 100-.602.301.301 0 000 .602zm1.635.085a.277.277 0 10.002-.554.277.277 0 00-.001.554zm1.198-7.305a.306.306 0 100-.613.306.306 0 000 .613zm-12.375-3.506a.365.365 0 10.001-.73.365.365 0 000 .73zm-.431 15.072a.202.202 0 100-.405.202.202 0 000 .405z" fill="#fff"/><path d="M22.581 33.574a.046.046 0 00.043-.052l-.197-1.868a.048.048 0 00-.083-.024.048.048 0 00-.01.016.048.048 0 000 .018l.196 1.867a.046.046 0 00.017.032.046.046 0 00.034.01z" fill="#fff"/><path d="M23.561 33.124a.045.045 0 00.03-.01.047.047 0 00.007-.067l-1.18-1.419a.047.047 0 00-.067-.006.046.046 0 00-.018.032.047.047 0 00.011.035l1.181 1.418a.047.047 0 00.037.017z" fill="#fff"/><path d="M23.561 33.124a.046.046 0 00.044-.03l1.358-3.432a.047.047 0 00-.063-.059.048.048 0 00-.025.024l-1.358 3.433a.048.048 0 00.012.052.046.046 0 00.032.012z" fill="#fff"/><path d="M24.918 29.685a.045.045 0 00.034-.013.047.047 0 000-.066.048.048 0 00-.033-.015l-1.859-.033a.048.048 0 100 .095l1.86.032h-.002z" fill="#fff"/><path d="M22.379 31.704a.048.048 0 00.045-.032l.679-2.049a.048.048 0 00-.03-.06.048.048 0 00-.061.03l-.679 2.05a.049.049 0 00.03.06c.005.001.01.002.016.001z" fill="#fff"/><path d="M22.379 31.704c.01 0 .02-.003.029-.01l2.539-2.02a.047.047 0 00-.006-.08.048.048 0 00-.054.007l-2.538 2.02a.048.048 0 00-.016.05.047.047 0 00.025.03.045.045 0 00.02.003z" fill="#fff"/><path d="M22.581 33.573a.046.046 0 00.041-.023l2.342-3.883a.046.046 0 00-.002-.053.047.047 0 00-.014-.013.047.047 0 00-.065.016l-2.347 3.884a.047.047 0 00.016.065c.009.005.02.008.03.007z" fill="#fff"/><path d="M22.581 33.574a.042.042 0 00.02-.005l.985-.449a.046.046 0 00.025-.026.046.046 0 00-.002-.036.046.046 0 00-.026-.025.045.045 0 00-.036.002l-.985.448a.047.047 0 00-.023.063c.003.008.01.015.017.02a.046.046 0 00.025.008z" fill="#fff"/><path d="M23.561 33.125a.047.047 0 00.047-.04l.856-5.9a.047.047 0 00-.04-.053.044.044 0 00-.036.007.045.045 0 00-.018.031l-.856 5.901a.05.05 0 00.04.054h.008z" fill="#fff"/><path d="M22.915 28.2a.042.042 0 00.027-.006l1.5-.978a.049.049 0 000-.079.046.046 0 00-.051 0l-1.501.977a.048.048 0 00-.02.03.048.048 0 00.006.036.046.046 0 00.04.02z" fill="#fff"/><path d="M23.059 29.657h.005a.048.048 0 00.042-.051l-.144-1.456a.047.047 0 00-.015-.03.048.048 0 00-.032-.013h-.005a.047.047 0 00-.042.052l.144 1.456a.047.047 0 00.047.042z" fill="#fff"/><path d="M23.561 33.124h.006a.048.048 0 00.04-.053l-.5-3.469a.043.043 0 00-.006-.017.045.045 0 00-.048-.022.047.047 0 00-.04.035.047.047 0 000 .019l.506 3.467a.048.048 0 00.042.04z" fill="#fff"/><path d="M22.581 33.574a.049.049 0 00.048-.042l.483-3.916a.048.048 0 00-.06-.052.047.047 0 00-.029.022.046.046 0 00-.005.018l-.488 3.919v.018a.047.047 0 00.04.034l.011-.001z" fill="#fff"/><path d="M23.059 29.657a.064.064 0 00.023-.006l2.087-1.124a.046.046 0 00.023-.028c.002-.006.002-.012.002-.018a.047.047 0 00-.034-.04.047.047 0 00-.035.003l-2.088 1.124a.048.048 0 00-.02.065.05.05 0 00.018.017.05.05 0 00.024.007z" fill="#fff"/><path d="M25.148 28.533a.046.046 0 00.022-.006.048.048 0 00.023-.029.046.046 0 00-.004-.036l-.731-1.313a.047.047 0 00-.029-.022.048.048 0 00-.036.004.049.049 0 00-.018.065l.731 1.313a.048.048 0 00.041.024z" fill="#fff"/><path d="M24.416 27.224a.05.05 0 00.038-.019.048.048 0 00-.01-.066l-1.93-1.437a.048.048 0 00-.07.007.048.048 0 00.012.068l1.931 1.437c.008.007.018.01.029.01z" fill="#fff"/><path d="M19.231 27.96a.05.05 0 00.026-.008l3.254-2.173a.046.046 0 00.013-.013.046.046 0 000-.053.048.048 0 00-.066-.013l-3.253 2.174a.047.047 0 00.026.087z" fill="#fff"/><path d="M19.232 27.96h.008l2.921-.403a.046.046 0 00.032-.018.046.046 0 00.009-.035.049.049 0 00-.054-.041l-2.921.404a.047.047 0 00-.04.053.049.049 0 00.045.04z" fill="#fff"/><path d="M22.916 28.2a.04.04 0 00.026-.008.047.047 0 00.005-.074l-.764-.645a.048.048 0 00-.035-.014.048.048 0 00-.046.053c0 .006.003.013.006.018.004.006.008.01.014.015l.763.645c.008.007.02.011.03.01z" fill="#fff"/><path d="M22.915 28.201h.008a.048.048 0 00.039-.055l-.43-2.415a.045.045 0 00-.02-.031.046.046 0 00-.035-.007.047.047 0 00-.039.055l.43 2.415a.046.046 0 00.047.038z" fill="#fff"/><path d="M24.919 29.686a.044.044 0 00.025-.008.047.047 0 00.015-.065l-2.43-3.903a.049.049 0 00-.066-.015.048.048 0 00-.021.03.047.047 0 00.006.036l2.43 3.902c.004.007.01.013.017.017a.048.048 0 00.024.006z" fill="#fff"/><path d="M24.919 29.686a.047.047 0 00.046-.038l.229-1.157a.047.047 0 00-.037-.055.045.045 0 00-.056.037l-.229 1.157a.047.047 0 00.037.056h.01z" fill="#fff"/><path d="M25.148 28.533a.048.048 0 00.043-.028l.876-2.002a.047.047 0 00-.02-.068.05.05 0 00-.02-.004.05.05 0 00-.02.004.048.048 0 00-.026.03l-.877 2.001a.047.047 0 00-.001.037.045.045 0 00.01.015c.004.005.01.009.015.011a.044.044 0 00.02.004z" fill="#fff"/><path d="M26.024 26.532a.037.037 0 00.018 0 .046.046 0 00.024-.063l-.479-1.07a.047.047 0 00-.065-.03.048.048 0 00-.028.05.056.056 0 00.007.018l.48 1.07a.047.047 0 00.043.025z" fill="#fff"/><path d="M25.545 25.462a.048.048 0 00.046-.032.048.048 0 00-.017-.054l-2.323-1.782a.048.048 0 00-.035-.01.047.047 0 00-.031.02.047.047 0 00-.01.034.047.047 0 00.018.032l2.325 1.782c.008.006.017.01.027.01z" fill="#fff"/><path d="M23.222 23.68a.05.05 0 00.033-.014.05.05 0 00.014-.034.048.048 0 00-.046-.047l-3.14-.037a.048.048 0 100 .095l3.14.037h-.001z" fill="#fff"/><path d="M16.624 24.57h.013l3.458-.928a.047.047 0 00.034-.057.049.049 0 00-.059-.033l-3.458.928a.046.046 0 00-.034.039v.018a.048.048 0 00.046.033z" fill="#fff"/><path d="M19.232 27.96c.01.001.02-.003.028-.01a.048.048 0 00.02-.03.047.047 0 00-.01-.036l-2.608-3.39a.046.046 0 00-.031-.018.045.045 0 00-.035.01.047.047 0 00-.018.03.047.047 0 00.009.036l2.606 3.39c.005.006.01.011.018.014a.05.05 0 00.02.005z" fill="#fff"/><path d="M19.231 27.96a.047.047 0 00.047-.038l.85-4.318a.048.048 0 00-.005-.038.046.046 0 00-.014-.014.046.046 0 00-.037-.007.048.048 0 00-.03.022.048.048 0 00-.007.019l-.85 4.318a.047.047 0 00.037.056h.009z" fill="#fff"/><path d="M22.485 25.787a.047.047 0 00.036-.015.048.048 0 00.01-.052.048.048 0 00-.01-.016l-2.403-2.145a.045.045 0 00-.034-.014.047.047 0 00-.033.014.047.047 0 000 .067l2.403 2.145a.047.047 0 00.031.016z" fill="#fff"/><path d="M22.485 25.787a.047.047 0 00.045-.032l.737-2.108a.047.047 0 00-.013-.051.046.046 0 00-.016-.01.048.048 0 00-.06.03l-.738 2.108a.049.049 0 00.03.06l.015.003zm-7.809-1.049l1.948-.163a.048.048 0 00.032-.017.047.047 0 00.011-.034.043.043 0 00-.052-.043l-1.943.156a.049.049 0 00-.044.052.047.047 0 00.048.049z" fill="#fff"/><path d="M14.676 24.738a.044.044 0 00.025-.008.048.048 0 00.021-.047.046.046 0 00-.01-.024l-1.162-1.325a.046.046 0 00-.066 0 .046.046 0 00-.014.033.047.047 0 00.014.034l1.161 1.32a.044.044 0 00.03.017z" fill="#fff"/><path d="M13.515 23.412a.048.048 0 00.032-.012.047.047 0 00.015-.03l.251-2.631a.046.046 0 00-.01-.035.046.046 0 00-.032-.017.045.045 0 00-.047.025.045.045 0 00-.005.018l-.25 2.63a.046.046 0 00.024.047.046.046 0 00.018.005h.004z" fill="#fff"/><path d="M13.765 20.781a.046.046 0 00.02 0l1.708-.804a.048.048 0 00.028-.046.048.048 0 00-.005-.017.049.049 0 00-.064-.022l-1.709.8a.047.047 0 00.02.089h.002z" fill="#fff"/><path d="M15.475 19.98a.034.034 0 00.02 0 .048.048 0 00.023-.063l-.62-1.391a.048.048 0 00-.026-.03.046.046 0 00-.02-.004.048.048 0 00-.046.034.047.047 0 00.006.038l.62 1.393a.05.05 0 00.043.024z" fill="#fff"/><path d="M14.855 18.588a.05.05 0 00.044-.028l.682-1.61a.047.047 0 00-.027-.059.048.048 0 00-.06.021l-.683 1.61a.048.048 0 00.025.063.057.057 0 00.019.003z" fill="#fff"/><path d="M17.447 17.65a.047.047 0 00.045-.031.046.046 0 00-.013-.05.045.045 0 00-.016-.01l-1.91-.671a.047.047 0 00-.037 0 .047.047 0 00-.024.028.048.048 0 00.029.06l1.91.672c.005.002.01.002.016.002z" fill="#fff"/><path d="M17.447 17.65a.046.046 0 00.047-.038l.558-2.827a.048.048 0 00-.038-.056.048.048 0 00-.056.037l-.557 2.828a.045.045 0 000 .018.045.045 0 00.02.03.048.048 0 00.017.007h.009z" fill="#fff"/><path d="M20.122 17.48a.047.047 0 00.037-.076l-2.117-2.663a.047.047 0 00-.083.003.046.046 0 00-.002.04.048.048 0 00.011.016l2.117 2.668c.005.005.01.008.017.01a.045.045 0 00.02.003z" fill="#fff"/><path d="M20.123 17.48a.046.046 0 00.046-.044l.23-4.039a.048.048 0 00-.046-.05.05.05 0 00-.05.045l-.228 4.04a.048.048 0 00.045.05l.003-.001z" fill="#fff"/><path d="M21.146 15.304a.056.056 0 00.02 0 .048.048 0 00.029-.045.05.05 0 00-.004-.018l-.797-1.86a.049.049 0 00-.063-.024.045.045 0 00-.025.026.047.047 0 000 .036l.797 1.86a.048.048 0 00.043.025z" fill="#fff"/><path d="M22.218 17.174a.05.05 0 00.023-.006.045.045 0 00.023-.029.046.046 0 00-.006-.036l-1.07-1.87a.047.047 0 00-.029-.02.047.047 0 00-.053.066l1.07 1.87a.046.046 0 00.042.025z" fill="#fff"/><path d="M21.147 15.304a.048.048 0 00.043-.027l1.436-2.983a.047.047 0 00-.02-.068.048.048 0 00-.065.027l-1.437 2.983a.049.049 0 00.022.063.054.054 0 00.02.005z" fill="#fff"/><path d="M20.354 13.444a.054.054 0 00.021-.005l2.228-1.124a.047.047 0 00.026-.045.047.047 0 00-.069-.039l-2.233 1.123a.045.045 0 00-.024.027.047.047 0 00.003.037.048.048 0 00.048.026z" fill="#fff"/><path d="M18.005 14.821a.05.05 0 00.024-.006l2.344-1.378a.045.045 0 00.023-.029.046.046 0 00-.005-.036.047.047 0 00-.065-.017l-2.344 1.378a.047.047 0 00-.021.053.047.047 0 00.044.035z" fill="#fff"/><path d="M15.537 16.98a.042.042 0 00.017-.003.042.042 0 00.014-.01l2.468-2.156a.047.047 0 00.005-.067.048.048 0 00-.067-.005l-2.468 2.158a.045.045 0 000 .066.05.05 0 00.031.017zm-1.772 3.8a.046.046 0 00.042-.026l1.091-2.192a.048.048 0 10-.086-.042l-1.09 2.192a.049.049 0 00.022.064.042.042 0 00.021.005zm11.525-8.27a.048.048 0 100-.094l-2.708-.19c-.006 0-.013 0-.019.002a.045.045 0 00-.032.042.048.048 0 00.044.052l2.708.188h.007z" fill="#fff"/><path d="M25.29 12.51h.005l2.603-.266a.048.048 0 00.043-.052.049.049 0 00-.053-.042l-2.602.27a.048.048 0 00-.048.047.048.048 0 00.048.047l.004-.004z" fill="#fff"/><path d="M31.84 13.199a.048.048 0 00.037-.074.048.048 0 00-.025-.02l-3.95-.956a.048.048 0 00-.054.072.048.048 0 00.032.02l3.95.957h.01z" fill="#fff"/><path d="M33.732 14.328a.046.046 0 00.04-.023.047.047 0 00-.016-.064l-1.891-1.13a.048.048 0 10-.05.081l1.893 1.13a.045.045 0 00.024.006z" fill="#fff"/><path d="M34.958 15.886a.05.05 0 00.03-.01.046.046 0 00.008-.067l-1.227-1.557a.049.049 0 00-.05-.017.05.05 0 00-.017.009.048.048 0 00-.008.067l1.228 1.557a.046.046 0 00.037.018z" fill="#fff"/><path d="M35.12 18.355a.048.048 0 00.045-.05l-.163-2.47a.047.047 0 00-.047-.044.047.047 0 00-.033.016.048.048 0 00-.012.035l.163 2.469a.048.048 0 00.048.044z" fill="#fff"/><path d="M36.72 19.75a.044.044 0 00.035-.017.047.047 0 000-.066l-1.603-1.392a.047.047 0 00-.066.005.047.047 0 00.004.066l1.598 1.395c.01.006.02.01.032.009z" fill="#fff"/><path d="M34.651 21.871a.047.047 0 00.035-.015l2.068-2.12a.047.047 0 00.014-.055.049.049 0 00-.028-.027.047.047 0 00-.054.016l-2.068 2.12a.048.048 0 00-.009.052.049.049 0 00.042.03z" fill="#fff"/><path d="M33.761 23.223a.045.045 0 00.04-.021l.89-1.35a.048.048 0 000-.053.048.048 0 00-.03-.02.047.047 0 00-.048.021l-.894 1.346a.047.047 0 00-.006.036.047.047 0 00.02.03.038.038 0 00.028.011z" fill="#fff"/><path d="M33.761 23.223a.048.048 0 00.046-.062.046.046 0 00-.042-.032l-1.637-.108a.044.044 0 00-.047.025.043.043 0 00-.004.019.049.049 0 00.045.05l1.636.108h.003z" fill="#fff"/><path d="M29.924 23.154l2.201-.043a.048.048 0 00.05-.066.048.048 0 00-.03-.026.048.048 0 00-.02-.001l-2.201.041a.047.047 0 00-.044.03.046.046 0 00-.003.019.047.047 0 00.047.046z" fill="#fff"/><path d="M28.304 25.35a.05.05 0 00.039-.019l1.62-2.197a.048.048 0 00-.046-.075.048.048 0 00-.031.018l-1.62 2.199a.047.047 0 00.038.074z" fill="#fff"/><path d="M26.024 26.532a.054.054 0 00.021 0l2.282-1.188a.047.047 0 00.02-.064.049.049 0 00-.065-.02l-2.28 1.181a.047.047 0 00.022.089v.002z" fill="#fff"/><path d="M26.024 26.532a.048.048 0 00.047-.042l.323-3.185a.048.048 0 00-.008-.038.046.046 0 00-.034-.019.047.047 0 00-.036.012.047.047 0 00-.016.035l-.323 3.184a.049.049 0 00.043.052h.004z" fill="#fff"/><path d="M26.347 23.348h.015l1.755-.606a.049.049 0 00.028-.024.047.047 0 00-.022-.064.048.048 0 00-.036-.002l-1.755.606a.046.046 0 00-.032.041c0 .006 0 .013.003.018a.046.046 0 00.044.03z" fill="#fff"/><path d="M29.923 23.153a.048.048 0 00.048-.042.047.047 0 00-.009-.033.047.047 0 00-.029-.018l-1.822-.411a.046.046 0 00-.05.018.046.046 0 00-.007.017.047.047 0 00.019.05c.005.003.01.006.017.007l1.822.411.011.001z" fill="#fff"/><path d="M29.924 23.154a.05.05 0 00.032-.013l1.56-1.432a.048.048 0 00-.03-.079.048.048 0 00-.033.009l-1.562 1.429a.049.049 0 00-.01.015.048.048 0 00.01.052.045.045 0 00.033.019z" fill="#fff"/><path d="M32.124 23.111a.047.047 0 00.043-.068l-.64-1.386a.048.048 0 00-.086.04l.64 1.387a.05.05 0 00.043.027z" fill="#fff"/><path d="M32.125 23.111a.04.04 0 00.021 0l2.532-1.24a.048.048 0 00.022-.064.047.047 0 00-.064-.02l-2.537 1.234a.047.047 0 00-.021.023.048.048 0 00.043.067h.004z" fill="#fff"/><path d="M34.652 21.871a.049.049 0 00.043-.028.047.047 0 00-.023-.063l-3.634-1.633a.048.048 0 00-.063.024.047.047 0 00.023.062l3.633 1.633a.045.045 0 00.02.005z" fill="#fff"/><path d="M31.018 20.237a.047.047 0 00.041-.024l.933-1.656a.047.047 0 00-.054-.069.048.048 0 00-.029.023l-.933 1.656a.048.048 0 00.019.064.045.045 0 00.023.006z" fill="#fff"/><path d="M31.951 18.579l3.172-.227a.048.048 0 00.011-.092.049.049 0 00-.019-.003l-3.17.227a.048.048 0 00-.045.05.049.049 0 00.051.045zm-16.475 1.402a.05.05 0 00.036-.017l1.972-2.33a.046.046 0 00.006-.053.047.047 0 00-.012-.014.048.048 0 00-.067.005l-1.972 2.331a.048.048 0 00-.011.035.047.047 0 00.017.032c.008.007.02.011.031.011z" fill="#fff"/><path d="M17.54 19.778a.048.048 0 00.044-.049l-.092-2.128a.049.049 0 00-.05-.046.05.05 0 00-.033.016.047.047 0 00-.012.034l.093 2.128c0 .006.001.013.004.018a.046.046 0 00.027.024.046.046 0 00.018.003z" fill="#fff"/><path d="M15.475 19.981l2.065-.202a.048.048 0 00.03-.078.048.048 0 00-.03-.016l-2.065.202a.049.049 0 00-.043.052.048.048 0 00.043.042z" fill="#fff"/><path d="M15.475 19.98a.048.048 0 00.048-.046l.062-3.001a.049.049 0 00-.047-.049.047.047 0 00-.044.029.046.046 0 00-.003.017l-.062 3.002a.048.048 0 00.046.049z" fill="#fff"/><path d="M20.122 17.481a.048.048 0 00.048-.063.048.048 0 00-.025-.027.047.047 0 00-.018-.004l-4.585-.505a.044.044 0 00-.035.008.044.044 0 00-.017.033.047.047 0 00.01.035.047.047 0 00.032.018l4.584.504.006.001z" fill="#fff"/><path d="M20.994 18.588a.047.047 0 00.042-.024.05.05 0 00.005-.017.049.049 0 00-.01-.035l-.871-1.11a.048.048 0 00-.032-.018.048.048 0 00-.047.023.045.045 0 00-.006.018c-.001.006 0 .012.001.018a.046.046 0 00.009.017l.872 1.11c.004.006.01.01.016.014a.046.046 0 00.021.005z" fill="#fff"/><path d="M20.994 18.589a.048.048 0 00.047-.054.044.044 0 00-.006-.018.046.046 0 00-.029-.022l-3.544-.938a.047.047 0 00-.036.004.048.048 0 00-.022.029.05.05 0 00.034.059l3.544.938.012.002z" fill="#fff"/><path d="M20.527 20.295a.051.051 0 00.037-.016.048.048 0 00-.005-.067l-3.082-2.643a.046.046 0 00-.034-.012.046.046 0 00-.033.017.048.048 0 00.005.067l3.082 2.64a.049.049 0 00.03.014z" fill="#fff"/><path d="M20.528 20.295a.046.046 0 00.045-.034l.467-1.701a.047.047 0 00-.017-.05.047.047 0 00-.052-.004.047.047 0 00-.022.028l-.467 1.702a.047.047 0 00.005.035.046.046 0 00.029.022l.012.002z" fill="#fff"/><path d="M23.695 20.146a.048.048 0 00.041-.023.047.047 0 00-.017-.064L21.014 18.5a.048.048 0 00-.065.017.047.047 0 00.019.064l2.703 1.558a.047.047 0 00.024.006z" fill="#fff"/><path d="M20.527 20.295l3.17-.143a.047.047 0 00.046-.05c0-.026-.02-.042-.05-.045l-3.168.137a.048.048 0 100 .095l.002.006z" fill="#fff"/><path d="M19.636 22.112a.048.048 0 00.043-.026l.89-1.817a.047.047 0 00-.006-.052.046.046 0 00-.014-.01.049.049 0 00-.064.02l-.891 1.818a.048.048 0 00-.005.017c0 .007 0 .013.003.019a.046.046 0 00.024.026.035.035 0 00.02.005z" fill="#fff"/><path d="M19.637 22.113a.046.046 0 00.035-.08L17.575 19.7a.049.049 0 00-.067 0 .049.049 0 00-.014.034.048.048 0 00.014.034l2.096 2.328a.046.046 0 00.033.018z" fill="#fff"/><path d="M20.528 20.295a.046.046 0 00.046-.04.047.047 0 00-.007-.035.046.046 0 00-.031-.019l-2.989-.512a.044.044 0 00-.035.007.044.044 0 00-.02.032.048.048 0 00.04.054l2.988.511.008.002z" fill="#fff"/><path d="M21.996 22.459c.01 0 .018-.003.026-.008a.049.049 0 00.013-.066l-1.468-2.169a.048.048 0 00-.066-.013.048.048 0 00-.013.066l1.468 2.168a.049.049 0 00.04.022z" fill="#fff"/><path d="M21.995 22.46a.047.047 0 00.052-.045.047.047 0 00-.012-.034.048.048 0 00-.032-.017l-2.359-.352a.048.048 0 00-.035.008.046.046 0 00-.019.031.047.047 0 00.022.047.045.045 0 00.018.007l2.36.351.005.003z" fill="#fff"/><path d="M18.167 22.424h.01l1.467-.318a.048.048 0 00.03-.02c.006-.011.009-.024.006-.036a.05.05 0 00-.057-.036l-1.469.317a.048.048 0 00-.036.056.048.048 0 00.049.037z" fill="#fff"/><path d="M18.167 22.425a.043.043 0 00.034-.014.047.047 0 000-.067l-.72-.69a.048.048 0 00-.082.034.046.046 0 00.014.033l.72.69a.05.05 0 00.034.014z" fill="#fff"/><path d="M17.447 21.735a.047.047 0 00.048-.044l.092-1.957c0-.006 0-.013-.003-.019a.046.046 0 00-.042-.03c-.006-.001-.012 0-.018.001a.046.046 0 00-.027.025.046.046 0 00-.004.018l-.093 1.957a.047.047 0 00.045.049h.002z" fill="#fff"/><path d="M13.514 23.412a.048.048 0 00.032-.012l4.025-3.635a.048.048 0 000-.064.048.048 0 00-.063-.006l-4.025 3.635a.047.047 0 000 .067.046.046 0 00.03.015z" fill="#fff"/><path d="M13.514 23.412a.057.057 0 00.02 0l3.931-1.677a.048.048 0 00.026-.026.048.048 0 000-.036.05.05 0 00-.063-.024l-3.932 1.676a.049.049 0 00-.026.062.047.047 0 00.044.025z" fill="#fff"/><path d="M17.447 21.735a.053.053 0 00.02 0l3.08-1.445a.046.046 0 00.026-.027.047.047 0 00-.002-.037.05.05 0 00-.064-.022l-3.08 1.44a.05.05 0 00-.024.064.046.046 0 00.044.027z" fill="#fff"/><path d="M20.528 20.295a.048.048 0 00.048-.044.047.047 0 00-.005-.024L18.05 14.76a.049.049 0 00-.063-.024.048.048 0 00-.025.027.047.047 0 00.002.037l2.522 5.468a.047.047 0 00.043.028z" fill="#fff"/><path d="M21.146 15.304a.049.049 0 00.048-.04.048.048 0 00-.022-.048.046.046 0 00-.018-.006l-3.139-.482a.048.048 0 00-.053.019.047.047 0 00.003.056.048.048 0 00.035.018l3.14.482.006.001z" fill="#fff"/><path d="M20.994 18.589a.047.047 0 00.048-.045l.151-3.285a.047.047 0 00-.011-.034.047.047 0 00-.033-.016.045.045 0 00-.05.046l-.153 3.284a.048.048 0 00.046.05h.002z" fill="#fff"/><path d="M20.994 18.589a.045.045 0 00.035-.017l1.224-1.413a.047.047 0 000-.067.046.046 0 00-.034-.014.047.047 0 00-.033.014l-1.224 1.414a.048.048 0 00.005.067.046.046 0 00.027.016z" fill="#fff"/><path d="M20.122 17.481h.006l2.097-.303a.047.047 0 00.03-.018.045.045 0 00.008-.035.042.042 0 00-.004-.018.044.044 0 00-.048-.021l-2.097.302a.048.048 0 00-.03.019.047.047 0 00-.01.035.048.048 0 00.048.04z" fill="#fff"/><path d="M25.767 18.145a.048.048 0 00.029-.016.048.048 0 000-.062.048.048 0 00-.03-.016l-5.644-.663a.048.048 0 00-.052.04.048.048 0 00.01.035c.008.01.019.017.031.018l5.644.664h.012z" fill="#fff"/><path d="M23.695 20.147a.048.048 0 00.033-.013l2.068-2.002a.047.047 0 10-.066-.068l-2.067 2.002a.046.046 0 00-.01.052.047.047 0 00.043.03z" fill="#fff"/><path d="M25.245 21.545a.05.05 0 00.035-.015.047.047 0 00.014-.034.047.047 0 00-.014-.033l-1.546-1.4a.048.048 0 00-.08.039.05.05 0 00.016.032l1.544 1.399c.009.007.02.012.03.012z" fill="#fff"/><path d="M25.244 21.545a.048.048 0 00.048-.04l.522-3.4a.048.048 0 00-.01-.036.048.048 0 00-.066-.01.047.047 0 00-.019.031l-.521 3.4a.048.048 0 00.04.055h.006z" fill="#fff"/><path d="M25.766 18.144a.035.035 0 00.02 0 .047.047 0 00.023-.062l-1.57-3.231a.048.048 0 00-.086.041l1.57 3.231a.047.047 0 00.043.021z" fill="#fff"/><path d="M22.218 17.174a.05.05 0 00.035-.016l1.98-2.258a.045.045 0 00.013-.033.047.047 0 00-.014-.033.048.048 0 00-.067 0l-1.978 2.257a.047.047 0 00.036.079l-.005.004z" fill="#fff"/><path d="M22.218 17.174a.04.04 0 00.018 0l4.955-2.028a.047.047 0 10-.037-.088L22.2 17.084a.047.047 0 00.018.09z" fill="#fff"/><path d="M25.767 18.144a.048.048 0 00.043-.027l1.406-2.997a.048.048 0 00-.023-.064.049.049 0 00-.063.023l-1.41 2.994a.048.048 0 00.024.064.046.046 0 00.023.007z" fill="#fff"/><path d="M27.172 19.314a.048.048 0 00.045-.031.048.048 0 00-.015-.053l-1.405-1.17a.048.048 0 00-.067.006.046.046 0 00-.011.035.047.047 0 00.017.032l1.402 1.17c.01.008.022.012.034.011z" fill="#fff"/><path d="M27.172 19.314a.048.048 0 00.032-.012l1.822-1.574a.047.047 0 00-.051-.077.047.047 0 00-.016.01l-1.822 1.575a.047.047 0 000 .066.047.047 0 00.035.012z" fill="#fff"/><path d="M28.996 17.74c.01 0 .02-.003.027-.009a.048.048 0 00.011-.065l-1.822-2.593a.049.049 0 00-.067-.011.048.048 0 00-.011.065l1.822 2.592a.05.05 0 00.04.02z" fill="#fff"/><path d="M27.172 15.146c.01 0 .02-.003.027-.008a.047.047 0 00.017-.023l.418-1.053a.048.048 0 00-.027-.061.049.049 0 00-.062.026l-.417 1.054a.048.048 0 00.027.062.053.053 0 00.017.003z" fill="#fff"/><path d="M29.348 15.58a.05.05 0 00.037-.017.048.048 0 00-.007-.066l-1.757-1.487a.047.047 0 00-.035-.01.047.047 0 00-.032.015.046.046 0 00.005.067l1.758 1.486a.04.04 0 00.031.011z" fill="#fff"/><path d="M28.996 17.74a.046.046 0 00.047-.04l.352-2.16a.049.049 0 00-.001-.018.05.05 0 00-.021-.03.047.047 0 00-.036-.006.047.047 0 00-.036.04l-.352 2.16a.046.046 0 00.038.054h.009z" fill="#fff"/><path d="M28.996 17.739a.036.036 0 00.017 0 .045.045 0 00.027-.06l-1.406-3.645a.048.048 0 00-.043-.037.048.048 0 00-.037.014.047.047 0 00-.008.056l1.405 3.647a.05.05 0 00.019.019.046.046 0 00.026.006z" fill="#fff"/><path d="M27.59 14.093a.048.048 0 00.04-.02.047.047 0 00-.013-.066l-2.301-1.588a.048.048 0 00-.066.012.047.047 0 00.01.066l2.304 1.588a.043.043 0 00.026.008z" fill="#fff"/><path d="M24.201 14.916a.048.048 0 00.043-.027l1.094-2.407a.048.048 0 00-.087-.04l-1.093 2.408a.048.048 0 00.023.063.047.047 0 00.02.003z" fill="#fff"/><path d="M24.2 14.916a.048.048 0 00.046-.036.045.045 0 00-.006-.035l-1.613-2.596a.048.048 0 00-.066-.015.047.047 0 00-.015.065l1.614 2.595a.046.046 0 00.04.022z" fill="#fff"/><path d="M27.17 15.146a.047.047 0 00.045-.059.049.049 0 00-.022-.03l-4.586-2.826a.048.048 0 00-.064.015.047.047 0 00.015.066l4.586 2.827a.047.047 0 00.025.007z" fill="#fff"/><path d="M27.17 15.146a.048.048 0 00.047-.044.048.048 0 00-.044-.051l-2.972-.229c-.006 0-.013 0-.019.002a.045.045 0 00-.032.042c0 .006 0 .012.002.018a.048.048 0 00.042.032l2.971.23h.004z" fill="#fff"/><path d="M21.146 15.304h.006l3.049-.388a.048.048 0 00-.011-.094l-3.05.387a.048.048 0 00-.045.05.047.047 0 00.05.045z" fill="#fff"/><path d="M25.766 18.144a.047.047 0 00.044-.065.047.047 0 00-.02-.023l-4.619-2.84a.049.049 0 00-.036-.006.047.047 0 00-.03.021.048.048 0 00.017.066l4.619 2.84a.046.046 0 00.025.007z" fill="#fff"/><path d="M28.102 22.743a.059.059 0 00.022-.005.048.048 0 00.02-.064l-2.336-4.6a.047.047 0 00-.045-.026.047.047 0 00-.018.006.047.047 0 00-.026.046c0 .006.002.012.005.017l2.336 4.602a.046.046 0 00.042.024z" fill="#fff"/><path d="M28.102 22.743h.012a.048.048 0 00.029-.022.047.047 0 00.004-.036l-.928-3.433a.048.048 0 00-.059-.033.048.048 0 00-.033.059l.93 3.428a.048.048 0 00.045.037z" fill="#fff"/><path d="M29.633 20.578a.048.048 0 00.046-.035.048.048 0 00-.023-.053l-2.461-1.266a.047.047 0 00-.038-.006.048.048 0 00-.03.024.049.049 0 00-.003.039.048.048 0 00.027.027l2.461 1.265a.042.042 0 00.021.005z" fill="#fff"/><path d="M29.633 20.579h.01a.047.047 0 00.037-.038.047.047 0 000-.019l-.638-2.84a.048.048 0 00-.093.022l.637 2.84c.003.01.01.018.018.025.008.006.018.01.029.01z" fill="#fff"/><path d="M31.018 20.238a.054.054 0 00.03-.01.048.048 0 00.012-.015.046.046 0 00-.005-.053l-2.026-2.497a.048.048 0 00-.032-.02.048.048 0 00-.053.044.047.047 0 00.012.035l2.025 2.498a.052.052 0 00.037.018z" fill="#fff"/><path d="M31.485 21.725h.013a.047.047 0 00.034-.04c0-.007 0-.013-.002-.019l-.467-1.486a.045.045 0 00-.04-.034c-.006 0-.013 0-.019.002a.048.048 0 00-.028.024.046.046 0 00-.003.036l.467 1.486a.047.047 0 00.045.03z" fill="#fff"/><path d="M31.485 21.724a.047.047 0 00.023-.006.047.047 0 00.016-.017.048.048 0 00.006-.035.045.045 0 00-.021-.03l-1.851-1.14a.047.047 0 10-.05.081l1.851 1.145a.057.057 0 00.026.002z" fill="#fff"/><path d="M28.102 22.743a.05.05 0 00.04-.02l1.527-2.163a.05.05 0 00-.012-.067.048.048 0 00-.035-.008.046.046 0 00-.03.02l-1.529 2.163a.047.047 0 00.039.075z" fill="#fff"/><path d="M28.102 22.742a.046.046 0 00.049-.024.047.047 0 00-.024-.062l-2.859-1.197a.048.048 0 00-.063.026.05.05 0 00.026.062l2.857 1.197c.005 0 .01 0 .014-.002z" fill="#fff"/><path d="M26.347 23.347a.043.043 0 00.024-.007.048.048 0 00.017-.065l-1.103-1.802a.046.046 0 00-.03-.021.048.048 0 00-.051.07l1.103 1.802a.048.048 0 00.04.023z" fill="#fff"/><path d="M23.222 23.68l3.125-.331a.048.048 0 00.041-.053.044.044 0 00-.052-.042l-3.124.332a.046.046 0 00-.042.052l.006.018a.045.045 0 00.028.022.045.045 0 00.018.002z" fill="#fff"/><path d="M23.222 23.68a.05.05 0 00.048-.042l.476-3.534a.048.048 0 00-.041-.052.048.048 0 00-.054.04l-.476 3.534a.047.047 0 00.04.054h.007z" fill="#fff"/><path d="M21.996 22.459a.048.048 0 00.037-.02l1.703-2.312a.049.049 0 00.009-.035.047.047 0 00-.085-.021l-1.703 2.312a.049.049 0 00.01.067.05.05 0 00.029.009z" fill="#fff"/><path d="M26.347 23.348a.047.047 0 00.01-.094l-4.355-.889a.047.047 0 00-.056.037.048.048 0 00.037.056l4.354.889h.01z" fill="#fff"/><path d="M26.347 23.348a.046.046 0 00.041-.026.047.047 0 00-.019-.063L20.55 20.2a.048.048 0 00-.062.02.047.047 0 00.018.064l5.823 3.058a.046.046 0 00.019.006zm-6.265.294h.013a.047.047 0 00.029-.023.046.046 0 00.004-.036l-.446-1.534a.048.048 0 10-.091.026l.445 1.535a.05.05 0 00.046.032z" fill="#fff"/><path d="M16.624 24.57a.048.048 0 00.03-.011l3.012-2.463a.048.048 0 00-.06-.073l-3.012 2.463a.048.048 0 00-.018.032c0 .006 0 .012.002.018a.049.049 0 00.01.017.05.05 0 00.036.017z" fill="#fff"/><path d="M16.624 24.57a.046.046 0 00.022-.006.046.046 0 00.017-.015l1.543-2.145a.048.048 0 00.006-.056.047.047 0 00-.032-.023.047.047 0 00-.038.01.047.047 0 00-.013.014l-1.543 2.146a.047.047 0 00.038.075z" fill="#fff"/><path d="M19.232 27.96h.008a.047.047 0 00.038-.055l-1.065-5.535a.044.044 0 00-.02-.031.045.045 0 00-.036-.007.047.047 0 00-.037.055l1.063 5.536a.05.05 0 00.049.037z" fill="#fff"/><path d="M19.232 27.96a.05.05 0 00.042-.025l2.764-5.502a.048.048 0 00-.005-.054.049.049 0 00-.015-.012.049.049 0 00-.037-.002.048.048 0 00-.028.025l-2.764 5.502a.047.047 0 00-.003.037.046.046 0 00.024.027.05.05 0 00.021.005zm5.184-.735a.047.047 0 00.04-.023l1.129-1.758a.045.045 0 00.006-.035.045.045 0 00-.02-.03.047.047 0 00-.036-.006.049.049 0 00-.017.008.05.05 0 00-.013.013l-1.13 1.763a.049.049 0 000 .048.049.049 0 00.041.025v-.005z" fill="#fff"/><path d="M22.485 25.787l3.06-.326a.048.048 0 00.042-.052.045.045 0 00-.034-.042.044.044 0 00-.019 0l-3.054.326a.048.048 0 00.005.093z" fill="#fff"/><path d="M25.545 25.462a.05.05 0 00.044-.03l.802-2.114a.048.048 0 00-.064-.061.048.048 0 00-.025.026l-.802 2.114a.049.049 0 00.027.062.053.053 0 00.018.003zm2.759-.112a.049.049 0 00.044-.05l-.203-2.609a.049.049 0 00-.017-.032.047.047 0 00-.035-.011.05.05 0 00-.032.016.047.047 0 00-.011.035l.203 2.608a.049.049 0 00.051.044z" fill="#fff"/><path d="M26.024 26.532a.05.05 0 00.041-.024l2.078-3.79a.047.047 0 00-.054-.069.047.047 0 00-.029.023l-2.078 3.79a.047.047 0 00.042.07zm2.972-8.792h.009l2.035-.417a.047.047 0 00.018-.086.046.046 0 00-.036-.006l-2.035.416a.047.047 0 00-.04.033c-.002.006-.003.012-.002.018 0 .006.002.012.005.017a.048.048 0 00.027.023.047.047 0 00.019.002z" fill="#fff"/><path d="M31.018 20.238a.048.048 0 00.048-.047l.013-2.915a.047.047 0 00-.047-.047.048.048 0 00-.048.047l-.013 2.918a.048.048 0 00.047.048v-.004z" fill="#fff"/><path d="M31.032 17.323a.042.042 0 00.026-.008l1.396-.976a.048.048 0 00.012-.066.048.048 0 00-.065-.01l-1.397.975a.045.045 0 00-.02.03.046.046 0 00.025.05.05.05 0 00.023.005z" fill="#fff"/><path d="M32.426 16.348c.01 0 .02-.003.028-.01a.049.049 0 00.012-.066l-1.823-2.614a.046.046 0 00-.049-.02.05.05 0 00-.03.02.048.048 0 00.001.054l1.823 2.616a.048.048 0 00.038.02z" fill="#fff"/><path d="M30.6 13.732h.02l1.238-.534a.047.047 0 00.026-.026.045.045 0 000-.036.049.049 0 00-.063-.025l-1.24.531a.047.047 0 00-.026.062.05.05 0 00.046.028z" fill="#fff"/><path d="M31.024 17.327a.05.05 0 00.048-.038l.81-4.128a.047.047 0 00-.038-.055.044.044 0 00-.056.037l-.816 4.128a.048.048 0 00.038.055l.014.001z" fill="#fff"/><path d="M31.024 17.328a.048.048 0 00.043-.029.047.047 0 00-.008-.051L29.382 15.5a.046.046 0 00-.051-.01.045.045 0 00-.015.01.047.047 0 000 .067l1.677 1.747c.008.009.02.013.031.014z" fill="#fff"/><path d="M29.349 15.58a.046.046 0 00.038-.02l1.254-1.848a.048.048 0 00-.014-.066.048.048 0 00-.065.012l-1.253 1.848a.047.047 0 00.012.066.046.046 0 00.027.008z" fill="#fff"/><path d="M30.601 13.732a.05.05 0 00.041-.025.047.047 0 00.004-.036.047.047 0 00-.023-.028l-2.706-1.49a.046.046 0 00-.018-.005.06.06 0 00-.019.001.047.047 0 00-.028.023.047.047 0 00.018.065l2.71 1.495a.046.046 0 00.021 0z" fill="#fff"/><path d="M27.59 14.093a.048.048 0 00.047-.04l.304-1.85a.048.048 0 00-.039-.055.047.047 0 00-.018.001.047.047 0 00-.03.021.047.047 0 00-.007.018l-.304 1.846a.046.046 0 000 .019.046.046 0 00.022.03.048.048 0 00.017.006l.007.004z" fill="#fff"/><path d="M24.201 14.916h.01l3.394-.822a.047.047 0 00.014-.086.048.048 0 00-.037-.006l-3.393.823a.048.048 0 00.012.093v-.002z" fill="#fff"/><path d="M24.201 14.917c.01 0 .02-.004.028-.01l3.696-2.673a.047.047 0 00-.003-.079.045.045 0 00-.052.003l-3.697 2.674a.047.047 0 00-.011.066.05.05 0 00.04.019z" fill="#fff"/><path d="M29.348 15.58h.018a.046.046 0 00.029-.045.047.047 0 00-.004-.018l-1.454-3.34a.048.048 0 00-.026-.028.047.047 0 00-.039 0 .048.048 0 00-.026.027.047.047 0 00.003.038l1.456 3.335a.046.046 0 00.043.03z" fill="#fff"/><path d="M29.348 15.58h.017l4.385-1.253a.047.047 0 00.008-.085.048.048 0 00-.035-.006L29.34 15.49a.046.046 0 00.013.091h-.005z" fill="#fff"/><path d="M32.427 16.348a.05.05 0 00.04-.021l1.306-2.02a.049.049 0 00-.016-.066.047.047 0 00-.035-.006.048.048 0 00-.03.02l-1.305 2.02a.045.045 0 00-.006.035.046.046 0 00.02.03.049.049 0 00.026.008z" fill="#fff"/><path d="M35.12 18.355a.045.045 0 00.04-.02.047.047 0 00.003-.052.047.047 0 00-.013-.013l-2.694-2.008a.049.049 0 00-.058.077l2.694 2.007c.009.006.019.01.029.01z" fill="#fff"/><path d="M32.427 16.348h.009l2.532-.461a.048.048 0 00.038-.056.048.048 0 00-.056-.038l-2.531.462a.048.048 0 00.008.094z" fill="#fff"/><path d="M31.951 18.578a.048.048 0 00.032-.012l3.008-2.696a.047.047 0 00-.031-.078.048.048 0 00-.033.009l-3.008 2.696a.048.048 0 000 .066.04.04 0 00.032.015z" fill="#fff"/><path d="M34.958 15.886a.048.048 0 00.044-.027.049.049 0 00-.022-.063l-4.355-2.153a.047.047 0 00-.051.007.048.048 0 00.01.078l4.354 2.153a.036.036 0 00.02.005z" fill="#fff"/><path d="M35.121 18.356h.017a.047.047 0 00.029-.06l-1.39-4.026a.047.047 0 00-.06-.028.048.048 0 00-.03.058l1.39 4.027a.048.048 0 00.044.029zm1.599 1.394a.048.048 0 00.037-.074.047.047 0 00-.026-.02l-4.77-1.168a.049.049 0 00-.036.005.046.046 0 00-.021.03.047.047 0 00.034.058l4.77 1.167.012.001z" fill="#fff"/><path d="M31.018 20.238l5.703-.488a.049.049 0 00.043-.052.049.049 0 00-.052-.043l-5.702.489a.048.048 0 000 .094h.008z" fill="#fff"/><path d="M31.485 21.725h.017l5.235-1.974a.047.047 0 00.019-.077.049.049 0 00-.034-.015.05.05 0 00-.019.003l-5.235 1.975a.047.047 0 00-.03.043c0 .006 0 .012.003.018a.048.048 0 00.044.027z" fill="#fff"/><path d="M32.125 23.11a.046.046 0 00.04-.022l2.997-4.755a.047.047 0 00.01-.038.047.047 0 00-.04-.039.047.047 0 00-.05.026l-2.996 4.756a.047.047 0 00.014.066.048.048 0 00.025.007z" fill="#fff"/><path d="M32.125 23.111a.047.047 0 00.046-.05l-.172-4.529a.047.047 0 00-.048-.045.05.05 0 00-.033.015.047.047 0 00-.013.034l.175 4.53a.047.047 0 00.045.045z" fill="#fff"/><path d="M33.761 23.224a.05.05 0 00.017 0 .048.048 0 00.028-.062l-1.808-4.645a.05.05 0 00-.061-.027.048.048 0 00-.028.062l1.81 4.638a.045.045 0 00.042.034z" fill="#fff"/><path d="M31.95 18.579a.049.049 0 00.047-.04.048.048 0 00-.008-.036l-.926-1.254a.048.048 0 00-.079.004.047.047 0 00.003.052l.926 1.255a.049.049 0 00.038.019z" fill="#fff"/><path d="M31.951 18.578a.046.046 0 00.046-.034.047.047 0 00-.032-.059l-2.955-.842a.046.046 0 00-.037.004.048.048 0 00-.018.065c.006.011.016.02.028.023l2.955.843h.013z" fill="#fff"/><path d="M31.95 18.579a.048.048 0 00.047-.038l.477-2.233a.048.048 0 00-.036-.057.049.049 0 00-.036.007.047.047 0 00-.02.03l-.478 2.234a.047.047 0 00.037.056h.01z" fill="#fff"/><path d="M27.172 19.315h.007l4.779-.736a.048.048 0 00.04-.054.048.048 0 00-.054-.04l-4.779.732a.049.049 0 00-.031.019.046.046 0 00-.008.017.046.046 0 000 .018.046.046 0 00.046.044zm-1.928 2.23h.01l4.39-.965a.05.05 0 00.029-.021c.007-.01.01-.024.007-.036a.047.047 0 00-.057-.036l-4.389.966a.047.047 0 00.01.093v-.001z" fill="#fff"/><path d="M29.924 23.154h.005a.047.047 0 00.032-.018.046.046 0 00.01-.035l-.29-2.575a.05.05 0 00-.053-.041.047.047 0 00-.04.034.044.044 0 00-.002.019l.286 2.573a.048.048 0 00.052.043z" fill="#fff"/><path d="M29.923 23.153a.048.048 0 00.038-.075l-2.75-3.836a.048.048 0 00-.066-.011.048.048 0 00-.02.03.048.048 0 00.009.036l2.75 3.837a.046.046 0 00.04.02zm-.29-2.575h.012l1.385-.34a.048.048 0 00.027-.075.047.047 0 00-.05-.018l-1.385.341a.047.047 0 00-.035.058.046.046 0 00.046.034z" fill="#fff"/><path d="M31.485 21.725a.048.048 0 100-.095l-6.24-.18a.048.048 0 00-.048.046c0 .007.001.013.003.019a.046.046 0 00.043.03l6.24.18h.002zm-5.94 3.737h.015a.047.047 0 00.028-.025.048.048 0 00.002-.036l-1.846-5.314a.049.049 0 00-.06-.03.048.048 0 00-.03.06l1.846 5.315a.048.048 0 00.045.03zm.222-7.318c.01 0 .019-.003.027-.009l3.581-2.564a.048.048 0 00.012-.066.048.048 0 00-.067-.011l-3.582 2.564a.047.047 0 00-.01.066.046.046 0 00.039.02z" fill="#fff"/><path d="M25.767 18.144h.006l3.23-.404a.05.05 0 00.018-.005.05.05 0 00.024-.03.048.048 0 00-.005-.037.047.047 0 00-.03-.022.049.049 0 00-.02 0l-3.229.404a.047.047 0 00-.024.08.048.048 0 00.03.014z" fill="#fff"/><path d="M20.994 18.588l4.773-.444a.048.048 0 00.043-.052.048.048 0 00-.052-.043l-4.773.445a.05.05 0 00-.043.052.048.048 0 00.018.032.05.05 0 00.034.01zm-6.318 6.15a.046.046 0 00.047-.04l.8-4.751a.047.047 0 00-.009-.036.05.05 0 00-.03-.019.047.047 0 00-.054.039l-.8 4.752a.046.046 0 00.008.035.046.046 0 00.031.019h.007z" fill="#fff"/><path d="M16.624 24.57h.012a.049.049 0 00.035-.058l-1.15-4.589a.046.046 0 00-.021-.03.047.047 0 00-.036-.005.047.047 0 00-.03.022.046.046 0 00-.005.035l1.15 4.59c.002.01.008.02.016.026a.052.052 0 00.029.009z" fill="#fff"/><path d="M16.624 24.57a.047.047 0 00.048-.051.046.046 0 00-.01-.024l-2.858-3.79a.049.049 0 00-.067-.009.048.048 0 00-.009.067l2.859 3.788c.004.006.01.011.016.015a.046.046 0 00.021.005z" fill="#fff"/><path d="M22.485 25.787a.048.048 0 00.046-.037.048.048 0 00-.036-.057l-5.861-1.217a.049.049 0 00-.056.038.047.047 0 00.007.035.04.04 0 00.013.013c.005.004.01.006.017.007l5.86 1.212.01.006z" fill="#fff"/><path d="M22.152 27.555a.044.044 0 00.037-.017.046.046 0 00.01-.035.048.048 0 00-.006-.017l-2.07-3.914a.047.047 0 00-.063-.02.047.047 0 00-.02.064l2.07 3.914a.045.045 0 00.042.025z" fill="#fff"/><path d="M22.151 27.556a.046.046 0 00.042-.024.049.049 0 00-.003-.055.048.048 0 00-.014-.013l-5.53-2.983a.049.049 0 00-.07.037.047.047 0 00.025.046l5.528 2.987a.061.061 0 00.022.005z" fill="#fff"/><path d="M22.152 27.556a.047.047 0 00.046-.039l.334-1.77a.045.045 0 00-.008-.035.046.046 0 00-.03-.02.049.049 0 00-.055.038l-.334 1.77a.047.047 0 00.02.048c.006.003.012.006.018.007h.009zm2.264-.332h.015a.046.046 0 00.028-.023.046.046 0 00.001-.036l-1.194-3.548a.046.046 0 00-.06-.03.047.047 0 00-.03.06l1.195 3.545a.049.049 0 00.045.032zm3.888-1.874a.048.048 0 00.034-.012.05.05 0 000-.068l-1.958-2.003a.049.049 0 00-.052-.011.048.048 0 00-.027.062.05.05 0 00.01.015l1.958 2.004c.01.009.022.014.035.014z" fill="#fff"/><path d="M28.305 25.35a.047.047 0 00.045-.039.047.047 0 00-.03-.052l-5.082-1.672a.048.048 0 00-.061.03.048.048 0 00.03.06l5.082 1.672.016.002zm-4.61-5.204a.047.047 0 00.048-.042l.498-5.23c0-.006 0-.013-.002-.019a.048.048 0 00-.023-.028.049.049 0 00-.018-.005.049.049 0 00-.035.01.048.048 0 00-.016.033l-.495 5.228a.046.046 0 00.024.046.046.046 0 00.018.006l.001.002z" fill="#fff"/><path d="M23.695 20.146a.039.039 0 00.022-.005.049.049 0 00.022-.063l-1.482-2.973a.049.049 0 00-.063-.021.047.047 0 00-.027.046.04.04 0 00.005.018l1.48 2.972c.005.008.01.015.018.02a.047.047 0 00.025.006z" fill="#fff"/><path d="M25.767 18.144a.049.049 0 00.046-.034.046.046 0 00-.005-.036.047.047 0 00-.029-.023l-3.55-.97a.047.047 0 00-.024.091l3.549.971.013.001z" fill="#fff"/><path d="M22.218 17.174a.05.05 0 00.041-.024.049.049 0 00-.018-.065l-4.211-2.352a.048.048 0 00-.066.017.048.048 0 00.018.065l4.213 2.353a.046.046 0 00.023.006zm-1.072-1.87a.05.05 0 00.028-.008l4.141-2.795a.049.049 0 00.013-.066.048.048 0 00-.066-.012l-4.144 2.794a.048.048 0 00-.012.066c.004.006.01.012.017.016a.046.046 0 00.023.005z" fill="#fff"/><path d="M20.354 13.444h.008l4.94-.934a.048.048 0 00.038-.055.045.045 0 00-.036-.038.044.044 0 00-.019 0l-4.94.934a.048.048 0 00-.023.082c.009.008.02.012.032.012zm7.216.636h.006l3.03-.348a.048.048 0 00.024-.084.046.046 0 00-.035-.01l-3.03.348a.047.047 0 00-.04.033.048.048 0 00.014.049.05.05 0 00.031.013zm1.426 3.66a.047.047 0 00.04-.023.047.047 0 00-.016-.065l-4.8-2.827a.048.048 0 00-.068.015.047.047 0 00.005.055c.005.005.01.009.016.012l4.799 2.827a.05.05 0 00.024.006zm-5.301 2.406h.01l3.475-.833a.046.046 0 00.035-.056.05.05 0 00-.057-.036l-3.475.833a.047.047 0 00.011.093zm-.472 3.534a.05.05 0 00.034-.015l2.025-2.134a.048.048 0 00.013-.034.047.047 0 00-.048-.046.047.047 0 00-.034.014L23.188 23.6a.048.048 0 00-.014.034.048.048 0 00.014.034c.01.008.022.013.035.013zm-1.227-1.221a.05.05 0 00.047-.045l.222-5.285a.048.048 0 00-.045-.05.048.048 0 00-.048.046l-.222 5.285a.048.048 0 00.046.049z" fill="#fff"/><path d="M22.485 25.787h.008a.047.047 0 00.039-.035.047.047 0 000-.018l-.49-3.333a.044.044 0 00-.034-.039.045.045 0 00-.019 0 .047.047 0 00-.04.054l.49 3.332a.047.047 0 00.016.028c.008.007.02.011.03.011zm2.759-4.242a.048.048 0 00.036-.016l1.924-2.232a.047.047 0 10-.072-.061l-1.924 2.231a.046.046 0 00-.011.024.047.047 0 00.047.054z" fill="#fff"/><path d="M27.173 19.314a.048.048 0 00.047-.047V15.1a.048.048 0 00-.095 0v4.167a.047.047 0 00.048.047zm-1.406-1.17a.05.05 0 00.043-.051l-.476-5.634a.049.049 0 00-.048-.044.046.046 0 00-.017.005.047.047 0 00-.026.046l.476 5.635a.048.048 0 00.048.043z" fill="#fff"/><path d="M27.172 15.145h.018l3.429-1.413a.048.048 0 00.026-.063.048.048 0 00-.062-.026l-3.43 1.414a.047.047 0 00-.024.026.047.047 0 000 .036c.003.008.01.015.017.02a.046.046 0 00.026.006zm1.824 2.595a.05.05 0 00.04-.022l2.845-4.544a.047.047 0 00-.002-.053.047.047 0 00-.067-.011.047.047 0 00-.012.014l-2.84 4.546a.046.046 0 00.016.064.044.044 0 00.02.005zM17.54 19.778c.006 0 .011 0 .017-.003a.045.045 0 00.015-.009l2.58-2.298a.047.047 0 00-.017-.077.048.048 0 00-.052.01L17.501 19.7a.047.047 0 00.005.073.047.047 0 00.026.008l.008-.003zm-.093 1.957a.05.05 0 00.05-.049.047.047 0 00-.014-.033l-1.972-1.755a.048.048 0 00-.08.038.052.052 0 00.016.033l1.97 1.755c.008.007.02.011.03.01zm15.218 13.1a6.458 6.458 0 01-3.494-1.027.714.714 0 01-.35-.642c0-.354.234-.855.7-1.504a.692.692 0 01.624-.31c.32 0 .694.128 1.122.384.6.343 1.11.514 1.527.513.748 0 1.121-.147 1.121-.44 0-.121-.116-.225-.35-.311a4.321 4.321 0 00-.881-.202 5.415 5.415 0 01-1.15-.303 6.47 6.47 0 01-1.149-.56 2.446 2.446 0 01-.883-1.035 3.745 3.745 0 01-.349-1.679c0-1.93 1.33-2.896 3.99-2.896.93.013 1.845.225 2.685.622.43.195.644.465.643.807 0 .245-.128.575-.386.99-.281.441-.563.66-.845.66a1.672 1.672 0 01-.626-.183 3.554 3.554 0 00-1.49-.366c-.723 0-1.084.134-1.084.404 0 .196.12.351.358.467.285.13.59.21.902.238.395.051.786.134 1.167.249.401.116.792.266 1.168.448.385.201.7.515.9.899.24.422.36.939.36 1.55 0 .66-.12 1.213-.36 1.659a2.26 2.26 0 01-1.012.99 5.22 5.22 0 01-1.323.45c-.507.09-1.02.133-1.535.128zm5.878-.67a.764.764 0 10.002-1.529.764.764 0 00-.002 1.53z" fill="#fff"/></svg>