<svg width="199" height="182" viewBox="0 0 199 182" fill="whtite"
     xmlns="http://www.w3.org/2000/svg">
  <path d="M11.244 106.646c.111 0 .223 0 .223-.111.223-.11.223-.442 0-.553L1.664 94.804c-.11-.111-.445-.222-.556 0a.313.313 0 000 .553l9.802 11.178c.111.111.223.111.334.111z" fill="#294FD5"/>
  <path d="M1.442 95.466c.222 0 .334-.11.445-.332l2.117-22.246c0-.221-.112-.443-.335-.443-.222 0-.445.111-.445.332L.996 95.134c0 .11.111.332.446.332zm11.362-40.728c.111 0 .334-.11.334-.221l5.792-13.614c.112-.22 0-.442-.223-.553-.222-.11-.445 0-.557.221l-5.792 13.614c-.111.221 0 .442.223.553h.223zm26.622-31.765h.223l19.827-11.621c.223-.11.223-.332.111-.553-.11-.222-.334-.222-.556-.111l-19.828 11.51c-.223.111-.223.332-.111.554.111.11.223.221.334.221z" fill="#294FD5"/>
  <path d="M18.596 41.235c.11 0 .222 0 .222-.11L39.76 22.863a.313.313 0 000-.554c-.112-.11-.446-.22-.557 0L18.26 40.461a.313.313 0 000 .553c.112.11.223.221.335.221zM3.558 73.33c.111 0 .334-.11.334-.22l9.246-18.484c.111-.221 0-.443-.223-.553-.223-.111-.446 0-.557.221L3.224 72.667c-.112.22 0 .442.223.553 0 .11 0 .11.111.11zM78.19 181.352c.222 0 .445-.221.445-.442l-1.67-15.717c0-.221-.224-.332-.446-.332-.223 0-.334.222-.334.443l1.67 15.716c0 .111.112.332.335.332z" fill="#294FD5"/>
  <path d="M76.519 165.525c.222 0 .334-.11.334-.221l5.792-17.266c.111-.221 0-.442-.223-.553-.222-.111-.445 0-.557.221l-5.792 17.266c-.111.221 0 .443.223.553h.223z" fill="#294FD5"/>
  <path d="M82.31 148.259c.224 0 .447-.221.447-.443l-1.226-12.285c0-.221-.223-.332-.445-.332-.223 0-.335.222-.335.443l1.226 12.285c-.112.111.111.332.334.332zm-32.413-14.387l24.84-3.431c.223 0 .334-.222.334-.443s-.223-.332-.446-.332l-24.84 3.431c-.222 0-.334.221-.334.443 0 .221.223.332.446.332z" fill="#294FD5"/>
  <path d="M81.086 135.975c.111 0 .223 0 .334-.111.111-.221.111-.442 0-.553l-6.46-5.423c-.223-.111-.446-.111-.558 0-.111.221-.111.442 0 .553l6.461 5.423s.111.111.223.111zm-31.19-2.102c.112 0 .223 0 .223-.111.223-.11.223-.332.111-.553l-22.166-28.555c-.112-.221-.334-.221-.557-.111-.223.111-.223.332-.112.554l22.056 28.665c.111.111.222.111.445.111z" fill="#294FD5"/>
  <path d="M11.244 106.646l16.486-1.328c.222 0 .334-.222.334-.443s-.112-.443-.446-.332l-16.485 1.328c-.223 0-.335.222-.335.443.112.221.223.332.446.332zm48.12-95.294h.223l18.937-9.519c.111-.11.222-.332.111-.553-.111-.221-.334-.221-.557-.221l-18.936 9.518c-.223.11-.223.332-.223.553.111.11.223.222.446.222zm41.772-7.858l22.055-2.213c.223 0 .334-.222.334-.443s-.222-.443-.445-.332L101.025 2.72c-.223 0-.335.22-.335.442.112.11.335.332.446.332z" fill="#294FD5"/>
  <path d="M101.136 3.494c.223 0 .334-.111.446-.333 0-.22-.112-.442-.335-.442l-22.946-1.66c-.223 0-.445.11-.445.332 0 .221.11.442.334.442l22.946 1.661zm55.584 5.755c.222 0 .334-.11.334-.332 0-.222-.112-.443-.334-.443L123.302.394c-.222-.11-.445.111-.445.333 0 .221.111.442.334.442l33.529 8.08c-.112 0-.112 0 0 0zm41.325 55.339c.112 0 .223 0 .335-.11.111-.222.111-.443 0-.554l-13.59-11.732c-.111-.11-.446-.11-.557 0-.111.222-.111.443 0 .554l13.59 11.732c0 .11.111.11.222.11z" fill="#294FD5"/>
  <path d="M172.76 18.878c.111 0 .223-.11.334-.221.111-.222 0-.443-.111-.554l-16.041-9.518c-.222-.11-.445 0-.557.11-.111.222.001.443.112.554l16.04 9.518s.111.11.223.11z" fill="#294FD5"/>
  <path d="M183.119 31.938c.112 0 .223 0 .223-.11.223-.111.223-.333.111-.554l-10.359-13.17c-.111-.222-.446-.222-.557-.111-.223.11-.223.332-.111.553l10.359 13.17c.111.222.223.222.334.222z" fill="#294FD5"/>
  <path d="M184.456 52.855c.222 0 .445-.221.445-.443l-1.448-20.918c0-.221-.223-.332-.445-.332-.223 0-.335.222-.335.443l1.337 20.807c.111.222.223.443.446.443zm-11.473 41.062c.111 0 .222-.11.334-.221l7.574-11.4c.112-.221.112-.443-.111-.553-.223-.111-.446-.112-.557.11l-7.575 11.4c-.111.221-.111.443.112.553 0 .111.111.111.223.111z" fill="#294FD5"/>
  <path d="M172.983 93.917c.222 0 .334-.11.445-.331 0-.221-.111-.443-.334-.443l-13.812-.885c-.223 0-.446.11-.446.332 0 .221.111.442.334.442l13.813.885z" fill="#294FD5"/>
  <path d="M140.457 93.364l18.713-.332c.223 0 .446-.221.446-.443 0-.221-.223-.442-.446-.442l-18.713.331c-.223 0-.446.222-.446.443 0 .222.223.443.446.443zm-42.44 55.117c.223 0 .334-.11.446-.332l1.893-9.739c0-.222-.111-.443-.334-.443-.223 0-.445.11-.445.332l-1.894 9.739c-.112.222 0 .443.334.443z" fill="#294FD5"/>
  <path d="M99.911 138.742c.111 0 .334-.111.334-.221l7.463-16.934c.111-.221 0-.443-.223-.553-.223-.111-.445 0-.557.221l-7.463 16.934c-.111.221 0 .442.223.553h.223zm26.844-26.896c.112 0 .223-.11.335-.11l13.701-18.594c.111-.222.111-.443-.112-.554-.223-.11-.445-.11-.557.111l-13.701 18.594c-.111.221-.111.443.112.553h.222z" fill="#294FD5"/>
  <path d="M107.374 121.808h.223l19.27-9.961c.223-.111.223-.332.223-.553-.112-.222-.334-.222-.557-.222l-19.271 9.961c-.222.111-.222.332-.222.554.111.221.222.221.334.221zm-20.83 55.672c.111 0 .334-.111.334-.222l11.473-28.997c.112-.221 0-.443-.222-.554-.223-.11-.446 0-.557.222l-11.474 28.997c-.111.222 0 .443.223.554h.223z" fill="#294FD5"/>
  <path d="M78.19 181.352l.11.001 8.355-3.763c.223-.111.334-.332.223-.554-.112-.221-.334-.332-.557-.221l-8.354 3.763c-.223.111-.335.332-.223.553.111.111.334.221.446.221zm101.116-98.675c.111 0 .223 0 .334-.11l17.488-17.93c.112-.111.112-.443 0-.554-.111-.11-.445-.11-.557 0l-17.488 17.93c-.111.11-.111.442 0 .553.112 0 .223.11.223.11z" fill="#294FD5"/>
</svg>
