<svg width="198" height="182" viewBox="0 0 198 182" fill="none" xmlns="http://www.w3.org/2000/svg">
  <defs/>
  <defs/>
  <defs/>
  <path fill-rule="evenodd" clip-rule="evenodd" d="M.952 94.7l2.11-22.177v-.002l9.134-18.26a.427.427 0 00.038-.109.36.36 0 00.004-.099l5.666-13.317 20.788-18.128h.015l19.827-11.62h.111l18.895-9.5 22.641 1.64h.013a.585.585 0 00.111-.01l.002-.001L122.249.916a.282.282 0 00.187-.067l33.062 7.968a.66.66 0 00.057.067l16.04 9.518s.013.013.035.03a.44.44 0 00.1.061l10.002 12.717-.001.03 1.337 20.807.03.06c.055.107.113.21.185.282l.005.004a.409.409 0 00.096.069l13.224 11.415-17 17.43a.416.416 0 00-.046-.002.295.295 0 00-.223.097.368.368 0 00-.057.085l-.012.018-.003.005-7.472 11.245-.317-.02h-.003l-12.957-.83a.48.48 0 00-.172-.103l-.006-.002a.407.407 0 00-.112-.018l-18.713.331h-.015a.468.468 0 00-.321.17l-.025.032-.003.004a.486.486 0 00-.071.151l-13.468 18.278h-.021l-19.132 9.889-.027-.005a.355.355 0 00-.149.003l-.001.001a.281.281 0 00-.056.018.466.466 0 00-.235.227l-.005.009-7.463 16.934a.536.536 0 00-.037.11.358.358 0 00.03.222.415.415 0 00.059.09l-1.783 9.165-.004.003a.51.51 0 00-.158.191l-11.474 28.997-.009.02a.365.365 0 00.002.312.415.415 0 00.065.098c-.522.246-1.154.543-1.824.855a156.363 156.363 0 01-3.786 1.713 44.25 44.25 0 01-.572.241l-.002.001-.184.075a15.92 15.92 0 01-.623.231 4.588 4.588 0 00-.55.21l-1.65-15.53a.282.282 0 00-.03-.131l5.682-16.941a.43.43 0 00.058-.068l.003-.004a.404.404 0 00.08-.233l-1.227-12.285a.283.283 0 00-.106-.224l-.002-.002a.354.354 0 00-.054-.037l-.003-.003-6.295-5.284a.28.28 0 00-.055-.154l-.002-.002a.304.304 0 00-.05-.052.484.484 0 00-.227-.097.636.636 0 00-.107-.01h-.005l-24.516 3.387-.212-.273v-.001l-21.833-28.125a.396.396 0 00-.029-.049c-.075-.108-.183-.144-.305-.132a.84.84 0 00-.067.012l-.048.014-.01.003a.837.837 0 00-.098.041l-.01.006-.01.005-16.133 1.299-9.46-10.787zm-.786.292H.165a.318.318 0 01-.16-.223l-.001-.005a.313.313 0 01.077-.258l2.182-21.9a.36.36 0 01-.019-.194l.001-.004.003-.014a.409.409 0 01.034-.092l9.091-18.286a.358.358 0 01.025-.154v-.002a.424.424 0 01.018-.04l5.739-13.488a.312.312 0 01.042-.12l.005-.009a.322.322 0 01.03-.04l.005-.007a.542.542 0 01.067-.086.425.425 0 01.17-.11l20.603-17.856a.293.293 0 01.121-.232.382.382 0 01.057-.036l.006-.003 19.787-11.486a.338.338 0 01.03-.042l.002-.001a.333.333 0 01.082-.07.439.439 0 01.038-.022L77.136.694h.057a2.591 2.591 0 01.111.002.673.673 0 01.055-.002l22.823 1.651L121.978.157a.379.379 0 01.149-.132.26.26 0 01.233.004l33.418 8.08a.29.29 0 01.174.056l.02.017c.011.01.022.02.031.032l.013.015 15.727 9.332a.443.443 0 01.312.066.274.274 0 01.052.046l.01.01a.322.322 0 01.035.056l10.359 13.17c.015.03.028.06.039.089a.558.558 0 01.032.126v.005a.332.332 0 01-.003.111.287.287 0 01-.052.121l1.411 20.374v.002l.012.178 13.488 11.644a.204.204 0 01.019.02c.091.116.086.32-.015.528l-.003.006a.247.247 0 01-.055.094l-17.488 17.93-.004.004a.348.348 0 01-.139.085l-1.17 1.761-.002.003-6.097 9.177a.482.482 0 01.002.054 1.658 1.658 0 01-.076.133l-.001.001-.004.006a.594.594 0 01-.067.08.37.37 0 01-.235.108.584.584 0 01-.062.003c-.047 0-.095 0-.134-.008l-13.679-.877-18.54.33-13.54 18.374a.216.216 0 00-.068.012.328.328 0 01-.104.11.311.311 0 01-.051.03l-19.27 9.961h-.004l-7.247 16.444v.006a.694.694 0 01.01.111l-1.893 9.739a1.257 1.257 0 01-.082.141l-.013.019-.001.001a.92.92 0 01-.034.041l-.001.001-11.335 28.646.458-.218.022-.01.042-.02c.066-.033.144-.265.22-.574.178-.729.348-1.888.348-1.888.078.155.041 1.626-.064 2.532a5.03 5.03 0 01-.076.479.755.755 0 01-.061.188l-.008.013a.071.071 0 01-.025.025l-8.24 4.402-.005.002-.166.089H78l-.037-.001a1.832 1.832 0 01-.243-.03c-.183-.035-.384-.107-.37-.253a2.181 2.181 0 01-.132-.086c-.296-.206-.511-.455-.305-.628l-1.652-15.552a.463.463 0 01-.144-.179.354.354 0 01-.011-.255.426.426 0 01.025-.062l5.792-17.266a.54.54 0 01.078-.117l-1.178-11.807-6.315-5.301-.092.012-.01.002-24.272 3.352c-.042.026-.11.026-.178.026h-.006l-.107-.001c-.135-.002-.222-.015-.303-.082a.373.373 0 01-.03-.028l-21.877-28.431-16.184 1.303c-.041.012-.094.012-.147.012h-.048l-.057-.003-.006-.001a.35.35 0 01-.223-.107L.166 94.992zM171.818 18.18l.033-.032-.033.032z" fill="#D86161"/>
</svg>
